<svg width="36" height="40" viewBox="0 0 36 40" fill="none" xmlns="http://www.w3.org/2000/svg">
<path d="M1.00182 24.3609V25.0447H5.36724V24.2778C5.36724 20.7476 5.36451 17.2175 5.3686 13.6873C5.37133 11.8479 6.50598 10.7364 8.38798 10.7297C10.4555 10.7216 13.0875 10.7257 15.155 10.7297C14.3285 11.51 13.5389 12.5115 12.8393 13.1712C13.869 14.1848 14.8713 15.1689 15.755 16.039C18.2751 13.5628 20.8658 11.0159 23.3508 8.57284L23.3635 8.56039L15.6732 1C14.7404 1.91438 13.7462 2.89043 12.6116 4.00324C13.4203 4.7755 14.2522 5.57056 15.155 6.43399C12.8066 6.43399 10.5618 6.4246 8.31706 6.43533C4.09621 6.4541 1.00727 9.49622 1.00182 13.6364C0.997727 17.2108 1.00182 20.7865 1.00182 24.3609Z" stroke="white"/>
<path d="M34.9982 15.817V15.1332H30.6328V15.9002C30.6328 19.4303 30.6355 22.9604 30.6314 26.4906C30.6287 28.3301 29.494 29.4415 27.612 29.4482C25.5445 29.4563 22.9125 29.4523 20.845 29.4483C21.6714 28.6679 22.4611 27.6664 23.1607 27.0068C22.131 25.9932 21.1287 25.0091 20.2449 24.139C17.7249 26.6151 15.1342 29.1621 12.6492 31.6051L12.6365 31.6176L20.3268 39.1779C21.2596 38.2636 22.2538 37.2875 23.3884 36.1747C22.5797 35.4024 21.7478 34.6074 20.845 33.744C23.1934 33.744 25.4382 33.7533 27.6829 33.7426C31.9038 33.7238 34.9927 30.6817 34.9982 26.5415C35.0023 22.9672 34.9982 19.3914 34.9982 15.817Z" stroke="white"/>
</svg>
