<svg width="21" height="33" viewBox="0 0 21 33" fill="none" xmlns="http://www.w3.org/2000/svg">
<path d="M19.32 25.5499C18.63 26.6699 17.63 27.5799 16.29 28.2899C14.96 28.9999 13.37 29.3899 11.55 29.4599V32.3799H9.24004V29.4199C6.69004 29.1999 4.64004 28.4399 3.07004 27.1299C1.51004 25.8199 0.680039 24.0399 0.580039 21.7799H7.14004C7.28004 23.2199 7.98004 24.1499 9.23004 24.5599V18.8599C7.35004 18.3799 5.86004 17.9099 4.74004 17.4499C3.62004 16.9899 2.64004 16.2599 1.80004 15.2499C0.960039 14.2399 0.540039 12.8599 0.540039 11.0999C0.540039 8.90994 1.35004 7.15994 2.97004 5.83994C4.59004 4.51994 6.68004 3.76994 9.23004 3.59994V0.689941H11.54V3.60994C14.06 3.79994 16.06 4.53994 17.53 5.80994C19 7.07994 19.81 8.84994 19.98 11.1099H13.38C13.24 9.80994 12.62 8.96994 11.54 8.58994V14.1799C13.54 14.7299 15.07 15.2299 16.16 15.6599C17.24 16.0899 18.21 16.8099 19.06 17.8099C19.91 18.8099 20.34 20.1699 20.34 21.8999C20.34 23.2199 20 24.4399 19.31 25.5599L19.32 25.5499ZM7.64004 12.3299C8.01004 12.7399 8.55004 13.0999 9.25004 13.4099V8.39994C8.58004 8.51994 8.05004 8.77994 7.66004 9.17994C7.28004 9.57994 7.08004 10.1199 7.08004 10.8199C7.08004 11.4199 7.27004 11.9299 7.64004 12.3299ZM13.27 23.7999C13.69 23.3399 13.9 22.7799 13.9 22.1099C13.9 21.4899 13.7 20.9699 13.3 20.5799C12.9 20.1899 12.32 19.8399 11.55 19.5499V24.6699C12.27 24.5499 12.84 24.2599 13.26 23.7999H13.27Z" stroke="white" stroke-width="0.89"/>
</svg>
