<svg width="35" height="33" viewBox="0 0 35 33" fill="none" xmlns="http://www.w3.org/2000/svg">
<path d="M22.6602 27.35H22.2102C18.8402 27.2 15.8802 25.45 14.0402 22.78H31.2102L30.8802 22.07L28.7802 17.53L28.6502 17.24H12.1402C12.1302 17.02 12.1202 16.8 12.1202 16.57C12.1202 16.18 12.1402 15.79 12.1802 15.43H27.8202L27.4902 14.72L25.4102 10.21L25.2802 9.91998H14.4102C16.3302 7.44998 19.3102 5.86998 22.6602 5.86998C25.8002 5.86998 28.6202 7.26998 30.5602 9.49998L31.4202 10.49V9.16998L31.4902 3.98998V3.41998L31.2702 3.26998C28.6702 1.50998 25.5502 0.47998 22.1902 0.47998H22.1402C22.1102 0.47998 22.0802 0.47998 22.0502 0.47998C15.5902 0.47998 10.0102 4.30998 7.38021 9.93998H1.43021L1.76021 10.65L3.84021 15.16L3.97021 15.45H6.06021C6.04021 15.79 6.03022 16.13 6.02022 16.47V17.23H1.22021L1.55021 17.94L3.65021 22.48L3.78021 22.77H7.25021C9.81021 28.5 15.5202 32.49 22.1502 32.49C26.4902 32.49 30.4402 30.78 33.3502 28L33.6102 27.75L33.4602 27.43L31.6602 23.52L31.3202 22.78L30.8102 23.42V23.44C28.8702 25.83 25.9402 27.35 22.6602 27.35Z" stroke="white"/>
</svg>
