<svg width="35" height="35" viewBox="0 0 35 35" fill="none" xmlns="http://www.w3.org/2000/svg">
<path d="M17.0964 0C13.6964 0 10.3964 1 7.5964 2.9C4.7964 4.8 2.5964 7.5 1.2964 10.6C-0.00360441 13.8 -0.303605 17.2 0.296396 20.6C0.896396 24 2.4964 27 4.8964 29.4C7.2964 31.8 10.3964 33.5 13.6964 34.1C16.9964 34.8 20.4964 34.4 23.5964 33.1C26.6964 31.8 29.3964 29.6 31.2964 26.7C33.1964 23.9 34.1964 20.5 34.1964 17.1C34.1964 12.5 32.3964 8.1 29.1964 4.9C25.9964 1.8 21.5964 0 17.0964 0ZM1.0964 17.9H6.3964C6.3964 20.3 6.7964 22.7 7.4964 25H3.0964C1.8964 22.8 1.1964 20.3 1.0964 17.9ZM17.6964 8.3V1.3C20.6964 1.6 23.2964 4.3 24.8964 8.3H17.6964ZM25.2964 9.5C25.9964 11.8 26.3964 14.2 26.4964 16.6H17.6964V9.5H25.2964ZM16.3964 1.3V8.3H9.1964C10.7964 4.3 13.4964 1.6 16.3964 1.3ZM16.3964 9.5V16.6H7.5964C7.5964 14.2 7.9964 11.8 8.7964 9.5H16.3964ZM6.3964 16.6H1.0964C1.1964 14.1 1.8964 11.7 3.0964 9.5H7.4964C6.7964 11.8 6.4964 14.2 6.3964 16.6ZM7.5964 17.9H16.3964V25H8.7964C8.0964 22.7 7.6964 20.3 7.5964 17.9ZM16.3964 26.2V33.2C13.3964 32.9 10.7964 30.2 9.1964 26.2H16.3964ZM17.6964 33.2V26.1H24.8964C23.2964 30.2 20.6964 32.9 17.6964 33.2ZM17.6964 24.9V17.8H26.4964C26.4964 20.2 26.0964 22.6 25.2964 24.9H17.6964ZM27.6964 17.9H32.9964C32.8964 20.4 32.1964 22.8 30.9964 25H26.5964C27.2964 22.6 27.6964 20.3 27.6964 17.9ZM27.6964 16.6C27.6964 14.2 27.2964 11.8 26.5964 9.5H30.9964C32.1964 11.7 32.8964 14.1 32.9964 16.6H27.6964ZM30.2964 8.3H26.1964C25.7964 7.2 25.2964 6.2 24.6964 5.2C23.9964 4 23.1964 3 22.1964 2.1C25.4964 3.2 28.2964 5.4 30.2964 8.3ZM11.8964 2.1C10.9964 3 10.0964 4 9.3964 5.2C8.7964 6.2 8.2964 7.2 7.8964 8.3H3.7964C5.7964 5.4 8.5964 3.2 11.8964 2.1ZM3.7964 26.2H7.8964C8.2964 27.3 8.7964 28.3 9.3964 29.3C10.0964 30.4 10.8964 31.5 11.8964 32.4C8.5964 31.3 5.7964 29.1 3.7964 26.2ZM22.1964 32.4C23.1964 31.5 23.9964 30.5 24.6964 29.3C25.2964 28.3 25.7964 27.2 26.1964 26.2H30.2964C28.2964 29.1 25.4964 31.3 22.1964 32.4Z" fill="white"/>
</svg>
