<svg width="35" height="33" viewBox="0 0 35 33" fill="none" xmlns="http://www.w3.org/2000/svg">
<path d="M30.7954 23.4456L30.8091 23.4281L31.3145 22.7843L31.6566 23.5278L33.4542 27.4345L33.6035 27.7588L33.3451 28.0053C30.4277 30.7881 26.4822 32.5 22.1417 32.5C15.513 32.5 9.81037 28.5097 7.24647 22.782H4.0992H3.77952L3.64536 22.4918L1.54616 17.9516L1.21796 17.2418H2H6.02305L6.02305 16.4864L6.02305 16.4845C6.02439 16.1398 6.03654 15.7989 6.05919 15.4612H4.28483H3.9647L3.83072 15.1705L1.75474 10.6654L1.42791 9.95617H2.20885H7.38453C10.0146 4.3318 15.5867 0.5 22.0505 0.5L22.0725 0.500002C22.0937 0.50001 22.1156 0.500038 22.1376 0.50016L22.1378 0.50017L22.1892 0.500055H22.1902C25.5511 0.500055 28.6759 1.52657 31.2734 3.28591L31.4931 3.43465V3.69989V4H31.4931L31.493 4.00554L31.4357 9.18288L31.4211 10.4994L30.5581 9.50508C28.6225 7.27493 25.8023 5.87845 22.6609 5.87845C19.3165 5.87845 16.3355 7.46184 14.4125 9.93268H24.963H25.2831L25.4171 10.2234L27.4931 14.7285L27.8199 15.4377H27.039H12.1819C12.1446 15.7949 12.1239 16.1813 12.1239 16.5737C12.1239 16.798 12.1307 17.0207 12.144 17.2416H28.3146H28.6343L28.7684 17.5318L30.8676 22.0721L31.1958 22.7819H30.4138H14.0288C15.8699 25.4502 18.8318 27.2062 22.2011 27.3559L22.2012 27.3546H22.6552H22.662C25.9407 27.3546 28.8694 25.8332 30.7954 23.4456ZM4.0992 22.282L2.23118 18.2418H2V17.7418L2.45384 17.5319L2.55086 17.7418H6.02305L4.0992 22.282ZM6.52305 16.4864C6.52439 16.1409 6.53694 15.7993 6.56035 15.4612L6.52305 16.4864ZM4.28483 14.9612L2.43925 10.9562H2.20885V10.4562L2.66295 10.2469L2.75938 10.4562H7.70607C10.2012 4.84014 15.6825 1 22.0505 1C22.0779 1 22.1054 0.999998 22.1328 1.00014L4.28483 14.9612Z" stroke="white"/>
</svg>
