<svg width="198" height="236" viewBox="0 0 198 236" fill="none" xmlns="http://www.w3.org/2000/svg">
<path opacity="0.8" d="M0.349783 122.004C0.349783 122.004 7.14851 46.9659 21.7117 55.4065C36.2749 63.8341 29.2444 107.336 44.3484 116.06C59.2206 124.642 51.1213 -8.1806 73.5649 4.76326C89.6732 14.0659 84.5227 114.941 98.9056 123.24C115.053 132.555 110.43 94.5468 124.736 96.271C132.951 97.2617 137.264 121.94 148.905 127.511C160.545 133.082 154.995 26.1734 173.421 36.8013C192.066 47.5578 197.448 235.823 197.448 235.823L0.336914 122.004H0.349783Z" fill="#6EE1F8"/>
<path d="M22.3554 54.6988C22.3554 56.4101 20.9648 57.7868 19.2651 57.7868C17.5654 57.7868 16.1748 56.3972 16.1748 54.6988C16.1748 53.0004 17.5654 51.6108 19.2651 51.6108C20.9648 51.6108 22.3554 53.0004 22.3554 54.6988Z" fill="white"/>
<path d="M73.7065 3.8756C73.7065 5.58686 72.3159 6.9636 70.6162 6.9636C68.9165 6.9636 67.5259 5.574 67.5259 3.8756C67.5259 2.1772 68.9165 0.787598 70.6162 0.787598C72.3159 0.787598 73.7065 2.1772 73.7065 3.8756Z" fill="white"/>
<path d="M127.414 96.0394C127.414 97.7507 126.023 99.1274 124.324 99.1274C122.624 99.1274 121.233 97.7378 121.233 96.0394C121.233 94.341 122.624 92.9514 124.324 92.9514C126.023 92.9514 127.414 94.341 127.414 96.0394Z" fill="white"/>
<path d="M174.104 35.7462C174.104 37.4575 172.713 38.8342 171.013 38.8342C169.314 38.8342 167.923 37.4446 167.923 35.7462C167.923 34.0478 169.314 32.6582 171.013 32.6582C172.713 32.6582 174.104 34.0478 174.104 35.7462Z" fill="white"/>
</svg>
