<svg width="591" height="361" viewBox="0 0 591 361" fill="none" xmlns="http://www.w3.org/2000/svg">
<path opacity="0.6" d="M239.011 359.7L99.7662 279.361C96.4441 277.444 96.869 274.099 100.693 271.885L383.832 108.543C387.669 106.33 393.463 106.086 396.786 108.003L536.031 188.342C539.353 190.259 538.928 193.605 535.104 195.818L251.965 359.16C248.128 361.373 242.333 361.618 239.011 359.7Z" fill="#0C0F38" fill-opacity="0.3"/>
<path d="M538.258 158.955L531.163 163.214L396.773 85.6793C393.451 83.7622 387.656 84.0066 383.819 86.2197L105.136 246.989L97.5127 243.579V253.95C97.5771 255.095 98.311 256.201 99.7403 257.025L238.985 337.364C242.308 339.281 248.102 339.037 251.939 336.824L535.078 173.481C537.228 172.233 538.31 170.638 538.245 169.132V158.955H538.258Z" fill="url(#paint0_linear_71_19)"/>
<path d="M105.136 247.002L97.5127 243.592V253.962C97.5771 255.108 98.311 256.214 99.7403 257.038L100.036 257.205C99.6244 256.664 99.4055 256.073 99.3669 255.468V245.097L106.99 248.507L117.754 242.292C117.265 241.713 116.763 241.134 116.235 240.581L105.123 246.989L105.136 247.002Z" fill="#D4088C"/>
<path d="M531.163 163.214L465.198 125.154C464.528 125.592 463.871 126.016 463.202 126.454L529.374 164.629L536.468 160.37V170.548C536.507 171.5 536.095 172.478 535.245 173.391C537.305 172.156 538.336 170.599 538.271 169.132V158.955L531.176 163.214H531.163Z" fill="#6EE8FC"/>
<path d="M239.011 327.109L99.7662 246.77C96.4441 244.853 96.869 241.507 100.693 239.294L383.832 75.9521C387.669 73.7391 393.463 73.4946 396.786 75.4117L536.031 155.751C539.353 157.668 538.928 161.014 535.104 163.227L251.965 326.569C248.128 328.782 242.333 329.027 239.011 327.109Z" fill="url(#paint1_linear_71_19)"/>
<path d="M240.93 327.109L101.685 246.77C98.3626 244.853 98.7875 241.507 102.612 239.294L385.75 75.9519C387.605 74.884 389.91 74.2921 392.176 74.1635C389.343 73.9705 386.201 74.5881 383.832 75.9519L100.693 239.294C96.856 241.507 96.444 244.853 99.7661 246.77L239.011 327.109C240.724 328.1 243.106 328.499 245.54 328.37C243.814 328.254 242.192 327.843 240.943 327.109H240.93Z" fill="#D4088C"/>
<path d="M536.018 155.751L396.773 75.4116C395.06 74.4208 392.678 74.022 390.257 74.1506C392.008 74.2664 393.644 74.6782 394.919 75.4116L534.164 155.751C537.486 157.668 537.061 161.013 533.237 163.227L250.098 326.569C248.244 327.637 245.939 328.229 243.673 328.357C246.493 328.537 249.596 327.933 251.965 326.569L535.104 163.227C538.941 161.013 539.353 157.668 536.031 155.751H536.018Z" fill="#6EE8FC"/>
<path d="M254.888 322.169L108.316 237.609L379.184 81.3433L525.743 165.903L254.888 322.169Z" fill="url(#paint2_radial_71_19)"/>
<path d="M269.85 293.167L158.598 228.975L364.208 110.357L475.473 174.536L269.85 293.167Z" fill="url(#paint3_linear_71_19)"/>
<path d="M466.086 124.884L450.287 115.762C449.695 115.414 449.759 114.822 450.454 114.423C451.15 114.025 452.18 113.986 452.785 114.333L468.584 123.456C469.177 123.803 469.112 124.395 468.417 124.794C467.734 125.193 466.691 125.231 466.086 124.884Z" fill="url(#paint4_radial_71_19)"/>
<path opacity="0.8" d="M245.939 250.012L223.663 237.171L231.453 232.668L253.729 245.522L245.939 250.012Z" fill="#6EE1F8"/>
<path opacity="0.8" d="M259.807 242.125L237.543 229.271L245.334 224.781L267.597 237.622L259.807 242.125Z" fill="#D4088C"/>
<path opacity="0.8" d="M231.35 137.004C231.35 137.004 238.149 61.9659 252.712 70.4065C267.275 78.8341 260.244 122.336 275.348 131.06C290.221 139.642 282.121 6.8194 304.565 19.7633C320.673 29.0659 315.523 129.941 329.906 138.24C346.053 147.555 341.43 109.547 355.736 111.271C363.951 112.262 368.264 136.94 379.905 142.511C391.545 148.082 385.995 41.1734 404.421 51.8013C423.066 62.5578 428.448 250.823 428.448 250.823L231.337 137.004H231.35Z" fill="#6EE1F8"/>
<path d="M253.355 69.6988C253.355 71.4101 251.965 72.7868 250.265 72.7868C248.565 72.7868 247.175 71.3972 247.175 69.6988C247.175 68.0004 248.565 66.6108 250.265 66.6108C251.965 66.6108 253.355 68.0004 253.355 69.6988Z" fill="white"/>
<path d="M304.707 18.8756C304.707 20.5869 303.316 21.9636 301.616 21.9636C299.917 21.9636 298.526 20.574 298.526 18.8756C298.526 17.1772 299.917 15.7876 301.616 15.7876C303.316 15.7876 304.707 17.1772 304.707 18.8756Z" fill="white"/>
<path d="M358.414 111.039C358.414 112.751 357.023 114.127 355.324 114.127C353.624 114.127 352.233 112.738 352.233 111.039C352.233 109.341 353.624 107.951 355.324 107.951C357.023 107.951 358.414 109.341 358.414 111.039Z" fill="white"/>
<path d="M405.104 50.7462C405.104 52.4575 403.713 53.8342 402.013 53.8342C400.314 53.8342 398.923 52.4446 398.923 50.7462C398.923 49.0478 400.314 47.6582 402.013 47.6582C403.713 47.6582 405.104 49.0478 405.104 50.7462Z" fill="white"/>
<path opacity="0.8" d="M186.141 159.302C186.141 159.302 191.214 84.7657 202.082 91.0704C212.949 97.375 207.696 141.006 218.976 147.516C230.075 153.924 224.023 39.3335 240.788 48.9964C252.815 55.9315 248.965 94.287 259.704 100.476C271.756 107.424 269.67 88.3684 278.98 93.7338C288.276 99.0992 288.328 123.366 297.019 127.264C305.711 131.163 301.565 44.3387 315.317 52.2645C329.236 60.2933 333.253 244.274 333.253 244.274L186.141 159.315V159.302Z" fill="#D4088C"/>
<path d="M204.284 90.7359C204.284 92.4472 202.893 93.8239 201.193 93.8239C199.494 93.8239 198.103 92.4343 198.103 90.7359C198.103 89.0375 199.494 87.6479 201.193 87.6479C202.893 87.6479 204.284 89.0375 204.284 90.7359Z" fill="white"/>
<path d="M242.05 48.4044C242.05 50.1157 240.659 51.4924 238.96 51.4924C237.26 51.4924 235.869 50.1028 235.869 48.4044C235.869 46.706 237.26 45.3164 238.96 45.3164C240.659 45.3164 242.05 46.706 242.05 48.4044Z" fill="white"/>
<path d="M279.108 92.9488C279.108 94.6601 277.718 96.0368 276.018 96.0368C274.318 96.0368 272.928 94.6472 272.928 92.9488C272.928 91.2504 274.318 89.8608 276.018 89.8608C277.718 89.8608 279.108 91.2504 279.108 92.9488Z" fill="white"/>
<path opacity="0.4" d="M201.193 168.644C200.833 168.644 200.55 168.36 200.55 168V90.7359C200.55 90.3756 200.833 90.0925 201.193 90.0925C201.554 90.0925 201.837 90.3756 201.837 90.7359V168C201.837 168.36 201.554 168.644 201.193 168.644Z" fill="white"/>
<path opacity="0.4" d="M238.96 190.453C238.599 190.453 238.316 190.169 238.316 189.809V48.4046C238.316 48.0443 238.599 47.7612 238.96 47.7612C239.32 47.7612 239.604 48.0443 239.604 48.4046V189.809C239.604 190.169 239.32 190.453 238.96 190.453Z" fill="white"/>
<path opacity="0.4" d="M276.018 211.863C275.658 211.863 275.374 211.58 275.374 211.219V92.949C275.374 92.5887 275.658 92.3057 276.018 92.3057C276.379 92.3057 276.662 92.5887 276.662 92.949V211.219C276.662 211.58 276.379 211.863 276.018 211.863Z" fill="white"/>
<path opacity="0.4" d="M313.463 233.324C313.102 233.324 312.819 233.041 312.819 232.681V52.2644C312.819 51.9042 313.102 51.6211 313.463 51.6211C313.823 51.6211 314.106 51.9042 314.106 52.2644V232.694C314.106 233.054 313.823 233.337 313.463 233.337V233.324Z" fill="white"/>
<path d="M316.566 51.9943C316.566 53.7055 315.175 55.0823 313.475 55.0823C311.776 55.0823 310.385 53.6927 310.385 51.9943C310.385 50.2959 311.776 48.9062 313.475 48.9062C315.175 48.9062 316.566 50.2959 316.566 51.9943Z" fill="white"/>
<path d="M157 119.5L201 91.5L239 48.5L275.5 91.5L313.5 52L352.5 3.5" stroke="white" stroke-width="2" stroke-linejoin="round"/>
<defs>
<linearGradient id="paint0_linear_71_19" x1="9.16787" y1="211.528" x2="647.244" y2="211.528" gradientUnits="userSpaceOnUse">
<stop stop-color="#8D139B"/>
<stop offset="0.17" stop-color="#841BA1"/>
<stop offset="0.43" stop-color="#6D32B1"/>
<stop offset="0.76" stop-color="#4958CC"/>
<stop offset="1" stop-color="#2979E4"/>
</linearGradient>
<linearGradient id="paint1_linear_71_19" x1="857.206" y1="512.371" x2="1008.44" y2="599.751" gradientUnits="userSpaceOnUse">
<stop stop-color="#8D139B"/>
<stop offset="0.17" stop-color="#841BA1"/>
<stop offset="0.43" stop-color="#6D32B1"/>
<stop offset="0.76" stop-color="#4958CC"/>
<stop offset="1" stop-color="#2979E4"/>
</linearGradient>
<radialGradient id="paint2_radial_71_19" cx="0" cy="0" r="1" gradientUnits="userSpaceOnUse" gradientTransform="translate(-880.395 -499.243) rotate(29.9813) scale(336.894 371.485)">
<stop offset="0.01" stop-color="#2C35A2"/>
<stop offset="0.16" stop-color="#242C88"/>
<stop offset="0.4" stop-color="#1B2166"/>
<stop offset="0.62" stop-color="#14194E"/>
<stop offset="0.83" stop-color="#101440"/>
<stop offset="1" stop-color="#0F133B"/>
</radialGradient>
<linearGradient id="paint3_linear_71_19" x1="158.598" y1="201.762" x2="475.473" y2="201.762" gradientUnits="userSpaceOnUse">
<stop stop-color="#A31FA9"/>
<stop offset="0.07" stop-color="#8A16A0"/>
<stop offset="0.15" stop-color="#740F98"/>
<stop offset="0.24" stop-color="#640A92"/>
<stop offset="0.34" stop-color="#5A068F"/>
<stop offset="0.48" stop-color="#58068E"/>
<stop offset="0.63" stop-color="#4D21A3"/>
<stop offset="0.94" stop-color="#3167D9"/>
<stop offset="1" stop-color="#2C75E4"/>
</linearGradient>
<radialGradient id="paint4_radial_71_19" cx="0" cy="0" r="1" gradientUnits="userSpaceOnUse" gradientTransform="translate(815.321 328.909) rotate(29.9813) scale(16.5173 14.3646)">
<stop offset="0.01" stop-color="#2C35A2"/>
<stop offset="0.16" stop-color="#242C88"/>
<stop offset="0.4" stop-color="#1B2166"/>
<stop offset="0.62" stop-color="#14194E"/>
<stop offset="0.83" stop-color="#101440"/>
<stop offset="1" stop-color="#0F133B"/>
</radialGradient>
</defs>
</svg>
