<svg width="442" height="287" viewBox="0 0 442 287" fill="none" xmlns="http://www.w3.org/2000/svg">
<path opacity="0.6" d="M142.011 285.7L2.76617 205.361C-0.555933 203.444 -0.131021 200.099 3.69326 197.885L286.832 34.5432C290.669 32.3301 296.463 32.0857 299.786 34.0028L439.031 114.342C442.353 116.259 441.928 119.605 438.104 121.818L154.965 285.16C151.128 287.373 145.333 287.618 142.011 285.7Z" fill="#0C0F38" fill-opacity="0.3"/>
<path d="M441.258 84.955L434.163 89.2138L299.773 11.6793C296.451 9.76217 290.656 10.0066 286.819 12.2197L8.13551 172.989L0.512695 169.579V179.95C0.577077 181.095 1.31103 182.201 2.7403 183.025L141.985 263.364C145.308 265.281 151.102 265.037 154.939 262.824L438.078 99.4814C440.228 98.2334 441.31 96.6379 441.245 95.1325V84.955H441.258Z" fill="url(#paint0_linear_71_51)"/>
<path d="M8.13551 173.002L0.512695 169.592V179.962C0.577077 181.108 1.31103 182.214 2.7403 183.038L3.03646 183.205C2.62442 182.664 2.40552 182.073 2.36689 181.468V171.097L9.9897 174.507L20.7544 168.292C20.265 167.713 19.7629 167.134 19.2349 166.581L8.12263 172.989L8.13551 173.002Z" fill="#D4088C"/>
<path d="M434.163 89.2136L368.198 51.1541C367.528 51.5915 366.871 52.0161 366.202 52.4536L432.374 90.629L439.468 86.3701V96.5477C439.507 97.4998 439.095 98.4776 438.245 99.3912C440.305 98.156 441.336 96.5991 441.271 95.1323V84.9548L434.176 89.2136H434.163Z" fill="#6EE8FC"/>
<path d="M142.011 253.109L2.76617 172.77C-0.555933 170.853 -0.131021 167.507 3.69326 165.294L286.832 1.95213C290.669 -0.26094 296.463 -0.505404 299.786 1.41173L439.031 81.7512C442.353 83.6683 441.928 87.0136 438.104 89.2267L154.965 252.569C151.128 254.782 145.333 255.027 142.011 253.109Z" fill="url(#paint1_linear_71_51)"/>
<path d="M143.93 253.109L4.68469 172.77C1.36259 170.853 1.78751 167.507 5.61179 165.294L288.75 1.95195C290.605 0.884012 292.91 0.292147 295.176 0.16348C292.343 -0.0295201 289.201 0.588079 286.832 1.95195L3.69321 165.294C-0.143955 167.507 -0.555991 170.853 2.76611 172.77L142.011 253.109C143.724 254.1 146.106 254.499 148.54 254.37C146.814 254.254 145.192 253.843 143.943 253.109H143.93Z" fill="#D4088C"/>
<path d="M439.018 81.751L299.773 1.41155C298.06 0.420818 295.678 0.0219518 293.257 0.150618C295.008 0.266418 296.644 0.678151 297.919 1.41155L437.164 81.751C440.486 83.6681 440.061 87.0135 436.237 89.2265L153.098 252.569C151.244 253.637 148.939 254.229 146.673 254.357C149.493 254.537 152.596 253.933 154.965 252.569L438.104 89.2265C441.941 87.0135 442.353 83.6681 439.031 81.751H439.018Z" fill="#6EE8FC"/>
<path d="M157.888 248.169L11.3162 163.609L282.184 7.34326L428.743 91.903L157.888 248.169Z" fill="url(#paint2_radial_71_51)"/>
<path d="M172.85 219.167L61.5984 154.975L267.208 36.3574L378.473 100.536L172.85 219.167Z" fill="url(#paint3_linear_71_51)"/>
<path d="M369.086 50.884L353.287 41.7615C352.695 41.4141 352.759 40.8223 353.454 40.4234C354.15 40.0245 355.18 39.9859 355.785 40.3333L371.584 49.4558C372.177 49.8032 372.112 50.3951 371.417 50.7939C370.734 51.1928 369.691 51.2314 369.086 50.884Z" fill="url(#paint4_radial_71_51)"/>
<path opacity="0.8" d="M148.939 176.012L126.663 163.171L134.453 158.668L156.729 171.522L148.939 176.012Z" fill="#6EE1F8"/>
<path opacity="0.8" d="M162.807 168.125L140.543 155.271L148.334 150.781L170.597 163.622L162.807 168.125Z" fill="#D4088C"/>
<defs>
<linearGradient id="paint0_linear_71_51" x1="-87.8321" y1="137.528" x2="550.244" y2="137.528" gradientUnits="userSpaceOnUse">
<stop stop-color="#8D139B"/>
<stop offset="0.17" stop-color="#841BA1"/>
<stop offset="0.43" stop-color="#6D32B1"/>
<stop offset="0.76" stop-color="#4958CC"/>
<stop offset="1" stop-color="#2979E4"/>
</linearGradient>
<linearGradient id="paint1_linear_71_51" x1="760.206" y1="438.371" x2="911.438" y2="525.751" gradientUnits="userSpaceOnUse">
<stop stop-color="#8D139B"/>
<stop offset="0.17" stop-color="#841BA1"/>
<stop offset="0.43" stop-color="#6D32B1"/>
<stop offset="0.76" stop-color="#4958CC"/>
<stop offset="1" stop-color="#2979E4"/>
</linearGradient>
<radialGradient id="paint2_radial_71_51" cx="0" cy="0" r="1" gradientUnits="userSpaceOnUse" gradientTransform="translate(-977.395 -573.243) rotate(29.9813) scale(336.894 371.485)">
<stop offset="0.01" stop-color="#2C35A2"/>
<stop offset="0.16" stop-color="#242C88"/>
<stop offset="0.4" stop-color="#1B2166"/>
<stop offset="0.62" stop-color="#14194E"/>
<stop offset="0.83" stop-color="#101440"/>
<stop offset="1" stop-color="#0F133B"/>
</radialGradient>
<linearGradient id="paint3_linear_71_51" x1="61.5984" y1="127.762" x2="378.473" y2="127.762" gradientUnits="userSpaceOnUse">
<stop stop-color="#A31FA9"/>
<stop offset="0.07" stop-color="#8A16A0"/>
<stop offset="0.15" stop-color="#740F98"/>
<stop offset="0.24" stop-color="#640A92"/>
<stop offset="0.34" stop-color="#5A068F"/>
<stop offset="0.48" stop-color="#58068E"/>
<stop offset="0.63" stop-color="#4D21A3"/>
<stop offset="0.94" stop-color="#3167D9"/>
<stop offset="1" stop-color="#2C75E4"/>
</linearGradient>
<radialGradient id="paint4_radial_71_51" cx="0" cy="0" r="1" gradientUnits="userSpaceOnUse" gradientTransform="translate(718.321 254.909) rotate(29.9813) scale(16.5173 14.3646)">
<stop offset="0.01" stop-color="#2C35A2"/>
<stop offset="0.16" stop-color="#242C88"/>
<stop offset="0.4" stop-color="#1B2166"/>
<stop offset="0.62" stop-color="#14194E"/>
<stop offset="0.83" stop-color="#101440"/>
<stop offset="1" stop-color="#0F133B"/>
</radialGradient>
</defs>
</svg>
