<svg width="204" height="245" viewBox="0 0 204 245" fill="none" xmlns="http://www.w3.org/2000/svg">
<path opacity="0.8" d="M31.1409 159.302C31.1409 159.302 36.2142 84.7657 47.0818 91.0704C57.9495 97.375 52.6959 141.006 63.9756 147.516C75.0751 153.924 69.0232 39.3335 85.7882 48.9964C97.8148 55.9315 93.9647 94.287 104.704 100.476C116.756 107.424 114.67 88.3684 123.98 93.7338C133.276 99.0992 133.328 123.366 142.019 127.264C150.711 131.163 146.565 44.3387 160.317 52.2645C174.236 60.2933 178.253 244.274 178.253 244.274L31.1409 159.315V159.302Z" fill="#D4088C"/>
<path d="M49.2837 90.7359C49.2837 92.4472 47.893 93.8239 46.1934 93.8239C44.4937 93.8239 43.103 92.4343 43.103 90.7359C43.103 89.0375 44.4937 87.6479 46.1934 87.6479C47.893 87.6479 49.2837 89.0375 49.2837 90.7359Z" fill="white"/>
<path d="M87.05 48.4044C87.05 50.1157 85.6594 51.4924 83.9597 51.4924C82.26 51.4924 80.8694 50.1028 80.8694 48.4044C80.8694 46.706 82.26 45.3164 83.9597 45.3164C85.6594 45.3164 87.05 46.706 87.05 48.4044Z" fill="white"/>
<path d="M124.108 92.9488C124.108 94.6601 122.718 96.0368 121.018 96.0368C119.318 96.0368 117.928 94.6472 117.928 92.9488C117.928 91.2504 119.318 89.8608 121.018 89.8608C122.718 89.8608 124.108 91.2504 124.108 92.9488Z" fill="white"/>
<path opacity="0.4" d="M46.1934 168.644C45.8328 168.644 45.5496 168.36 45.5496 168V90.7359C45.5496 90.3756 45.8328 90.0925 46.1934 90.0925C46.5539 90.0925 46.8372 90.3756 46.8372 90.7359V168C46.8372 168.36 46.5539 168.644 46.1934 168.644Z" fill="white"/>
<path opacity="0.4" d="M83.9597 190.453C83.5992 190.453 83.3159 190.169 83.3159 189.809V48.4046C83.3159 48.0443 83.5992 47.7612 83.9597 47.7612C84.3203 47.7612 84.6036 48.0443 84.6036 48.4046V189.809C84.6036 190.169 84.3203 190.453 83.9597 190.453Z" fill="white"/>
<path opacity="0.4" d="M121.018 211.863C120.658 211.863 120.374 211.58 120.374 211.219V92.949C120.374 92.5887 120.658 92.3057 121.018 92.3057C121.379 92.3057 121.662 92.5887 121.662 92.949V211.219C121.662 211.58 121.379 211.863 121.018 211.863Z" fill="white"/>
<path opacity="0.4" d="M158.463 233.324C158.102 233.324 157.819 233.041 157.819 232.681V52.2644C157.819 51.9042 158.102 51.6211 158.463 51.6211C158.823 51.6211 159.106 51.9042 159.106 52.2644V232.694C159.106 233.054 158.823 233.337 158.463 233.337V233.324Z" fill="white"/>
<path d="M161.566 51.9943C161.566 53.7055 160.175 55.0823 158.475 55.0823C156.776 55.0823 155.385 53.6927 155.385 51.9943C155.385 50.2959 156.776 48.9062 158.475 48.9062C160.175 48.9062 161.566 50.2959 161.566 51.9943Z" fill="white"/>
<path d="M0.647883 123.667C0.441861 123.667 0.248721 123.577 0.119957 123.397C-0.0860651 123.101 -0.0216896 122.702 0.274467 122.496L45.8311 90.252L83.5589 47.985C83.6877 47.8435 83.855 47.7792 84.0482 47.7663C84.2413 47.7663 84.4087 47.8564 84.5375 47.9979L121.119 91.9762L158.074 51.562L201.931 0.223982C202.163 -0.0462184 202.575 -0.0719517 202.846 0.146782C203.116 0.378382 203.142 0.790115 202.91 1.06031L159.027 52.4112L121.57 93.3915C121.441 93.533 121.274 93.6102 121.081 93.5974C120.9 93.5974 120.72 93.5073 120.604 93.3658L84.0224 49.4004L46.7453 91.1656C46.7453 91.1656 46.6809 91.2299 46.6423 91.2685L1.0213 123.551C0.905412 123.628 0.776647 123.667 0.647883 123.667Z" fill="white"/>
</svg>
