<svg width="148" height="200" viewBox="0 0 148 200" fill="none" xmlns="http://www.w3.org/2000/svg">
<path opacity="0.8" d="M0.140869 114.302C0.140869 114.302 5.21417 39.7657 16.0818 46.0704C26.9495 52.375 21.6959 96.0059 32.9756 102.516C44.0751 108.924 38.0232 -5.66647 54.7882 3.99639C66.8148 10.9315 62.9647 49.287 73.7036 55.4759C85.7559 62.4239 83.6699 43.3684 92.9796 48.7338C102.276 54.0992 102.328 78.3657 111.019 82.2643C119.711 86.1629 115.565 -0.661345 129.317 7.26452C143.236 15.2933 147.253 199.274 147.253 199.274L0.140869 114.315V114.302Z" fill="#D4088C"/>
<path d="M18.2837 45.7359C18.2837 47.4472 16.893 48.8239 15.1933 48.8239C13.4937 48.8239 12.103 47.4343 12.103 45.7359C12.103 44.0375 13.4937 42.6479 15.1933 42.6479C16.893 42.6479 18.2837 44.0375 18.2837 45.7359Z" fill="white"/>
<path d="M56.05 3.4044C56.05 5.11567 54.6594 6.4924 52.9597 6.4924C51.26 6.4924 49.8694 5.1028 49.8694 3.4044C49.8694 1.706 51.26 0.316406 52.9597 0.316406C54.6594 0.316406 56.05 1.706 56.05 3.4044Z" fill="white"/>
<path d="M93.1084 47.9488C93.1084 49.6601 91.7177 51.0368 90.0181 51.0368C88.3184 51.0368 86.9277 49.6472 86.9277 47.9488C86.9277 46.2504 88.3184 44.8608 90.0181 44.8608C91.7177 44.8608 93.1084 46.2504 93.1084 47.9488Z" fill="white"/>
<path opacity="0.4" d="M15.1934 123.644C14.8328 123.644 14.5496 123.36 14.5496 123V45.7359C14.5496 45.3756 14.8328 45.0925 15.1934 45.0925C15.5539 45.0925 15.8372 45.3756 15.8372 45.7359V123C15.8372 123.36 15.5539 123.644 15.1934 123.644Z" fill="white"/>
<path opacity="0.4" d="M52.9597 145.453C52.5992 145.453 52.3159 145.169 52.3159 144.809V3.40456C52.3159 3.0443 52.5992 2.76123 52.9597 2.76123C53.3203 2.76123 53.6036 3.0443 53.6036 3.40456V144.809C53.6036 145.169 53.3203 145.453 52.9597 145.453Z" fill="white"/>
<path opacity="0.4" d="M90.0181 166.863C89.6575 166.863 89.3743 166.58 89.3743 166.219V47.949C89.3743 47.5887 89.6575 47.3057 90.0181 47.3057C90.3786 47.3057 90.6619 47.5887 90.6619 47.949V166.219C90.6619 166.58 90.3786 166.863 90.0181 166.863Z" fill="white"/>
<path opacity="0.4" d="M127.463 188.324C127.102 188.324 126.819 188.041 126.819 187.681V7.26443C126.819 6.90416 127.102 6.62109 127.463 6.62109C127.823 6.62109 128.106 6.90416 128.106 7.26443V187.694C128.106 188.054 127.823 188.337 127.463 188.337V188.324Z" fill="white"/>
<path d="M130.566 6.99425C130.566 8.70552 129.175 10.0823 127.475 10.0823C125.776 10.0823 124.385 8.69265 124.385 6.99425C124.385 5.29585 125.776 3.90625 127.475 3.90625C129.175 3.90625 130.566 5.29585 130.566 6.99425Z" fill="white"/>
</svg>
