<svg width="300" height="240" viewBox="0 0 300 240" fill="none" xmlns="http://www.w3.org/2000/svg">
<g id="2_image_block2">
<rect id="Rectangle 7" width="300" height="240" rx="18" fill="#E7EDFD"/>
<g id="dollar_3">
<path id="Vector" d="M142.659 52.4499C146.451 48.6673 146.451 42.5346 142.659 38.752C138.866 34.9694 132.717 34.9694 128.925 38.752C125.132 42.5346 125.132 48.6673 128.925 52.4499C132.717 56.2325 138.866 56.2325 142.659 52.4499Z" fill="url(#paint0_linear_32_2)"/>
<path id="Vector_2" d="M142.43 52.2221C146.097 48.5654 146.097 42.6365 142.43 38.9798C138.764 35.323 132.819 35.323 129.153 38.9798C125.487 42.6365 125.487 48.5654 129.153 52.2221C132.819 55.8789 138.764 55.8789 142.43 52.2221Z" fill="url(#paint1_linear_32_2)"/>
<path id="Vector_3" d="M128.523 41.0145C128.5 41.0145 128.476 41.0081 128.455 40.9947C128.398 40.9571 128.381 40.88 128.418 40.8226C130.241 38.0308 133.432 36.5216 136.753 36.8862C137.283 36.9442 137.808 37.0504 138.314 37.2004C138.38 37.2203 138.418 37.2896 138.398 37.3555C138.378 37.4213 138.31 37.4588 138.242 37.439C137.751 37.2925 137.24 37.1898 136.726 37.1332C133.5 36.7793 130.398 38.2446 128.627 40.9579C128.603 40.9947 128.563 41.0145 128.522 41.0145H128.523Z" fill="white"/>
<path id="Vector_4" opacity="0.78" d="M141.591 51.4311C144.694 48.336 144.694 43.3179 141.591 40.2229C138.488 37.1278 133.456 37.1278 130.353 40.2229C127.25 43.3179 127.25 48.336 130.353 51.4311C133.456 54.5261 138.488 54.5261 141.591 51.4311Z" fill="white"/>
<path id="Vector_5" d="M134.551 51.5979L134.645 50.7407C133.753 50.6062 132.891 50.2983 132.292 49.9542C132.078 49.8318 131.991 49.567 132.082 49.3384L132.388 48.564C132.501 48.2801 132.837 48.1633 133.105 48.312C133.7 48.6418 134.448 48.9328 135.279 49.0241C136.142 49.1189 136.818 48.8981 136.884 48.2999C136.944 47.7605 136.481 47.3847 135.318 46.9323C133.659 46.2775 132.513 45.3991 132.678 43.8962C132.828 42.5399 133.936 41.6133 135.693 41.5256L135.787 40.6683C135.818 40.3923 136.066 40.1933 136.343 40.2238L136.848 40.279C137.125 40.3094 137.324 40.5579 137.293 40.8333L137.208 41.6027C138.034 41.7266 138.621 41.9347 139.082 42.1549C139.318 42.2681 139.423 42.5463 139.327 42.7891L139.044 43.5055C138.936 43.7816 138.614 43.904 138.348 43.7695C137.926 43.555 137.321 43.3129 136.511 43.2245C135.488 43.1119 135.149 43.5027 135.107 43.8821C135.055 44.3486 135.634 44.7372 136.919 45.2915C138.758 46.0687 139.46 46.9436 139.304 48.358C139.161 49.6562 138.067 50.7173 136.163 50.803L136.057 51.7622C136.027 52.0382 135.778 52.2371 135.501 52.2067L134.997 52.1515C134.72 52.121 134.52 51.8733 134.551 51.5972V51.5979Z" fill="url(#paint2_linear_32_2)"/>
</g>
<g id="dollar_1">
<path id="Vector_6" d="M185.291 52.7857C191.893 46.2008 191.893 35.5246 185.291 28.9398C178.688 22.3549 167.984 22.3549 161.382 28.9398C154.78 35.5246 154.78 46.2008 161.382 52.7857C167.984 59.3705 178.688 59.3705 185.291 52.7857Z" fill="url(#paint3_linear_32_2)"/>
<path id="Vector_7" d="M184.893 52.3893C191.276 46.0233 191.276 35.7021 184.893 29.3362C178.51 22.9703 168.162 22.9703 161.779 29.3362C155.397 35.7021 155.397 46.0233 161.779 52.3893C168.162 58.7552 178.51 58.7552 184.893 52.3893Z" fill="url(#paint4_linear_32_2)"/>
<path id="Vector_8" d="M160.683 32.7854C160.66 32.7854 160.636 32.7791 160.615 32.7656C160.557 32.7281 160.541 32.6509 160.579 32.5936C163.733 27.7616 169.259 25.1517 175.001 25.7824C175.918 25.8829 176.827 26.0663 177.702 26.3268C177.768 26.3466 177.805 26.416 177.786 26.4818C177.766 26.5476 177.697 26.5859 177.63 26.5653C176.769 26.3091 175.875 26.1293 174.974 26.0302C169.325 25.4101 163.89 27.9768 160.787 32.7295C160.763 32.7663 160.723 32.7861 160.683 32.7861V32.7854Z" fill="white"/>
<path id="Vector_9" opacity="0.78" d="M183.433 51.0103C188.835 45.6224 188.835 36.887 183.433 31.4991C178.031 26.1112 169.273 26.1112 163.87 31.4991C158.468 36.887 158.468 45.6224 163.87 51.0103C169.273 56.3982 178.031 56.3982 183.433 51.0103Z" fill="white"/>
<path id="Vector_10" d="M171.177 51.3021L171.341 49.8099C169.788 49.5763 168.286 49.0397 167.244 48.4416C166.871 48.2278 166.721 47.7684 166.878 47.3691L167.412 46.0213C167.608 45.5265 168.193 45.3241 168.659 45.5825C169.695 46.1558 170.998 46.6627 172.445 46.8219C173.947 46.9869 175.123 46.6018 175.238 45.5612C175.341 44.6219 174.537 43.9685 172.512 43.1806C169.623 42.041 167.627 40.5112 167.916 37.8956C168.176 35.5342 170.107 33.9216 173.164 33.7687L173.329 32.2765C173.382 31.7966 173.815 31.4497 174.296 31.5028L175.175 31.5991C175.656 31.6522 176.004 32.084 175.95 32.5639L175.803 33.9039C177.239 34.1198 178.263 34.4815 179.064 34.8652C179.475 35.062 179.657 35.5462 179.49 35.9688L178.999 37.2154C178.81 37.696 178.249 37.9091 177.787 37.6748C177.052 37.301 176 36.8805 174.589 36.7255C172.807 36.5301 172.216 37.2104 172.144 37.8701C172.055 38.6828 173.062 39.3588 175.3 40.3244C178.5 41.6778 179.724 43.1997 179.452 45.6632C179.203 47.9227 177.298 49.7695 173.984 49.9196L173.799 51.5895C173.746 52.0694 173.313 52.4163 172.832 52.3632L171.953 52.2669C171.472 52.2138 171.123 51.782 171.177 51.3021Z" fill="url(#paint5_linear_32_2)"/>
</g>
<g id="dollar_2">
<path id="Vector_11" d="M215.433 65.784C220.411 60.8193 220.411 52.77 215.433 47.8054C210.455 42.8408 202.385 42.8408 197.407 47.8054C192.429 52.7701 192.429 60.8193 197.407 65.7839C202.385 70.7486 210.455 70.7486 215.433 65.784Z" fill="url(#paint6_linear_32_2)"/>
<path id="Vector_12" d="M215.133 65.4851C219.946 60.6855 219.946 52.9038 215.133 48.1042C210.321 43.3046 202.519 43.3046 197.707 48.1042C192.895 52.9038 192.895 60.6855 197.707 65.4851C202.519 70.2847 210.321 70.2847 215.133 65.4851Z" fill="url(#paint7_linear_32_2)"/>
<path id="Vector_13" d="M196.881 50.7357C196.857 50.7357 196.834 50.7294 196.813 50.7159C196.755 50.6784 196.739 50.6012 196.776 50.5439C199.16 46.8913 203.341 44.9184 207.679 45.3948C208.371 45.4706 209.058 45.6093 209.721 45.8061C209.787 45.8259 209.824 45.8953 209.804 45.9611C209.785 46.0269 209.715 46.0645 209.649 46.0446C209.001 45.8521 208.329 45.7169 207.651 45.6419C203.405 45.1761 199.317 47.1057 196.985 50.6791C196.961 50.7159 196.921 50.7357 196.881 50.7357Z" fill="white"/>
<path id="Vector_14" opacity="0.78" d="M214.032 64.4454C218.104 60.3833 218.104 53.7974 214.032 49.7354C209.959 45.6733 203.356 45.6733 199.283 49.7354C195.21 53.7974 195.21 60.3833 199.283 64.4454C203.356 68.5074 209.959 68.5074 214.032 64.4454Z" fill="white"/>
<path id="Vector_15" d="M204.791 64.6653L204.916 63.5405C203.745 63.3642 202.612 62.96 201.827 62.5084C201.546 62.347 201.432 62.0009 201.551 61.7L201.954 60.6835C202.101 60.3105 202.542 60.1583 202.893 60.3522C203.675 60.7847 204.656 61.167 205.747 61.2866C206.879 61.4112 207.767 61.121 207.853 60.3359C207.931 59.6274 207.325 59.1347 205.798 58.5408C203.62 57.6814 202.115 56.5283 202.333 54.5561C202.529 52.7758 203.984 51.5597 206.29 51.445L206.414 50.3202C206.454 49.9585 206.78 49.6973 207.143 49.7369L207.806 49.8098C208.169 49.8495 208.431 50.1758 208.391 50.5375L208.28 51.5477C209.363 51.7105 210.134 51.983 210.738 52.2725C211.048 52.4205 211.185 52.7857 211.06 53.105L210.689 54.0451C210.547 54.4075 210.124 54.5682 209.775 54.3912C209.221 54.1095 208.427 53.7923 207.364 53.6755C206.021 53.5283 205.576 54.0408 205.52 54.5384C205.453 55.1508 206.212 55.6604 207.9 56.3888C210.313 57.4096 211.235 58.557 211.03 60.4138C210.842 62.1177 209.406 63.5101 206.907 63.6233L206.768 64.8819C206.728 65.2436 206.402 65.5049 206.038 65.4652L205.375 65.3923C205.013 65.3527 204.751 65.027 204.791 64.6646L204.791 64.6653Z" fill="url(#paint8_linear_32_2)"/>
</g>
<path id="Vector_16" d="M239.756 170.682C239.756 172.462 238.295 173.917 236.509 173.917H60.9309C59.1452 173.917 57.6838 172.461 57.6838 170.682L56.2231 70.048C56.2231 68.2684 58.3254 64.7949 62.1772 65.0561L233.772 60.6276C236.012 60.5696 238.178 61.4296 239.765 63.0075C241.352 64.5846 242.22 66.7415 242.167 68.9742L239.756 170.682Z" fill="url(#paint9_linear_32_2)"/>
<path id="Vector_17" d="M236.55 167.578C236.55 169.263 235.168 170.642 233.479 170.642H65.1652C63.476 170.642 62.0934 169.263 62.0934 167.578L60.7151 76.2214C60.8776 70.724 65.7103 68.7476 68.6394 68.8644L233.102 64.4636C234.676 64.4211 236.198 65.0256 237.313 66.1356C238.427 67.2455 239.036 68.7625 238.996 70.3326L236.55 167.578V167.578Z" fill="#7D97F4"/>
<path id="Vector_18" d="M69.5088 162.511C69.6849 154.96 69.6196 88.096 69.1852 82.3212C68.7508 76.5463 77.7681 75.4633 91.6124 74.8135C105.457 74.1636 222.267 71.5905 225.275 71.3477C232.036 70.8012 233.435 80.8792 232.759 102.758C232.251 119.196 231.408 146.274 231.021 158.726C230.905 162.434 227.867 165.376 224.148 165.386C196.038 165.463 88.3028 165.771 81.1309 165.984C72.8773 166.229 69.4393 165.504 69.5088 162.511Z" fill="#91B3FA"/>
<path id="Vector_19" d="M249.567 182.272H51.4331C48.9951 182.272 47 180.283 47 177.851C47 175.42 48.9944 173.43 51.4331 173.43H249.567C252.005 173.43 253.999 175.419 253.999 177.851C253.999 180.283 252.005 182.272 249.567 182.272Z" fill="url(#paint10_linear_32_2)"/>
<path id="Vector_20" d="M224.813 87.7945H152.283C151.193 87.7945 150.907 86.2917 151.921 85.8931L188.186 71.6521C188.419 71.5608 188.677 71.5608 188.91 71.6521L225.175 85.8931C226.189 86.2917 225.903 87.7945 224.813 87.7945Z" fill="url(#paint11_linear_32_2)"/>
<path id="Vector_21" d="M156.236 89.9004H154.681V118.443H156.236V89.9004Z" fill="url(#paint12_linear_32_2)"/>
<path id="Vector_22" d="M158.569 89.9004H157.014V118.443H158.569V89.9004Z" fill="url(#paint13_linear_32_2)"/>
<path id="Vector_23" d="M160.902 89.9004H159.347V118.443H160.902V89.9004Z" fill="url(#paint14_linear_32_2)"/>
<path id="Vector_24" d="M162.613 88.3495H152.97V88.7671L154.37 89.4353H161.213L162.613 88.7671V88.3495Z" fill="url(#paint15_linear_32_2)"/>
<path id="Vector_25" d="M162.691 120.924H153.048V119.421L154.448 118.753H161.291L162.691 119.421V120.924Z" fill="url(#paint16_linear_32_2)"/>
<path id="Vector_26" d="M168.523 89.9004H166.968V118.443H168.523V89.9004Z" fill="url(#paint17_linear_32_2)"/>
<path id="Vector_27" d="M170.856 89.9004H169.301V118.443H170.856V89.9004Z" fill="url(#paint18_linear_32_2)"/>
<path id="Vector_28" d="M173.189 89.9004H171.634V118.443H173.189V89.9004Z" fill="url(#paint19_linear_32_2)"/>
<path id="Vector_29" d="M174.9 88.3495H165.257V88.7671L166.657 89.4353H173.5L174.9 88.7671V88.3495Z" fill="url(#paint20_linear_32_2)"/>
<path id="Vector_30" d="M174.977 120.924H165.335V119.421L166.734 118.753H173.578L174.977 119.421V120.924Z" fill="url(#paint21_linear_32_2)"/>
<path id="Vector_31" d="M180.81 89.9004H179.255V118.443H180.81V89.9004Z" fill="url(#paint22_linear_32_2)"/>
<path id="Vector_32" d="M183.143 89.9004H181.588V118.443H183.143V89.9004Z" fill="url(#paint23_linear_32_2)"/>
<path id="Vector_33" d="M185.476 89.9004H183.921V118.443H185.476V89.9004Z" fill="url(#paint24_linear_32_2)"/>
<path id="Vector_34" d="M187.186 88.3495H177.544V88.7671L178.943 89.4353H185.787L187.186 88.7671V88.3495Z" fill="url(#paint25_linear_32_2)"/>
<path id="Vector_35" d="M187.264 120.924H177.622V119.421L179.021 118.753H185.865L187.264 119.421V120.924Z" fill="url(#paint26_linear_32_2)"/>
<path id="Vector_36" d="M193.096 89.9004H191.541V118.443H193.096V89.9004Z" fill="url(#paint27_linear_32_2)"/>
<path id="Vector_37" d="M195.429 89.9004H193.874V118.443H195.429V89.9004Z" fill="url(#paint28_linear_32_2)"/>
<path id="Vector_38" d="M197.762 89.9004H196.207V118.443H197.762V89.9004Z" fill="url(#paint29_linear_32_2)"/>
<path id="Vector_39" d="M199.473 88.3495H189.831V88.7671L191.23 89.4353H198.074L199.473 88.7671V88.3495Z" fill="url(#paint30_linear_32_2)"/>
<path id="Vector_40" d="M199.551 120.924H189.908V119.421L191.308 118.753H198.151L199.551 119.421V120.924Z" fill="url(#paint31_linear_32_2)"/>
<path id="Vector_41" d="M205.383 89.9004H203.828V118.443H205.383V89.9004Z" fill="url(#paint32_linear_32_2)"/>
<path id="Vector_42" d="M207.716 89.9004H206.161V118.443H207.716V89.9004Z" fill="url(#paint33_linear_32_2)"/>
<path id="Vector_43" d="M210.049 89.9004H208.494V118.443H210.049V89.9004Z" fill="url(#paint34_linear_32_2)"/>
<path id="Vector_44" d="M211.76 88.3495H202.117V88.7671L203.517 89.4353H210.36L211.76 88.7671V88.3495Z" fill="url(#paint35_linear_32_2)"/>
<path id="Vector_45" d="M211.838 120.924H202.195V119.421L203.595 118.753H210.438L211.838 119.421V120.924Z" fill="url(#paint36_linear_32_2)"/>
<path id="Vector_46" d="M217.67 89.9004H216.115V118.443H217.67V89.9004Z" fill="url(#paint37_linear_32_2)"/>
<path id="Vector_47" d="M220.003 89.9004H218.448V118.443H220.003V89.9004Z" fill="url(#paint38_linear_32_2)"/>
<path id="Vector_48" d="M222.336 89.9004H220.781V118.443H222.336V89.9004Z" fill="url(#paint39_linear_32_2)"/>
<path id="Vector_49" d="M224.047 88.3495H214.404V88.7671L215.804 89.4353H222.647L224.047 88.7671V88.3495Z" fill="url(#paint40_linear_32_2)"/>
<path id="Vector_50" d="M224.125 120.924H214.482V119.421L215.882 118.753H222.725L224.125 119.421V120.924Z" fill="url(#paint41_linear_32_2)"/>
<path id="Vector_51" d="M226.957 121.567H150.625C150.543 121.567 150.477 121.633 150.477 121.714V123.084C150.477 123.166 150.543 123.232 150.625 123.232H226.957C227.039 123.232 227.105 123.166 227.105 123.084V121.714C227.105 121.633 227.039 121.567 226.957 121.567Z" fill="url(#paint42_linear_32_2)"/>
<path id="Vector_52" d="M230.068 124.065H147.028C146.851 124.065 146.708 124.207 146.708 124.383V128.003C146.708 128.178 146.851 128.321 147.028 128.321H230.068C230.244 128.321 230.387 128.178 230.387 128.003V124.383C230.387 124.207 230.244 124.065 230.068 124.065Z" fill="url(#paint43_linear_32_2)"/>
<g id="Group" opacity="0.54">
<path id="Vector_53" d="M120.698 150.787L162.777 150.553C164.499 150.543 165.569 152.417 164.682 153.89L164.471 154.241C164.071 154.905 163.353 155.31 162.577 155.31H120.709C119.489 155.31 118.501 154.324 118.501 153.107V152.99C118.501 151.778 119.482 150.794 120.697 150.787H120.698Z" fill="#7D97F4"/>
<path id="Vector_54" d="M114.821 153.039V153.107C114.821 154.323 113.832 155.31 112.612 155.31H103.271C102.271 155.31 101.395 154.639 101.137 153.675C100.764 152.283 101.81 150.914 103.255 150.904L112.596 150.836C113.822 150.827 114.821 151.815 114.821 153.039Z" fill="#7D97F4"/>
</g>
<path id="Vector_55" d="M130.821 158.695L162.778 158.461C164.5 158.451 165.57 160.325 164.683 161.798L164.472 162.149C164.072 162.812 163.354 163.218 162.578 163.218H130.833C129.613 163.218 128.624 162.232 128.624 161.015V160.898C128.624 159.686 129.606 158.702 130.821 158.695Z" fill="#7D97F4"/>
<path id="Vector_56" d="M124.943 160.946V161.014C124.943 162.231 123.954 163.217 122.734 163.217H113.393C112.393 163.217 111.517 162.547 111.259 161.583C110.885 160.19 111.932 158.822 113.377 158.811L122.718 158.743C123.944 158.734 124.943 159.723 124.943 160.946Z" fill="#7D97F4"/>
<g id="card_2">
<path id="Vector_57" d="M155.688 48.513L154.447 73.9881L154.254 77.9323C154.241 78.4477 153.807 78.859 153.29 78.8462L102.475 77.5819C101.958 77.5692 101.545 77.1367 101.558 76.6214L101.599 72.6728L101.863 47.4852C101.876 46.9699 102.51 45.9795 103.623 46.0829L153.317 46.0362C153.966 46.0362 154.587 46.3002 155.035 46.7688C155.483 47.2367 155.718 47.8667 155.687 48.5123L155.688 48.513Z" fill="url(#paint44_linear_32_2)"/>
<path id="Vector_58" d="M153.031 77.1049C153.019 77.5855 152.607 77.9685 152.114 77.9564L103.707 76.7523C103.214 76.7403 102.822 76.3368 102.834 75.8562L103.111 48.6659C103.123 48.1853 103.725 47.2615 104.786 47.3585L152.125 47.3394C152.743 47.3394 153.334 47.5864 153.762 48.0232C154.188 48.46 154.413 49.0489 154.383 49.6513L153.031 77.1049Z" fill="url(#paint45_linear_32_2)"/>
<path id="Vector_59" d="M152.111 78.2035C152.1 78.2035 152.09 78.2035 152.079 78.2035L146.66 78.0682C146.591 78.0668 146.537 78.0095 146.539 77.9408C146.54 77.8736 146.596 77.8198 146.664 77.8198H146.666L152.085 77.955C152.094 77.955 152.102 77.955 152.111 77.955C152.771 77.955 153.427 77.3214 153.444 76.6596L153.857 60.1286C153.858 60.0599 153.907 60.0125 153.985 60.0075C154.053 60.0089 154.108 60.0663 154.106 60.1349L153.693 76.6659C153.673 77.4658 152.909 78.2042 152.111 78.2042V78.2035Z" fill="white"/>
<path id="Vector_60" d="M106.994 58.1879L106.875 62.949C106.862 63.4668 107.272 63.8971 107.791 63.91L114.068 64.0663C114.587 64.0792 115.018 63.6699 115.031 63.1521L115.151 58.391C115.164 57.8731 114.753 57.4428 114.234 57.4299L107.958 57.2736C107.438 57.2607 107.007 57.67 106.994 58.1879Z" fill="#91B3FA"/>
<path id="Vector_61" opacity="0.8" d="M111.562 61.9853C111.558 61.9853 111.555 61.9853 111.551 61.9853L109.761 61.9407C109.535 61.9351 109.355 61.7468 109.361 61.521L109.4 59.9495C109.403 59.8405 109.449 59.7385 109.528 59.6635C109.608 59.5877 109.713 59.5516 109.821 59.5509L111.611 59.5955C111.721 59.5984 111.823 59.6437 111.898 59.7229C111.973 59.8022 112.014 59.9063 112.011 60.0153L111.972 61.5868C111.966 61.8091 111.783 61.986 111.562 61.986V61.9853ZM109.811 59.7994C109.77 59.7994 109.73 59.815 109.7 59.8433C109.669 59.873 109.651 59.9127 109.65 59.9551L109.611 61.5266C109.608 61.6151 109.679 61.6887 109.767 61.6908L111.557 61.7354C111.557 61.7354 111.56 61.7354 111.561 61.7354C111.648 61.7354 111.719 61.6661 111.722 61.579L111.761 60.0075C111.762 59.9643 111.746 59.924 111.717 59.8928C111.687 59.8617 111.648 59.844 111.604 59.8433L109.814 59.7987C109.814 59.7987 109.811 59.7987 109.81 59.7987L109.811 59.7994Z" fill="white"/>
<path id="Vector_62" d="M109.516 60.4351H109.513L106.938 60.3714C106.869 60.3699 106.814 60.3126 106.816 60.2439C106.818 60.1767 106.874 60.1229 106.941 60.1229H106.944L109.52 60.1866C109.589 60.188 109.643 60.2454 109.641 60.314C109.64 60.3813 109.584 60.4351 109.516 60.4351Z" fill="white"/>
<path id="Vector_63" d="M109.501 61.0771H109.498L106.922 61.0127C106.853 61.0113 106.799 60.954 106.801 60.8853C106.802 60.8166 106.853 60.7628 106.929 60.7642L109.504 60.8287C109.573 60.8301 109.628 60.8874 109.626 60.9561C109.624 61.0233 109.568 61.0771 109.501 61.0771Z" fill="white"/>
<path id="Vector_64" d="M115.098 60.5738H115.095L112.304 60.5044C112.235 60.503 112.181 60.4457 112.183 60.377C112.184 60.3098 112.24 60.256 112.308 60.256H112.31L115.101 60.3254C115.17 60.3268 115.225 60.3841 115.223 60.4528C115.221 60.52 115.165 60.5738 115.098 60.5738Z" fill="white"/>
<path id="Vector_65" d="M115.081 61.2159H115.079L112.288 61.1465C112.219 61.1451 112.164 61.0878 112.167 61.0191C112.168 60.9518 112.224 60.898 112.291 60.898H112.294L115.085 60.9674C115.154 60.9688 115.209 61.0262 115.206 61.0948C115.205 61.1621 115.149 61.2159 115.081 61.2159Z" fill="white"/>
<path id="Vector_66" d="M110.118 59.8171C110.061 59.8171 110.009 59.7768 109.996 59.718L109.501 57.3742C109.487 57.307 109.531 57.2411 109.598 57.227C109.665 57.2128 109.731 57.256 109.746 57.3233L110.24 59.667C110.255 59.7343 110.211 59.8001 110.144 59.8143C110.135 59.8164 110.126 59.8171 110.118 59.8171H110.118Z" fill="white"/>
<path id="Vector_67" d="M111.614 59.8546C111.604 59.8546 111.592 59.8532 111.582 59.8504C111.515 59.832 111.476 59.764 111.494 59.6975L112.126 57.382C112.144 57.3162 112.213 57.2758 112.279 57.295C112.346 57.3134 112.385 57.3813 112.367 57.4479L111.735 59.7633C111.72 59.8185 111.67 59.8553 111.614 59.8553V59.8546Z" fill="white"/>
<path id="Vector_68" d="M109.457 64.1564C109.446 64.1564 109.435 64.155 109.425 64.1521C109.358 64.1344 109.318 64.0665 109.336 63.9999L109.948 61.6838C109.965 61.6172 110.034 61.5776 110.1 61.5953C110.167 61.613 110.207 61.6809 110.189 61.7475L109.577 64.0636C109.562 64.1196 109.512 64.1564 109.457 64.1564Z" fill="white"/>
<path id="Vector_69" d="M112.079 64.2222C112.022 64.2222 111.97 64.1826 111.957 64.1245L111.442 61.7808C111.427 61.7135 111.469 61.6477 111.537 61.6328C111.606 61.6187 111.671 61.6604 111.685 61.7277L112.2 64.0715C112.215 64.1387 112.173 64.2045 112.105 64.2194C112.096 64.2215 112.088 64.2222 112.078 64.2222H112.079Z" fill="white"/>
<g id="Group 5" opacity="0.5">
<path id="Vector_70" d="M106.095 51.1858L106.098 51.0577C106.113 50.4435 106.626 49.957 107.242 49.9724L114.239 50.1466C114.855 50.1619 115.343 50.6733 115.327 51.2875L115.324 51.4156C115.309 52.0298 114.796 52.5163 114.18 52.501L107.183 52.3267C106.567 52.3114 106.079 51.8001 106.095 51.1858Z" fill="white"/>
<path id="Vector_71" d="M115.548 68.1806C115.533 68.7675 115.045 69.2311 114.457 69.2163L106.714 69.0237C106.125 69.0088 105.66 68.5218 105.675 67.935V67.9187C105.69 67.3319 106.179 66.8682 106.767 66.8831L114.511 67.0756C115.099 67.0905 115.564 67.5775 115.549 68.1644V68.1806H115.548Z" fill="white"/>
<path id="Vector_72" d="M126.71 68.4581C126.696 69.045 126.207 69.5086 125.619 69.4938L117.876 69.3012C117.287 69.2864 116.822 68.7993 116.837 68.2125V68.1962C116.852 67.6094 117.341 67.1457 117.93 67.1606L125.673 67.3531C126.261 67.368 126.726 67.855 126.711 68.4419V68.4581H126.71Z" fill="white"/>
<path id="Vector_73" d="M137.873 68.7363C137.858 69.3232 137.369 69.7868 136.781 69.7719L129.038 69.5794C128.449 69.5645 127.984 69.0775 127.999 68.4907V68.4744C128.014 67.8876 128.503 67.4239 129.092 67.4388L136.835 67.6313C137.423 67.6462 137.888 68.1332 137.873 68.72V68.7363H137.873Z" fill="white"/>
<path id="Vector_74" d="M139.377 68.7742L139.378 68.758C139.392 68.172 139.882 67.7077 140.469 67.7223L148.213 67.9151C148.801 67.9297 149.266 68.4179 149.251 69.0038L149.251 69.0201C149.236 69.6067 148.747 70.0704 148.159 70.0557L140.416 69.8629C139.827 69.8483 139.363 69.3602 139.377 68.7742Z" fill="white"/>
<g id="Group_2" opacity="0.8">
<path id="Vector_75" d="M106.631 72.6758L106.632 72.6525C106.644 72.1861 107.033 71.817 107.5 71.8286L121.906 72.1873C122.373 72.1989 122.744 72.587 122.732 73.0533L122.731 73.0767C122.72 73.543 122.331 73.9121 121.863 73.9005L107.458 73.5418C106.99 73.5302 106.62 73.1422 106.631 72.6758Z" fill="white"/>
<path id="Vector_76" d="M147.854 73.2724C147.843 73.7389 147.454 74.1077 146.986 74.0964L140.737 73.9406C140.27 73.9293 139.9 73.5414 139.911 73.0749V73.0515C139.923 72.5851 140.312 72.2162 140.78 72.2283L147.028 72.384C147.496 72.3953 147.866 72.7833 147.855 73.2497V73.2731L147.854 73.2724Z" fill="white"/>
</g>
</g>
</g>
<g id="globe">
<path id="Vector_77" d="M123.728 123.81L101.509 125.068C99.6487 125.174 98.0483 123.77 97.9148 121.917L96.0617 96.209C95.9197 94.2397 97.4833 92.5641 99.4628 92.5641H123.536C125.419 92.5641 126.945 94.0868 126.945 95.9648V120.415C126.945 122.218 125.534 123.708 123.729 123.81L123.728 123.81Z" fill="url(#paint46_linear_32_2)"/>
<path id="Vector_78" d="M102.224 108.819C102.224 114.43 106.8 118.995 112.426 118.995C118.052 118.995 122.629 114.43 122.629 108.819C122.629 105.702 121.214 102.908 118.993 101.04V101.012L118.959 101.011C117.188 99.5339 114.91 98.6434 112.426 98.6434C109.943 98.6434 107.665 99.5339 105.894 101.01H105.861V101.038C103.639 102.906 102.223 105.7 102.223 108.819H102.224ZM102.711 108.97L102.777 108.971L105.04 108.985C105.06 110.081 105.208 111.147 105.483 112.155L103.308 112.174C102.936 111.173 102.728 110.094 102.711 108.969V108.97ZM121.543 112.179L121.308 112.17L119.887 112.161C120.033 111.628 120.146 111.077 120.22 110.522C120.287 110.02 120.323 109.506 120.332 108.988L122.141 108.975C122.123 110.099 121.915 111.178 121.543 112.179V112.179ZM122.136 108.45L122.079 108.447L120.328 108.438C120.314 107.984 120.278 107.534 120.219 107.095C120.142 106.524 120.026 105.958 119.873 105.412C119.859 105.363 119.843 105.314 119.829 105.265L121.414 105.252L121.447 105.219C121.852 106.225 122.093 107.312 122.136 108.45V108.45ZM106.117 112.031C105.853 111.065 105.711 110.043 105.695 108.99L107.602 109.002L109.429 109.005C109.436 110.11 109.489 111.151 109.591 112.142L106.153 112.152C106.141 112.112 106.128 112.072 106.117 112.031ZM106.208 105.268L107.987 105.28L109.638 105.283C109.515 106.279 109.447 107.318 109.432 108.42L105.698 108.43C105.728 107.447 105.867 106.492 106.114 105.586C106.144 105.479 106.175 105.373 106.208 105.268V105.268ZM110.726 115.121C110.63 114.728 110.545 114.401 110.467 113.95C110.398 113.554 110.339 113.146 110.288 112.724H112.427L114.514 112.707C114.461 113.141 114.4 113.539 114.329 113.95C114.25 114.399 114.164 114.767 114.066 115.162C114.012 115.382 113.956 115.545 113.897 115.696H110.905C110.843 115.545 110.784 115.355 110.726 115.121ZM110.224 112.14C110.2 111.897 110.177 111.648 110.158 111.392C110.099 110.62 110.068 109.819 110.064 109.007L112.427 109.012L114.729 109.006C114.727 109.831 114.698 110.646 114.639 111.433C114.621 111.674 114.601 111.908 114.578 112.138L112.428 112.134L110.225 112.14H110.224ZM114.657 106.262C114.699 106.929 114.723 107.638 114.728 108.415L112.428 108.411L110.066 108.418C110.073 107.674 110.105 106.94 110.165 106.228C110.192 105.902 110.225 105.59 110.26 105.284L112.427 105.288L114.579 105.283C114.609 105.6 114.636 105.923 114.657 106.262ZM111.724 100.104C111.853 99.9168 111.973 99.7795 112.101 99.6733C112.173 99.6146 112.244 99.5679 112.313 99.5367C112.386 99.5041 112.457 99.4865 112.522 99.4843C112.527 99.4843 112.532 99.4843 112.536 99.4843C112.6 99.4843 112.665 99.4978 112.729 99.524C112.796 99.5516 112.865 99.594 112.934 99.6521C113.059 99.7554 113.174 99.8935 113.296 100.084C113.396 100.24 113.489 100.417 113.58 100.623C113.628 100.731 113.675 100.846 113.721 100.969L112.428 100.967L111.265 100.972C111.412 100.626 111.56 100.346 111.724 100.104ZM114.148 102.433C114.237 102.829 114.315 103.242 114.386 103.695C114.436 104.019 114.479 104.352 114.518 104.692L112.428 104.689L110.335 104.695C110.384 104.347 110.437 104.006 110.5 103.673C110.584 103.228 110.675 102.818 110.78 102.421C110.863 102.111 110.948 101.828 111.04 101.562L112.426 101.566L113.921 101.563C114.001 101.832 114.076 102.118 114.148 102.433ZM108.841 100.984C109.11 100.746 109.388 100.532 109.673 100.35C110.135 100.058 110.621 99.8326 111.116 99.6818C111.21 99.6535 111.304 99.6301 111.398 99.6068C111.354 99.662 111.31 99.7208 111.265 99.7845C111.041 100.108 110.843 100.487 110.645 100.974L108.841 100.984ZM113.583 99.5275C113.806 99.5664 114.027 99.616 114.246 99.6832C114.74 99.834 115.225 100.06 115.688 100.353C115.97 100.533 116.245 100.744 116.512 100.981L115.581 100.974C115.211 100.971 114.841 100.97 114.471 100.969H114.333C114.256 100.756 114.179 100.565 114.097 100.388C113.99 100.156 113.883 99.9565 113.767 99.7781C113.706 99.6847 113.645 99.6033 113.583 99.5275ZM116.712 116.451C116.382 116.754 116.038 117.035 115.685 117.261C115.225 117.552 114.74 117.772 114.244 117.924C114.001 117.998 113.754 118.055 113.506 118.095C113.553 118.036 113.6 117.973 113.648 117.904C113.871 117.571 114.064 117.184 114.256 116.678C114.284 116.603 114.311 116.604 114.338 116.453H116.712L116.712 116.451ZM112.283 118.147C112.251 118.138 112.219 118.128 112.186 118.113C112.12 118.082 112.051 118.038 111.982 117.978C111.858 117.871 111.742 117.736 111.618 117.546C111.43 117.254 111.264 116.906 111.095 116.451H113.706C113.706 116.451 113.701 116.461 113.699 116.468C113.527 116.931 113.356 117.28 113.162 117.573C113.037 117.76 112.92 117.895 112.794 117.997C112.724 118.054 112.655 118.096 112.59 118.123C112.55 118.139 112.512 118.148 112.474 118.154C112.411 118.151 112.347 118.151 112.282 118.146L112.283 118.147ZM111.183 117.943C111.162 117.937 111.14 117.934 111.119 117.927C110.621 117.775 110.136 117.553 109.676 117.263C109.321 117.038 108.975 116.754 108.644 116.451H110.462C110.484 116.451 110.506 116.575 110.53 116.637C110.721 117.144 110.91 117.531 111.128 117.863C111.146 117.891 111.165 117.917 111.183 117.943ZM106.395 104.706C106.669 103.955 107.014 103.258 107.428 102.627C107.684 102.238 107.966 101.878 108.267 101.548L109.274 101.557L110.43 101.561C110.354 101.784 110.283 102.017 110.214 102.267C110.101 102.676 110.002 103.098 109.91 103.558C109.836 103.932 109.772 104.312 109.716 104.696L106.395 104.706H106.395ZM117.087 101.546C117.389 101.877 117.673 102.239 117.93 102.631C118.343 103.262 118.687 103.959 118.959 104.71L116.868 104.696L115.136 104.694C115.09 104.32 115.039 103.955 114.98 103.599C114.902 103.133 114.817 102.708 114.721 102.3C114.658 102.037 114.593 101.793 114.525 101.562C114.877 101.562 115.23 101.561 115.582 101.558L117.087 101.546ZM119.146 105.269C119.178 105.375 119.21 105.479 119.239 105.587C119.376 106.091 119.482 106.628 119.555 107.182C119.608 107.592 119.641 108.011 119.654 108.433L117.253 108.418L115.382 108.416C115.377 108.102 115.368 107.8 115.359 107.533C115.342 107.09 115.318 106.647 115.286 106.218C115.262 105.895 115.233 105.585 115.202 105.28L119.087 105.27H119.145L119.146 105.269ZM119.199 112.155L116.868 112.14L115.21 112.138C115.232 111.923 115.253 111.705 115.272 111.481C115.338 110.677 115.374 109.843 115.382 109.002L119.657 108.992C119.649 109.477 119.615 109.962 119.553 110.432C119.481 110.985 119.375 111.522 119.237 112.028C119.225 112.071 119.211 112.113 119.199 112.155ZM119.024 112.671C118.741 113.494 118.374 114.212 117.925 114.895C117.719 115.21 117.495 115.543 117.259 115.695H114.522C114.567 115.695 114.61 115.473 114.653 115.309C114.757 114.901 114.849 114.564 114.934 114.099C115.015 113.654 115.084 113.197 115.143 112.725L119.024 112.671V112.671ZM108.097 115.694C107.861 115.542 107.638 115.197 107.432 114.884C106.982 114.2 106.613 113.509 106.329 112.683L107.987 112.666H109.659C109.716 113.12 109.782 113.552 109.859 113.987C109.943 114.452 110.034 114.859 110.138 115.268C110.183 115.447 110.23 115.542 110.278 115.694H108.097ZM102.717 108.45C102.759 107.321 102.997 106.242 103.395 105.244L103.549 105.247L105.544 105.261C105.529 105.311 105.513 105.36 105.498 105.411C105.231 106.373 105.079 107.386 105.045 108.43L102.717 108.448V108.45ZM106.694 100.997C107.785 100.199 109.048 99.6217 110.418 99.3336C110.058 99.4787 109.706 99.6542 109.369 99.8652C108.892 100.165 108.437 100.531 108.017 100.952C108.007 100.964 107.996 100.976 107.985 100.986L107.124 100.991C106.981 100.992 106.837 100.994 106.694 100.996V100.997ZM115.702 99.6917C116.586 100.008 117.411 100.45 118.157 100.994C118.01 100.993 117.863 100.991 117.717 100.989L117.385 100.986C117.373 100.974 117.362 100.961 117.35 100.949C116.929 100.527 116.474 100.162 115.996 99.8623C115.899 99.8022 115.8 99.7462 115.701 99.691L115.702 99.6917ZM118.419 116.446C117.592 117.094 116.658 117.607 115.648 117.963C115.766 117.898 115.884 117.831 116 117.759C116.479 117.458 116.934 117.094 117.354 116.673C117.426 116.6 117.497 116.603 117.568 116.451H118.414C118.414 116.451 118.417 116.447 118.419 116.447V116.446ZM110.481 118.32C108.978 118.014 107.601 117.359 106.435 116.451H107.801C107.871 116.602 107.941 116.597 108.012 116.669C108.432 117.091 108.887 117.452 109.364 117.753C109.723 117.979 110.098 118.17 110.481 118.319V118.32ZM106.037 101.523L106.124 101.525C106.471 101.531 106.821 101.535 107.173 101.539L107.485 101.541C107.288 101.779 107.1 102.029 106.924 102.291C106.433 103.023 106.031 103.834 105.724 104.708L103.619 104.726C104.196 103.496 105.024 102.407 106.037 101.523ZM121.233 104.723L119.651 104.713C119.341 103.836 118.938 103.022 118.445 102.288C118.269 102.026 118.081 101.776 117.883 101.539C118.167 101.536 118.451 101.533 118.736 101.529L118.822 101.527C119.832 102.41 120.658 103.497 121.233 104.723ZM118.693 116.176C118.698 116.155 118.701 116.09 118.701 116.068C118.701 115.91 118.572 115.695 118.414 115.695H118.056C118.191 115.543 118.323 115.429 118.448 115.244C118.978 114.455 119.404 113.661 119.719 112.709L121.331 112.696C120.73 114.064 119.822 115.225 118.693 116.177V116.176ZM103.52 112.638L103.549 112.671L105.652 112.664C105.968 113.616 106.392 114.452 106.92 115.24C107.046 115.426 107.178 115.543 107.314 115.695H105.806C105.794 115.695 105.782 115.783 105.769 115.785C104.82 114.893 104.05 113.846 103.52 112.638H103.52Z" fill="#BDD0FB"/>
</g>
<g id="shop">
<path id="Vector_79" d="M54.5587 100.182H77.9419C79.7304 100.182 81.1797 98.7354 81.1797 96.9523V73.5676C81.1797 71.885 79.8844 70.4841 78.203 70.3489L53.2897 68.3378C51.3272 68.1792 49.6778 69.7904 49.7963 71.7505L51.3265 97.1455C51.4294 98.8508 52.8461 100.182 54.5587 100.182Z" fill="url(#paint47_linear_32_2)"/>
<path id="Vector_80" d="M78.6019 77.9706C78.4138 77.6711 78.0966 77.4765 77.7317 77.4368L59.2394 75.4059L58.8767 74.0178C58.7483 73.5244 58.2969 73.145 57.7532 73.0749L54.252 72.6219C53.4834 72.522 52.8482 72.9822 52.7857 73.6426C52.7225 74.3045 53.2421 74.8715 53.9944 74.9614L56.5928 75.2721L60.468 90.139C60.6035 90.6578 61.0869 91.0203 61.644 91.0203L75.3349 90.7237C75.951 90.7102 76.4272 90.2359 76.4443 89.6215C76.4521 89.3178 76.3449 89.0354 76.1412 88.8273C75.9368 88.6184 75.6579 88.503 75.342 88.503L62.6873 88.6453L62.0195 86.046L75.6607 86.3844C76.1717 86.3844 76.6345 86.0283 76.7871 85.5186L78.7445 78.9701C78.8439 78.6367 78.7921 78.2728 78.6026 77.9713L78.6019 77.9706ZM61.644 90.3973V89.7772C61.644 89.7772 61.6447 89.7772 61.6454 89.7779L61.644 90.3973ZM75.5968 85.1364L61.3963 84.7839L59.6014 76.8946L76.516 78.7252L75.5968 85.1357V85.1364Z" fill="#BDD0FB"/>
<path id="Vector_81" d="M63.9167 91.2284C62.6285 91.2673 61.4873 92.3277 61.4014 93.5997C61.3148 94.881 62.3333 95.8515 63.642 95.7559C64.9189 95.6625 65.9899 94.5858 66.0559 93.3605C66.1219 92.1437 65.1744 91.1908 63.9167 91.2284ZM63.7158 94.537C63.1119 94.5738 62.6456 94.1236 62.6832 93.5339C62.7208 92.9464 63.2439 92.4495 63.8443 92.424C64.4377 92.3992 64.8883 92.8466 64.855 93.4221C64.8216 93.9997 64.3135 94.5002 63.7158 94.537Z" fill="#BDD0FB"/>
<path id="Vector_82" d="M73.0766 90.953C72.0042 90.9849 71.0765 91.9476 71.0304 93.105C70.9835 94.2694 71.848 95.1571 72.9346 95.0778C73.9971 94.9999 74.8708 94.0238 74.9034 92.906C74.9361 91.7954 74.1256 90.9219 73.0766 90.9537V90.953ZM72.9722 93.9679C72.4697 93.999 72.0737 93.5863 72.0936 93.0497C72.1135 92.5146 72.5393 92.0637 73.039 92.0431C73.5329 92.0226 73.9176 92.4318 73.9006 92.957C73.8835 93.4837 73.4698 93.9374 72.9722 93.9679Z" fill="#BDD0FB"/>
</g>
<path id="Vector_83" d="M77.9497 211.492H79.9604V189.805H77.9497V211.492Z" fill="url(#paint48_linear_32_2)"/>
<path id="Vector_84" d="M87.7598 211.91H70.1496V210.82C70.1496 210.701 70.2462 210.605 70.3654 210.605H87.544C87.6632 210.605 87.7598 210.701 87.7598 210.82V211.91Z" fill="url(#paint49_linear_32_2)"/>
<path id="Vector_85" d="M87.5156 184.945H69.6983C68.5043 184.945 67.5364 185.911 67.5364 187.102V189.053C67.5364 190.243 68.5043 191.209 69.6983 191.209H87.5156C88.7096 191.209 89.6775 190.243 89.6775 189.053V187.102C89.6775 185.911 88.7096 184.945 87.5156 184.945Z" fill="url(#paint50_linear_32_2)"/>
<path id="Vector_86" d="M93.7983 175.345C93.7983 175.345 96.7863 175.808 100.145 178.047C100.674 178.399 100.963 179.013 100.884 179.643C100.481 182.82 98.8275 193.106 93.3739 203.151C93.0864 203.681 93.0034 204.297 93.1304 204.886L94.0779 209.284L95.8353 210.927H91.3092L88.2957 202.793L89.5846 202.387C90.5839 202.072 91.2688 201.155 91.2872 200.11L91.4384 191.386C91.3092 187.499 93.8281 184.817 93.8281 184.817L86.6001 184.466L93.7976 175.344L93.7983 175.345Z" fill="url(#paint51_linear_32_2)"/>
<path id="Vector_87" d="M97.6031 211.721C98.0155 212.259 93.1672 212.969 90.7179 211.792C90.7179 211.792 87.3225 205.9 87.3225 202.867C87.3225 202.867 87.5922 202.248 89.5859 202.388C89.5859 202.388 90.7257 209.365 91.9294 210.147C93.1332 210.928 95.2972 210.226 95.2972 210.226C95.2972 210.226 96.9949 210.928 97.6031 211.722V211.721Z" fill="url(#paint52_linear_32_2)"/>
<path id="Vector_88" d="M87.5156 184.945C87.554 184.879 95.2972 184.017 95.2972 184.017C95.2972 184.017 95.0439 186.365 95.8359 189.598C96.628 192.83 107.997 206.835 107.997 206.835L106.897 210.607C110.583 211.888 113.818 211.775 117.386 210.942L110.296 206.835C110.296 206.835 103.382 183.336 99.1469 179.143L91.3851 176.465L87.5156 184.946V184.945Z" fill="url(#paint53_linear_32_2)"/>
<path id="Vector_89" d="M70.1505 171.272C70.1505 171.272 65.689 177.89 65.3228 180.909C64.9566 183.928 66.6096 186.157 71.2257 185.357C86.466 185.247 90.0836 191.032 91.1085 198.336C91.1241 198.447 91.2178 198.533 91.3313 198.537C96.6267 198.707 101.975 197.602 106.842 195.207C107.068 195.096 107.158 194.82 107.044 194.597C99.6119 180.085 105.267 177.217 89.2752 172.916C87.1233 172.658 70.1498 171.271 70.1498 171.271L70.1505 171.272Z" fill="url(#paint54_linear_32_2)"/>
<path id="Vector_90" d="M107.255 209.335C107.255 209.335 105.972 210.574 106.838 211.954C106.838 211.954 117.005 213.751 119.765 212.936C119.765 212.936 119.069 211.608 115.961 210.122L116.313 210.321C116.604 210.544 116.433 211.007 116.068 210.985C114.02 210.869 109.781 210.495 107.255 209.335Z" fill="url(#paint55_linear_32_2)"/>
<path id="Vector_91" d="M82.2152 170.396C82.2152 170.396 87.4105 165.463 89.9677 162.195C91.3503 160.429 91.784 158.103 91.1452 155.955C89.9777 152.032 87.9031 147.969 87.7136 147.336C87.4233 146.367 81.5985 146.407 81.5985 146.407C81.5985 146.407 68.3078 152.443 65.6321 166.396L70.6904 167.966C70.6904 167.966 73.6834 162.958 76.6402 159.774C76.6402 159.774 71.5229 166.516 71.3434 169.276L82.2159 170.396H82.2152Z" fill="url(#paint56_linear_32_2)"/>
<path id="Vector_92" d="M89.7458 143.796C89.6337 143.974 86.8366 148.423 86.6939 148.492C86.5512 148.561 83.405 147.881 82.2183 146.487L86.114 141.993L89.7458 143.797V143.796Z" fill="url(#paint57_linear_32_2)"/>
<path id="Vector_93" d="M90.1325 132.954C90.1325 132.954 92.474 134.792 93.2263 139.099C93.9786 143.406 92.151 144.8 90.3966 144.582C88.6414 144.362 86.1267 143.636 84.1324 140.442C82.138 137.248 87.0537 130.693 90.1325 132.955V132.954Z" fill="url(#paint58_linear_32_2)"/>
<path id="Vector_94" d="M92.7989 170.762L88.9819 167.093L83.7014 169.318C83.7014 169.318 78.4457 170.13 75.4371 169.318L72.4293 168.506L65.6313 166.395L64.5639 169.404C64.2928 170.168 64.5653 171.017 65.2275 171.486C65.8159 171.903 66.505 172.361 66.9444 172.553C67.8394 172.943 89.0124 172.282 89.0124 172.282L92.7989 170.762Z" fill="url(#paint59_linear_32_2)"/>
<path id="Vector_95" d="M78.3542 172.493C78.3712 172.493 78.3883 172.494 78.4053 172.494L100.547 172.47C101.094 172.47 101.538 172.027 101.537 171.48C101.537 170.934 101.091 170.483 100.545 170.493L78.4032 170.517C77.856 170.517 77.4124 170.961 77.4131 171.506C77.4131 172.035 77.8304 172.467 78.3542 172.493Z" fill="url(#paint60_linear_32_2)"/>
<path id="Vector_96" d="M120.451 152.442H102.012C100.651 152.442 99.4131 153.225 98.8326 154.452L90.3079 172.481H113.223C114.1 172.481 114.888 171.946 115.21 171.133L121.82 154.451C122.202 153.487 121.49 152.443 120.451 152.443L120.451 152.442Z" fill="url(#paint61_linear_32_2)"/>
<path id="Vector_97" d="M107.46 161.686C107.061 162.924 107.356 164.127 108.119 164.372C108.883 164.617 109.826 163.812 110.226 162.574C110.626 161.336 110.33 160.133 109.567 159.888C108.803 159.643 107.86 160.448 107.46 161.686Z" fill="url(#paint62_linear_32_2)"/>
<path id="Vector_98" d="M135.522 216C135.629 216 135.738 215.978 135.842 215.932C136.254 215.752 136.443 215.265 136.266 214.845L119.261 174.504C119.084 174.084 118.607 173.89 118.196 174.07C117.784 174.251 117.594 174.738 117.771 175.158L134.777 215.499C134.909 215.812 135.207 215.999 135.522 215.999V216Z" fill="#7D97F4"/>
<path id="Vector_99" d="M116.365 216C116.679 216 116.978 215.812 117.11 215.5L134.115 175.158C134.292 174.739 134.103 174.252 133.691 174.071C133.28 173.891 132.803 174.085 132.626 174.504L115.62 214.845C115.443 215.265 115.633 215.752 116.045 215.933C116.149 215.979 116.257 216.001 116.365 216.001V216Z" fill="#7D97F4"/>
<path id="Vector_100" d="M68.5563 216C68.6635 216 68.7721 215.978 68.8764 215.932C69.2881 215.752 69.4776 215.265 69.3008 214.845L52.2954 174.504C52.1187 174.084 51.6417 173.89 51.2301 174.07C50.8184 174.251 50.6289 174.738 50.8056 175.158L67.8111 215.499C67.9431 215.812 68.2419 215.999 68.5563 215.999V216Z" fill="#7D97F4"/>
<path id="Vector_101" d="M49.399 216C49.7135 216 50.0123 215.812 50.1443 215.5L67.1497 175.158C67.3264 174.739 67.1369 174.252 66.7253 174.071C66.3143 173.891 65.8374 174.085 65.66 174.504L48.6545 214.845C48.4778 215.265 48.6673 215.752 49.0789 215.933C49.1833 215.979 49.2919 216.001 49.399 216.001V216Z" fill="#7D97F4"/>
<path id="Vector_102" d="M47.4073 173.299C47.3555 173.048 47.4258 172.789 47.5996 172.593C47.7735 172.396 48.0319 172.282 48.3044 172.282H140.701C141.059 172.282 141.394 172.453 141.587 172.736C141.78 173.018 141.806 173.374 141.655 173.678L140.654 175.704C140.425 176.169 139.928 176.465 139.381 176.465H48.9382C48.43 176.465 47.9928 176.128 47.8963 175.661L47.4073 173.299Z" fill="#7D97F4"/>
<path id="Vector_103" d="M82.3089 134.343C84.4523 133.268 85.9875 129.695 84.9002 127.821C82.0818 122.967 75.0007 128.399 78.345 133.012C78.8652 133.73 79.5785 134.344 80.4359 134.574C81.0782 134.746 81.717 134.64 82.3089 134.342V134.343Z" fill="white"/>
<path id="Vector_104" d="M93.9139 135.08C93.9146 135.873 93.0629 136.376 92.3631 136.001C91.6584 135.623 90.7761 135.214 89.9663 135.027C84.497 133.76 85.6433 137.84 85.4893 138.401C85.1741 139.547 84.5233 137.495 84.3523 137.864C83.9811 138.667 85.0237 141.674 85.0237 141.674C85.0237 141.674 80.6694 139.721 80.0065 137.732C79.3436 135.743 80.7752 132.064 81.8738 130.904C82.9186 129.801 86.507 128.732 88.0614 129.149C89.5646 129.553 93.9082 130.708 93.9132 135.081L93.9139 135.08Z" fill="white"/>
<path id="Vector_105" d="M85.7599 139.365C85.7599 139.365 85.5391 136.213 83.8776 136.99C82.2161 137.768 84.2431 139.946 85.065 140.696L85.7599 139.365Z" fill="url(#paint63_linear_32_2)"/>
<path id="Vector_106" d="M206.399 197.575C208.527 197.759 212.221 198.057 215.133 198.185C216.883 198.262 217.891 198.091 218.472 197.859C218.471 197.924 218.469 197.986 218.466 198.043C218.452 198.349 218.203 198.593 217.894 198.611C212.391 198.918 208.015 198.717 206.457 198.622C206.135 198.603 205.943 198.254 206.108 197.98C206.19 197.842 206.29 197.708 206.398 197.575H206.399Z" fill="url(#paint64_linear_32_2)"/>
<path id="Vector_107" d="M215.134 198.185C212.222 198.057 208.527 197.759 206.4 197.575C208.492 195.015 215.134 193.289 215.134 193.289H217.01C218.3 195.144 218.487 196.91 218.472 197.859C217.892 198.091 216.884 198.262 215.134 198.185Z" fill="url(#paint65_linear_32_2)"/>
<path id="Vector_108" d="M217.325 190.235L217.15 193.699C217.131 194.074 216.849 194.389 216.473 194.443C216.098 194.497 215.597 194.503 215.064 194.326C214.737 194.217 214.494 193.943 214.433 193.606L213.826 190.233H217.326L217.325 190.235Z" fill="url(#paint66_linear_32_2)"/>
<path id="Vector_109" d="M239.097 201.572C240.02 201.406 240.437 200.788 240.613 200.127C240.614 200.133 240.615 200.139 240.616 200.145C240.752 200.842 240.437 201.564 239.808 201.908C239.047 202.323 238.215 202.394 237.57 202.359C236.877 202.322 236.241 201.953 235.892 201.362L235.887 201.353C236.583 201.796 237.559 201.848 239.098 201.571L239.097 201.572Z" fill="url(#paint67_linear_32_2)"/>
<path id="Vector_110" d="M234.745 191.302H236.293C238.649 191.24 240.129 197.647 240.613 200.127C240.438 200.788 240.02 201.406 239.097 201.572C237.557 201.849 236.582 201.796 235.886 201.353C234.613 199.194 233.982 196.032 233.679 194.185C233.334 192.087 234.745 191.302 234.745 191.302Z" fill="url(#paint68_linear_32_2)"/>
<path id="Vector_111" d="M236.093 188.086L236.952 191.494C237.057 191.912 236.857 192.344 236.469 192.542C235.989 192.788 235.312 193.047 234.691 192.972C234.398 192.937 234.156 192.731 234.059 192.457L232.798 188.871L236.093 188.086Z" fill="url(#paint69_linear_32_2)"/>
<path id="Vector_112" d="M205.875 143.206C205.875 143.206 213.552 191.065 213.425 191.328C213.425 191.328 215.545 192.289 217.857 191.45C217.857 191.45 217.163 165.866 215.536 156.056C215.536 156.056 228.637 178.924 232.798 190.318C232.798 190.318 234.968 190.06 236.764 188.881C236.764 188.881 222.657 147.721 218.894 142.239L205.875 143.206Z" fill="url(#paint70_linear_32_2)"/>
<path id="Vector_113" d="M215.013 155.717L212.203 151.239L210.199 150.837L210.3 150.338L212.518 150.783L215.445 155.447L215.013 155.717Z" fill="url(#paint71_linear_32_2)"/>
<path id="Vector_114" d="M170.647 96.3414C170.647 96.3414 175.827 97.4811 178.978 98.9315C179.604 99.2196 180.103 99.7236 180.387 100.344C181.33 102.403 184.149 107.565 189.616 110.029C188.829 111.071 187.56 113.239 187.008 116.883C183.724 114.445 180.89 110.374 179.528 103.698C179.528 103.698 178.492 104.26 177.199 103.634C176.516 103.303 175.727 102.834 175.135 102.464C174.545 102.096 174.106 101.525 173.935 100.858C173.71 99.9756 173.842 99.2005 173.842 98.3687L171.18 97.5462C171.18 97.5462 170.379 97.2446 170.647 96.3407L170.647 96.3414Z" fill="url(#paint72_linear_32_2)"/>
<path id="Vector_115" d="M187.009 116.884C187.561 113.24 188.829 111.072 189.616 110.03C193.013 111.56 197.431 112.049 203.057 110.105C203.576 109.926 204.116 109.821 204.665 109.788C207.66 109.613 217.53 109.293 225.696 111.985C227.415 112.551 228.807 113.818 229.524 115.46C231.734 120.517 235.31 132.032 225.381 137.846C224.618 135.957 223.738 134.439 222.985 133.324C224.584 130.634 225.057 126.96 222.22 122.175C220.151 127.748 219.18 135.878 218.977 139.476C218.91 140.661 219.118 141.844 219.585 142.937L219.636 143.057C219.736 143.291 219.598 143.56 219.348 143.616C213.758 144.868 207.944 144.528 206.207 144.385C205.896 144.359 205.639 144.138 205.568 143.839C202.85 132.416 202.843 124.624 203.509 119.698C200.967 120.265 193.191 121.475 187.009 116.885V116.884Z" fill="url(#paint73_linear_32_2)"/>
<path id="Vector_116" d="M204.448 118.497C204.436 118.495 204.424 118.492 204.413 118.487C204.272 118.422 204.214 118.126 204.285 117.826C205.426 112.952 206.429 110.926 206.471 110.842C206.595 110.597 206.774 110.548 206.873 110.733C206.972 110.918 206.952 111.265 206.829 111.51C206.814 111.54 205.87 113.473 204.796 118.06C204.731 118.335 204.581 118.518 204.448 118.496V118.497Z" fill="#67308F"/>
<path id="Vector_117" d="M217.293 103.134C217.293 103.134 217.858 109.097 218.356 110.861C218.431 111.129 218.315 111.411 218.071 111.55C217.226 112.031 215.2 112.817 212.428 111.462C211.978 111.243 211.709 110.776 211.729 110.282L211.973 104.519L217.293 103.135V103.134Z" fill="url(#paint74_linear_32_2)"/>
<path id="Vector_118" d="M211.851 95.5054C211.851 95.5054 210.043 99.6493 209.921 101.825C209.8 104 209.33 105.411 211.851 105.849C214.373 106.287 216.497 105.034 217.648 102.867C217.648 102.867 219.45 99.5289 219.046 98.162C218.641 96.7951 211.851 95.5061 211.851 95.5061V95.5054Z" fill="url(#paint75_linear_32_2)"/>
<path id="Vector_119" d="M216.786 101.309L216.643 101.246C216.46 101.166 216.381 100.949 216.474 100.772C216.829 100.087 217.523 98.5167 216.627 98.15C215.473 97.6778 210.902 96.7484 209.916 95.1302C208.967 93.5757 209.808 91.5682 211.07 90.9976C211.154 90.9594 211.254 90.9898 211.297 91.0712L211.402 91.2694C211.474 91.4054 211.675 91.3848 211.718 91.2369C211.759 91.0953 211.948 91.0677 212.026 91.193C212.33 91.6772 213.148 92.4615 215.337 92.8643C218.448 93.437 220.504 94.6927 220.555 96.8362C220.559 96.9721 220.704 97.0478 220.821 96.9771C221.051 96.8376 221.418 96.7718 221.91 97.1838C222.764 97.9001 222.414 99.759 220.541 101.287C220.453 101.36 220.453 101.498 220.549 101.561C220.888 101.781 221.394 102.306 220.083 103.005C218.727 103.729 217.714 103.669 217.324 103.605C217.227 103.589 217.164 103.495 217.186 103.4L217.602 101.515C217.626 101.408 217.544 101.308 217.435 101.308H216.786V101.309Z" fill="url(#paint76_linear_32_2)"/>
<path id="Vector_120" d="M216.708 101.707C216.708 101.707 217.398 99.0603 218.588 99.8022C219.778 100.544 217.971 102.768 217.014 102.867L216.708 101.707Z" fill="url(#paint77_linear_32_2)"/>
<path id="Vector_121" d="M178.05 102.935C178.032 102.913 176.17 100.633 175.546 100.282C175.206 100.09 175.013 99.8822 174.957 99.6479C174.911 99.4532 174.961 99.2515 175.11 99.0313L175.157 98.9626L177.532 99.4376L178.759 100.487L178.596 100.676L177.419 99.6684L175.275 99.2394C175.2 99.3704 175.176 99.4858 175.201 99.5905C175.239 99.7519 175.397 99.9119 175.67 100.066C176.334 100.44 178.167 102.683 178.245 102.779L178.051 102.936L178.05 102.935Z" fill="url(#paint78_linear_32_2)"/>
<path id="Vector_122" d="M216.759 141.919L208.597 141.742C208.597 141.742 215.714 139.735 216.156 140.281C216.156 140.281 220.567 137.39 222.985 133.323C223.738 134.439 224.618 135.957 225.381 137.846C223.213 139.115 220.367 141.319 216.759 141.918V141.919Z" fill="url(#paint79_linear_32_2)"/>
<path id="Vector_123" d="M216.989 140.509C216.989 140.509 217.157 143.752 212.889 143.281C210.569 143.025 206.823 140.868 206.823 140.868C206.823 140.868 216.586 140.842 216.989 140.509V140.509Z" fill="url(#paint80_linear_32_2)"/>
<path id="Vector_124" d="M215.318 141.379C215.302 141.38 215.286 141.381 215.271 141.38L194.977 141.358C194.475 141.358 194.069 140.956 194.07 140.46C194.07 139.965 194.479 139.556 194.979 139.565L215.273 139.587C215.775 139.587 216.181 139.989 216.18 140.485C216.18 140.964 215.797 141.355 215.317 141.379L215.318 141.379Z" fill="url(#paint81_linear_32_2)"/>
<path id="Vector_125" d="M176.734 123.196H193.634C194.881 123.196 196.016 123.906 196.548 125.019L204.361 141.368H183.358C182.554 141.368 181.833 140.884 181.537 140.146L175.478 125.017C175.128 124.143 175.781 123.196 176.734 123.196Z" fill="url(#paint82_linear_32_2)"/>
<path id="Vector_126" d="M188.64 131.579C189.007 132.701 188.736 133.792 188.036 134.015C187.337 134.237 186.472 133.507 186.106 132.384C185.74 131.262 186.01 130.171 186.71 129.948C187.41 129.726 188.274 130.456 188.64 131.579Z" fill="url(#paint83_linear_32_2)"/>
</g>
<defs>
<linearGradient id="paint0_linear_32_2" x1="120.894" y1="59.4428" x2="135.461" y2="45.8363" gradientUnits="userSpaceOnUse">
<stop stop-color="#E1473D"/>
<stop offset="1" stop-color="#E9605A"/>
</linearGradient>
<linearGradient id="paint1_linear_32_2" x1="135.792" y1="58.8433" x2="148.933" y2="43.9717" gradientUnits="userSpaceOnUse">
<stop stop-color="#673091"/>
<stop offset="1" stop-color="#EC008C"/>
</linearGradient>
<linearGradient id="paint2_linear_32_2" x1="132.046" y1="52.2098" x2="139.794" y2="51.924" gradientUnits="userSpaceOnUse">
<stop stop-color="#673091"/>
<stop offset="1" stop-color="#EC008C"/>
</linearGradient>
<linearGradient id="paint3_linear_32_2" x1="147.404" y1="64.9583" x2="172.761" y2="41.2716" gradientUnits="userSpaceOnUse">
<stop stop-color="#E1473D"/>
<stop offset="1" stop-color="#E9605A"/>
</linearGradient>
<linearGradient id="paint4_linear_32_2" x1="173.336" y1="63.9158" x2="196.214" y2="38.0264" gradientUnits="userSpaceOnUse">
<stop stop-color="#673091"/>
<stop offset="1" stop-color="#EC008C"/>
</linearGradient>
<linearGradient id="paint5_linear_32_2" x1="166.816" y1="52.3686" x2="180.303" y2="51.8711" gradientUnits="userSpaceOnUse">
<stop stop-color="#673091"/>
<stop offset="1" stop-color="#EC008C"/>
</linearGradient>
<linearGradient id="paint6_linear_32_2" x1="186.868" y1="74.9606" x2="205.986" y2="57.1022" gradientUnits="userSpaceOnUse">
<stop stop-color="#E1473D"/>
<stop offset="1" stop-color="#E9605A"/>
</linearGradient>
<linearGradient id="paint7_linear_32_2" x1="206.42" y1="74.1756" x2="223.669" y2="54.6562" gradientUnits="userSpaceOnUse">
<stop stop-color="#673091"/>
<stop offset="1" stop-color="#EC008C"/>
</linearGradient>
<linearGradient id="paint8_linear_32_2" x1="201.504" y1="65.4692" x2="211.673" y2="65.0942" gradientUnits="userSpaceOnUse">
<stop stop-color="#673091"/>
<stop offset="1" stop-color="#EC008C"/>
</linearGradient>
<linearGradient id="paint9_linear_32_2" x1="132.683" y1="166.181" x2="173.954" y2="42.0401" gradientUnits="userSpaceOnUse">
<stop stop-color="#09005D"/>
<stop offset="1" stop-color="#1A0F91"/>
</linearGradient>
<linearGradient id="paint10_linear_32_2" x1="164.943" y1="93.2217" x2="149.056" y2="186.805" gradientUnits="userSpaceOnUse">
<stop stop-color="#09005D"/>
<stop offset="1" stop-color="#1A0F91"/>
</linearGradient>
<linearGradient id="paint11_linear_32_2" x1="151.294" y1="79.6886" x2="225.801" y2="79.6886" gradientUnits="userSpaceOnUse">
<stop stop-color="#DAE3FE"/>
<stop offset="1" stop-color="#E9EFFD"/>
</linearGradient>
<linearGradient id="paint12_linear_32_2" x1="154.681" y1="104.172" x2="156.236" y2="104.172" gradientUnits="userSpaceOnUse">
<stop stop-color="#DAE3FE"/>
<stop offset="1" stop-color="#E9EFFD"/>
</linearGradient>
<linearGradient id="paint13_linear_32_2" x1="157.014" y1="104.172" x2="158.569" y2="104.172" gradientUnits="userSpaceOnUse">
<stop stop-color="#DAE3FE"/>
<stop offset="1" stop-color="#E9EFFD"/>
</linearGradient>
<linearGradient id="paint14_linear_32_2" x1="159.347" y1="104.172" x2="160.902" y2="104.172" gradientUnits="userSpaceOnUse">
<stop stop-color="#DAE3FE"/>
<stop offset="1" stop-color="#E9EFFD"/>
</linearGradient>
<linearGradient id="paint15_linear_32_2" x1="152.97" y1="88.8924" x2="162.613" y2="88.8924" gradientUnits="userSpaceOnUse">
<stop stop-color="#DAE3FE"/>
<stop offset="1" stop-color="#E9EFFD"/>
</linearGradient>
<linearGradient id="paint16_linear_32_2" x1="153.048" y1="119.839" x2="162.691" y2="119.839" gradientUnits="userSpaceOnUse">
<stop stop-color="#DAE3FE"/>
<stop offset="1" stop-color="#E9EFFD"/>
</linearGradient>
<linearGradient id="paint17_linear_32_2" x1="166.968" y1="104.172" x2="168.523" y2="104.172" gradientUnits="userSpaceOnUse">
<stop stop-color="#DAE3FE"/>
<stop offset="1" stop-color="#E9EFFD"/>
</linearGradient>
<linearGradient id="paint18_linear_32_2" x1="169.301" y1="104.172" x2="170.856" y2="104.172" gradientUnits="userSpaceOnUse">
<stop stop-color="#DAE3FE"/>
<stop offset="1" stop-color="#E9EFFD"/>
</linearGradient>
<linearGradient id="paint19_linear_32_2" x1="171.634" y1="104.172" x2="173.189" y2="104.172" gradientUnits="userSpaceOnUse">
<stop stop-color="#DAE3FE"/>
<stop offset="1" stop-color="#E9EFFD"/>
</linearGradient>
<linearGradient id="paint20_linear_32_2" x1="165.257" y1="88.8924" x2="174.9" y2="88.8924" gradientUnits="userSpaceOnUse">
<stop stop-color="#DAE3FE"/>
<stop offset="1" stop-color="#E9EFFD"/>
</linearGradient>
<linearGradient id="paint21_linear_32_2" x1="165.335" y1="119.839" x2="174.977" y2="119.839" gradientUnits="userSpaceOnUse">
<stop stop-color="#DAE3FE"/>
<stop offset="1" stop-color="#E9EFFD"/>
</linearGradient>
<linearGradient id="paint22_linear_32_2" x1="179.255" y1="104.172" x2="180.81" y2="104.172" gradientUnits="userSpaceOnUse">
<stop stop-color="#DAE3FE"/>
<stop offset="1" stop-color="#E9EFFD"/>
</linearGradient>
<linearGradient id="paint23_linear_32_2" x1="181.588" y1="104.172" x2="183.143" y2="104.172" gradientUnits="userSpaceOnUse">
<stop stop-color="#DAE3FE"/>
<stop offset="1" stop-color="#E9EFFD"/>
</linearGradient>
<linearGradient id="paint24_linear_32_2" x1="183.921" y1="104.172" x2="185.476" y2="104.172" gradientUnits="userSpaceOnUse">
<stop stop-color="#DAE3FE"/>
<stop offset="1" stop-color="#E9EFFD"/>
</linearGradient>
<linearGradient id="paint25_linear_32_2" x1="177.544" y1="88.8924" x2="187.186" y2="88.8924" gradientUnits="userSpaceOnUse">
<stop stop-color="#DAE3FE"/>
<stop offset="1" stop-color="#E9EFFD"/>
</linearGradient>
<linearGradient id="paint26_linear_32_2" x1="177.622" y1="119.839" x2="187.264" y2="119.839" gradientUnits="userSpaceOnUse">
<stop stop-color="#DAE3FE"/>
<stop offset="1" stop-color="#E9EFFD"/>
</linearGradient>
<linearGradient id="paint27_linear_32_2" x1="191.541" y1="104.172" x2="193.096" y2="104.172" gradientUnits="userSpaceOnUse">
<stop stop-color="#DAE3FE"/>
<stop offset="1" stop-color="#E9EFFD"/>
</linearGradient>
<linearGradient id="paint28_linear_32_2" x1="193.874" y1="104.172" x2="195.43" y2="104.172" gradientUnits="userSpaceOnUse">
<stop stop-color="#DAE3FE"/>
<stop offset="1" stop-color="#E9EFFD"/>
</linearGradient>
<linearGradient id="paint29_linear_32_2" x1="196.207" y1="104.172" x2="197.763" y2="104.172" gradientUnits="userSpaceOnUse">
<stop stop-color="#DAE3FE"/>
<stop offset="1" stop-color="#E9EFFD"/>
</linearGradient>
<linearGradient id="paint30_linear_32_2" x1="189.831" y1="88.8924" x2="199.473" y2="88.8924" gradientUnits="userSpaceOnUse">
<stop stop-color="#DAE3FE"/>
<stop offset="1" stop-color="#E9EFFD"/>
</linearGradient>
<linearGradient id="paint31_linear_32_2" x1="189.908" y1="119.839" x2="199.551" y2="119.839" gradientUnits="userSpaceOnUse">
<stop stop-color="#DAE3FE"/>
<stop offset="1" stop-color="#E9EFFD"/>
</linearGradient>
<linearGradient id="paint32_linear_32_2" x1="203.828" y1="104.172" x2="205.383" y2="104.172" gradientUnits="userSpaceOnUse">
<stop stop-color="#DAE3FE"/>
<stop offset="1" stop-color="#E9EFFD"/>
</linearGradient>
<linearGradient id="paint33_linear_32_2" x1="206.161" y1="104.172" x2="207.716" y2="104.172" gradientUnits="userSpaceOnUse">
<stop stop-color="#DAE3FE"/>
<stop offset="1" stop-color="#E9EFFD"/>
</linearGradient>
<linearGradient id="paint34_linear_32_2" x1="208.494" y1="104.172" x2="210.049" y2="104.172" gradientUnits="userSpaceOnUse">
<stop stop-color="#DAE3FE"/>
<stop offset="1" stop-color="#E9EFFD"/>
</linearGradient>
<linearGradient id="paint35_linear_32_2" x1="202.117" y1="88.8924" x2="211.76" y2="88.8924" gradientUnits="userSpaceOnUse">
<stop stop-color="#DAE3FE"/>
<stop offset="1" stop-color="#E9EFFD"/>
</linearGradient>
<linearGradient id="paint36_linear_32_2" x1="202.195" y1="119.839" x2="211.838" y2="119.839" gradientUnits="userSpaceOnUse">
<stop stop-color="#DAE3FE"/>
<stop offset="1" stop-color="#E9EFFD"/>
</linearGradient>
<linearGradient id="paint37_linear_32_2" x1="216.115" y1="104.172" x2="217.67" y2="104.172" gradientUnits="userSpaceOnUse">
<stop stop-color="#DAE3FE"/>
<stop offset="1" stop-color="#E9EFFD"/>
</linearGradient>
<linearGradient id="paint38_linear_32_2" x1="218.448" y1="104.172" x2="220.003" y2="104.172" gradientUnits="userSpaceOnUse">
<stop stop-color="#DAE3FE"/>
<stop offset="1" stop-color="#E9EFFD"/>
</linearGradient>
<linearGradient id="paint39_linear_32_2" x1="220.781" y1="104.172" x2="222.336" y2="104.172" gradientUnits="userSpaceOnUse">
<stop stop-color="#DAE3FE"/>
<stop offset="1" stop-color="#E9EFFD"/>
</linearGradient>
<linearGradient id="paint40_linear_32_2" x1="214.404" y1="88.8924" x2="224.047" y2="88.8924" gradientUnits="userSpaceOnUse">
<stop stop-color="#DAE3FE"/>
<stop offset="1" stop-color="#E9EFFD"/>
</linearGradient>
<linearGradient id="paint41_linear_32_2" x1="214.482" y1="119.839" x2="224.125" y2="119.839" gradientUnits="userSpaceOnUse">
<stop stop-color="#DAE3FE"/>
<stop offset="1" stop-color="#E9EFFD"/>
</linearGradient>
<linearGradient id="paint42_linear_32_2" x1="150.477" y1="122.399" x2="227.105" y2="122.399" gradientUnits="userSpaceOnUse">
<stop stop-color="#DAE3FE"/>
<stop offset="1" stop-color="#E9EFFD"/>
</linearGradient>
<linearGradient id="paint43_linear_32_2" x1="146.708" y1="126.193" x2="230.387" y2="126.193" gradientUnits="userSpaceOnUse">
<stop stop-color="#DAE3FE"/>
<stop offset="1" stop-color="#E9EFFD"/>
</linearGradient>
<linearGradient id="paint44_linear_32_2" x1="98" y1="38.5" x2="122.53" y2="100.214" gradientUnits="userSpaceOnUse">
<stop stop-color="#673091"/>
<stop offset="1" stop-color="#EC008C"/>
</linearGradient>
<linearGradient id="paint45_linear_32_2" x1="102.834" y1="77.9567" x2="156.941" y2="72.4503" gradientUnits="userSpaceOnUse">
<stop stop-color="#673091"/>
<stop offset="1" stop-color="#EC008C"/>
</linearGradient>
<linearGradient id="paint46_linear_32_2" x1="120.715" y1="101.22" x2="181.478" y2="55.0278" gradientUnits="userSpaceOnUse">
<stop stop-color="#4F52FF"/>
<stop offset="1" stop-color="#4042E2"/>
</linearGradient>
<linearGradient id="paint47_linear_32_2" x1="74.6004" y1="77.9246" x2="133.633" y2="36.7184" gradientUnits="userSpaceOnUse">
<stop stop-color="#4F52FF"/>
<stop offset="1" stop-color="#4042E2"/>
</linearGradient>
<linearGradient id="paint48_linear_32_2" x1="70.1625" y1="166.868" x2="99.9986" y2="282.098" gradientUnits="userSpaceOnUse">
<stop stop-color="#09005D"/>
<stop offset="1" stop-color="#1A0F91"/>
</linearGradient>
<linearGradient id="paint49_linear_32_2" x1="67.0566" y1="165.641" x2="98.1151" y2="285.589" gradientUnits="userSpaceOnUse">
<stop stop-color="#09005D"/>
<stop offset="1" stop-color="#1A0F91"/>
</linearGradient>
<linearGradient id="paint50_linear_32_2" x1="77.5665" y1="150.72" x2="78.6834" y2="191.032" gradientUnits="userSpaceOnUse">
<stop stop-color="#09005D"/>
<stop offset="1" stop-color="#1A0F91"/>
</linearGradient>
<linearGradient id="paint51_linear_32_2" x1="100.897" y1="193.136" x2="86.6008" y2="193.136" gradientUnits="userSpaceOnUse">
<stop stop-color="#FEBBBA"/>
<stop offset="1" stop-color="#FF928E"/>
</linearGradient>
<linearGradient id="paint52_linear_32_2" x1="92.1502" y1="202.427" x2="94.2414" y2="234.585" gradientUnits="userSpaceOnUse">
<stop stop-color="#4F52FF"/>
<stop offset="1" stop-color="#4042E2"/>
</linearGradient>
<linearGradient id="paint53_linear_32_2" x1="117.386" y1="194.017" x2="87.5156" y2="194.017" gradientUnits="userSpaceOnUse">
<stop stop-color="#FEBBBA"/>
<stop offset="1" stop-color="#FF928E"/>
</linearGradient>
<linearGradient id="paint54_linear_32_2" x1="102.679" y1="165.357" x2="49.6737" y2="232.674" gradientUnits="userSpaceOnUse">
<stop stop-color="#4F52FF"/>
<stop offset="1" stop-color="#4042E2"/>
</linearGradient>
<linearGradient id="paint55_linear_32_2" x1="112.441" y1="201.107" x2="114.533" y2="233.265" gradientUnits="userSpaceOnUse">
<stop stop-color="#4F52FF"/>
<stop offset="1" stop-color="#4042E2"/>
</linearGradient>
<linearGradient id="paint56_linear_32_2" x1="65.6321" y1="170.396" x2="92.8782" y2="168.625" gradientUnits="userSpaceOnUse">
<stop stop-color="#673091"/>
<stop offset="1" stop-color="#EC008C"/>
</linearGradient>
<linearGradient id="paint57_linear_32_2" x1="83.2029" y1="151.317" x2="87.1972" y2="142.392" gradientUnits="userSpaceOnUse">
<stop stop-color="#FEBBBA"/>
<stop offset="1" stop-color="#FF928E"/>
</linearGradient>
<linearGradient id="paint58_linear_32_2" x1="92.0241" y1="136.752" x2="79.9116" y2="145.8" gradientUnits="userSpaceOnUse">
<stop stop-color="#FEBBBA"/>
<stop offset="1" stop-color="#FF928E"/>
</linearGradient>
<linearGradient id="paint59_linear_32_2" x1="75.1355" y1="169.536" x2="46.7969" y2="169.536" gradientUnits="userSpaceOnUse">
<stop stop-color="#FEBBBA"/>
<stop offset="1" stop-color="#FF928E"/>
</linearGradient>
<linearGradient id="paint60_linear_32_2" x1="67.289" y1="92.8065" x2="79.1294" y2="135.019" gradientUnits="userSpaceOnUse">
<stop stop-color="#09005D"/>
<stop offset="1" stop-color="#1A0F91"/>
</linearGradient>
<linearGradient id="paint61_linear_32_2" x1="139.675" y1="210.43" x2="98.6522" y2="152.1" gradientUnits="userSpaceOnUse">
<stop stop-color="#09005D"/>
<stop offset="1" stop-color="#1A0F91"/>
</linearGradient>
<linearGradient id="paint62_linear_32_2" x1="107.282" y1="162.13" x2="110.404" y2="162.13" gradientUnits="userSpaceOnUse">
<stop stop-color="#4F52FF"/>
<stop offset="1" stop-color="#4042E2"/>
</linearGradient>
<linearGradient id="paint63_linear_32_2" x1="90.3181" y1="134.469" x2="78.2065" y2="143.516" gradientUnits="userSpaceOnUse">
<stop stop-color="#FEBBBA"/>
<stop offset="1" stop-color="#FF928E"/>
</linearGradient>
<linearGradient id="paint64_linear_32_2" x1="218.472" y1="198.174" x2="206.048" y2="198.174" gradientUnits="userSpaceOnUse">
<stop stop-color="#4F52FF"/>
<stop offset="1" stop-color="#4042E2"/>
</linearGradient>
<linearGradient id="paint65_linear_32_2" x1="218.473" y1="195.746" x2="206.399" y2="195.746" gradientUnits="userSpaceOnUse">
<stop stop-color="#09005D"/>
<stop offset="1" stop-color="#1A0F91"/>
</linearGradient>
<linearGradient id="paint66_linear_32_2" x1="217.325" y1="192.356" x2="213.826" y2="192.356" gradientUnits="userSpaceOnUse">
<stop stop-color="#FEBBBA"/>
<stop offset="1" stop-color="#FF928E"/>
</linearGradient>
<linearGradient id="paint67_linear_32_2" x1="240.648" y1="201.247" x2="235.887" y2="201.247" gradientUnits="userSpaceOnUse">
<stop stop-color="#4F52FF"/>
<stop offset="1" stop-color="#4042E2"/>
</linearGradient>
<linearGradient id="paint68_linear_32_2" x1="240.613" y1="196.522" x2="233.625" y2="196.522" gradientUnits="userSpaceOnUse">
<stop stop-color="#09005D"/>
<stop offset="1" stop-color="#1A0F91"/>
</linearGradient>
<linearGradient id="paint69_linear_32_2" x1="236.98" y1="190.536" x2="232.798" y2="190.536" gradientUnits="userSpaceOnUse">
<stop stop-color="#FEBBBA"/>
<stop offset="1" stop-color="#FF928E"/>
</linearGradient>
<linearGradient id="paint70_linear_32_2" x1="212.359" y1="213.803" x2="224.537" y2="148.554" gradientUnits="userSpaceOnUse">
<stop stop-color="#4F52FF"/>
<stop offset="1" stop-color="#4042E2"/>
</linearGradient>
<linearGradient id="paint71_linear_32_2" x1="244.7" y1="104.889" x2="214.123" y2="151.25" gradientUnits="userSpaceOnUse">
<stop stop-color="#09005D"/>
<stop offset="1" stop-color="#1A0F91"/>
</linearGradient>
<linearGradient id="paint72_linear_32_2" x1="179.454" y1="102.67" x2="195.964" y2="124.206" gradientUnits="userSpaceOnUse">
<stop stop-color="#FEBBBA"/>
<stop offset="1" stop-color="#FF928E"/>
</linearGradient>
<linearGradient id="paint73_linear_32_2" x1="187.009" y1="144.537" x2="234.438" y2="140.837" gradientUnits="userSpaceOnUse">
<stop stop-color="#673091"/>
<stop offset="1" stop-color="#EC008C"/>
</linearGradient>
<linearGradient id="paint74_linear_32_2" x1="216.376" y1="116.562" x2="214.573" y2="107.071" gradientUnits="userSpaceOnUse">
<stop stop-color="#FEBBBA"/>
<stop offset="1" stop-color="#FF928E"/>
</linearGradient>
<linearGradient id="paint75_linear_32_2" x1="211.472" y1="99.1523" x2="221.792" y2="107.069" gradientUnits="userSpaceOnUse">
<stop stop-color="#FEBBBA"/>
<stop offset="1" stop-color="#FF928E"/>
</linearGradient>
<linearGradient id="paint76_linear_32_2" x1="218.751" y1="92.9054" x2="209.153" y2="105.295" gradientUnits="userSpaceOnUse">
<stop stop-color="#09005D"/>
<stop offset="1" stop-color="#1A0F91"/>
</linearGradient>
<linearGradient id="paint77_linear_32_2" x1="212.755" y1="97.481" x2="223.074" y2="105.398" gradientUnits="userSpaceOnUse">
<stop stop-color="#FEBBBA"/>
<stop offset="1" stop-color="#FF928E"/>
</linearGradient>
<linearGradient id="paint78_linear_32_2" x1="174.941" y1="100.948" x2="178.758" y2="100.948" gradientUnits="userSpaceOnUse">
<stop stop-color="#FF928E"/>
<stop offset="1" stop-color="#FE7062"/>
</linearGradient>
<linearGradient id="paint79_linear_32_2" x1="140.767" y1="591.702" x2="136.299" y2="618.334" gradientUnits="userSpaceOnUse">
<stop stop-color="#FEBBBA"/>
<stop offset="1" stop-color="#FF928E"/>
</linearGradient>
<linearGradient id="paint80_linear_32_2" x1="213.286" y1="138.74" x2="220.079" y2="127.111" gradientUnits="userSpaceOnUse">
<stop stop-color="#FEBBBA"/>
<stop offset="1" stop-color="#FF928E"/>
</linearGradient>
<linearGradient id="paint81_linear_32_2" x1="218.751" y1="136.016" x2="202.651" y2="141.309" gradientUnits="userSpaceOnUse">
<stop stop-color="#09005D"/>
<stop offset="1" stop-color="#1A0F91"/>
</linearGradient>
<linearGradient id="paint82_linear_32_2" x1="196.588" y1="125.606" x2="185.088" y2="137.793" gradientUnits="userSpaceOnUse">
<stop stop-color="#09005D"/>
<stop offset="1" stop-color="#1A0F91"/>
</linearGradient>
<linearGradient id="paint83_linear_32_2" x1="189.595" y1="128.645" x2="184.401" y2="136.486" gradientUnits="userSpaceOnUse">
<stop stop-color="#53D8FF"/>
<stop offset="1" stop-color="#3840F7"/>
</linearGradient>
</defs>
</svg>
