<svg width="300" height="240" viewBox="0 0 300 240" fill="none" xmlns="http://www.w3.org/2000/svg">
<g id="first_image_block2" clip-path="url(#clip0_17_81)">
<g id="back">
<rect id="Rectangle 6" width="300" height="240" rx="18" fill="#E7EDFD"/>
<path id="Vector" d="M60.362 190.743L240.246 190.743C240.446 190.743 240.608 190.58 240.608 190.379V183.344C240.608 183.143 240.446 182.981 240.246 182.981L60.362 182.981C60.1621 182.981 60 183.143 60 183.344V190.379C60 190.58 60.1621 190.743 60.362 190.743Z" fill="url(#paint0_linear_17_81)"/>
<g id="window">
<path id="Vector_2" d="M72.4277 180.569C72.4277 182.132 73.7026 183.41 75.2608 183.41H228.453C230.011 183.41 231.286 182.132 231.286 180.569L232.561 92.2331C232.561 90.671 230.727 87.6219 227.366 87.8508L77.6492 83.9634C75.6945 83.9126 73.8039 84.668 72.4194 86.052C71.0349 87.4368 70.2776 89.33 70.3238 91.2894L72.4277 180.569V180.569Z" fill="url(#paint1_linear_17_81)"/>
<path id="Vector_3" d="M75.2241 177.845C75.2241 179.324 76.4305 180.534 77.904 180.534H224.758C226.233 180.534 227.438 179.324 227.438 177.845L228.641 97.6524C228.5 92.8265 224.284 91.0921 221.727 91.1943L78.2372 87.3314C76.8636 87.2941 75.5361 87.8251 74.5629 88.799C73.5904 89.7723 73.0555 91.1049 73.0894 92.4832L75.2241 177.845Z" fill="url(#paint2_linear_17_81)"/>
</g>
<path id="Vector_4" d="M102.007 50H207.9C210.787 50 213.113 53.3216 213.06 57.371L211.571 172.597C211.501 178.02 208.321 182.346 201.812 182.277L99.2517 180.472C99.0672 180.423 96.7947 177.194 96.7966 173.229L96.846 57.236C96.8479 53.2394 99.1581 50.0006 102.008 50.0006L102.007 50Z" fill="url(#paint3_linear_17_81)"/>
<path id="Vector_5" d="M104.342 53.1205H206.024C208.796 53.1205 211.029 56.2769 210.98 60.1237L209.549 169.605C209.482 174.757 206.428 178.867 202.715 178.802L104.232 177.087C101.518 177.04 99.3362 173.972 99.3381 170.205L99.3855 59.9945C99.3875 56.1972 101.605 53.1198 104.342 53.1198L104.342 53.1205Z" fill="#91B3FA"/>
<path id="Vector_6" d="M210.825 69.521H99.3389V54.4428C99.3389 53.5229 100.082 52.7772 100.999 52.7772H209.259C210.124 52.7772 210.826 53.4811 210.826 54.3489V69.521H210.825Z" fill="#7D97F4"/>
<path id="Vector_7" d="M198.406 62.3834L140.567 61.8331C139.203 61.8202 138.106 60.9164 138.106 59.8062V57.8712C138.106 57.0142 138.958 56.3199 140.01 56.3199H198.82C199.857 56.3199 200.676 57.0374 200.6 57.8795L200.322 60.9504C200.248 61.7656 199.409 62.393 198.405 62.3834H198.406Z" fill="#BDD0FB"/>
<path id="Vector_8" d="M205.702 79.5277H104.456C103.785 79.5277 103.24 78.9832 103.24 78.3121V75.0599C103.24 74.3842 103.791 73.8384 104.467 73.8442L205.713 74.7391C206.381 74.7449 206.919 75.2874 206.919 75.9547V78.3121C206.919 78.9832 206.374 79.5277 205.703 79.5277H205.702Z" fill="#BDD0FB"/>
<path id="Vector_9" d="M128.653 61.9321C126.991 61.9321 125.64 60.5763 125.64 58.9094C125.64 57.2424 126.991 55.8867 128.653 55.8867C130.314 55.8867 131.665 57.2424 131.665 58.9094C131.665 60.5763 130.314 61.9321 128.653 61.9321ZM128.653 56.3232C127.232 56.3232 126.075 57.4835 126.075 58.9094C126.075 60.3352 127.231 61.4956 128.653 61.4956C130.074 61.4956 131.23 60.3352 131.23 58.9094C131.23 57.4835 130.074 56.3232 128.653 56.3232Z" fill="white"/>
<path id="Vector_10" d="M118.979 62.1596C117.318 62.1596 115.967 60.8038 115.967 59.1369C115.967 57.47 117.318 56.1142 118.979 56.1142C120.64 56.1142 121.992 57.47 121.992 59.1369C121.992 60.8038 120.64 62.1596 118.979 62.1596ZM118.979 56.5507C117.558 56.5507 116.402 57.7111 116.402 59.1369C116.402 60.5628 117.558 61.7231 118.979 61.7231C120.4 61.7231 121.557 60.5628 121.557 59.1369C121.557 57.7111 120.4 56.5507 118.979 56.5507Z" fill="white"/>
<path id="Vector_11" d="M109.684 62.1596C108.023 62.1596 106.671 60.8038 106.671 59.1369C106.671 57.47 108.023 56.1142 109.684 56.1142C111.345 56.1142 112.696 57.47 112.696 59.1369C112.696 60.8038 111.345 62.1596 109.684 62.1596ZM109.684 56.5507C108.263 56.5507 107.106 57.7111 107.106 59.1369C107.106 60.5628 108.262 61.7231 109.684 61.7231C111.105 61.7231 112.261 60.5628 112.261 59.1369C112.261 57.7111 111.105 56.5507 109.684 56.5507Z" fill="white"/>
<path id="Vector_12" d="M193.692 135.13H117.466C117.307 135.13 117.178 135.259 117.178 135.419V143.774C117.178 143.933 117.307 144.063 117.466 144.063H193.692C193.851 144.063 193.98 143.933 193.98 143.774V135.419C193.98 135.259 193.851 135.13 193.692 135.13Z" fill="white"/>
<path id="Vector_13" d="M197.207 141.533H112.963C112.696 141.533 112.479 141.751 112.479 142.019V144.911C112.479 145.18 112.696 145.397 112.963 145.397H197.207C197.474 145.397 197.691 145.18 197.691 144.911V142.019C197.691 141.751 197.474 141.533 197.207 141.533Z" fill="white"/>
<path id="Vector_14" d="M191.749 101.053H118.989C117.895 101.053 117.608 99.536 118.626 99.1342L155.006 84.7612C155.24 84.6693 155.499 84.6693 155.732 84.7612L192.113 99.1342C193.13 99.536 192.844 101.053 191.75 101.053H191.749Z" fill="white"/>
<path id="Vector_15" d="M122.955 103.179H121.395V131.986H122.955V103.179Z" fill="white"/>
<path id="Vector_16" d="M125.295 103.179H123.735V131.986H125.295V103.179Z" fill="white"/>
<path id="Vector_17" d="M127.635 103.179H126.075V131.986H127.635V103.179Z" fill="white"/>
<path id="Vector_18" d="M129.352 101.614H119.678V102.035L121.083 102.709H127.947L129.352 102.035V101.614Z" fill="white"/>
<path id="Vector_19" d="M129.43 134.49H119.756V132.973L121.161 132.299H128.025L129.43 132.973V134.49Z" fill="white"/>
<path id="Vector_20" d="M135.28 103.179H133.72V131.986H135.28V103.179Z" fill="white"/>
<path id="Vector_21" d="M137.621 103.179H136.061V131.986H137.621V103.179Z" fill="white"/>
<path id="Vector_22" d="M139.961 103.179H138.401V131.986H139.961V103.179Z" fill="white"/>
<path id="Vector_23" d="M141.677 101.614H132.004V102.035L133.408 102.709H140.273L141.677 102.035V101.614Z" fill="white"/>
<path id="Vector_24" d="M141.755 134.49H132.082V132.973L133.486 132.299H140.351L141.755 132.973V134.49Z" fill="white"/>
<path id="Vector_25" d="M147.606 103.179H146.046V131.986H147.606V103.179Z" fill="white"/>
<path id="Vector_26" d="M149.946 103.179H148.386V131.986H149.946V103.179Z" fill="white"/>
<path id="Vector_27" d="M152.287 103.179H150.727V131.986H152.287V103.179Z" fill="white"/>
<path id="Vector_28" d="M154.003 101.614H144.33V102.035L145.734 102.709H152.6L154.003 102.035V101.614Z" fill="white"/>
<path id="Vector_29" d="M154.081 134.49H144.408V132.973L145.812 132.299H152.677L154.081 132.973V134.49Z" fill="white"/>
<path id="Vector_30" d="M159.932 103.179H158.372V131.986H159.932V103.179Z" fill="white"/>
<path id="Vector_31" d="M162.272 103.179H160.712V131.986H162.272V103.179Z" fill="white"/>
<path id="Vector_32" d="M164.613 103.179H163.052V131.986H164.613V103.179Z" fill="white"/>
<path id="Vector_33" d="M166.329 101.614H156.656V102.035L158.06 102.709H164.925L166.329 102.035V101.614Z" fill="white"/>
<path id="Vector_34" d="M166.407 134.49H156.734V132.973L158.138 132.299H165.003L166.407 132.973V134.49Z" fill="white"/>
<path id="Vector_35" d="M172.258 103.179H170.698V131.986H172.258V103.179Z" fill="white"/>
<path id="Vector_36" d="M174.598 103.179H173.038V131.986H174.598V103.179Z" fill="white"/>
<path id="Vector_37" d="M176.938 103.179H175.378V131.986H176.938V103.179Z" fill="white"/>
<path id="Vector_38" d="M178.655 101.614H168.981V102.035L170.386 102.709H177.251L178.655 102.035V101.614Z" fill="white"/>
<path id="Vector_39" d="M178.733 134.49H169.06V132.973L170.464 132.299H177.329L178.733 132.973V134.49Z" fill="white"/>
<path id="Vector_40" d="M184.583 103.179H183.023V131.986H184.583V103.179Z" fill="white"/>
<path id="Vector_41" d="M186.924 103.179H185.364V131.986H186.924V103.179Z" fill="white"/>
<path id="Vector_42" d="M189.264 103.179H187.704V131.986H189.264V103.179Z" fill="white"/>
<path id="Vector_43" d="M190.981 101.614H181.308V102.035L182.712 102.709H189.577L190.981 102.035V101.614Z" fill="white"/>
<path id="Vector_44" d="M191.059 134.49H181.385V132.973L182.79 132.299H189.655L191.059 132.973V134.49Z" fill="white"/>
<path id="Vector_45" d="M184.936 152.243H106.306C106.117 152.243 105.965 152.396 105.965 152.585V156.992C105.965 157.181 106.117 157.335 106.306 157.335H184.936C185.124 157.335 185.277 157.181 185.277 156.992V152.585C185.277 152.396 185.124 152.243 184.936 152.243Z" fill="white"/>
<path id="Vector_46" d="M164.876 161.217H106.406C106.162 161.217 105.965 161.416 105.965 161.66V165.867C105.965 166.111 106.162 166.31 106.406 166.31H164.876C165.12 166.31 165.317 166.111 165.317 165.867V161.66C165.317 161.416 165.12 161.217 164.876 161.217Z" fill="white"/>
</g>
<g id="guy">
<path id="Vector_47" d="M232.692 146.018C232.692 146.018 239.517 149.811 240.081 156.231C240.645 162.651 240.128 189.297 226.444 195.856C212.759 202.414 194.646 200.903 187.712 200.186C180.779 199.469 176.934 194.741 176.076 191.485C175.217 188.23 173.83 176.102 181.124 172.19C188.418 168.279 196.078 162.285 203.733 156.45C211.388 150.614 224.506 141.089 232.692 146.018Z" fill="url(#paint4_linear_17_81)"/>
<path id="Vector_48" d="M183.274 174.404C183.274 174.404 185.116 174.502 185.342 178.305C185.342 178.305 181.071 182.146 175.302 183.061C174.869 183.13 175.907 180.094 176.064 179.684C176.807 177.727 179.147 176.467 183.274 174.405V174.404Z" fill="#91B3FA"/>
<path id="Vector_49" d="M204.017 169.933H202.168C200.888 169.933 199.665 169.415 198.775 168.493C195.713 165.323 188.061 157.86 182.012 155.804C181.028 155.47 179.954 155.944 179.513 156.888C178.25 159.592 176.479 165.883 180.674 175.405C181.139 176.46 182.458 176.908 183.413 176.267C183.685 176.085 183.882 175.844 184.003 175.545L183.542 164.416C183.542 164.416 193.717 173.346 195.486 175.07C197.255 176.793 206.246 175.743 204.018 169.933H204.017Z" fill="url(#paint5_linear_17_81)"/>
<path id="Vector_50" d="M166.441 197.69C168.069 196.258 170.665 194.651 174.411 194.19L175.678 194.968C175.678 194.968 174.871 196.164 173.394 197.427C172.038 198.218 169.943 199.288 168.207 199.52C166.519 199.746 166.27 198.722 166.441 197.69H166.441Z" fill="#91B3FA"/>
<path id="Vector_51" d="M176.064 179.682C177.067 180.008 177.508 181.435 180.054 180.492C182.518 179.579 184.349 178.402 185.291 177.723C185.312 177.907 185.33 178.1 185.342 178.305C185.342 178.305 180.838 182.603 175.069 183.517C174.636 183.586 174.293 183.152 174.449 182.74C174.729 182.002 175.235 180.884 176.064 179.682Z" fill="#13097C"/>
<path id="Vector_52" d="M165.213 198.913C165.534 198.546 165.944 198.126 166.44 197.69C166.269 198.722 166.518 199.746 168.206 199.52C169.943 199.288 172.037 198.217 173.393 197.427C171.693 198.882 169.106 200.427 165.841 200.335C165.116 200.315 164.734 199.46 165.213 198.913H165.213Z" fill="#140A7D"/>
<path id="Vector_53" d="M203.876 172.755L185.674 172.953C185.674 172.953 175.28 181.583 173.395 194.741C173.395 194.741 173.082 195.709 174.96 195.874C174.96 195.874 181.245 191.756 185.342 184.475C190.366 175.547 200.32 179.565 200.32 179.565C203.591 177.199 208.213 176.717 211.694 175.929L203.876 172.756V172.755Z" fill="url(#paint6_linear_17_81)"/>
<path id="Vector_54" d="M202.396 172.594C202.396 172.594 204.624 166.517 205.103 160.611C205.103 160.611 203.473 159.205 202.453 158.599C202.123 158.402 201.999 157.987 202.166 157.641C202.915 156.084 207.445 149.969 207.784 149.885C209.629 149.422 217.193 145.814 222.521 153.126C224.808 156.264 222.067 165.924 211.694 175.929L209.555 176.339L202.396 172.594Z" fill="#4346E8"/>
<path id="Vector_55" d="M214.593 144.726L215.947 149.259C216.009 149.467 215.932 149.692 215.754 149.814C215.102 150.263 213.398 151.154 211.059 150.288C210.792 150.189 210.609 149.938 210.585 149.653L210.264 145.704L214.593 144.726V144.726Z" fill="url(#paint7_linear_17_81)"/>
<path id="Vector_56" d="M206.661 141.054C206.661 141.054 207.327 145.754 209.126 147.199C210.925 148.644 214.43 147.555 215.614 144.013L213.255 137.956L206.661 141.055V141.054Z" fill="url(#paint8_linear_17_81)"/>
<path id="Vector_57" d="M213.521 141.875C213.384 141.92 213.241 141.831 213.219 141.689C213.154 141.255 212.992 140.397 212.664 139.812C212.664 139.812 212.835 139.195 211.111 140.127C209.386 141.058 206.796 142.426 205.271 141.612C203.784 140.817 202.278 136.82 206.208 137.56C206.357 137.589 206.495 137.469 206.483 137.317C206.435 136.66 206.5 135.148 208.025 134.663C209.453 134.209 210.234 134.856 210.556 135.246C210.651 135.361 210.826 135.359 210.916 135.24C211.344 134.68 212.505 133.488 214.215 134.244C215.623 134.867 215.842 135.737 215.818 136.279C215.811 136.455 215.989 136.574 216.147 136.5C216.579 136.301 217.273 136.197 217.937 137.033C218.856 138.187 217.543 139.189 217.149 139.452C217.084 139.495 217.044 139.566 217.044 139.644C217.04 140.244 216.947 142.865 215.638 144.342C215.525 144.47 215.315 144.432 215.249 144.274L214.242 141.866C214.195 141.754 214.07 141.696 213.955 141.734L213.518 141.875H213.521Z" fill="url(#paint9_linear_17_81)"/>
<path id="Vector_58" d="M213.5 142.364C213.5 142.364 214.115 139.85 215.05 140.666C215.984 141.482 214.806 143.279 213.736 143.622L213.5 142.364Z" fill="url(#paint10_linear_17_81)"/>
<path id="Vector_59" d="M205.102 160.755C205.024 160.755 204.96 160.69 204.96 160.611C204.951 157.866 206.003 154.234 206.013 154.198C206.036 154.122 206.115 154.079 206.191 154.1C206.267 154.123 206.31 154.203 206.288 154.278C206.278 154.314 205.237 157.907 205.246 160.61C205.246 160.689 205.182 160.754 205.103 160.754L205.102 160.755Z" fill="#13097B"/>
<path id="Vector_60" d="M214.537 161.237C214.506 161.237 214.475 161.228 214.449 161.207C214.387 161.158 214.376 161.067 214.425 161.005C214.453 160.969 217.258 157.391 218.217 154.953C218.246 154.879 218.33 154.843 218.403 154.872C218.477 154.901 218.513 154.984 218.484 155.058C217.509 157.535 214.679 161.146 214.65 161.183C214.622 161.219 214.58 161.237 214.538 161.237H214.537Z" fill="#13097B"/>
<path id="Vector_61" d="M212.957 166.842L212.42 166.082C212.375 166.017 212.39 165.927 212.454 165.882C212.518 165.835 212.608 165.852 212.654 165.916L213.056 166.486C217.003 164.725 219.445 159.989 219.47 159.94C219.506 159.87 219.592 159.841 219.662 159.877C219.732 159.913 219.761 160 219.725 160.07C219.7 160.12 217.167 165.033 213.063 166.796L212.957 166.842V166.842Z" fill="#140A7D"/>
<path id="Vector_62" d="M202.611 157.989C202.611 157.989 199.622 166.628 193.795 160.053L193.241 159.806L189.065 156.942L189.53 158.6C189.787 159.518 190.45 160.265 191.328 160.627L191.879 160.854C192.925 163.037 195.169 166.346 198.623 166.974C203.807 167.915 206.467 160.887 206.467 160.887L202.61 157.989H202.611Z" fill="url(#paint11_linear_17_81)"/>
<path id="Vector_63" d="M186.983 154.736L186.69 155.138C186.548 155.333 186.595 155.609 186.794 155.745L193.373 160.254C193.547 160.374 193.782 160.348 193.926 160.193C194.098 160.01 194.075 159.717 193.877 159.562L187.591 154.65C187.401 154.502 187.125 154.54 186.983 154.736H186.983Z" fill="url(#paint12_linear_17_81)"/>
<path id="Vector_64" d="M192.921 158.899C192.839 158.826 198.005 156.289 199.95 156.521C201.845 156.747 204.073 158.167 206.151 159.851C208.021 161.366 209.945 162.344 211.751 162.269C211.751 162.269 214.84 165.64 214.155 167.673C214.155 167.673 210.725 168.486 207.796 165.585C205.012 162.827 201.938 159.311 200.208 158.67C200.063 158.616 199.903 158.635 199.773 158.719C199.254 159.051 197.632 159.848 195.508 158.574C195.508 158.574 193.78 159.653 192.921 158.9V158.899Z" fill="url(#paint13_linear_17_81)"/>
</g>
</g>
<defs>
<linearGradient id="paint0_linear_17_81" x1="148.367" y1="109.14" x2="150.565" y2="196.741" gradientUnits="userSpaceOnUse">
<stop stop-color="#09005D"/>
<stop offset="1" stop-color="#1A0F91"/>
</linearGradient>
<linearGradient id="paint1_linear_17_81" x1="165.849" y1="176.618" x2="129.446" y2="67.7794" gradientUnits="userSpaceOnUse">
<stop stop-color="#09005D"/>
<stop offset="1" stop-color="#1A0F91"/>
</linearGradient>
<linearGradient id="paint2_linear_17_81" x1="73.0879" y1="180.534" x2="236.382" y2="164.062" gradientUnits="userSpaceOnUse">
<stop stop-color="#673091"/>
<stop offset="1" stop-color="#EC008C"/>
</linearGradient>
<linearGradient id="paint3_linear_17_81" x1="225.391" y1="24.5943" x2="68.143" y2="223.423" gradientUnits="userSpaceOnUse">
<stop stop-color="#4042E2"/>
<stop offset="1" stop-color="#4F52FF"/>
</linearGradient>
<linearGradient id="paint4_linear_17_81" x1="175.372" y1="200.862" x2="243.808" y2="196.09" gradientUnits="userSpaceOnUse">
<stop stop-color="#673091"/>
<stop offset="1" stop-color="#EC008C"/>
</linearGradient>
<linearGradient id="paint5_linear_17_81" x1="191.753" y1="171.204" x2="184.897" y2="145.466" gradientUnits="userSpaceOnUse">
<stop stop-color="#09005D"/>
<stop offset="1" stop-color="#1A0F91"/>
</linearGradient>
<linearGradient id="paint6_linear_17_81" x1="172.374" y1="177.94" x2="198.816" y2="187.88" gradientUnits="userSpaceOnUse">
<stop stop-color="#09005D"/>
<stop offset="1" stop-color="#1A0F91"/>
</linearGradient>
<linearGradient id="paint7_linear_17_81" x1="213.444" y1="151.019" x2="212.808" y2="145.317" gradientUnits="userSpaceOnUse">
<stop stop-color="#FEBBBA"/>
<stop offset="1" stop-color="#FF928E"/>
</linearGradient>
<linearGradient id="paint8_linear_17_81" x1="210.077" y1="146.045" x2="212.877" y2="136.842" gradientUnits="userSpaceOnUse">
<stop stop-color="#FEBBBA"/>
<stop offset="1" stop-color="#FF928E"/>
</linearGradient>
<linearGradient id="paint9_linear_17_81" x1="212.587" y1="129.136" x2="209.983" y2="143.94" gradientUnits="userSpaceOnUse">
<stop stop-color="#09005D"/>
<stop offset="1" stop-color="#1A0F91"/>
</linearGradient>
<linearGradient id="paint10_linear_17_81" x1="212.959" y1="146.922" x2="215.759" y2="137.719" gradientUnits="userSpaceOnUse">
<stop stop-color="#FEBBBA"/>
<stop offset="1" stop-color="#FF928E"/>
</linearGradient>
<linearGradient id="paint11_linear_17_81" x1="189.065" y1="162.001" x2="206.467" y2="162.001" gradientUnits="userSpaceOnUse">
<stop stop-color="#FEBBBA"/>
<stop offset="1" stop-color="#FF928E"/>
</linearGradient>
<linearGradient id="paint12_linear_17_81" x1="186.607" y1="157.445" x2="194.041" y2="157.445" gradientUnits="userSpaceOnUse">
<stop stop-color="#09005D"/>
<stop offset="1" stop-color="#1A0F91"/>
</linearGradient>
<linearGradient id="paint13_linear_17_81" x1="205.514" y1="156.108" x2="200.52" y2="174.131" gradientUnits="userSpaceOnUse">
<stop stop-color="#FEBBBA"/>
<stop offset="1" stop-color="#FF928E"/>
</linearGradient>
<clipPath id="clip0_17_81">
<rect width="300" height="240" fill="white"/>
</clipPath>
</defs>
</svg>
