<svg width="300" height="240" viewBox="0 0 300 240" fill="none" xmlns="http://www.w3.org/2000/svg">
<g id="row_7_page2">
<rect id="Rectangle 12" width="300" height="240" rx="18" fill="#E7EDFD"/>
<g id="Group" opacity="0.3">
<path id="Vector" d="M90.6983 174.821C90.6405 175.178 90.3221 175.441 89.9539 175.42C89.148 175.375 88.3323 175.295 87.5295 175.181C87.139 175.126 86.8671 174.764 86.9223 174.372C86.9229 174.367 86.9236 174.363 86.9248 174.359C86.9863 173.975 87.3439 173.71 87.73 173.764C88.4931 173.873 89.2679 173.949 90.0334 173.991C90.427 174.013 90.7293 174.351 90.707 174.745C90.7057 174.771 90.7026 174.796 90.6989 174.821H90.6983ZM84.5619 173.784C84.5575 173.811 84.5513 173.839 84.5432 173.866C84.4352 174.246 84.0397 174.467 83.6604 174.359C82.8812 174.136 82.1033 173.878 81.3496 173.592C80.9808 173.452 80.7958 173.041 80.9349 172.669C81.0746 172.3 81.4875 172.114 81.8562 172.254C82.5733 172.526 83.3115 172.771 84.0528 172.982C84.4048 173.082 84.619 173.43 84.5625 173.783L84.5619 173.784ZM78.806 171.42C78.7936 171.498 78.7675 171.576 78.7266 171.65C78.5366 171.996 78.1026 172.123 77.7568 171.933C77.0478 171.543 76.3469 171.118 75.6739 170.668C75.3455 170.448 75.2573 170.005 75.4758 169.676C75.6944 169.347 76.1383 169.258 76.4667 169.477C77.1062 169.904 77.7717 170.308 78.4447 170.678C78.7166 170.827 78.8532 171.129 78.8067 171.419L78.806 171.42ZM73.7213 167.825C73.7002 167.955 73.6437 168.081 73.5494 168.187C73.2874 168.482 72.8354 168.508 72.5411 168.245C71.937 167.706 71.3485 167.135 70.7922 166.546C70.5215 166.258 70.5339 165.806 70.8201 165.534C71.1063 165.262 71.5589 165.275 71.8302 165.562C72.358 166.121 72.9167 166.664 73.4916 167.176C73.681 167.345 73.7592 167.592 73.7213 167.825ZM69.5648 163.186C69.5356 163.368 69.4363 163.539 69.2742 163.655C68.9533 163.884 68.5069 163.809 68.2778 163.487C67.809 162.829 67.362 162.141 66.9485 161.444C66.7474 161.104 66.8591 160.665 67.1987 160.463C67.5384 160.262 67.976 160.373 68.1778 160.714C68.5702 161.377 68.9955 162.03 69.4406 162.656C69.5542 162.816 69.5933 163.006 69.5642 163.185L69.5648 163.186ZM66.5369 157.741C66.4991 157.977 66.3438 158.189 66.1073 158.287C65.7435 158.44 65.325 158.268 65.1723 157.904C64.86 157.157 64.5757 156.387 64.328 155.616C64.2069 155.24 64.4136 154.837 64.7893 154.716C65.1649 154.595 65.5672 154.802 65.6882 155.177C65.9242 155.91 66.1936 156.641 66.4904 157.351C66.5438 157.479 66.5574 157.613 66.5369 157.74V157.741ZM69.0209 131.588C69.0054 131.686 68.9688 131.782 68.9104 131.87C68.4858 132.51 68.0835 133.178 67.7147 133.854C67.5253 134.201 67.0913 134.328 66.7455 134.139C66.3991 133.95 66.2718 133.515 66.4612 133.168C66.8498 132.456 67.2733 131.753 67.7203 131.079C67.9388 130.75 68.3821 130.66 68.7105 130.878C68.9514 131.039 69.0638 131.32 69.0209 131.588ZM64.7899 151.763C64.7427 152.056 64.5155 152.301 64.2069 152.354C63.8183 152.422 63.4482 152.161 63.3806 151.772C63.2421 150.974 63.136 150.16 63.0664 149.354C63.0341 148.96 63.3234 148.613 63.7164 148.579C64.1094 148.545 64.4559 148.837 64.49 149.23C64.5558 149.996 64.6564 150.769 64.788 151.526C64.8017 151.607 64.8023 151.687 64.7899 151.763V151.763ZM66.1843 137.135C66.1768 137.182 66.165 137.228 66.1477 137.274C65.877 137.994 65.6336 138.735 65.4238 139.477C65.3164 139.857 64.9215 140.078 64.5422 139.97C64.1628 139.863 63.9399 139.467 64.0492 139.087C64.2696 138.307 64.5254 137.527 64.8104 136.77C64.9494 136.4 65.3617 136.214 65.7311 136.353C66.0545 136.475 66.2377 136.807 66.1849 137.136L66.1843 137.135ZM64.4199 145.544C64.3627 145.901 64.0449 146.164 63.6767 146.144C63.2825 146.123 62.9807 145.786 63.0012 145.392C63.0447 144.584 63.1229 143.767 63.2353 142.964C63.2353 142.959 63.2365 142.954 63.2371 142.949C63.2986 142.566 63.6556 142.301 64.0411 142.355C64.4323 142.41 64.7048 142.771 64.6496 143.162C64.5434 143.925 64.4689 144.701 64.4279 145.469C64.4261 145.494 64.4236 145.52 64.4199 145.545V145.544Z" fill="#91B3FA"/>
<path id="Vector_2" d="M72.1618 127.671C72.1394 127.811 72.0761 127.944 71.9712 128.054C71.7154 128.319 71.4608 128.595 71.2144 128.872C70.9524 129.167 70.5004 129.194 70.2061 128.931C69.9112 128.669 69.8839 128.216 70.1471 127.921C70.406 127.63 70.6736 127.34 70.9424 127.061C71.2162 126.777 71.6688 126.768 71.9525 127.042C72.1276 127.211 72.1978 127.448 72.1618 127.671Z" fill="#91B3FA"/>
</g>
<g id="Group_2" opacity="0.3">
<path id="Vector_3" d="M92.2026 119.133C92.148 119.473 91.8524 119.734 91.4967 119.733C91.1285 119.733 90.7542 119.74 90.3835 119.755C89.9893 119.771 89.6565 119.464 89.641 119.069C89.6248 118.673 89.9322 118.341 90.3258 118.326C90.7157 118.31 91.1099 118.302 91.4979 118.303C91.8922 118.303 92.2119 118.623 92.2119 119.019C92.2119 119.057 92.2088 119.096 92.2026 119.133Z" fill="#91B3FA"/>
<path id="Vector_4" d="M119.673 151.4C119.621 151.725 119.562 152.051 119.499 152.376C119.423 152.764 119.048 153.017 118.661 152.941C118.274 152.865 118.02 152.487 118.097 152.102C118.244 151.35 118.361 150.594 118.443 149.847C118.487 149.454 118.84 149.171 119.232 149.215C119.624 149.258 119.906 149.612 119.863 150.005C119.811 150.468 119.748 150.937 119.673 151.401V151.4ZM118.523 156.024C118.517 156.063 118.507 156.103 118.493 156.142C118.236 156.898 117.943 157.651 117.624 158.38C117.466 158.742 117.044 158.907 116.684 158.748C116.322 158.59 116.157 158.167 116.316 157.806C116.619 157.113 116.897 156.398 117.142 155.68C117.269 155.306 117.675 155.107 118.048 155.234C118.383 155.348 118.577 155.686 118.523 156.024ZM120.018 146.243C119.965 146.576 119.681 146.834 119.332 146.843C118.937 146.854 118.61 146.542 118.599 146.147C118.579 145.392 118.527 144.627 118.442 143.873C118.4 143.48 118.682 143.126 119.073 143.083C119.466 143.039 119.819 143.322 119.862 143.715C119.951 144.508 120.006 145.314 120.027 146.11C120.028 146.155 120.025 146.2 120.018 146.243L120.018 146.243ZM115.918 161.577C115.903 161.666 115.871 161.754 115.821 161.837C115.404 162.516 114.953 163.186 114.482 163.828C114.247 164.146 113.8 164.214 113.483 163.98C113.165 163.745 113.097 163.298 113.331 162.979C113.779 162.37 114.207 161.734 114.603 161.089C114.809 160.752 115.249 160.646 115.585 160.853C115.839 161.009 115.961 161.299 115.917 161.577H115.918ZM119.18 140.171C119.136 140.444 118.935 140.679 118.65 140.751C118.267 140.848 117.879 140.616 117.782 140.233C117.597 139.501 117.377 138.767 117.131 138.05C117.002 137.676 117.2 137.269 117.573 137.14C117.946 137.011 118.352 137.21 118.481 137.583C118.741 138.338 118.972 139.111 119.167 139.882C119.192 139.98 119.195 140.078 119.18 140.171ZM117.032 134.431C116.997 134.649 116.861 134.848 116.65 134.955C116.297 135.134 115.868 134.993 115.69 134.64C115.348 133.964 114.974 133.295 114.578 132.65C114.37 132.314 114.475 131.874 114.811 131.666C115.147 131.459 115.587 131.564 115.794 131.9C116.211 132.578 116.605 133.283 116.964 133.994C117.035 134.134 117.056 134.286 117.033 134.431H117.032ZM113.686 129.295C113.659 129.461 113.574 129.619 113.434 129.734C113.129 129.985 112.679 129.941 112.429 129.636C111.948 129.05 111.438 128.478 110.911 127.936C110.636 127.653 110.642 127.2 110.925 126.924C111.208 126.649 111.66 126.655 111.935 126.938C112.489 127.509 113.027 128.111 113.533 128.727C113.668 128.892 113.718 129.1 113.686 129.295H113.686ZM109.301 125.013C109.282 125.128 109.235 125.24 109.158 125.339C108.916 125.651 108.467 125.706 108.156 125.463C107.559 124.997 106.936 124.551 106.303 124.139C105.972 123.923 105.879 123.479 106.094 123.149C106.309 122.818 106.752 122.724 107.082 122.94C107.749 123.375 108.405 123.844 109.034 124.335C109.247 124.502 109.34 124.765 109.299 125.013H109.301ZM104.082 121.799C104.071 121.863 104.052 121.928 104.022 121.99C103.854 122.348 103.429 122.501 103.072 122.333C102.389 122.011 101.683 121.714 100.973 121.45C100.603 121.313 100.416 120.9 100.552 120.53C100.689 120.16 101.101 119.971 101.471 120.109C102.218 120.387 102.961 120.7 103.68 121.038C103.975 121.178 104.131 121.492 104.081 121.799L104.082 121.799ZM98.2893 119.812C98.2868 119.827 98.2843 119.842 98.2806 119.856C98.1943 120.241 97.8119 120.484 97.4276 120.397C96.8843 120.276 96.3305 120.169 95.7817 120.08C95.583 120.048 95.3844 120.019 95.1863 119.991C94.7952 119.936 94.5226 119.575 94.5773 119.184C94.6245 118.786 94.992 118.519 95.3831 118.574C95.5917 118.603 95.8003 118.634 96.0096 118.668C96.587 118.761 97.1693 118.873 97.7405 119.002C98.1111 119.085 98.3489 119.442 98.2893 119.813V119.812Z" fill="#91B3FA"/>
<path id="Vector_5" d="M112.143 166.429C112.121 166.57 112.056 166.705 111.95 166.814C111.68 167.092 111.399 167.369 111.115 167.638C110.828 167.909 110.376 167.896 110.105 167.609C109.834 167.322 109.846 166.869 110.133 166.597C110.403 166.342 110.67 166.079 110.926 165.816C111.201 165.533 111.654 165.527 111.936 165.803C112.109 165.972 112.178 166.208 112.143 166.429Z" fill="#91B3FA"/>
</g>
<path id="Vector_6" d="M104.115 164.157C104.239 164.085 104.303 163.944 104.275 163.804L103.498 159.81C104.88 158.508 106.065 156.975 106.985 155.25L111.036 154.96C111.178 154.95 111.298 154.85 111.334 154.712L112.591 149.996C112.628 149.858 112.573 149.712 112.455 149.632L109.087 147.36C109.147 145.405 108.881 143.485 108.33 141.667L110.991 138.591C111.084 138.483 111.099 138.328 111.028 138.204L108.586 133.979C108.515 133.855 108.373 133.791 108.233 133.819L104.245 134.598C102.945 133.213 101.415 132.027 99.6924 131.105L99.4024 127.048C99.3925 126.905 99.2932 126.785 99.1553 126.749L94.4456 125.49C94.3078 125.453 94.1625 125.508 94.0824 125.626L91.8139 128.999C89.8619 128.94 87.9448 129.205 86.1288 129.757L83.0575 127.092C82.9501 126.999 82.7949 126.984 82.672 127.056L78.4533 129.501C78.3298 129.573 78.2658 129.714 78.2931 129.854L79.0711 133.848C77.6884 135.15 76.5039 136.683 75.5832 138.408L71.5322 138.698C71.39 138.708 71.2702 138.808 71.2335 138.946L69.9776 143.662C69.9409 143.8 69.9956 143.946 70.1135 144.026L73.4816 146.298C73.422 148.253 73.6871 150.173 74.2384 151.992L71.5775 155.067C71.4844 155.174 71.4695 155.33 71.5409 155.453L73.9826 159.678C74.054 159.802 74.1956 159.866 74.3353 159.839L78.3236 159.06C79.6236 160.444 81.154 161.631 82.8762 162.553L83.1661 166.61C83.1761 166.752 83.2754 166.872 83.4132 166.909L88.123 168.167C88.2608 168.204 88.4061 168.149 88.4862 168.031L90.7547 164.658C92.7066 164.718 94.6238 164.452 96.4398 163.9L99.5111 166.565C99.6185 166.658 99.7737 166.673 99.8972 166.602L104.116 164.156L104.115 164.157Z" fill="#91B3FA"/>
<path id="Vector_7" d="M96.122 147.614C95.7421 149.975 93.6771 151.77 91.2192 151.737C88.5179 151.701 86.3493 149.47 86.386 146.764C86.4033 145.454 86.9298 144.228 87.8673 143.314C88.8048 142.4 90.0421 141.906 91.3508 141.924C94.0521 141.96 96.2201 144.191 96.1841 146.896C96.181 147.14 96.1599 147.38 96.122 147.614V147.614ZM87.5767 146.223C87.5476 146.406 87.5314 146.592 87.5283 146.779C87.5004 148.853 89.163 150.563 91.2341 150.591C93.3053 150.619 95.0138 148.955 95.0405 146.88C95.0684 144.806 93.4058 143.096 91.3347 143.068C90.3314 143.054 89.3828 143.433 88.6638 144.134C88.0796 144.704 87.7034 145.432 87.5761 146.223H87.5767Z" fill="#BDD0FB"/>
<path id="Vector_8" d="M103.125 148.642C103.059 149.047 102.973 149.452 102.866 149.854C102.833 149.981 102.797 150.107 102.759 150.232C102.573 150.851 102.337 151.454 102.057 152.032C102.053 152.04 102.049 152.048 102.045 152.056C102.034 152.078 102.024 152.1 102.013 152.122C101.991 152.166 101.969 152.209 101.947 152.251C101.89 152.365 101.767 152.423 101.648 152.404C101.619 152.399 101.59 152.39 101.563 152.376C101.423 152.304 101.368 152.131 101.439 151.991C101.809 151.267 102.103 150.498 102.314 149.706C103.363 145.771 102.231 141.759 99.6658 138.961C98.2391 137.404 96.3691 136.224 94.1838 135.64C93.8007 135.537 93.4152 135.455 93.029 135.393C90.4295 134.974 87.7872 135.459 85.4777 136.798C82.8248 138.335 80.9288 140.816 80.1384 143.782C78.5075 149.907 82.1549 156.215 88.2684 157.849C88.6452 157.949 89.0258 158.031 89.4089 158.092C91.0671 158.36 92.7651 158.26 94.3812 157.796C94.4228 157.785 94.465 157.782 94.5054 157.789C94.6109 157.806 94.7034 157.882 94.7344 157.992C94.7773 158.145 94.691 158.302 94.5383 158.346C92.8415 158.833 91.0584 158.938 89.3176 158.657C88.9159 158.592 88.5167 158.507 88.1206 158.401C81.7017 156.686 77.8736 150.06 79.5853 143.634C80.4147 140.521 82.4051 137.917 85.1902 136.302C87.6146 134.896 90.3885 134.387 93.1178 134.827C93.5232 134.892 93.928 134.979 94.3303 135.086C97.4395 135.917 100.04 137.911 101.652 140.7C103.056 143.128 103.563 145.908 103.124 148.641L103.125 148.642Z" fill="#BDD0FB"/>
<g id="Group_3" opacity="0.3">
<path id="Vector_9" d="M105.407 201.922C105.376 202.111 105.225 202.265 105.026 202.29C104.655 202.337 104.276 202.373 103.902 202.398C103.66 202.414 103.449 202.23 103.433 201.987C103.416 201.743 103.601 201.533 103.844 201.517C104.2 201.493 104.561 201.458 104.916 201.413C105.157 201.383 105.377 201.554 105.408 201.796C105.414 201.839 105.413 201.882 105.406 201.923L105.407 201.922Z" fill="#91B3FA"/>
<path id="Vector_10" d="M102.014 202.037C101.979 202.258 101.781 202.421 101.553 202.408C100.909 202.37 100.26 202.299 99.6235 202.196C99.4893 202.174 99.3552 202.151 99.2211 202.127C98.9815 202.082 98.8337 201.841 98.866 201.612C98.9101 201.372 99.1398 201.213 99.3795 201.257C99.508 201.28 99.6359 201.303 99.7644 201.323C100.372 201.421 100.991 201.489 101.605 201.525C101.848 201.539 102.034 201.748 102.02 201.992C102.019 202.007 102.017 202.022 102.015 202.037H102.014ZM97.5076 201.212C97.5045 201.232 97.4995 201.254 97.4933 201.274C97.4207 201.507 97.173 201.637 96.9402 201.564C96.1939 201.331 95.4551 201.05 94.7455 200.727C94.5232 200.626 94.4258 200.363 94.5257 200.142C94.6263 199.919 94.8877 199.821 95.1099 199.922C95.7873 200.23 96.4913 200.498 97.2034 200.72C97.4151 200.787 97.5418 200.998 97.5076 201.211V201.212ZM93.3356 199.317C93.3269 199.372 93.307 199.427 93.276 199.477C93.1487 199.686 92.8767 199.75 92.6688 199.623C92.0032 199.214 91.3563 198.759 90.7454 198.27C90.5548 198.117 90.5238 197.84 90.6765 197.649C90.8286 197.458 91.1061 197.427 91.2967 197.579C91.8791 198.045 92.4956 198.479 93.1307 198.869C93.2877 198.965 93.3629 199.144 93.3356 199.316V199.317ZM89.7564 196.452C89.7421 196.543 89.6993 196.629 89.6291 196.698C89.4547 196.868 89.1753 196.865 89.0052 196.69C88.4588 196.129 87.9429 195.53 87.4717 194.908C87.3245 194.713 87.363 194.436 87.5561 194.289C87.7498 194.141 88.0267 194.179 88.1745 194.373C88.624 194.966 89.1163 195.538 89.6366 196.072C89.7384 196.177 89.7775 196.318 89.7564 196.452V196.452ZM86.9843 192.8C86.9638 192.926 86.8893 193.042 86.7708 193.112C86.5603 193.234 86.2902 193.163 86.1673 192.952C85.7743 192.276 85.4198 191.569 85.1125 190.851C85.0156 190.626 85.1199 190.367 85.3441 190.271C85.5682 190.174 85.8277 190.279 85.9233 190.503C86.2163 191.188 86.5547 191.862 86.9297 192.507C86.9831 192.599 86.9992 192.702 86.9837 192.799L86.9843 192.8ZM85.182 188.584C85.1559 188.748 85.038 188.889 84.8685 188.938C84.6344 189.006 84.3898 188.871 84.3221 188.637C84.1055 187.886 83.9329 187.114 83.8112 186.343C83.7739 186.101 83.9372 185.875 84.1781 185.837C84.4184 185.798 84.645 185.963 84.6829 186.204C84.7996 186.939 84.9635 187.675 85.1702 188.391C85.1888 188.456 85.192 188.522 85.182 188.584ZM84.4637 184.056C84.4308 184.261 84.257 184.42 84.0434 184.427C83.8 184.436 83.5958 184.245 83.5877 184C83.5616 183.221 83.584 182.43 83.6541 181.649C83.6802 181.406 83.8913 181.227 84.1334 181.248C84.3762 181.27 84.555 181.485 84.5332 181.728C84.4656 182.473 84.4445 183.228 84.4693 183.971C84.4705 184 84.468 184.028 84.4637 184.056V184.056ZM85.498 177.274C85.4937 177.299 85.4875 177.324 85.4788 177.35C85.2671 177.958 85.0845 178.589 84.9374 179.225C84.9144 179.321 84.8933 179.415 84.8728 179.51C84.8213 179.749 84.5872 179.9 84.3488 179.849C84.1098 179.798 83.9521 179.56 84.0099 179.325C84.0316 179.224 84.0539 179.123 84.0782 179.023C84.2327 178.358 84.4233 177.698 84.6456 177.06C84.7257 176.829 84.9771 176.708 85.2075 176.788C85.4124 176.859 85.5316 177.067 85.498 177.275V177.274Z" fill="#91B3FA"/>
</g>
<g id="Group_4" opacity="0.3">
<path id="Vector_11" d="M121.491 186.131C121.452 186.369 121.23 186.532 120.991 186.497C120.75 186.462 120.583 186.237 120.619 185.996C120.726 185.269 120.79 184.53 120.809 183.798C120.817 183.555 121.017 183.361 121.261 183.367C121.505 183.374 121.697 183.577 121.691 183.821C121.671 184.588 121.604 185.363 121.492 186.125C121.492 186.127 121.491 186.129 121.49 186.131L121.491 186.131ZM121.027 188.343C121.025 188.358 121.021 188.374 121.017 188.389C120.815 189.132 120.565 189.869 120.276 190.581C120.183 190.807 119.926 190.916 119.701 190.824C119.475 190.732 119.368 190.473 119.458 190.248C119.735 189.568 119.973 188.865 120.166 188.157C120.23 187.922 120.473 187.783 120.707 187.847C120.927 187.908 121.063 188.123 121.027 188.343ZM121.605 181.62C121.574 181.814 121.416 181.97 121.212 181.99C120.97 182.013 120.754 181.836 120.73 181.593C120.659 180.861 120.542 180.128 120.383 179.413C120.331 179.174 120.481 178.939 120.719 178.886C120.956 178.833 121.192 178.983 121.245 179.222C121.412 179.971 121.533 180.74 121.608 181.507C121.612 181.546 121.611 181.584 121.605 181.62H121.605ZM119.324 192.523C119.316 192.573 119.299 192.622 119.273 192.668C118.898 193.341 118.479 193.996 118.025 194.617C117.881 194.814 117.605 194.857 117.408 194.713C117.212 194.569 117.17 194.292 117.313 194.095C117.745 193.503 118.146 192.879 118.503 192.238C118.621 192.025 118.891 191.948 119.103 192.067C119.27 192.16 119.352 192.345 119.324 192.523ZM120.627 177.217C120.603 177.371 120.496 177.508 120.339 177.563C120.11 177.645 119.858 177.524 119.776 177.294C119.532 176.603 119.243 175.919 118.917 175.262C118.808 175.043 118.898 174.778 119.116 174.67C119.334 174.561 119.599 174.65 119.707 174.869C120.049 175.558 120.352 176.274 120.609 176.999C120.634 177.071 120.64 177.146 120.629 177.216L120.627 177.217ZM118.623 173.176C118.604 173.294 118.538 173.404 118.43 173.475C118.227 173.61 117.953 173.553 117.819 173.349C117.416 172.735 116.972 172.14 116.499 171.581C116.342 171.395 116.365 171.116 116.551 170.958C116.737 170.8 117.015 170.824 117.172 171.01C117.668 171.596 118.133 172.219 118.556 172.863C118.62 172.959 118.64 173.07 118.623 173.176V173.176ZM115.71 169.732C115.697 169.816 115.66 169.896 115.599 169.962C115.433 170.141 115.154 170.151 114.975 169.986C114.437 169.486 113.863 169.016 113.27 168.587C113.074 168.444 113.028 168.168 113.171 167.97C113.314 167.772 113.59 167.728 113.787 167.871C114.408 168.32 115.011 168.814 115.575 169.337C115.687 169.442 115.733 169.591 115.71 169.732Z" fill="#91B3FA"/>
<path id="Vector_12" d="M116.649 196.181C116.635 196.265 116.598 196.346 116.535 196.413C116.276 196.688 116.008 196.957 115.738 197.213C115.561 197.38 115.282 197.373 115.114 197.195C114.948 197.018 114.955 196.738 115.132 196.571C115.389 196.327 115.645 196.07 115.892 195.808C116.059 195.63 116.338 195.621 116.516 195.788C116.626 195.893 116.671 196.041 116.649 196.181Z" fill="#91B3FA"/>
</g>
<path id="Vector_13" d="M111.08 194.91C111.163 194.863 111.205 194.767 111.187 194.674L110.667 192.001C111.592 191.13 112.384 190.105 113 188.95L115.711 188.756C115.806 188.749 115.886 188.683 115.911 188.591L116.751 185.435C116.776 185.343 116.74 185.245 116.66 185.192L114.406 183.672C114.446 182.363 114.269 181.079 113.9 179.862L115.68 177.804C115.743 177.732 115.752 177.628 115.705 177.545L114.071 174.718C114.023 174.635 113.928 174.593 113.835 174.611L111.166 175.132C110.296 174.206 109.272 173.412 108.119 172.795L107.925 170.08C107.919 169.985 107.852 169.905 107.76 169.88L104.609 169.038C104.517 169.013 104.419 169.05 104.366 169.13L102.848 171.387C101.542 171.347 100.259 171.525 99.0443 171.894L96.9893 170.111C96.9173 170.049 96.8136 170.039 96.7311 170.087L93.9081 171.723C93.8255 171.771 93.7827 171.866 93.8007 171.959L94.3216 174.632C93.3965 175.503 92.6037 176.529 91.9878 177.683L89.2772 177.877C89.1822 177.884 89.1021 177.951 89.0773 178.043L88.2367 181.199C88.2119 181.291 88.2485 181.388 88.328 181.442L90.5816 182.962C90.5419 184.27 90.7194 185.555 91.0882 186.772L89.3076 188.83C89.2449 188.902 89.2356 189.006 89.2828 189.088L90.9169 191.915C90.9647 191.998 91.0597 192.041 91.1528 192.023L93.8218 191.501C94.6916 192.428 95.7154 193.222 96.8683 193.839L97.062 196.553C97.0688 196.648 97.1352 196.728 97.2271 196.753L100.379 197.595C100.47 197.62 100.568 197.583 100.621 197.504L102.139 195.247C103.445 195.287 104.728 195.109 105.943 194.739L107.998 196.523C108.07 196.585 108.174 196.595 108.256 196.548L111.079 194.911L111.08 194.91Z" fill="#91B3FA"/>
<path id="Vector_14" d="M105.789 183.854C105.676 184.558 105.341 185.204 104.822 185.711C104.184 186.334 103.341 186.67 102.45 186.658C100.61 186.634 99.1331 185.114 99.1573 183.271C99.1852 181.426 100.699 179.949 102.539 179.974C103.431 179.986 104.264 180.345 104.886 180.984C105.508 181.624 105.844 182.468 105.831 183.361C105.829 183.527 105.815 183.693 105.789 183.854ZM100.071 182.924C100.052 183.041 100.041 183.161 100.039 183.284C100.021 184.639 101.108 185.756 102.461 185.774C103.117 185.783 103.737 185.536 104.207 185.078C104.677 184.62 104.939 184.006 104.949 183.349C104.958 182.692 104.711 182.071 104.254 181.601C103.796 181.13 103.183 180.867 102.527 180.857C101.296 180.841 100.261 181.74 100.071 182.924Z" fill="#BDD0FB"/>
<path id="Vector_15" d="M110.661 184.577C110.617 184.853 110.558 185.129 110.485 185.404C110.339 185.952 110.138 186.485 109.885 186.99L109.851 187.058C109.761 187.233 109.572 187.323 109.388 187.293C109.343 187.286 109.299 187.271 109.256 187.25C109.04 187.138 108.955 186.872 109.065 186.655C109.305 186.186 109.495 185.688 109.631 185.176C109.639 185.148 109.646 185.12 109.653 185.092C109.964 183.877 109.961 182.632 109.662 181.448C109.5 180.805 109.251 180.181 108.916 179.59C108.914 179.585 108.911 179.58 108.908 179.575C108.899 179.56 108.891 179.546 108.883 179.531C107.889 177.811 106.285 176.582 104.368 176.07C104.12 176.003 103.871 175.95 103.62 175.91C101.937 175.639 100.227 175.953 98.7313 176.82C97.014 177.815 95.7866 179.421 95.2757 181.341C94.7653 183.26 95.0304 185.266 96.0238 186.986C97.0177 188.706 98.6214 189.935 100.539 190.447C100.783 190.513 101.029 190.565 101.277 190.605C102.35 190.778 103.45 190.714 104.496 190.414C104.56 190.395 104.626 190.392 104.688 190.402C104.851 190.428 104.993 190.546 105.042 190.717C105.108 190.952 104.974 191.196 104.739 191.263C103.568 191.6 102.338 191.671 101.137 191.478C100.86 191.434 100.584 191.375 100.311 191.302C98.1657 190.728 96.3721 189.353 95.2601 187.429C94.1482 185.504 93.849 183.262 94.4226 181.114C94.9944 178.965 96.3677 177.169 98.2898 176.055C99.9624 175.085 101.876 174.734 103.759 175.037C104.039 175.082 104.318 175.142 104.596 175.216C108.749 176.325 111.33 180.414 110.661 184.576L110.661 184.577Z" fill="#BDD0FB"/>
<path id="Vector_16" d="M122.531 41.6245C121.962 68.5735 120.112 161.531 120.995 194.472C121.089 197.962 123.476 200.763 126.455 200.877C141.187 201.441 195.194 202.873 219.291 201.689C224.31 201.442 228.301 196.679 228.406 190.795C228.907 162.509 230.011 82.9499 227.386 46.5034C227.071 42.1368 224.145 38.6593 220.424 38.2228C204.379 36.3432 150.139 31.7466 129.321 33.3296C125.567 33.6149 122.625 37.2181 122.531 41.6245Z" fill="url(#paint0_linear_37_622)"/>
<path id="Vector_17" d="M129.105 49.8927C128.312 71.6444 125.811 144.007 126.605 170.766C126.721 174.677 129.352 177.84 132.686 178.068C146.416 179.01 193.258 181.085 213.396 179.196C217.022 178.856 219.868 175.42 220.063 171.164C221.084 148.973 224.014 81.5926 223.253 55.1341C223.131 50.913 220.341 47.4659 216.75 47.0885C201.897 45.526 152.122 41.8085 135.01 42.9022C131.797 43.1074 129.242 46.1273 129.105 49.8927Z" fill="#91B3FA"/>
<path id="Vector_18" opacity="0.33" d="M132.951 54.1765C132.226 74.4105 129.938 141.724 130.664 166.615C130.77 170.253 133.176 173.195 136.227 173.408C148.784 174.283 191.626 176.214 210.045 174.457C213.361 174.14 215.964 170.945 216.143 166.986C217.076 146.343 219.756 83.6648 219.06 59.0524C218.949 55.126 216.397 51.9195 213.113 51.5682C199.528 50.1146 154.003 46.6563 138.351 47.6741C135.413 47.865 133.076 50.6742 132.95 54.1772L132.951 54.1765Z" fill="white"/>
<path id="Vector_19" opacity="0.66" d="M158.94 38.0382C158.94 38.8651 159.49 39.5472 160.195 39.5901C163.675 39.8034 173.477 40.4077 177.857 40.7055C178.721 40.764 179.399 39.8543 179.235 38.8595L179.207 38.6898C179.095 38.0108 178.615 37.4997 178.027 37.4363C175.065 37.1186 166.13 36.2369 160.21 36.4844C159.5 36.5142 158.94 37.2044 158.94 38.0382Z" fill="url(#paint1_linear_37_622)"/>
<path id="Vector_20" opacity="0.54" d="M196.643 140.775H153.937C153.5 140.775 153.145 141.13 153.145 141.568V153.136C153.145 153.573 153.5 153.928 153.937 153.928H196.643C197.081 153.928 197.435 153.573 197.435 153.136V141.568C197.435 141.13 197.081 140.775 196.643 140.775Z" fill="white"/>
<path id="Vector_21" opacity="0.54" d="M196.847 157.293H154.14C153.703 157.293 153.349 157.648 153.349 158.086V163.077C153.349 163.515 153.703 163.87 154.14 163.87H196.847C197.284 163.87 197.639 163.515 197.639 163.077V158.086C197.639 157.648 197.284 157.293 196.847 157.293Z" fill="white"/>
<g id="cento_1">
<path id="Vector_22" d="M180.67 124.95C186.22 119.392 186.22 110.381 180.67 104.822C175.12 99.2641 166.121 99.2641 160.571 104.822C155.021 110.381 155.021 119.392 160.571 124.95C166.121 130.509 175.12 130.509 180.67 124.95Z" fill="url(#paint2_linear_37_622)"/>
<path id="Vector_23" d="M180.336 124.616C185.701 119.242 185.701 110.53 180.336 105.157C174.97 99.7834 166.271 99.7834 160.906 105.157C155.54 110.53 155.54 119.242 160.906 124.616C166.271 129.989 174.97 129.989 180.336 124.616Z" fill="url(#paint3_linear_37_622)"/>
<path id="Vector_24" opacity="0.7" d="M159.181 109.875C159.112 109.877 159.041 109.863 158.974 109.83C158.745 109.721 158.648 109.446 158.758 109.217C160.912 104.704 165.35 101.835 170.34 101.728C171.136 101.711 171.934 101.766 172.714 101.89C172.964 101.93 173.135 102.166 173.095 102.417C173.056 102.668 172.821 102.841 172.569 102.798C171.844 102.683 171.101 102.632 170.359 102.647C165.719 102.747 161.591 105.416 159.587 109.613C159.509 109.775 159.349 109.871 159.182 109.875L159.181 109.875Z" fill="white"/>
<path id="Vector_25" opacity="0.78" d="M179.149 123.414C183.69 118.866 183.69 111.493 179.149 106.945C174.607 102.397 167.245 102.397 162.703 106.945C158.162 111.493 158.162 118.866 162.703 123.414C167.245 127.962 174.607 127.962 179.149 123.414Z" fill="white"/>
<path id="Vector_26" d="M169.97 123.86L169.943 122.593C168.623 122.569 167.312 122.285 166.377 121.899C166.043 121.761 165.867 121.393 165.954 121.042L166.251 119.855C166.359 119.42 166.824 119.186 167.241 119.35C168.168 119.716 169.309 119.997 170.533 119.971C171.803 119.943 172.741 119.492 172.722 118.608C172.705 117.81 171.963 117.352 170.188 116.915C167.655 116.279 165.823 115.219 165.776 112.998C165.733 110.993 167.164 109.431 169.695 108.967L169.668 107.701C169.659 107.293 169.982 106.956 170.389 106.947L171.132 106.931C171.539 106.922 171.876 107.245 171.885 107.653L171.909 108.79C173.13 108.813 174.023 109.003 174.732 109.236C175.096 109.355 175.302 109.741 175.21 110.113L174.938 111.21C174.833 111.634 174.389 111.874 173.978 111.728C173.324 111.496 172.401 111.26 171.209 111.285C169.702 111.318 169.285 111.952 169.296 112.513C169.311 113.202 170.225 113.657 172.197 114.219C175.013 115 176.201 116.139 176.245 118.23C176.286 120.149 174.903 121.904 172.157 122.394L172.187 123.811C172.196 124.219 171.873 124.556 171.466 124.565L170.722 124.581C170.315 124.59 169.979 124.267 169.969 123.859L169.97 123.86Z" fill="url(#paint4_linear_37_622)"/>
</g>
<g id="cento_2">
<path id="Vector_27" d="M201.069 110.119C208.153 103.025 208.153 91.5237 201.069 84.4297C193.985 77.3356 182.501 77.3356 175.417 84.4297C168.334 91.5237 168.334 103.025 175.417 110.119C182.501 117.213 193.985 117.213 201.069 110.119Z" fill="url(#paint5_linear_37_622)"/>
<path id="Vector_28" d="M200.642 109.692C207.49 102.834 207.49 91.715 200.642 84.857C193.794 77.999 182.692 77.999 175.844 84.857C168.996 91.715 168.996 102.834 175.844 109.692C182.692 116.55 193.794 116.55 200.642 109.692Z" fill="url(#paint6_linear_37_622)"/>
<path id="Vector_29" opacity="0.7" d="M173.641 90.7387C173.573 90.7399 173.504 90.7262 173.439 90.6951C173.216 90.5882 173.122 90.3215 173.228 90.0989C175.955 84.3874 181.572 80.7556 187.887 80.6201C188.893 80.5983 189.905 80.668 190.893 80.8259C191.136 80.8651 191.302 81.0945 191.263 81.3382C191.224 81.582 190.997 81.7517 190.752 81.7094C189.817 81.5602 188.859 81.4943 187.906 81.5148C181.931 81.6429 176.615 85.08 174.034 90.4843C173.959 90.6423 173.804 90.7355 173.641 90.7387Z" fill="white"/>
<path id="Vector_30" opacity="0.78" d="M199.128 108.159C204.924 102.355 204.924 92.9437 199.128 87.1393C193.332 81.3349 183.935 81.3349 178.139 87.1393C172.343 92.9437 172.343 102.355 178.139 108.159C183.935 113.963 193.332 113.963 199.128 108.159Z" fill="white"/>
<path id="Vector_31" d="M187.414 108.727L187.379 107.111C185.695 107.079 184.022 106.717 182.828 106.224C182.402 106.048 182.177 105.578 182.289 105.131L182.667 103.616C182.805 103.06 183.399 102.762 183.931 102.972C185.115 103.439 186.571 103.797 188.133 103.764C189.754 103.729 190.951 103.153 190.927 102.025C190.905 101.007 189.958 100.422 187.692 99.8648C184.459 99.0534 182.121 97.6998 182.06 94.8659C182.006 92.3073 183.832 90.3133 187.062 89.7214L187.028 88.1042C187.016 87.5838 187.429 87.1529 187.948 87.1417L188.897 87.1212C189.417 87.11 189.847 87.5229 189.858 88.0433L189.889 89.4951C191.447 89.5243 192.587 89.7662 193.493 90.064C193.958 90.2163 194.22 90.7081 194.102 91.1832L193.755 92.584C193.621 93.1243 193.054 93.4308 192.53 93.2449C191.695 92.949 190.517 92.6474 188.995 92.6804C187.072 92.7214 186.54 93.5309 186.555 94.2466C186.574 95.127 187.741 95.7077 190.257 96.424C193.852 97.4207 195.367 98.8744 195.424 101.543C195.476 103.991 193.71 106.232 190.206 106.857L190.244 108.666C190.255 109.187 189.843 109.618 189.324 109.629L188.375 109.649C187.855 109.661 187.425 109.248 187.414 108.727Z" fill="url(#paint7_linear_37_622)"/>
</g>
<g id="cento_3">
<path id="Vector_32" d="M229.926 89.2037C239.358 79.7578 239.358 64.4429 229.926 54.997C220.494 45.5511 205.202 45.5511 195.77 54.997C186.338 64.4429 186.338 79.7578 195.77 89.2037C205.202 98.6496 220.494 98.6496 229.926 89.2037Z" fill="url(#paint8_linear_37_622)"/>
<path id="Vector_33" d="M229.358 88.6348C238.476 79.5031 238.476 64.6976 229.358 55.5659C220.24 46.4342 205.456 46.4342 196.338 55.5659C187.22 64.6976 187.22 79.5031 196.338 88.6348C205.456 97.7665 220.24 97.7665 229.358 88.6348Z" fill="url(#paint9_linear_37_622)"/>
<path id="Vector_34" opacity="0.7" d="M193.401 63.2381C193.335 63.2393 193.267 63.2263 193.204 63.1952C192.987 63.0914 192.895 62.8302 192.999 62.6132C196.604 55.0632 204.03 50.2619 212.378 50.0829C213.71 50.0543 215.047 50.1457 216.351 50.3552C216.589 50.3931 216.751 50.617 216.713 50.8551C216.675 51.0932 216.453 51.2561 216.214 51.217C214.961 51.0161 213.677 50.9278 212.397 50.9558C204.379 51.1281 197.248 55.739 193.786 62.99C193.712 63.1436 193.561 63.235 193.401 63.2381H193.401Z" fill="white"/>
<path id="Vector_35" opacity="0.78" d="M227.341 86.5931C235.059 78.8641 235.059 66.3329 227.341 58.6039C219.624 50.875 207.111 50.875 199.394 58.604C191.676 66.3329 191.676 78.8641 199.394 86.5931C207.111 94.3221 219.624 94.322 227.341 86.5931Z" fill="white"/>
<path id="Vector_36" d="M211.744 87.35L211.698 85.1975C209.455 85.1558 207.227 84.6733 205.638 84.0174C205.071 83.783 204.771 83.1575 204.919 82.5612L205.422 80.5442C205.606 79.8043 206.397 79.4064 207.106 79.6862C208.682 80.3079 210.62 80.7855 212.7 80.7407C214.858 80.6947 216.452 79.9268 216.42 78.4253C216.391 77.0698 215.13 76.2907 212.113 75.549C207.808 74.4684 204.695 72.6659 204.614 68.8924C204.542 65.4852 206.974 62.8308 211.275 62.0425L211.229 59.8893C211.215 59.1967 211.763 58.6228 212.455 58.6085L213.718 58.5811C214.409 58.5662 214.982 59.1158 214.997 59.8085L215.039 61.7415C217.114 61.7801 218.631 62.1028 219.838 62.4988C220.456 62.7015 220.806 63.3562 220.649 63.9886L220.186 65.8539C220.008 66.5732 219.253 66.9811 218.555 66.7343C217.443 66.3401 215.875 65.939 213.848 65.9826C211.287 66.0373 210.579 67.1154 210.599 68.0679C210.624 69.24 212.178 70.0134 215.529 70.9678C220.315 72.2947 222.333 74.2302 222.408 77.7842C222.478 81.0447 220.127 84.0273 215.46 84.8605L215.511 87.2698C215.526 87.9625 214.977 88.5363 214.286 88.5513L213.023 88.5786C212.331 88.5935 211.758 88.0439 211.744 87.3513L211.744 87.35Z" fill="url(#paint10_linear_37_622)"/>
</g>
<path id="Vector_37" d="M157.294 33.0559H74.5372C73.8216 33.0559 73.2415 33.6369 73.2415 34.3535V74.796C73.2415 75.5127 73.8216 76.0936 74.5372 76.0936H157.294C158.009 76.0936 158.589 75.5127 158.589 74.796V34.3535C158.589 33.6369 158.009 33.0559 157.294 33.0559Z" fill="#7D97F4"/>
<path id="Vector_38" opacity="0.41" d="M154.685 38.3857H76.3382C75.6226 38.3857 75.0425 38.9667 75.0425 39.6834V74.0531C75.0425 74.7698 75.6226 75.3507 76.3382 75.3507H154.685C155.4 75.3507 155.981 74.7698 155.981 74.0531V39.6834C155.981 38.9667 155.4 38.3857 154.685 38.3857Z" fill="white"/>
<g id="Group_5" opacity="0.67">
<path id="Vector_39" d="M82.5838 45.324H77.6921V73.588H82.5838V45.324Z" fill="white"/>
</g>
<g id="Group_6" opacity="0.67">
<path id="Vector_40" d="M89.1536 45.324H84.262V73.588H89.1536V45.324Z" fill="white"/>
</g>
<g id="Group_7" opacity="0.67">
<path id="Vector_41" d="M95.5855 45.324H90.6938V73.588H95.5855V45.324Z" fill="white"/>
</g>
<g id="Group_8" opacity="0.67">
<path id="Vector_42" d="M102.155 45.324H97.2632V73.588H102.155V45.324Z" fill="white"/>
</g>
<g id="Group_9" opacity="0.67">
<path id="Vector_43" d="M108.391 45.324H103.5V73.588H108.391V45.324Z" fill="white"/>
</g>
<g id="Group_10" opacity="0.67">
<path id="Vector_44" d="M114.961 45.324H110.069V73.588H114.961V45.324Z" fill="white"/>
</g>
<g id="Group_11" opacity="0.67">
<path id="Vector_45" d="M121.393 45.324H116.501V73.588H121.393V45.324Z" fill="white"/>
</g>
<g id="Group_12" opacity="0.67">
<path id="Vector_46" d="M127.962 45.324H123.07V73.588H127.962V45.324Z" fill="white"/>
</g>
<g id="Group_13" opacity="0.67">
<path id="Vector_47" d="M134.509 45.324H129.617V73.588H134.509V45.324Z" fill="white"/>
</g>
<g id="Group_14" opacity="0.67">
<path id="Vector_48" d="M141.078 45.324H136.186V73.588H141.078V45.324Z" fill="white"/>
</g>
<g id="Group_15" opacity="0.67">
<path id="Vector_49" d="M147.51 45.324H142.618V73.588H147.51V45.324Z" fill="white"/>
</g>
<g id="Group_16" opacity="0.67">
<path id="Vector_50" d="M154.08 45.324H149.188V73.588H154.08V45.324Z" fill="white"/>
</g>
<path id="Vector_51" d="M158.61 42.0535V35.696C158.61 34.2099 157.386 33 155.902 33H75.9284C74.4446 33 73.2576 34.2099 73.2576 35.696V42.0535H158.611H158.61Z" fill="#7D97F4"/>
<g id="grafic">
<path id="Vector_52" d="M82.6138 59.9434H77.7222V73.5879H82.6138V59.9434Z" fill="#7D97F4"/>
<path id="Vector_53" d="M89.1829 55.7665H84.2913V73.5887H89.1829V55.7665Z" fill="#7D97F4"/>
<path id="Vector_54" d="M95.6148 63.2655H90.7231V73.588H95.6148V63.2655Z" fill="#7D97F4"/>
<path id="Vector_55" d="M102.184 52.0278H97.2922V73.5887H102.184V52.0278Z" fill="#7D97F4"/>
<path id="Vector_56" d="M108.421 48.4178H103.529V73.588H108.421V48.4178Z" fill="#7D97F4"/>
<path id="Vector_57" d="M114.99 65.9186H110.098V73.5886H114.99V65.9186Z" fill="#7D97F4"/>
<path id="Vector_58" d="M121.422 58.2578H116.53V73.5886H121.422V58.2578Z" fill="#7D97F4"/>
<path id="Vector_59" d="M127.991 55.7665H123.1V73.5887H127.991V55.7665Z" fill="#7D97F4"/>
<path id="Vector_60" d="M134.539 59.4559H129.647V73.588H134.539V59.4559Z" fill="#7D97F4"/>
<path id="Vector_61" d="M141.108 50.0941H136.216V73.5886H141.108V50.0941Z" fill="#7D97F4"/>
<path id="Vector_62" d="M147.54 52.0278H142.648V73.5887H147.54V52.0278Z" fill="#7D97F4"/>
<path id="Vector_63" d="M154.109 54.7343H149.217V73.5886H154.109V54.7343Z" fill="#7D97F4"/>
</g>
<path id="Vector_64" d="M118.049 201.498C115.616 201.709 111.392 202.051 108.062 202.198C106.06 202.286 104.908 202.089 104.244 201.823C104.246 201.898 104.247 201.969 104.251 202.035C104.266 202.385 104.551 202.666 104.905 202.686C111.197 203.038 116.201 202.808 117.982 202.699C118.351 202.677 118.57 202.276 118.382 201.961C118.287 201.804 118.173 201.65 118.049 201.497V201.498Z" fill="#7D97F4"/>
<path id="Vector_65" d="M108.062 202.198C111.392 202.051 115.616 201.709 118.05 201.498C115.657 198.558 108.062 196.577 108.062 196.577H105.917C104.442 198.706 104.228 200.734 104.244 201.824C104.908 202.09 106.06 202.286 108.062 202.198V202.198Z" fill="url(#paint11_linear_37_622)"/>
<path id="Vector_66" d="M105.556 193.069L105.757 197.047C105.779 197.478 106.101 197.84 106.531 197.902C106.959 197.963 107.534 197.971 108.142 197.768C108.516 197.643 108.795 197.327 108.864 196.942L109.557 193.069H105.556H105.556Z" fill="url(#paint12_linear_37_622)"/>
<path id="Vector_67" d="M80.6612 206.087C79.6057 205.897 79.1283 205.187 78.9278 204.428C78.9265 204.435 78.9253 204.442 78.924 204.449C78.7688 205.249 79.1289 206.079 79.8485 206.473C80.7183 206.95 81.6694 207.03 82.4076 206.991C83.1998 206.949 83.9268 206.525 84.3266 205.846L84.3328 205.836C83.5375 206.345 82.4219 206.405 80.6618 206.087H80.6612Z" fill="#7D97F4"/>
<path id="Vector_68" d="M85.6373 194.296H83.8685C81.1741 194.224 79.4823 201.58 78.9285 204.428C79.1284 205.187 79.6064 205.896 80.6619 206.087C82.422 206.405 83.5382 206.345 84.3329 205.836C85.7888 203.357 86.5102 199.725 86.8573 197.606C87.2521 195.196 85.6379 194.296 85.6379 194.296L85.6373 194.296Z" fill="url(#paint13_linear_37_622)"/>
<path id="Vector_69" d="M84.0956 190.603L83.1134 194.516C82.993 194.996 83.222 195.492 83.6653 195.719C84.2148 196.002 84.9883 196.299 85.6992 196.212C86.0338 196.172 86.3114 195.936 86.4219 195.621L87.8641 191.505L84.0956 190.604V190.603Z" fill="url(#paint14_linear_37_622)"/>
<path id="Vector_70" d="M118.649 139.073C118.649 139.073 109.871 194.023 110.015 194.325C110.015 194.325 107.591 195.429 104.948 194.466C104.948 194.466 105.742 165.091 107.601 153.828C107.601 153.828 92.6205 180.083 87.8636 193.166C87.8636 193.166 85.3821 192.869 83.3284 191.516C83.3284 191.516 99.4585 144.257 103.762 137.963L118.648 139.072L118.649 139.073Z" fill="url(#paint15_linear_37_622)"/>
<path id="Vector_71" d="M107.952 153.636C107.888 153.636 107.824 153.619 107.765 153.582C107.6 153.479 107.55 153.261 107.654 153.095L110.934 147.848C110.986 147.766 111.068 147.708 111.163 147.689L113.577 147.203C113.768 147.164 113.954 147.288 113.992 147.479C114.031 147.671 113.907 147.857 113.716 147.895L111.451 148.352L108.251 153.47C108.184 153.577 108.069 153.636 107.952 153.636H107.952Z" fill="url(#paint16_linear_37_622)"/>
<path id="Vector_72" d="M158.93 85.2653C158.93 85.2653 153.007 86.5735 149.404 88.2392C148.688 88.5699 148.118 89.1482 147.793 89.8613C146.716 92.2253 143.492 98.1525 137.24 100.981C138.14 102.178 139.59 104.667 140.221 108.851C143.976 106.053 147.217 101.378 148.774 93.7125C148.774 93.7125 149.959 94.3579 151.437 93.6385C152.218 93.2586 153.12 92.7196 153.797 92.2961C154.471 91.874 154.974 91.2174 155.169 90.4508C155.427 89.4385 155.275 88.5482 155.275 87.5931L158.32 86.6487C158.32 86.6487 159.235 86.303 158.93 85.2646V85.2653Z" fill="url(#paint17_linear_37_622)"/>
<path id="Vector_73" d="M140.222 108.851C139.59 104.667 138.141 102.178 137.24 100.981C133.357 102.738 128.305 103.3 121.872 101.067C121.279 100.862 120.661 100.741 120.033 100.704C116.609 100.503 105.323 100.136 95.9848 103.226C94.0192 103.876 92.4279 105.331 91.6072 107.217C89.081 113.022 84.9915 126.244 96.3448 132.919C97.2171 130.75 98.2241 129.007 99.0846 127.726C97.2562 124.638 96.7149 120.419 99.9594 114.926C102.325 121.324 103.435 130.659 103.667 134.79C103.743 136.15 103.505 137.508 102.972 138.763L102.914 138.9C102.8 139.169 102.957 139.478 103.244 139.543C109.635 140.981 116.283 140.59 118.269 140.425C118.624 140.396 118.919 140.142 119 139.799C122.108 126.683 122.115 117.737 121.354 112.081C124.262 112.732 133.152 114.121 140.222 108.851Z" fill="url(#paint18_linear_37_622)"/>
<path id="Vector_74" d="M121.367 112.528C121.192 112.528 121.041 112.398 121.018 112.221C120.288 106.701 118.815 104.327 118.801 104.303C118.697 104.138 118.745 103.92 118.909 103.816C119.074 103.711 119.292 103.76 119.396 103.924C119.46 104.025 120.968 106.455 121.718 112.128C121.743 112.321 121.607 112.499 121.414 112.525C121.398 112.526 121.383 112.528 121.367 112.528H121.367Z" fill="#110774"/>
<path id="Vector_75" d="M105.593 93.0641C105.593 93.0641 104.947 99.9109 104.377 101.936C104.291 102.243 104.424 102.567 104.703 102.727C105.669 103.28 107.986 104.182 111.156 102.626C111.67 102.374 111.978 101.837 111.955 101.27L111.675 94.6539L105.593 93.0641Z" fill="url(#paint19_linear_37_622)"/>
<path id="Vector_76" d="M111.815 84.3053C111.815 84.3053 113.883 89.063 114.022 91.5606C114.161 94.0576 114.698 95.6786 111.815 96.1809C108.932 96.684 106.503 95.2452 105.187 92.7581C105.187 92.7581 103.125 88.925 103.588 87.3557C104.05 85.7857 111.814 84.3059 111.814 84.3059L111.815 84.3053Z" fill="url(#paint20_linear_37_622)"/>
<path id="Vector_77" d="M106.172 90.9693L106.336 90.8965C106.545 90.8045 106.635 90.5552 106.529 90.3519C106.123 89.5653 105.33 87.7622 106.354 87.3419C107.673 86.7997 112.901 85.7322 114.028 83.875C115.112 82.0899 114.152 79.7856 112.708 79.1297C112.612 79.0855 112.498 79.1204 112.448 79.2142L112.328 79.4424C112.245 79.5985 112.016 79.5749 111.967 79.4051C111.919 79.2422 111.703 79.2105 111.614 79.3548C111.267 79.9106 110.331 80.8116 107.829 81.2741C104.272 81.9313 101.92 83.3732 101.862 85.8348C101.858 85.9914 101.692 86.0779 101.559 85.9964C101.296 85.836 100.876 85.7608 100.314 86.2339C99.3373 87.0565 99.7365 89.1904 101.878 90.9456C101.98 91.029 101.979 91.1881 101.869 91.2596C101.481 91.5127 100.902 92.1152 102.402 92.9179C103.953 93.7479 105.111 93.6802 105.557 93.6062C105.668 93.5875 105.739 93.4799 105.715 93.3705L105.239 91.2068C105.212 91.0843 105.305 90.9687 105.43 90.9687H106.172L106.172 90.9693Z" fill="url(#paint21_linear_37_622)"/>
<path id="Vector_78" d="M106.262 91.4257C106.262 91.4257 105.473 88.3866 104.113 89.2384C102.752 90.0908 104.819 92.6438 105.913 92.7576L106.262 91.4257Z" fill="url(#paint22_linear_37_622)"/>
<path id="Vector_79" d="M150.354 93.0995C150.276 93.0995 150.197 93.0734 150.132 93.0205C149.981 92.8974 149.958 92.6748 150.081 92.5237C150.306 92.2464 152.304 89.7998 153.084 89.3583C153.336 89.2159 153.491 89.0698 153.52 88.948C153.523 88.9312 153.532 88.8957 153.515 88.8329L151.283 89.2812L149.978 90.4029C149.831 90.5297 149.608 90.5129 149.481 90.365C149.354 90.217 149.371 89.9938 149.519 89.8669L150.893 88.6856C150.939 88.6458 150.995 88.6191 151.054 88.6072L153.639 88.0887C153.778 88.0607 153.922 88.1192 154.001 88.2379C154.203 88.5382 154.273 88.8323 154.207 89.1121C154.129 89.4423 153.876 89.7245 153.432 89.9757C152.932 90.2593 151.447 91.9635 150.628 92.972C150.559 93.0578 150.457 93.1026 150.355 93.1026L150.354 93.0995Z" fill="url(#paint23_linear_37_622)"/>
<path id="Vector_80" d="M106.204 137.595L115.537 137.392C115.537 137.392 107.398 135.088 106.894 135.716C106.894 135.716 101.849 132.396 99.0852 127.727C98.2241 129.008 97.2177 130.751 96.3455 132.92C98.8239 134.376 102.078 136.908 106.204 137.595H106.204Z" fill="url(#paint24_linear_37_622)"/>
<path id="Vector_81" d="M105.941 135.977C105.941 135.977 105.748 139.701 110.629 139.16C113.282 138.866 117.565 136.389 117.565 136.389C117.565 136.389 106.402 136.359 105.941 135.977Z" fill="url(#paint25_linear_37_622)"/>
<path id="Vector_82" d="M107.852 136.976C107.87 136.977 107.888 136.977 107.906 136.977L131.11 136.952C131.684 136.952 132.148 136.49 132.148 135.922C132.148 135.353 131.68 134.884 131.108 134.894L107.903 134.919C107.329 134.919 106.865 135.381 106.866 135.949C106.866 136.5 107.303 136.949 107.852 136.976Z" fill="url(#paint26_linear_37_622)"/>
<path id="Vector_83" d="M151.97 116.099H132.645C131.22 116.099 129.922 116.914 129.314 118.192L120.38 136.964H144.396C145.315 136.964 146.14 136.407 146.477 135.561L153.405 118.191C153.806 117.187 153.059 116.099 151.97 116.099Z" fill="url(#paint27_linear_37_622)"/>
<path id="Vector_84" d="M138.356 125.724C137.936 127.013 138.246 128.265 139.047 128.521C139.847 128.776 140.835 127.937 141.254 126.648C141.673 125.36 141.363 124.107 140.563 123.852C139.763 123.596 138.775 124.434 138.356 125.724Z" fill="#7D97F4"/>
</g>
<defs>
<linearGradient id="paint0_linear_37_622" x1="120.76" y1="117.574" x2="229.068" y2="117.574" gradientUnits="userSpaceOnUse">
<stop stop-color="#09005D"/>
<stop offset="1" stop-color="#1A0F91"/>
</linearGradient>
<linearGradient id="paint1_linear_37_622" x1="158.94" y1="38.5748" x2="179.26" y2="38.5748" gradientUnits="userSpaceOnUse">
<stop stop-color="#4F52FF"/>
<stop offset="1" stop-color="#4042E2"/>
</linearGradient>
<linearGradient id="paint2_linear_37_622" x1="151.678" y1="137.901" x2="170.295" y2="115.363" gradientUnits="userSpaceOnUse">
<stop stop-color="#FF928E"/>
<stop offset="1" stop-color="#FE7062"/>
</linearGradient>
<linearGradient id="paint3_linear_37_622" x1="170.621" y1="134.345" x2="189.941" y2="112.571" gradientUnits="userSpaceOnUse">
<stop stop-color="#673091"/>
<stop offset="1" stop-color="#EC008C"/>
</linearGradient>
<linearGradient id="paint4_linear_37_622" x1="165.775" y1="124.581" x2="176.865" y2="124.184" gradientUnits="userSpaceOnUse">
<stop stop-color="#673091"/>
<stop offset="1" stop-color="#EC008C"/>
</linearGradient>
<linearGradient id="paint5_linear_37_622" x1="164.062" y1="126.648" x2="187.823" y2="97.8829" gradientUnits="userSpaceOnUse">
<stop stop-color="#FF928E"/>
<stop offset="1" stop-color="#FE7062"/>
</linearGradient>
<linearGradient id="paint6_linear_37_622" x1="188.243" y1="122.11" x2="212.902" y2="94.3195" gradientUnits="userSpaceOnUse">
<stop stop-color="#673091"/>
<stop offset="1" stop-color="#EC008C"/>
</linearGradient>
<linearGradient id="paint7_linear_37_622" x1="182.059" y1="109.65" x2="196.215" y2="109.142" gradientUnits="userSpaceOnUse">
<stop stop-color="#673091"/>
<stop offset="1" stop-color="#EC008C"/>
</linearGradient>
<linearGradient id="paint8_linear_37_622" x1="180.644" y1="111.212" x2="212.283" y2="72.9096" gradientUnits="userSpaceOnUse">
<stop stop-color="#FF928E"/>
<stop offset="1" stop-color="#FE7062"/>
</linearGradient>
<linearGradient id="paint9_linear_37_622" x1="212.848" y1="105.169" x2="245.682" y2="68.1657" gradientUnits="userSpaceOnUse">
<stop stop-color="#673091"/>
<stop offset="1" stop-color="#EC008C"/>
</linearGradient>
<linearGradient id="paint10_linear_37_622" x1="204.613" y1="88.5789" x2="223.461" y2="87.9031" gradientUnits="userSpaceOnUse">
<stop stop-color="#673091"/>
<stop offset="1" stop-color="#EC008C"/>
</linearGradient>
<linearGradient id="paint11_linear_37_622" x1="104.244" y1="199.398" x2="118.05" y2="199.398" gradientUnits="userSpaceOnUse">
<stop stop-color="#09005D"/>
<stop offset="1" stop-color="#1A0F91"/>
</linearGradient>
<linearGradient id="paint12_linear_37_622" x1="105.556" y1="195.505" x2="109.558" y2="195.505" gradientUnits="userSpaceOnUse">
<stop stop-color="#FEBBBA"/>
<stop offset="1" stop-color="#FF928E"/>
</linearGradient>
<linearGradient id="paint13_linear_37_622" x1="78.9285" y1="200.289" x2="86.9187" y2="200.289" gradientUnits="userSpaceOnUse">
<stop stop-color="#09005D"/>
<stop offset="1" stop-color="#1A0F91"/>
</linearGradient>
<linearGradient id="paint14_linear_37_622" x1="83.0817" y1="193.415" x2="87.8641" y2="193.415" gradientUnits="userSpaceOnUse">
<stop stop-color="#FEBBBA"/>
<stop offset="1" stop-color="#FF928E"/>
</linearGradient>
<linearGradient id="paint15_linear_37_622" x1="121.764" y1="141.732" x2="80.8458" y2="208.66" gradientUnits="userSpaceOnUse">
<stop stop-color="#4F52FF"/>
<stop offset="1" stop-color="#4042E2"/>
</linearGradient>
<linearGradient id="paint16_linear_37_622" x1="97.4941" y1="50.7053" x2="106.666" y2="119.23" gradientUnits="userSpaceOnUse">
<stop stop-color="#4F52FF"/>
<stop offset="1" stop-color="#4042E2"/>
</linearGradient>
<linearGradient id="paint17_linear_37_622" x1="135.663" y1="113.654" x2="153.043" y2="85.5711" gradientUnits="userSpaceOnUse">
<stop stop-color="#FEBBBA"/>
<stop offset="1" stop-color="#FF928E"/>
</linearGradient>
<linearGradient id="paint18_linear_37_622" x1="88.7683" y1="140.6" x2="143.004" y2="136.386" gradientUnits="userSpaceOnUse">
<stop stop-color="#673091"/>
<stop offset="1" stop-color="#EC008C"/>
</linearGradient>
<linearGradient id="paint19_linear_37_622" x1="106.642" y1="108.481" x2="108.72" y2="97.5879" gradientUnits="userSpaceOnUse">
<stop stop-color="#FEBBBA"/>
<stop offset="1" stop-color="#FF928E"/>
</linearGradient>
<linearGradient id="paint20_linear_37_622" x1="112.249" y1="88.4929" x2="100.413" y2="97.5357" gradientUnits="userSpaceOnUse">
<stop stop-color="#FEBBBA"/>
<stop offset="1" stop-color="#FF928E"/>
</linearGradient>
<linearGradient id="paint21_linear_37_622" x1="103.926" y1="81.3195" x2="114.958" y2="95.5017" gradientUnits="userSpaceOnUse">
<stop stop-color="#4F52FF"/>
<stop offset="1" stop-color="#4042E2"/>
</linearGradient>
<linearGradient id="paint22_linear_37_622" x1="110.783" y1="86.5735" x2="98.9465" y2="95.6163" gradientUnits="userSpaceOnUse">
<stop stop-color="#FEBBBA"/>
<stop offset="1" stop-color="#FF928E"/>
</linearGradient>
<linearGradient id="paint23_linear_37_622" x1="165.561" y1="49.5084" x2="158.606" y2="69.713" gradientUnits="userSpaceOnUse">
<stop stop-color="#FF928E"/>
<stop offset="1" stop-color="#FE7062"/>
</linearGradient>
<linearGradient id="paint24_linear_37_622" x1="113.994" y1="43.414" x2="116.524" y2="14.6774" gradientUnits="userSpaceOnUse">
<stop stop-color="#FEBBBA"/>
<stop offset="1" stop-color="#FF928E"/>
</linearGradient>
<linearGradient id="paint25_linear_37_622" x1="103.642" y1="43.8757" x2="101.112" y2="15.1385" gradientUnits="userSpaceOnUse">
<stop stop-color="#FEBBBA"/>
<stop offset="1" stop-color="#FF928E"/>
</linearGradient>
<linearGradient id="paint26_linear_37_622" x1="103.92" y1="130.811" x2="122.344" y2="136.845" gradientUnits="userSpaceOnUse">
<stop stop-color="#09005D"/>
<stop offset="1" stop-color="#1A0F91"/>
</linearGradient>
<linearGradient id="paint27_linear_37_622" x1="129.268" y1="118.866" x2="142.476" y2="132.804" gradientUnits="userSpaceOnUse">
<stop stop-color="#09005D"/>
<stop offset="1" stop-color="#1A0F91"/>
</linearGradient>
</defs>
</svg>
