<svg width="300" height="240" viewBox="0 0 300 240" fill="none" xmlns="http://www.w3.org/2000/svg">
<g id="row_3_image">
<rect id="Rectangle 8" width="300" height="240" rx="18" fill="#E7EDFD"/>
<path id="Vector" d="M64.6245 195.497C64.6245 197.198 66.0222 198.589 67.7304 198.589H235.675C237.383 198.589 238.781 197.197 238.781 195.497L240.179 99.3022C240.179 97.6017 238.168 94.2808 234.483 94.5305L70.3495 90.2976C68.2063 90.2426 66.1339 91.0644 64.6163 92.5721C63.0988 94.0799 62.2682 96.1414 62.3186 98.2755L64.6252 195.497H64.6245Z" fill="url(#paint0_linear_32_140)"/>
<path id="Vector_2" d="M67.6903 192.53C67.6903 194.141 69.0124 195.459 70.6287 195.459H231.625C233.241 195.459 234.563 194.141 234.563 192.53L235.882 105.204C235.727 99.9489 231.104 98.0597 228.302 98.1717L70.995 93.9653C69.489 93.9252 68.0334 94.5034 66.9672 95.5633C65.9011 96.6232 65.3142 98.0747 65.3523 99.575L67.6916 192.529L67.6903 192.53Z" fill="#91B3FA"/>
<path id="Vector_3" d="M232.823 151.044H232.817C232.579 151.041 232.389 150.846 232.393 150.608L232.497 143.526C232.5 143.291 232.692 143.103 232.927 143.103H232.931C233.172 143.107 233.362 143.301 233.357 143.539L233.253 150.621C233.25 150.856 233.058 151.044 232.823 151.044Z" fill="#BDD0FB"/>
<path id="Vector_4" d="M233.079 133.689H233.073C232.835 133.686 232.645 133.491 232.649 133.254L233.048 106.13C233.041 104.519 232.55 103.232 231.59 102.315C229.797 100.603 226.951 100.691 226.831 100.696L176.552 99.3524C176.315 99.3463 176.127 99.1489 176.134 98.912C176.14 98.6752 176.322 98.4737 176.576 98.4947L226.824 99.8383C227.137 99.82 230.167 99.7677 232.185 101.695C233.321 102.779 233.901 104.273 233.909 106.133L233.509 133.266C233.506 133.501 233.314 133.689 233.079 133.689V133.689Z" fill="#BDD0FB"/>
<path id="Vector_5" d="M51.3846 206.574L248.615 206.574C248.828 206.574 249 206.403 249 206.191V198.506C249 198.294 248.828 198.123 248.615 198.123L51.3846 198.123C51.1722 198.123 51 198.294 51 198.506V206.191C51 206.403 51.1722 206.574 51.3846 206.574Z" fill="url(#paint1_linear_32_140)"/>
<path id="Vector_6" d="M193.435 156.287L187.706 156.165V140.1C187.706 139.8 187.957 139.561 188.258 139.577L193.01 139.818C193.247 139.83 193.435 140.025 193.435 140.263V156.288V156.287Z" fill="#BDD0FB"/>
<g id="circle">
<path id="Vector_7" d="M148.975 53.7877C112.732 54.908 83.58 83.2744 82.5506 118.477C82.5282 119.251 83.1681 119.891 83.966 119.894L147.23 120.103C149.411 120.111 151.175 118.385 151.152 116.269L150.478 55.1869C150.469 54.395 149.791 53.7633 148.975 53.7884V53.7877Z" fill="url(#paint2_linear_32_140)"/>
<path id="Vector_8" d="M83.0403 123.456C82.7543 123.455 82.5181 123.681 82.5181 123.961V123.964C82.5181 160.777 112.926 190.619 150.437 190.619H150.444C150.839 190.619 151.159 190.302 151.154 189.915L150.472 127.49C150.449 125.378 148.701 123.674 146.549 123.668L83.0403 123.456Z" fill="url(#paint3_linear_32_140)"/>
<path id="Vector_9" d="M152.991 126.208L153.686 189.197C153.695 189.981 154.365 190.605 155.171 190.581C192.014 189.452 221.534 160.133 221.606 124.097C221.53 124.023 221.487 123.981 221.412 123.907L155.565 123.689C154.134 123.685 152.976 124.818 152.991 126.208Z" fill="url(#paint4_linear_32_140)"/>
<path id="Vector_10" d="M217.379 120.335C218.747 120.339 219.847 119.208 219.795 117.846C218.447 82.2178 189.044 53.7477 152.97 53.7477C152.573 53.7477 152.253 54.0707 152.257 54.4656L152.935 117.496C152.951 118.949 154.134 120.12 155.592 120.125L217.379 120.335Z" fill="url(#paint5_linear_32_140)"/>
<path id="Vector_11" d="M149.034 54.0951C113.746 55.2154 85.3619 83.5817 84.3597 118.784C84.3379 119.558 84.9609 120.199 85.7383 120.202L147.336 120.411C149.458 120.418 151.178 118.692 151.154 116.577L150.497 55.4943C150.489 54.7024 149.828 54.0707 149.034 54.0958V54.0951Z" fill="url(#paint6_linear_32_140)"/>
<path id="Vector_12" d="M84.8417 123.764C84.5605 123.763 84.3276 123.989 84.3276 124.269V124.274C84.3276 161.086 114.268 190.928 151.202 190.928H151.21C151.599 190.928 151.913 190.611 151.909 190.223L151.237 127.799C151.215 125.686 149.494 123.983 147.374 123.976L84.8417 123.765V123.764Z" fill="url(#paint7_linear_32_140)"/>
<path id="Vector_13" d="M154.799 126.516L155.477 189.505C155.485 190.288 156.139 190.913 156.924 190.888C192.821 189.76 221.583 160.44 221.653 124.405C221.579 124.331 221.537 124.289 221.463 124.215L157.308 123.997C155.914 123.992 154.784 125.125 154.799 126.516Z" fill="url(#paint8_linear_32_140)"/>
<path id="Vector_14" d="M219.188 120.642C220.556 120.647 221.655 119.516 221.604 118.153C220.256 82.5252 190.853 54.0551 154.778 54.0551C154.382 54.0551 154.061 54.3781 154.066 54.773L154.744 117.803C154.76 119.256 155.943 120.428 157.401 120.432L219.188 120.642Z" fill="url(#paint9_linear_32_140)"/>
<path id="Vector_15" d="M167.785 92.4595C167.785 85.0631 173.822 79.0462 181.242 79.0462C188.663 79.0462 194.7 85.0637 194.7 92.4595C194.7 99.8552 188.663 105.873 181.242 105.873C173.822 105.873 167.785 99.8559 167.785 92.4595ZM168.615 92.4595C168.615 99.3999 174.28 105.046 181.242 105.046C188.205 105.046 193.871 99.3999 193.871 92.4595C193.871 85.5191 188.206 79.8727 181.242 79.8727C174.279 79.8727 168.615 85.5191 168.615 92.4595Z" fill="white"/>
<path id="Vector_16" d="M185.302 90.3933H186.633C186.8 90.3933 186.932 90.1537 186.932 89.9868V89.0822C186.932 87.3912 185.556 86.1271 183.859 86.1271H182.117V84.7869C182.117 84.508 181.735 84.2814 181.315 84.2814C180.895 84.2814 180.512 84.5073 180.512 84.7869V86.1271H178.811C177.115 86.1271 175.697 87.3912 175.697 89.0822V90.7359C175.697 92.4269 177.115 93.8587 178.811 93.8587H180.512V97.0582H178.811C178.182 97.0582 177.57 96.4631 177.57 95.8361V95.7587C177.57 95.5925 177.535 95.4588 177.368 95.4588H176.037C175.87 95.4588 175.697 95.5918 175.697 95.7587V95.8361C175.697 97.5271 177.115 98.6583 178.811 98.6583H180.512V100.131C180.512 100.41 180.895 100.637 181.315 100.637C181.735 100.637 182.117 100.411 182.117 100.131V98.6583H183.859C185.556 98.6583 186.932 97.5271 186.932 95.8361V94.9404C186.932 93.2494 185.556 91.7266 183.859 91.7266H182.117V87.7278H183.859C184.488 87.7278 185.06 88.4566 185.06 89.0829V89.9875C185.06 90.1537 185.136 90.3939 185.302 90.3939V90.3933ZM183.859 93.8587C184.488 93.8587 185.06 94.3127 185.06 94.9397V95.8354C185.06 96.4624 184.488 97.0575 183.859 97.0575H182.117V93.858H183.859V93.8587ZM180.513 91.726H178.812C178.183 91.726 177.57 91.3629 177.57 90.7366V89.0829C177.57 88.4559 178.183 87.7278 178.812 87.7278H180.513V91.7266V91.726Z" fill="white"/>
<path id="Vector_17" d="M137.426 91.3541C137.308 91.5509 137.108 91.692 136.871 91.7307L135.223 91.9974C134.89 92.7058 134.469 93.3674 133.969 93.9727L134.435 95.5721C134.529 95.8978 134.405 96.2466 134.128 96.4413L132.157 97.8277C131.88 98.0224 131.509 98.0204 131.233 97.8229L129.878 96.8492C129.138 97.1158 128.371 97.2882 127.59 97.3642L126.784 98.8225C126.618 99.1163 126.287 99.2791 125.952 99.2215L123.574 98.8123C123.24 98.7546 122.978 98.4913 122.924 98.1575L122.656 96.5153C121.946 96.1828 121.282 95.7641 120.675 95.2654L119.07 95.7295C118.744 95.8238 118.394 95.701 118.198 95.4249L116.807 93.4597C116.611 93.1822 116.61 92.809 116.812 92.5382L117.789 91.1879C117.521 90.4502 117.347 89.6862 117.273 88.9079L115.809 88.1051C115.512 87.9416 115.351 87.6077 115.409 87.2745L115.82 84.9056C115.878 84.5711 116.142 84.3112 116.478 84.2576L118.125 83.9909C118.458 83.2825 118.878 82.6202 119.379 82.0156L118.913 80.4162C118.819 80.0925 118.941 79.7424 119.219 79.547L121.191 78.1613C121.468 77.9666 121.839 77.9686 122.115 78.1661L123.47 79.1398C124.21 78.8731 124.977 78.7001 125.758 78.6248L126.563 77.1665C126.726 76.872 127.062 76.7105 127.396 76.7682L129.773 77.1774C130.109 77.2351 130.369 77.499 130.423 77.8329L130.691 79.4744C131.402 79.8062 132.065 80.2255 132.673 80.7243L134.277 80.2601C134.603 80.1665 134.953 80.288 135.149 80.5641L136.54 82.53C136.735 82.8055 136.732 83.1739 136.536 83.4494L135.559 84.8018C135.826 85.5394 135.999 86.3035 136.075 87.0818L137.538 87.8846C137.834 88.0474 137.995 88.3799 137.939 88.7131L137.528 91.084C137.511 91.1817 137.476 91.2734 137.426 91.3555V91.3541ZM134.341 90.8669L136.341 90.5432L136.639 88.8251L134.864 87.8513L134.843 87.5052C134.791 86.6265 134.596 85.7647 134.263 84.9443L134.133 84.6227L135.318 82.9832L134.311 81.5589L132.363 82.1215L132.103 81.8914C131.439 81.3038 130.69 80.8315 129.877 80.4875L129.556 80.3517L129.231 78.3581L127.508 78.0616L126.531 79.8306L126.184 79.851C125.301 79.9032 124.437 80.0973 123.614 80.4291L123.291 80.5594L121.646 79.378L120.217 80.3823L120.782 82.323L120.551 82.5822C119.961 83.2431 119.487 83.9889 119.143 84.8005L119.007 85.1201L117.006 85.4437L116.709 87.1612L118.484 88.135L118.504 88.481C118.557 89.3605 118.751 90.2222 119.084 91.042L119.214 91.3636L118.029 93.003L119.037 94.4274L120.984 93.8648L121.244 94.0949C121.908 94.6825 122.657 95.1548 123.471 95.4988L123.791 95.6345L124.116 97.6282L125.839 97.9247L126.816 96.1557L127.164 96.1353C128.046 96.0837 128.91 95.889 129.733 95.5572L130.056 95.4269L131.7 96.6083L133.13 95.6033L132.564 93.6626L132.796 93.4034C133.386 92.7425 133.859 91.996 134.205 91.1845L134.341 90.8655L134.341 90.8669ZM125.68 98.2145C125.68 98.2145 125.679 98.2165 125.679 98.2179L125.68 98.2145ZM129.178 78.0317C129.178 78.0317 129.178 78.0324 129.178 78.0331V78.0317ZM116.68 85.4974C116.68 85.4974 116.681 85.4974 116.682 85.4974H116.68ZM132.174 91.329C131.718 92.0904 131.103 92.7547 130.354 93.2806C128.945 94.2706 127.235 94.6547 125.537 94.3622C123.839 94.0697 122.357 93.136 121.364 91.7321C120.37 90.3288 119.985 88.6235 120.278 86.9312C120.572 85.2388 121.509 83.7609 122.917 82.7715C124.326 81.7815 126.036 81.3974 127.734 81.6899C128.187 81.7679 128.632 81.8935 129.055 82.0638C129.378 82.1934 129.534 82.5598 129.403 82.8815C129.274 83.2045 128.906 83.3592 128.583 83.2296C128.243 83.0932 127.885 82.9914 127.52 82.9283C126.153 82.6928 124.777 83.0022 123.644 83.7989C122.511 84.5955 121.757 85.7837 121.522 87.1456C121.285 88.5075 121.596 89.8789 122.395 91.008C123.194 92.1372 124.386 92.8884 125.753 93.1238C127.119 93.3593 128.495 93.0499 129.628 92.2532C130.762 91.4566 131.515 90.2684 131.751 88.9065C131.911 87.9823 131.818 87.0336 131.48 86.1644C131.355 85.8407 131.516 85.477 131.841 85.3515C132.166 85.2259 132.53 85.3874 132.656 85.7111C133.076 86.7927 133.192 87.9714 132.993 89.1202C132.856 89.9128 132.577 90.6586 132.176 91.3283L132.174 91.329Z" fill="#BDD0FB"/>
<path id="Vector_18" d="M129.055 89.408C128.608 90.153 127.818 90.6789 126.885 90.7495C125.361 90.8655 124.026 89.7235 123.909 88.2042C123.853 87.4679 124.088 86.7541 124.57 86.1942C125.052 85.6337 125.724 85.2945 126.463 85.2381C127.202 85.1818 127.917 85.4152 128.48 85.8964C129.042 86.3768 129.382 87.0472 129.439 87.7835C129.484 88.3731 129.339 88.935 129.055 89.408ZM125.374 87.2236C125.216 87.4883 125.143 87.795 125.167 88.1092C125.23 88.9377 125.958 89.56 126.789 89.4969C127.62 89.4331 128.245 88.7084 128.181 87.8798C128.15 87.4788 127.964 87.113 127.658 86.8511C127.351 86.5892 126.961 86.4616 126.558 86.4921C126.156 86.5227 125.79 86.7079 125.526 87.0133C125.469 87.0798 125.418 87.1504 125.374 87.2243L125.374 87.2236Z" fill="#BDD0FB"/>
<path id="Vector_19" d="M117.555 103.262C117.544 103.281 117.532 103.299 117.518 103.316L116.804 104.23C116.661 104.415 116.413 104.489 116.189 104.413L115.513 104.182C115.243 104.375 114.954 104.538 114.651 104.67L114.503 105.367C114.455 105.596 114.265 105.77 114.031 105.799L112.879 105.941C112.646 105.971 112.419 105.849 112.315 105.637L112.001 104.998C111.674 104.945 111.354 104.856 111.045 104.735L110.446 105.124C110.25 105.252 109.992 105.241 109.805 105.097L108.89 104.386C108.705 104.242 108.631 103.997 108.707 103.774L108.939 103.099C108.745 102.83 108.581 102.542 108.449 102.24L107.75 102.092C107.52 102.044 107.346 101.855 107.316 101.622L107.173 100.474C107.145 100.237 107.269 100.012 107.482 99.9102L108.12 99.5981C108.173 99.2723 108.262 98.9534 108.384 98.6454L107.994 98.0482C107.864 97.8494 107.879 97.5949 108.022 97.4076L108.734 96.497C108.879 96.3117 109.126 96.2385 109.348 96.3145L110.025 96.5452C110.294 96.3525 110.583 96.1889 110.887 96.0573L111.034 95.3604C111.083 95.1317 111.271 94.958 111.504 94.9281L112.658 94.785C112.892 94.7558 113.119 94.8786 113.222 95.0896L113.536 95.7282C113.863 95.7818 114.183 95.87 114.492 95.9915L115.091 95.6026C115.291 95.4751 115.547 95.4866 115.732 95.6298L116.648 96.3409C116.833 96.4848 116.907 96.7311 116.831 96.953L116.599 97.6282C116.793 97.8969 116.957 98.1846 117.089 98.4872L117.788 98.6345C118.017 98.6827 118.192 98.8713 118.222 99.1041L118.365 100.253C118.394 100.486 118.271 100.712 118.06 100.815L117.418 101.129C117.364 101.455 117.275 101.774 117.154 102.081L117.544 102.678C117.66 102.855 117.663 103.082 117.555 103.261V103.262ZM116.751 103.193C116.751 103.193 116.751 103.193 116.751 103.194V103.193ZM116.23 103.431L116.599 102.96L116.082 102.168L116.191 101.932C116.362 101.563 116.47 101.17 116.514 100.767L116.541 100.509L117.392 100.093L117.318 99.5004L116.391 99.3049L116.3 99.0606C116.159 98.6806 115.958 98.3271 115.702 98.0102L115.538 97.808L115.845 96.9143L115.372 96.5472L114.577 97.0629L114.34 96.9544C113.969 96.784 113.576 96.6761 113.172 96.6327L112.913 96.6049L112.496 95.7573L111.901 95.8306L111.705 96.7542L111.46 96.8444C111.078 96.9849 110.723 97.1857 110.406 97.4416L110.203 97.6051L109.306 97.2991L108.938 97.77L109.455 98.5619L109.346 98.798C109.175 99.1672 109.067 99.5587 109.024 99.9625L108.996 100.221L108.145 100.637L108.219 101.229L109.146 101.425L109.236 101.669C109.377 102.049 109.579 102.403 109.835 102.719L109.999 102.922L109.692 103.815L110.166 104.182L110.96 103.667L111.197 103.776C111.568 103.946 111.961 104.054 112.365 104.098L112.625 104.125L113.042 104.973L113.637 104.9L113.833 103.976L114.078 103.886C114.46 103.745 114.815 103.545 115.132 103.289L115.335 103.125L116.232 103.431L116.23 103.431ZM116.057 103.653L116.059 103.65C116.059 103.65 116.057 103.652 116.057 103.653ZM112.76 105.007H112.764C112.764 105.007 112.762 105.007 112.76 105.007ZM109.929 104.335L109.931 104.334C109.931 104.334 109.93 104.334 109.929 104.335ZM112.372 95.5049C112.372 95.5049 112.372 95.5049 112.372 95.5063V95.5049ZM107.894 100.759C107.894 100.759 107.897 100.757 107.899 100.756L107.894 100.759ZM108.766 97.9899C108.766 97.9899 108.767 97.9878 108.768 97.9871L108.766 97.9899ZM115.568 102.053C115.498 102.169 115.421 102.281 115.337 102.39C114.8 103.077 114.026 103.515 113.159 103.622C111.369 103.844 109.73 102.572 109.508 100.788C109.4 99.9231 109.636 99.0674 110.174 98.3807C110.711 97.6933 111.485 97.2556 112.352 97.1484C112.584 97.1199 112.818 97.1159 113.048 97.1362C113.308 97.1593 113.5 97.3886 113.477 97.6478C113.454 97.9071 113.224 98.0984 112.964 98.0754C112.801 98.0604 112.634 98.0638 112.469 98.0842C111.852 98.1609 111.302 98.4716 110.92 98.9602C110.538 99.4495 110.37 100.057 110.447 100.672C110.605 101.94 111.77 102.845 113.043 102.687C113.66 102.61 114.21 102.299 114.592 101.811C114.974 101.322 115.142 100.714 115.065 100.1C115.013 99.6822 114.849 99.2873 114.59 98.9589C114.43 98.7539 114.466 98.4581 114.671 98.2972C114.877 98.1371 115.174 98.1731 115.335 98.378C115.699 98.8415 115.93 99.3965 116.003 99.9835C116.094 100.712 115.94 101.434 115.569 102.054L115.568 102.053Z" fill="#BDD0FB"/>
<path id="Vector_20" d="M104.66 150.912C104.66 143.515 110.698 137.498 118.118 137.498C125.538 137.498 131.576 143.516 131.576 150.912C131.576 158.307 125.539 164.325 118.118 164.325C110.697 164.325 104.66 158.308 104.66 150.912ZM105.49 150.912C105.49 157.852 111.155 163.498 118.118 163.498C125.081 163.498 130.747 157.852 130.747 150.912C130.747 143.971 125.082 138.325 118.118 138.325C111.155 138.325 105.49 143.971 105.49 150.912Z" fill="white"/>
<path id="Vector_21" d="M121.976 146.016C121.976 147.998 120.364 150.138 118.376 150.138C116.387 150.138 114.775 147.998 114.775 146.016C114.775 144.034 116.387 142.628 118.376 142.628C120.364 142.628 121.976 144.034 121.976 146.016Z" fill="white"/>
<path id="Vector_22" d="M113.907 157.769H122.697C123.623 157.769 124.442 157.174 124.724 156.295L125.197 154.821C125.544 153.742 124.981 152.574 123.913 152.185C120.336 150.881 116.637 151.048 112.847 152.305C111.786 152.657 111.196 153.789 111.49 154.865L111.854 156.203C112.105 157.127 112.947 157.769 113.907 157.769L113.907 157.769Z" fill="white"/>
<path id="Vector_23" d="M177.243 155.944L171.265 155.816V147.42C171.265 147.139 171.499 146.914 171.781 146.924L176.879 147.112C177.082 147.12 177.243 147.286 177.243 147.489V155.944Z" fill="#BDD0FB"/>
<path id="Vector_24" d="M185.464 156.114L179.485 155.993V143.312C179.485 143.091 179.671 142.915 179.892 142.924L185.11 143.146C185.308 143.154 185.464 143.317 185.464 143.515V156.115V156.114Z" fill="#BDD0FB"/>
<path id="Vector_25" d="M194.173 159.971L170.271 159.624C170.132 159.622 170.02 159.509 170.02 159.371V157.874C170.02 157.732 170.136 157.618 170.279 157.621L194.181 158.048C194.32 158.051 194.431 158.164 194.431 158.301V159.717C194.431 159.858 194.315 159.972 194.173 159.97V159.971Z" fill="#BDD0FB"/>
</g>
<path id="Vector_26" d="M117.264 193.795C117.19 193.795 117.114 193.788 117.038 193.772C107.755 191.793 98.0674 185.754 89.7586 176.768C81.4009 167.729 75.507 156.831 73.1629 146.083C73.037 145.505 73.4046 144.936 73.9833 144.811C74.5627 144.683 75.1339 145.052 75.2598 145.628C77.5243 156.01 83.2336 166.554 91.3368 175.318C99.3466 183.982 108.634 189.792 117.487 191.68C118.067 191.803 118.436 192.372 118.312 192.949C118.204 193.451 117.759 193.795 117.264 193.795Z" fill="white"/>
<path id="Vector_27" d="M71.6201 155.548C71.5554 155.548 71.49 155.542 71.424 155.53C70.8412 155.423 70.4559 154.865 70.5634 154.284L72.6549 142.985C72.7386 142.533 73.1029 142.185 73.5597 142.12C74.0165 142.058 74.4632 142.29 74.6701 142.701C75.9787 145.309 77.872 147.459 80.2978 149.09C80.7894 149.42 80.9187 150.084 80.5878 150.574C80.2563 151.064 79.5891 151.193 79.0982 150.863C77.1803 149.574 75.5572 147.998 74.2501 146.157L72.674 154.672C72.5787 155.187 72.1273 155.548 71.6201 155.548Z" fill="white"/>
<path id="Vector_28" d="M220.726 76.4656C220.35 76.4656 219.985 76.2688 219.789 75.9186C214.581 66.6487 206.031 58.2262 195.713 52.2032C185.513 46.2495 174.93 43.3967 165.908 44.1676C165.318 44.2185 164.797 43.7822 164.747 43.1939C164.696 42.6055 165.134 42.0878 165.724 42.0369C175.18 41.226 186.217 44.1819 196.797 50.3582C207.439 56.5705 216.269 65.2773 221.66 74.8743C221.95 75.3893 221.765 76.0415 221.248 76.3298C221.082 76.4221 220.903 76.4662 220.725 76.4662L220.726 76.4656Z" fill="#91B3FA"/>
<path id="Vector_29" d="M221.989 78.8786C221.702 78.8786 221.419 78.7632 221.211 78.5461C219.195 76.4323 216.754 74.9279 213.956 74.0743C213.39 73.9019 213.07 73.3034 213.244 72.7389C213.417 72.1743 214.018 71.8554 214.584 72.0291C216.796 72.7036 218.81 73.7391 220.6 75.1193L219.612 66.5164C219.545 65.9294 219.968 65.3994 220.557 65.3322C221.144 65.2678 221.677 65.6865 221.745 66.2734L223.055 77.6884C223.108 78.145 222.861 78.5841 222.443 78.7788C222.298 78.8467 222.143 78.8792 221.989 78.8792V78.8786Z" fill="#91B3FA"/>
<path id="Vector_30" d="M193.559 123.101C193.559 123.101 195.455 124.021 195.804 125.076C196.084 125.924 198.18 126.033 198.388 127.699C198.495 128.559 199.133 129.248 199.993 129.38C202.134 129.707 205.434 130.815 205.962 134.521C206.366 137.349 204.919 138.422 203.401 138.793C202.285 139.066 201.545 140.147 201.77 141.269C201.986 142.345 201.664 143.59 199.793 144.574C195.6 146.778 191.414 139.351 191.414 139.351L190.556 126.381L193.559 123.102V123.101Z" fill="url(#paint10_linear_32_140)"/>
<path id="Vector_31" d="M170.748 120.026C170.748 120.026 179.118 133.222 189.072 135.771C189.072 135.771 187.132 141.276 185.636 141.906C185.636 141.906 173.391 131.723 170.244 121.901L170.749 120.026H170.748Z" fill="url(#paint11_linear_32_140)"/>
<path id="Vector_32" d="M210.791 204.426L211.062 206.649C211.114 207.07 211.447 207.404 211.87 207.452C212.585 207.534 213.732 207.617 214.855 207.499C215.348 207.447 215.667 206.95 215.517 206.479C215.244 205.621 214.743 204.333 214.021 203.575H211.547C211.09 203.575 210.736 203.974 210.791 204.426V204.426Z" fill="url(#paint12_linear_32_140)"/>
<path id="Vector_33" d="M191.414 178.388L190.997 180.836C190.997 180.836 192.395 194.953 192.644 200.599C192.682 201.485 192.453 202.36 191.987 203.114L189.555 207.049L195.735 203.415L195.858 202.663L194.846 201.277L196.171 185.462C196.249 184.533 196.057 183.601 195.617 182.778L194.339 180.385L191.414 178.386V178.388Z" fill="url(#paint13_linear_32_140)"/>
<path id="Vector_34" d="M189.148 207.62H191.12C191.489 207.62 191.837 207.451 192.062 207.159C192.677 206.363 193.951 204.81 194.559 204.769C195.379 204.715 195.274 207.62 195.274 207.62H195.734L196.316 204.01C196.462 203.101 196.009 202.201 195.191 201.776C195.191 201.776 195.004 203.158 193.988 203.768C192.971 204.38 189.852 206.567 189.852 206.567C189.852 206.567 189.47 206.513 189.051 206.588C188.429 206.7 188.516 207.619 189.148 207.619L189.148 207.62Z" fill="url(#paint14_linear_32_140)"/>
<path id="Vector_35" d="M199.878 179.55C199.878 179.55 208.07 195.038 209.372 198.574C210.674 202.11 211.131 205.06 211.148 205.339C211.175 205.775 211.719 206.194 213.221 206.194C213.996 206.194 214.376 205.885 214.561 205.585C214.72 205.329 214.728 205.009 214.595 204.74C214.121 203.784 212.617 200.73 212.06 199.344C211.395 197.69 209.964 190.194 209.18 187.588C208.396 184.981 207.509 182.154 204.093 179.55C204.093 179.55 201.748 177.261 199.878 179.55Z" fill="url(#paint15_linear_32_140)"/>
<path id="Vector_36" d="M194.703 154.173C192.59 145.248 197.943 140.201 197.943 140.201C194.566 136.97 188.411 135.499 188.411 135.499C188.411 135.499 182.539 139.778 183.235 143.128C183.644 145.091 187.363 154.886 187.363 154.886C187.363 154.886 190.803 156.509 194.703 154.174V154.173Z" fill="url(#paint16_linear_32_140)"/>
<path id="Vector_37" d="M199.389 158.591C198.529 156.009 194.704 154.173 194.704 154.173C190.803 156.508 187.364 154.885 187.364 154.885C187.364 154.885 186.592 157.824 187.125 160.555C187.657 163.285 190.997 180.835 190.997 180.835C196.26 181.898 204.354 179.766 204.354 179.766C201.001 173.834 200.248 161.173 199.389 158.591Z" fill="url(#paint17_linear_32_140)"/>
<path id="Vector_38" d="M192.25 129.602L193.968 137.293C194.132 137.971 193.512 137.86 192.825 137.731C191.7 137.519 190.249 137.084 189.764 136.211C189.715 136.122 189.69 136.022 189.677 135.921L188.939 130.588C188.88 130.164 189.109 129.754 189.502 129.581L190.926 128.951C191.474 128.709 192.109 129.02 192.25 129.602Z" fill="url(#paint18_linear_32_140)"/>
<path id="Vector_39" d="M197.943 140.201C197.943 140.201 209.934 148.752 199.476 157.736C199.476 157.736 199.077 158.186 198.293 158.419C197.897 158.537 196.726 159.421 196.131 159.881C195.941 160.029 195.664 159.979 195.536 159.774C195.436 159.614 195.424 159.414 195.505 159.243L196.989 156.114C197.402 155.731 198.032 155.704 198.476 156.05C198.759 156.271 199.174 156.178 199.333 155.856C200.141 154.216 201.667 149.389 195.42 143.935C195.185 143.73 195.126 143.391 195.27 143.115C195.709 142.274 196.713 140.605 197.942 140.199L197.943 140.201Z" fill="url(#paint19_linear_32_140)"/>
<path id="Vector_40" d="M188.96 122.59C188.96 122.59 187.131 123.824 186.345 126.967C185.559 130.109 186.836 131.236 188.145 131.167C189.455 131.098 191.353 130.695 192.998 128.44C194.643 126.186 191.357 121.082 188.96 122.59Z" fill="url(#paint20_linear_32_140)"/>
<path id="Vector_41" d="M191.339 127.172C191.339 127.172 192.009 122.669 188.258 123.358L187.5 124.145C187.5 124.145 185.664 122.085 187.696 120.527C189.728 118.969 192.548 119.368 194.107 122.204C195.667 125.04 196.234 127.033 194.926 128.795C193.618 130.557 192.635 129.046 192.635 129.046C192.635 129.046 193.235 127.521 192.737 126.866C192.239 126.212 191.597 127.247 191.597 127.247L191.339 127.173V127.172Z" fill="url(#paint21_linear_32_140)"/>
<path id="Vector_42" d="M191.852 127.558C191.852 127.558 192.183 125.241 193.37 125.904C194.557 126.566 192.942 128.068 192.295 128.578L191.852 127.558H191.852Z" fill="url(#paint22_linear_32_140)"/>
<path id="Vector_43" d="M170.806 122.743C170.781 123.016 171.796 123.204 172.12 122.043C172.031 121.54 171.873 119.333 171.485 118.99C169.421 117.165 165.74 115.112 165.74 115.112C165.328 115.738 165.868 116.15 165.868 116.15L167.706 117.386C167.514 118.019 167.235 118.578 167.203 119.3C167.179 119.847 167.382 120.383 167.746 120.798C168.112 121.215 168.604 121.752 169.048 122.161C169.888 122.933 170.806 122.743 170.806 122.743Z" fill="url(#paint23_linear_32_140)"/>
<path id="Vector_44" d="M169.808 121.844L170.089 121.728C170.051 121.638 169.17 119.502 168.743 119.058C168.581 118.89 168.503 118.745 168.511 118.629C168.514 118.565 168.545 118.504 168.605 118.44L170.091 119.233L170.748 120.257L171.004 120.094L170.305 119.003L168.564 118.074L168.485 118.138C168.309 118.282 168.219 118.436 168.208 118.61C168.195 118.817 168.298 119.032 168.524 119.267C168.846 119.602 169.56 121.24 169.809 121.843L169.808 121.844Z" fill="url(#paint24_linear_32_140)"/>
</g>
<defs>
<linearGradient id="paint0_linear_32_140" x1="167.043" y1="191.194" x2="127.614" y2="72.514" gradientUnits="userSpaceOnUse">
<stop stop-color="#09005D"/>
<stop offset="1" stop-color="#1A0F91"/>
</linearGradient>
<linearGradient id="paint1_linear_32_140" x1="155.576" y1="118.976" x2="149.859" y2="205.022" gradientUnits="userSpaceOnUse">
<stop stop-color="#09005D"/>
<stop offset="1" stop-color="#1A0F91"/>
</linearGradient>
<linearGradient id="paint2_linear_32_140" x1="164" y1="90.2806" x2="80.3157" y2="84.1809" gradientUnits="userSpaceOnUse">
<stop stop-color="#4F52FF"/>
<stop offset="1" stop-color="#4042E2"/>
</linearGradient>
<linearGradient id="paint3_linear_32_140" x1="82.5181" y1="190.619" x2="155.026" y2="186.14" gradientUnits="userSpaceOnUse">
<stop stop-color="#673091"/>
<stop offset="1" stop-color="#EC008C"/>
</linearGradient>
<linearGradient id="paint4_linear_32_140" x1="237.846" y1="106.191" x2="141.138" y2="174.219" gradientUnits="userSpaceOnUse">
<stop stop-color="#4F52FF"/>
<stop offset="1" stop-color="#4042E2"/>
</linearGradient>
<linearGradient id="paint5_linear_32_140" x1="152.257" y1="120.335" x2="223.611" y2="115.96" gradientUnits="userSpaceOnUse">
<stop stop-color="#673091"/>
<stop offset="1" stop-color="#EC008C"/>
</linearGradient>
<linearGradient id="paint6_linear_32_140" x1="121.533" y1="95.0299" x2="149.284" y2="148.573" gradientUnits="userSpaceOnUse">
<stop stop-color="#4F52FF"/>
<stop offset="1" stop-color="#4042E2"/>
</linearGradient>
<linearGradient id="paint7_linear_32_140" x1="84.3276" y1="190.928" x2="155.729" y2="186.585" gradientUnits="userSpaceOnUse">
<stop stop-color="#673091"/>
<stop offset="1" stop-color="#EC008C"/>
</linearGradient>
<linearGradient id="paint8_linear_32_140" x1="188.363" y1="151.337" x2="186.587" y2="101.433" gradientUnits="userSpaceOnUse">
<stop stop-color="#4F52FF"/>
<stop offset="1" stop-color="#4042E2"/>
</linearGradient>
<linearGradient id="paint9_linear_32_140" x1="154.066" y1="120.642" x2="225.419" y2="116.268" gradientUnits="userSpaceOnUse">
<stop stop-color="#673091"/>
<stop offset="1" stop-color="#EC008C"/>
</linearGradient>
<linearGradient id="paint10_linear_32_140" x1="190.224" y1="115.537" x2="195.816" y2="129.612" gradientUnits="userSpaceOnUse">
<stop stop-color="#09005D"/>
<stop offset="1" stop-color="#1A0F91"/>
</linearGradient>
<linearGradient id="paint11_linear_32_140" x1="177.002" y1="126.246" x2="192.074" y2="147.147" gradientUnits="userSpaceOnUse">
<stop stop-color="#FEBBBA"/>
<stop offset="1" stop-color="#FF928E"/>
</linearGradient>
<linearGradient id="paint12_linear_32_140" x1="206.341" y1="215.058" x2="222.959" y2="191.716" gradientUnits="userSpaceOnUse">
<stop stop-color="#4F52FF"/>
<stop offset="1" stop-color="#4042E2"/>
</linearGradient>
<linearGradient id="paint13_linear_32_140" x1="190.632" y1="224.311" x2="197.45" y2="144.356" gradientUnits="userSpaceOnUse">
<stop stop-color="#FEBBBA"/>
<stop offset="1" stop-color="#FF928E"/>
</linearGradient>
<linearGradient id="paint14_linear_32_140" x1="196.997" y1="197.994" x2="187.035" y2="217.35" gradientUnits="userSpaceOnUse">
<stop stop-color="#4F52FF"/>
<stop offset="1" stop-color="#4042E2"/>
</linearGradient>
<linearGradient id="paint15_linear_32_140" x1="204.438" y1="225.501" x2="211.258" y2="145.524" gradientUnits="userSpaceOnUse">
<stop stop-color="#FEBBBA"/>
<stop offset="1" stop-color="#FF928E"/>
</linearGradient>
<linearGradient id="paint16_linear_32_140" x1="183.178" y1="155.435" x2="198.804" y2="154.735" gradientUnits="userSpaceOnUse">
<stop stop-color="#673091"/>
<stop offset="1" stop-color="#EC008C"/>
</linearGradient>
<linearGradient id="paint17_linear_32_140" x1="203.074" y1="155.818" x2="185.997" y2="183.233" gradientUnits="userSpaceOnUse">
<stop stop-color="#09005D"/>
<stop offset="1" stop-color="#1A0F91"/>
</linearGradient>
<linearGradient id="paint18_linear_32_140" x1="189.879" y1="145.503" x2="191.16" y2="136.101" gradientUnits="userSpaceOnUse">
<stop stop-color="#FEBBBA"/>
<stop offset="1" stop-color="#FF928E"/>
</linearGradient>
<linearGradient id="paint19_linear_32_140" x1="195.193" y1="150.084" x2="203.757" y2="150.084" gradientUnits="userSpaceOnUse">
<stop stop-color="#FEBBBA"/>
<stop offset="1" stop-color="#FF928E"/>
</linearGradient>
<linearGradient id="paint20_linear_32_140" x1="187.579" y1="134.194" x2="194.682" y2="112.429" gradientUnits="userSpaceOnUse">
<stop stop-color="#FEBBBA"/>
<stop offset="1" stop-color="#FF928E"/>
</linearGradient>
<linearGradient id="paint21_linear_32_140" x1="186.565" y1="116.68" x2="194.785" y2="129.412" gradientUnits="userSpaceOnUse">
<stop stop-color="#09005D"/>
<stop offset="1" stop-color="#1A0F91"/>
</linearGradient>
<linearGradient id="paint22_linear_32_140" x1="190.189" y1="135.047" x2="197.293" y2="113.281" gradientUnits="userSpaceOnUse">
<stop stop-color="#FEBBBA"/>
<stop offset="1" stop-color="#FF928E"/>
</linearGradient>
<linearGradient id="paint23_linear_32_140" x1="175.185" y1="127.557" x2="190.257" y2="148.457" gradientUnits="userSpaceOnUse">
<stop stop-color="#FEBBBA"/>
<stop offset="1" stop-color="#FF928E"/>
</linearGradient>
<linearGradient id="paint24_linear_32_140" x1="171.004" y1="119.959" x2="168.206" y2="119.959" gradientUnits="userSpaceOnUse">
<stop stop-color="#FEBBBA"/>
<stop offset="1" stop-color="#FF928E"/>
</linearGradient>
</defs>
</svg>
