<svg width="300" height="240" viewBox="0 0 300 240" fill="none" xmlns="http://www.w3.org/2000/svg">
<g id="Frame 5">
<rect id="Rectangle 11" width="300" height="240" rx="18" fill="#E7EDFD"/>
<g id="Group" opacity="0.3">
<path id="Vector" d="M93.3516 41.7352C93.0639 41.5194 92.9801 41.1167 93.1692 40.8017C93.5822 40.1122 94.0315 39.4307 94.5049 38.776C94.7349 38.457 95.1801 38.3853 95.4986 38.6152C95.5026 38.6179 95.506 38.6205 95.51 38.6232C95.8191 38.8551 95.8868 39.2933 95.6595 39.6083C95.2103 40.2308 94.7831 40.8781 94.3909 41.5328C94.1891 41.8699 93.7519 41.9798 93.4146 41.7774C93.3932 41.7647 93.3724 41.7506 93.3523 41.7359L93.3516 41.7352ZM97.1119 36.8079C97.0897 36.7912 97.0683 36.7731 97.0475 36.753C96.7632 36.4816 96.7525 36.0313 97.024 35.7471C97.5812 35.1635 98.1693 34.5972 98.7714 34.0659C99.0658 33.8059 99.5137 33.8327 99.7765 34.1275C100.037 34.4217 100.009 34.8713 99.7148 35.1313C99.1429 35.6372 98.5843 36.1747 98.0546 36.7295C97.8032 36.9929 97.3975 37.021 97.1125 36.8079H97.1119ZM101.865 32.8302C101.801 32.7826 101.744 32.7236 101.698 32.6539C101.482 32.3263 101.571 31.8847 101.899 31.6682C102.571 31.2239 103.271 30.8031 103.979 30.4178C104.325 30.2302 104.756 30.3582 104.945 30.7026C105.133 31.0477 105.005 31.4799 104.66 31.6676C103.987 32.0334 103.323 32.4328 102.685 32.8543C102.426 33.0252 102.098 33.0057 101.865 32.8302ZM107.389 30.0137C107.284 29.9353 107.2 29.8268 107.151 29.6954C107.013 29.3275 107.199 28.9174 107.567 28.7794C108.322 28.4966 109.099 28.2427 109.875 28.0249C110.253 27.919 110.646 28.1395 110.752 28.5181C110.858 28.896 110.638 29.2887 110.259 29.3952C109.522 29.6016 108.784 29.8429 108.067 30.1116C107.831 30.2 107.577 30.1551 107.389 30.0137ZM113.403 28.4993C113.256 28.3887 113.151 28.2225 113.125 28.0262C113.072 27.6369 113.345 27.2784 113.735 27.2254C114.532 27.1169 115.345 27.0412 116.151 27.0009C116.544 26.9808 116.877 27.2824 116.898 27.6751C116.918 28.0671 116.615 28.4015 116.222 28.4216C115.456 28.4604 114.683 28.5321 113.926 28.6353C113.733 28.6615 113.547 28.6079 113.402 28.4993H113.403ZM119.602 28.3525C119.411 28.2098 119.297 27.9753 119.319 27.7206C119.354 27.3293 119.7 27.0398 120.091 27.0747C120.894 27.145 121.703 27.2516 122.497 27.3896C122.885 27.4573 123.143 27.8258 123.076 28.2132C123.008 28.5998 122.639 28.8591 122.252 28.7915C121.498 28.6601 120.729 28.5589 119.967 28.4919C119.829 28.4799 119.704 28.4296 119.602 28.3525ZM141.475 42.6526C141.396 42.5936 141.329 42.5172 141.278 42.4247C140.912 41.754 140.511 41.0905 140.087 40.4519C139.87 40.1249 139.959 39.6833 140.286 39.4662C140.613 39.2484 141.055 39.3376 141.273 39.6652C141.719 40.3374 142.142 41.0363 142.528 41.7426C142.717 42.0877 142.59 42.5199 142.245 42.7082C141.992 42.8462 141.691 42.8154 141.475 42.6526H141.475ZM125.675 29.5815C125.439 29.4046 125.329 29.091 125.425 28.7941C125.545 28.4202 125.946 28.2152 126.32 28.3358C127.087 28.5831 127.852 28.8665 128.595 29.1788C128.957 29.3329 129.128 29.7477 128.976 30.1102C128.823 30.4721 128.406 30.6423 128.044 30.4902C127.338 30.1933 126.611 29.9246 125.883 29.6894C125.806 29.6646 125.736 29.6278 125.674 29.5815H125.675ZM137.907 37.5846C137.869 37.5564 137.834 37.5243 137.802 37.4874C137.294 36.9151 136.754 36.3576 136.198 35.8302C135.913 35.5595 135.902 35.1092 136.173 34.8244C136.444 34.5396 136.895 34.5269 137.179 34.7989C137.764 35.3545 138.332 35.9415 138.866 36.5432C139.127 36.8374 139.1 37.287 138.807 37.5477C138.549 37.7762 138.172 37.7836 137.908 37.5852L137.907 37.5846ZM131.322 32.1353C131.035 31.9195 130.95 31.5174 131.139 31.2025C131.34 30.8648 131.777 30.7549 132.115 30.9559C132.806 31.368 133.489 31.8156 134.144 32.2861C134.148 32.2887 134.152 32.2921 134.156 32.2948C134.465 32.5266 134.533 32.9635 134.306 33.2785C134.077 33.5974 133.632 33.6705 133.313 33.4406C132.69 32.9937 132.042 32.5688 131.385 32.1775C131.363 32.1641 131.342 32.15 131.321 32.1346L131.322 32.1353Z" fill="#BDD0FB"/>
<path id="Vector_2" d="M143.465 47.2354C143.353 47.151 143.265 47.0337 143.217 46.8903C143.103 46.5418 142.978 46.1907 142.848 45.8449C142.71 45.477 142.896 45.0669 143.264 44.9289C143.632 44.7902 144.043 44.9765 144.18 45.3444C144.317 45.7076 144.448 46.0775 144.568 46.444C144.692 46.8173 144.489 47.2193 144.116 47.3426C143.886 47.4183 143.644 47.3708 143.465 47.2354H143.465Z" fill="#BDD0FB"/>
</g>
<g id="Group_2" opacity="0.3">
<path id="Vector_3" d="M141.683 68.8496C141.408 68.6432 141.317 68.2625 141.482 67.9496C141.652 67.6253 141.82 67.2916 141.978 66.9585C142.147 66.6034 142.572 66.4533 142.927 66.6215C143.284 66.791 143.433 67.2152 143.264 67.5697C143.097 67.9201 142.921 68.2713 142.741 68.613C142.557 68.9608 142.127 69.0935 141.779 68.9105C141.745 68.8924 141.713 68.8723 141.683 68.8496Z" fill="#BDD0FB"/>
<path id="Vector_4" d="M100.526 78.1137C100.264 77.9174 100.004 77.7157 99.7477 77.5086C99.4412 77.262 99.393 76.8144 99.6397 76.5082C99.8865 76.2019 100.336 76.1537 100.641 76.4003C101.234 76.8774 101.846 77.3297 102.465 77.7492C102.79 77.9703 102.876 78.4119 102.656 78.7369C102.435 79.0626 101.993 79.1477 101.667 78.9272C101.284 78.6679 100.9 78.3938 100.527 78.1137H100.526ZM96.9885 74.9589C96.957 74.9348 96.9261 74.908 96.898 74.8785C96.3522 74.3015 95.8251 73.6957 95.331 73.0766C95.0856 72.7697 95.1365 72.322 95.4436 72.0768C95.7507 71.8315 96.2 71.8818 96.444 72.1894C96.9134 72.777 97.4143 73.3533 97.9326 73.9015C98.2028 74.1869 98.1901 74.6372 97.9044 74.9066C97.6483 75.1485 97.2607 75.1633 96.9885 74.9589ZM104.907 80.8062C104.639 80.6045 104.543 80.2353 104.697 79.9237C104.87 79.5712 105.298 79.4265 105.65 79.6C106.325 79.9324 107.023 80.2407 107.725 80.5154C108.091 80.6595 108.271 81.0716 108.128 81.4375C107.984 81.8033 107.571 81.9836 107.205 81.8402C106.466 81.5507 105.731 81.2264 105.021 80.8759C104.98 80.8558 104.942 80.8324 104.907 80.8062ZM93.3093 70.0919C93.2369 70.0377 93.1746 69.9686 93.125 69.8862C92.72 69.2047 92.3391 68.4971 91.9931 67.7841C91.8215 67.4303 91.9696 67.0054 92.323 66.8339C92.677 66.6623 93.1022 66.8098 93.2738 67.1636C93.6024 67.8404 93.9638 68.5125 94.3487 69.1598C94.5498 69.4975 94.4378 69.9338 94.0999 70.1348C93.8444 70.2863 93.5326 70.2601 93.3087 70.0919H93.3093ZM110.642 82.8795C110.422 82.714 110.308 82.4285 110.377 82.1437C110.469 81.7618 110.853 81.5266 111.236 81.6184C111.967 81.7946 112.715 81.9414 113.46 82.0553C113.849 82.1149 114.116 82.4775 114.056 82.8661C113.996 83.2541 113.633 83.5208 113.245 83.4612C112.459 83.3412 111.672 83.1864 110.902 83.0008C110.805 82.9774 110.716 82.9351 110.641 82.8782L110.642 82.8795ZM116.693 83.6454C116.517 83.5134 116.405 83.3017 116.408 83.0651C116.414 82.6725 116.738 82.3588 117.131 82.3649C117.885 82.3769 118.648 82.3568 119.399 82.3066C119.791 82.2798 120.13 82.576 120.157 82.968C120.183 83.36 119.887 83.6991 119.494 83.7259C118.704 83.7795 117.901 83.8002 117.107 83.7875C116.951 83.7848 116.808 83.7326 116.692 83.6454H116.693ZM122.767 83.0745C122.633 82.974 122.535 82.8266 122.498 82.6497C122.418 82.265 122.666 81.8884 123.051 81.8094C123.79 81.6573 124.531 81.4716 125.252 81.2585C125.629 81.1473 126.025 81.3624 126.137 81.7397C126.248 82.1163 126.033 82.5123 125.655 82.6235C124.895 82.8474 124.116 83.0424 123.339 83.2032C123.131 83.2461 122.925 83.1931 122.767 83.0752V83.0745ZM128.572 81.1935C128.479 81.1238 128.402 81.0307 128.351 80.9175C128.19 80.5596 128.349 80.1381 128.707 79.9766C129.395 79.6664 130.077 79.324 130.734 78.9574C131.077 78.7664 131.511 78.8897 131.702 79.2321C131.894 79.5752 131.77 80.0088 131.427 80.1998C130.734 80.5858 130.016 80.9469 129.293 81.2733C129.047 81.3838 128.772 81.3443 128.572 81.1935ZM133.824 78.0836C133.772 78.0447 133.724 77.9971 133.683 77.9429C133.447 77.6293 133.509 77.183 133.823 76.9464C134.424 76.4934 135.012 76.0096 135.574 75.5064C135.867 75.2444 136.318 75.2698 136.579 75.5613C136.841 75.8542 136.817 76.3038 136.524 76.5658C135.933 77.0952 135.313 77.6051 134.68 78.0816C134.421 78.2772 134.072 78.2685 133.824 78.0829V78.0836ZM138.261 73.8995C138.25 73.8907 138.238 73.8814 138.227 73.872C137.928 73.6173 137.891 73.1684 138.146 72.8695C138.506 72.4473 138.857 72.0091 139.19 71.5662C139.31 71.406 139.428 71.2445 139.544 71.083C139.774 70.764 140.218 70.6903 140.537 70.9202C140.865 71.146 140.93 71.5936 140.701 71.9126C140.578 72.0828 140.454 72.2523 140.327 72.4212C139.977 72.8869 139.609 73.348 139.23 73.7922C138.984 74.0804 138.559 74.1246 138.261 73.9001V73.8995Z" fill="#BDD0FB"/>
<path id="Vector_5" d="M90.7875 64.518C90.6742 64.4329 90.5857 64.3136 90.5381 64.1696C90.4187 63.803 90.3054 63.4278 90.2008 63.0525C90.0949 62.6739 90.3161 62.2819 90.6943 62.176C91.0732 62.0701 91.4654 62.2906 91.5714 62.6692C91.6713 63.025 91.7792 63.3822 91.8919 63.73C92.0132 64.1032 91.8087 64.5046 91.4346 64.6259C91.2053 64.7003 90.9659 64.652 90.7868 64.518H90.7875Z" fill="#BDD0FB"/>
</g>
<path id="Vector_6" d="M96.5138 58.4972C96.5199 58.6386 96.6144 58.7612 96.7505 58.8021L100.628 59.9661C101.133 61.7874 101.932 63.5411 103.024 65.1506L101.4 68.8543C101.343 68.9843 101.374 69.1358 101.479 69.2322L105.049 72.5231C105.153 72.6196 105.307 72.6384 105.432 72.5714L108.995 70.6555C110.689 71.6131 112.502 72.2685 114.359 72.625L115.832 76.3943C115.884 76.5263 116.014 76.6114 116.155 76.6054L121.008 76.4097C121.15 76.4037 121.272 76.3092 121.313 76.1732L122.478 72.298C124.3 71.7934 126.055 70.9946 127.665 69.9037L131.371 71.5274C131.502 71.5843 131.653 71.5528 131.75 71.4483L135.043 67.8806C135.14 67.7761 135.159 67.6227 135.091 67.498L133.174 63.9371C134.133 62.2444 134.788 60.4324 135.145 58.5763L138.917 57.104C139.049 57.0524 139.134 56.9224 139.128 56.7811L138.932 51.9315C138.927 51.7894 138.832 51.6675 138.696 51.6266L134.818 50.4626C134.313 48.6413 133.514 46.8876 132.422 45.278L134.047 41.5744C134.104 41.4444 134.072 41.2929 133.968 41.1964L130.398 37.9056C130.293 37.8091 130.14 37.7896 130.015 37.8573L126.452 39.7732C124.758 38.8149 122.945 38.1602 121.088 37.8037L119.615 34.0344C119.563 33.9024 119.433 33.8173 119.291 33.8233L114.439 34.019C114.297 34.0243 114.175 34.1195 114.134 34.2555L112.969 38.1307C111.147 38.6353 109.392 39.4341 107.781 40.525L104.075 38.9013C103.945 38.8444 103.794 38.8759 103.697 38.9804L100.404 42.548C100.308 42.6526 100.288 42.806 100.356 42.9313L102.273 46.4923C101.315 48.185 100.659 49.9969 100.302 51.8531L96.5306 53.3253C96.3985 53.3769 96.3134 53.5069 96.3194 53.6483L96.5152 58.4979L96.5138 58.4972Z" fill="#91B3FA"/>
<path id="Vector_7" d="M114.789 59.1137C112.886 57.6857 112.264 55.0348 113.434 52.8844C114.72 50.5203 117.69 49.6431 120.055 50.9277C121.201 51.5495 122.036 52.5808 122.405 53.8306C122.775 55.0803 122.636 56.3991 122.013 57.5443C120.728 59.9084 117.757 60.7856 115.392 59.501C115.179 59.3851 114.978 59.2557 114.789 59.1137ZM119.978 52.2277C119.831 52.1171 119.675 52.0173 119.511 51.9282C117.697 50.9431 115.42 51.6166 114.435 53.4285C113.449 55.2411 114.122 57.5168 115.936 58.5019C117.749 59.4869 120.027 58.8135 121.012 57.0015C121.489 56.1237 121.596 55.1125 121.313 54.1542C121.082 53.3756 120.616 52.7075 119.978 52.2284V52.2277Z" fill="url(#paint0_linear_34_532)"/>
<path id="Vector_8" d="M110.634 64.8082C110.308 64.5629 109.991 64.2996 109.687 64.0188C109.591 63.9303 109.496 63.8405 109.403 63.7494C108.945 63.2984 108.523 62.8119 108.144 62.2973C108.139 62.2906 108.134 62.2832 108.128 62.2765C108.114 62.2564 108.1 62.2363 108.085 62.2162C108.057 62.1773 108.029 62.1378 108.001 62.0989C107.928 61.9957 107.934 61.8604 108.006 61.7646C108.023 61.7411 108.045 61.7203 108.07 61.7022C108.199 61.6118 108.376 61.6433 108.466 61.7713C108.932 62.4327 109.472 63.0478 110.072 63.6006C113.05 66.3467 117.107 67.2071 120.762 66.2429C122.794 65.7068 124.702 64.6058 126.23 62.95C126.498 62.6598 126.749 62.3583 126.983 62.0467C128.559 59.9499 129.358 57.3968 129.251 54.7419C129.128 51.6922 127.824 48.8724 125.579 46.8025C120.943 42.5286 113.696 42.8221 109.422 47.4532C109.158 47.7386 108.91 48.0368 108.678 48.3451C107.673 49.6826 106.973 51.2252 106.632 52.8642C106.623 52.9065 106.605 52.9447 106.581 52.9768C106.517 53.0619 106.407 53.1075 106.295 53.0847C106.141 53.0525 106.043 52.9024 106.075 52.7483C106.433 51.0275 107.168 49.4078 108.223 48.004C108.466 47.6797 108.727 47.3674 109.004 47.0678C113.492 42.2056 121.102 41.9007 125.966 46.385C128.323 48.5575 129.692 51.518 129.821 54.7198C129.934 57.5074 129.094 60.1871 127.441 62.3884C127.195 62.7154 126.931 63.0324 126.65 63.3366C124.476 65.692 121.514 67.0604 118.31 67.189C115.52 67.3016 112.838 66.462 110.636 64.8088L110.634 64.8082Z" fill="url(#paint1_linear_34_532)"/>
<g id="Group_3" opacity="0.3">
<path id="Vector_9" d="M62.664 42.1466C62.5118 42.0327 62.4461 41.8283 62.5165 41.6414C62.6473 41.2922 62.7908 40.9418 62.943 40.6007C63.0415 40.3789 63.301 40.279 63.5236 40.3776C63.7463 40.4754 63.8455 40.7361 63.7469 40.9579C63.6021 41.2829 63.4653 41.6166 63.3406 41.9496C63.2554 42.1768 63.002 42.2914 62.7747 42.2069C62.7344 42.1915 62.6976 42.1714 62.6647 42.1466H62.664Z" fill="#BDD0FB"/>
<path id="Vector_10" d="M64.1371 39.1037C63.9587 38.9696 63.9078 38.7204 64.0251 38.526C64.357 37.9759 64.7205 37.4364 65.1067 36.9238C65.1878 36.8159 65.2703 36.708 65.3548 36.6015C65.505 36.4105 65.7859 36.3924 65.9723 36.5271C66.1634 36.6772 66.1969 36.9533 66.0467 37.1436C65.9663 37.2461 65.8872 37.3487 65.8094 37.4519C65.4413 37.9417 65.0946 38.4557 64.7781 38.9804C64.6527 39.1881 64.3825 39.2551 64.1747 39.1298C64.1619 39.1218 64.1492 39.113 64.1371 39.1043V39.1037ZM66.9553 35.5146C66.9385 35.5019 66.9224 35.4885 66.9077 35.473C66.736 35.3008 66.7367 35.0227 66.909 34.8512C67.4609 34.3017 68.0516 33.781 68.6644 33.3053C68.8562 33.1565 69.1331 33.192 69.2813 33.3823C69.4302 33.574 69.396 33.85 69.2042 33.9988C68.6195 34.4531 68.0556 34.9497 67.5299 35.4737C67.373 35.6298 67.1283 35.6432 66.956 35.5139L66.9553 35.5146ZM70.56 32.7156C70.5151 32.6821 70.4769 32.6392 70.446 32.5889C70.322 32.3805 70.391 32.1105 70.5996 31.9865C71.2681 31.5898 71.9694 31.2299 72.6829 30.9183C72.9055 30.8212 73.1643 30.9224 73.2615 31.1448C73.3588 31.3673 73.2568 31.626 73.0349 31.7231C72.3543 32.0207 71.6858 32.3631 71.0481 32.7417C70.8906 32.8355 70.6975 32.8188 70.5593 32.7149L70.56 32.7156ZM74.7427 30.8882C74.6696 30.8332 74.614 30.7562 74.5858 30.6624C74.5167 30.4298 74.6495 30.1846 74.8822 30.1162C75.6291 29.8944 76.3962 29.7175 77.1633 29.5902C77.4027 29.5507 77.6293 29.7128 77.6689 29.9514C77.7091 30.1906 77.5468 30.4171 77.3074 30.4573C76.5772 30.5786 75.845 30.7475 75.1323 30.9592C74.9935 31.0001 74.8507 30.9699 74.7427 30.8889V30.8882ZM79.2452 30.137C79.1433 30.0606 79.0756 29.9413 79.0696 29.804C79.0595 29.5614 79.2473 29.357 79.49 29.3463C80.2678 29.3134 81.0543 29.3275 81.8287 29.3898C82.0715 29.4086 82.2512 29.621 82.2324 29.8629C82.213 30.1048 82.0011 30.2851 81.759 30.2657C81.0201 30.2067 80.2691 30.1926 79.5275 30.2248C79.4216 30.2295 79.3237 30.196 79.2452 30.137ZM83.7934 30.5009C83.662 30.4024 83.5915 30.2328 83.6264 30.0606C83.6754 29.8234 83.908 29.6699 84.1454 29.7189C84.9078 29.8757 85.6675 30.0814 86.403 30.3307C86.633 30.4097 86.7557 30.6583 86.6779 30.8882C86.6002 31.118 86.3501 31.2413 86.1207 31.1629C85.4194 30.925 84.6952 30.7287 83.9684 30.5793C83.9027 30.5659 83.8437 30.5384 83.7934 30.5002V30.5009ZM88.1135 31.9644C87.9486 31.8404 87.8889 31.6139 87.9821 31.4223C88.088 31.2038 88.3509 31.1127 88.5695 31.2179C89.2675 31.5556 89.9534 31.9416 90.6085 32.3651C90.8104 32.5005 90.8707 32.7692 90.7386 32.9729C90.6065 33.1766 90.3343 33.2349 90.1304 33.1029C89.5055 32.6981 88.8518 32.3303 88.1859 32.0079C88.1598 31.9952 88.1357 31.9805 88.1135 31.9637V31.9644ZM93.6044 36.0165C93.5843 36.0011 93.5648 35.9837 93.5467 35.9649C93.1096 35.4965 92.6389 35.0442 92.148 34.62C92.0743 34.555 92.0005 34.4927 91.9268 34.431C91.7404 34.2749 91.7156 33.9981 91.8711 33.8119C92.0267 33.6249 92.3096 33.5961 92.4907 33.7562C92.5691 33.8226 92.6476 33.8882 92.7254 33.9566C93.2383 34.4002 93.7318 34.8746 94.1904 35.3658C94.3561 35.5434 94.3467 35.8208 94.169 35.9863C94.0107 36.1338 93.7727 36.1425 93.6057 36.0165H93.6044Z" fill="#BDD0FB"/>
</g>
<g id="Group_4" opacity="0.3">
<path id="Vector_11" d="M69.1043 63.6328C68.9125 63.4888 68.8716 63.2167 69.0138 63.0224C69.1566 62.8267 69.4322 62.7838 69.628 62.9272C70.218 63.3581 70.8396 63.7568 71.4752 64.1126C71.6844 64.2326 71.7629 64.4986 71.6442 64.7104C71.5255 64.9221 71.2573 64.9978 71.0461 64.8792C70.3796 64.506 69.7279 64.0885 69.1096 63.6368C69.1083 63.6355 69.1063 63.6342 69.105 63.6335L69.1043 63.6328ZM67.3717 62.1995C67.3589 62.1901 67.3469 62.18 67.3348 62.1686C66.7756 61.6466 66.2418 61.0858 65.7497 60.5008C65.5934 60.3151 65.6169 60.0377 65.8033 59.8816C65.9891 59.7248 66.2666 59.7502 66.4229 59.9345C66.8929 60.4927 67.4018 61.0281 67.9356 61.5267C68.1133 61.6922 68.1226 61.9703 67.957 62.1472C67.8021 62.3134 67.5494 62.3322 67.3723 62.1995H67.3717ZM73.0221 65.8221C72.8666 65.7048 72.8022 65.4937 72.8793 65.3047C72.9705 65.0802 73.2273 64.9724 73.4519 65.0642C74.1292 65.3396 74.8292 65.5768 75.5319 65.7678C75.7666 65.8328 75.904 66.0733 75.8403 66.3072C75.7766 66.5411 75.5346 66.6791 75.3006 66.6155C74.5637 66.4151 73.8301 66.1665 73.12 65.877C73.0838 65.8623 73.051 65.8435 73.0215 65.8214L73.0221 65.8221ZM64.4817 58.7632C64.4415 58.733 64.406 58.6955 64.3771 58.6513C63.9594 58.01 63.5772 57.3359 63.2413 56.649C63.1347 56.4312 63.2252 56.1679 63.4431 56.0613C63.661 55.9554 63.9239 56.0459 64.0311 56.263C64.3516 56.9184 64.7157 57.5603 65.114 58.1722C65.2461 58.3752 65.1885 58.6479 64.9853 58.7799C64.8264 58.8831 64.6252 58.8704 64.4817 58.7632ZM77.353 67.0001C77.2283 66.907 77.1579 66.7501 77.1814 66.5853C77.2162 66.3447 77.4395 66.1786 77.6796 66.2134C78.4017 66.3186 79.1373 66.3803 79.8668 66.397C80.1102 66.4024 80.302 66.6041 80.2959 66.8466C80.2906 67.0892 80.0887 67.2815 79.846 67.2755C79.0809 67.2574 78.3092 67.1931 77.5522 67.0832C77.4764 67.0725 77.4087 67.0423 77.3517 67.0001H77.353ZM81.8408 67.1053C81.7456 67.0336 81.6799 66.9244 81.6671 66.7964C81.6437 66.5551 81.82 66.34 82.0621 66.3159C82.7903 66.2449 83.5198 66.129 84.2312 65.9715C84.4686 65.9192 84.7032 66.0687 84.7555 66.3052C84.8078 66.5424 84.6583 66.7763 84.4216 66.8286C83.676 66.9934 82.9109 67.1154 82.1479 67.1897C82.0339 67.2011 81.926 67.1676 81.8415 67.104L81.8408 67.1053ZM86.2246 66.133C86.1576 66.0827 86.104 66.013 86.0745 65.9279C85.9933 65.6994 86.114 65.4481 86.3427 65.3671C87.032 65.1245 87.7125 64.8363 88.3656 64.5127C88.5829 64.4055 88.8471 64.4932 88.955 64.711C89.063 64.9281 88.9744 65.1922 88.7572 65.3C88.0733 65.6398 87.3592 65.9413 86.6357 66.1966C86.4915 66.2476 86.3386 66.2188 86.2253 66.133H86.2246Z" fill="#BDD0FB"/>
<path id="Vector_12" d="M62.5024 54.7117C62.4346 54.6608 62.381 54.5898 62.3508 54.504C62.2281 54.1482 62.1155 53.7877 62.0162 53.4318C61.9512 53.198 62.0873 52.9554 62.3213 52.8904C62.5547 52.8261 62.7974 52.9614 62.8631 53.1953C62.9583 53.535 63.0656 53.8788 63.1823 54.2185C63.2614 54.4477 63.1394 54.6983 62.91 54.7767C62.7665 54.8256 62.615 54.7968 62.5024 54.7124V54.7117Z" fill="#BDD0FB"/>
</g>
<path id="Vector_13" d="M66.2049 50.3922C66.2089 50.4867 66.2726 50.5691 66.3632 50.5966L68.9581 51.3753C69.296 52.5935 69.8304 53.7675 70.5613 54.8444L69.4744 57.3231C69.4362 57.4102 69.4576 57.5114 69.5273 57.5757L71.9157 59.7784C71.9855 59.8427 72.0887 59.8554 72.1719 59.8105L74.5562 58.5286C75.6894 59.1699 76.9031 59.6082 78.1455 59.8467L79.1312 62.369C79.1661 62.4574 79.2526 62.5144 79.3478 62.5104L82.5951 62.3797C82.6903 62.3757 82.7721 62.312 82.7996 62.2216L83.5787 59.6283C84.7984 59.2905 85.9725 58.7558 87.05 58.0261L89.5303 59.1123C89.6174 59.1505 89.7187 59.129 89.7831 59.0594L91.9871 56.6724C92.0514 56.6028 92.0648 56.4996 92.0192 56.4165L90.7365 54.0336C91.3782 52.9011 91.8167 51.6882 92.0555 50.4465L94.5793 49.4615C94.6678 49.4266 94.7248 49.3402 94.7208 49.245L94.59 45.9997C94.586 45.9045 94.5223 45.8228 94.4318 45.7953L91.8369 45.0167C91.4989 43.7977 90.9645 42.6244 90.2337 41.5475L91.3206 39.0688C91.3588 38.9817 91.3373 38.8805 91.2676 38.8162L88.8792 36.6136C88.8095 36.5492 88.7062 36.5365 88.6231 36.5814L86.2387 37.8633C85.1055 37.222 83.8919 36.7838 82.6494 36.5452L81.6637 34.0229C81.6289 33.9345 81.5424 33.8775 81.4472 33.8815L78.1998 34.0122C78.1053 34.0162 78.0228 34.0799 77.9953 34.1704L77.2162 36.7637C75.9965 37.1014 74.8224 37.6361 73.7449 38.3659L71.2647 37.2796C71.1775 37.2414 71.0762 37.2629 71.0119 37.3326L68.8079 39.7195C68.7435 39.7892 68.7308 39.8924 68.7757 39.9755L70.0584 42.3584C69.4167 43.4908 68.9782 44.7037 68.7395 45.9454L66.2157 46.9305C66.1271 46.9653 66.0702 47.0518 66.0742 47.1469L66.2049 50.3922Z" fill="#91B3FA"/>
<path id="Vector_14" d="M78.3943 50.8493C77.8271 50.4238 77.4134 49.8301 77.2082 49.1378C76.9561 48.2868 77.0513 47.3882 77.4757 46.6082C78.3508 44.9986 80.3737 44.4009 81.985 45.2754C83.5969 46.1545 84.1943 48.1729 83.3186 49.7825C82.8942 50.5625 82.1915 51.1307 81.3399 51.382C80.4884 51.634 79.5892 51.5388 78.8087 51.1147C78.6632 51.0356 78.5244 50.9465 78.3937 50.8486L78.3943 50.8493ZM81.8676 46.2417C81.7731 46.1706 81.6725 46.1056 81.5652 46.0473C80.3798 45.404 78.8919 45.8436 78.2482 47.0284C77.9364 47.602 77.866 48.2627 78.0517 48.8886C78.2374 49.5151 78.6558 50.0311 79.2291 50.3434C79.8031 50.655 80.4649 50.7247 81.0912 50.5397C81.7181 50.3541 82.2351 49.9366 82.5469 49.3623C83.1329 48.2855 82.8211 46.9567 81.8676 46.241V46.2417Z" fill="url(#paint2_linear_34_532)"/>
<path id="Vector_15" d="M75.4976 54.8096C75.275 54.6427 75.0597 54.4631 74.8505 54.2708C74.4362 53.8889 74.06 53.4647 73.7321 53.0077C73.7174 52.9869 73.7033 52.9661 73.6885 52.946C73.5759 52.7865 73.5846 52.5781 73.6959 52.4294C73.7227 52.3932 73.7563 52.361 73.7951 52.3335C73.9936 52.1935 74.2672 52.2424 74.4073 52.4401C74.7091 52.869 75.0591 53.2677 75.4466 53.6242C75.4681 53.6443 75.4895 53.6637 75.511 53.6825C76.4357 54.5188 77.534 55.093 78.7147 55.3785C79.3558 55.5333 80.0216 55.603 80.6975 55.5815C80.7028 55.5815 80.7082 55.5815 80.7142 55.5815C80.731 55.5809 80.7478 55.5802 80.7645 55.5795C82.7399 55.4998 84.5664 54.6561 85.9074 53.204C86.0811 53.0164 86.2433 52.8207 86.3949 52.619C87.4147 51.2614 87.9317 49.6089 87.8626 47.8894C87.7828 45.9153 86.9387 44.0899 85.4856 42.7504C84.0326 41.4122 82.1438 40.7166 80.1684 40.7957C78.1931 40.8754 76.3666 41.7191 75.0255 43.1712C74.8546 43.3562 74.6943 43.5485 74.5441 43.7482C73.8937 44.614 73.4398 45.6124 73.2192 46.6739C73.2058 46.7395 73.1783 46.7978 73.1401 46.8481C73.0408 46.9801 72.8712 47.0504 72.6988 47.0143C72.4615 46.964 72.3086 46.7322 72.3582 46.4943C72.605 45.3068 73.1126 44.1898 73.8401 43.2215C74.0084 42.9977 74.1874 42.7819 74.3785 42.5755C75.8784 40.9505 77.9222 40.007 80.1322 39.9179C82.3423 39.8287 84.4551 40.6034 86.0811 42.1044C87.7071 43.6034 88.6518 45.6452 88.7403 47.8546C88.8181 49.7778 88.2395 51.6266 87.0982 53.145C86.9286 53.3702 86.7469 53.5893 86.5531 53.7991C83.6491 56.9445 78.8509 57.3265 75.4976 54.8089V54.8096Z" fill="url(#paint3_linear_34_532)"/>
<g id="Vector_16" style="mix-blend-mode:soft-light">
<path d="M232.391 55.0367C231.667 59.5633 231.035 64.0965 230.577 68.6391C230.095 73.1791 229.755 77.7258 229.564 82.2697C229.391 86.813 229.307 91.3557 229.425 95.8862C229.521 100.418 229.821 104.933 230.139 109.464C230.43 113.995 230.75 118.557 230.581 123.184C230.418 127.802 229.676 132.498 228.065 136.962C227.662 138.075 227.237 139.186 226.749 140.264C226.281 141.351 225.763 142.42 225.226 143.48C224.141 145.598 222.911 147.655 221.529 149.623C218.757 153.553 215.38 157.1 211.635 160.161C211.241 160.483 210.662 160.449 210.342 160.085C210.027 159.728 210.08 159.184 210.455 158.86L210.458 158.858C211.348 158.089 212.228 157.313 213.07 156.502C213.498 156.103 213.907 155.688 214.324 155.28C214.725 154.857 215.143 154.449 215.53 154.016C217.108 152.307 218.564 150.499 219.877 148.603C222.52 144.827 224.604 140.675 226.151 136.413C226.9 134.274 227.484 132.093 227.894 129.883C228.302 127.672 228.534 125.436 228.634 123.19C228.833 118.697 228.555 114.177 228.298 109.643C228.048 105.107 227.828 100.546 227.806 95.9754C227.789 93.691 227.814 91.4039 227.882 89.1175C227.909 87.9743 227.959 86.8311 228.007 85.6879C228.067 84.5447 228.133 83.4015 228.209 82.259C228.522 77.6882 228.979 73.1228 229.586 68.5715C230.215 64.0221 230.97 59.4849 231.905 54.9757C231.932 54.8471 232.062 54.7586 232.195 54.7787C232.325 54.7982 232.411 54.9134 232.39 55.0381L232.391 55.0367Z" fill="white"/>
</g>
<path id="Vector_17" d="M76.2446 62.9473C72.6707 63.2583 69.931 66.2489 69.9209 69.834C69.8586 91.7571 69.756 167.376 71.1862 194.142C71.3377 196.977 73.6637 199.205 76.5047 199.235C90.5568 199.386 130.978 199.664 153.926 198.197C158.705 197.891 162.424 193.935 162.418 189.149C162.39 166.14 162.023 101.43 158.869 71.8517C158.49 68.3075 155.64 65.5413 152.085 65.2646C136.759 64.0711 96.0598 61.2252 76.2446 62.9473Z" fill="url(#paint4_linear_34_532)"/>
<path id="Vector_18" d="M75.5613 75.5788C75.2851 94.3323 74.4999 156.717 75.8711 179.742C76.0716 183.108 78.6873 185.765 81.9172 185.877C95.2156 186.34 129.318 187.237 148.75 185.1C152.249 184.715 154.923 181.684 155.017 178.014C155.503 158.877 156.816 100.772 155.483 78.0046C155.27 74.3726 152.493 71.4744 149.013 71.2399C134.613 70.2702 97.6382 68.0341 81.1139 69.4092C78.0121 69.6671 75.6089 72.3321 75.5613 75.5788Z" fill="url(#paint5_linear_34_532)"/>
<path id="Vector_19" opacity="0.24" d="M78.2428 78.4816C77.986 96.4123 77.2578 156.059 78.562 178.074C78.7524 181.292 81.23 183.833 84.2876 183.942C96.8779 184.388 129.164 185.253 147.56 183.215C150.873 182.848 153.404 179.951 153.491 176.441C153.946 158.144 155.176 102.589 153.908 80.8203C153.705 77.3478 151.076 74.5756 147.78 74.3511C134.148 73.4203 99.1409 71.2733 83.497 72.5841C80.5601 72.83 78.2864 75.3777 78.2415 78.4816H78.2428Z" fill="#7D97F4"/>
<path id="Vector_20" d="M107.693 66.208C107.704 66.726 108.118 67.1448 108.636 67.1602C111.195 67.238 118.403 67.4584 121.625 67.5744C122.26 67.5971 122.746 67.0162 122.612 66.3957C122.602 66.3762 122.518 65.5801 121.705 65.5232C119.526 65.3717 112.95 64.9636 108.605 65.2143C107.713 65.2659 107.664 66.2797 107.693 66.208H107.693Z" fill="#1F5AA9"/>
<path id="Vector_21" d="M144.456 55.9635C140.548 56.3032 137.55 59.5747 137.54 63.4954C137.471 87.4738 137.359 170.181 138.923 199.455C139.088 202.556 141.632 204.993 144.74 205.026C160.11 205.192 204.32 205.495 229.418 203.891C234.645 203.556 238.714 199.23 238.707 193.995C238.677 168.829 238.274 98.0534 234.825 65.7028C234.412 61.8269 231.294 58.8014 227.405 58.4985C210.642 57.1931 166.128 54.0805 144.456 55.9641V55.9635Z" fill="url(#paint6_linear_34_532)"/>
<path id="Vector_22" d="M143.709 69.7797C143.407 90.2909 142.547 158.524 144.048 183.707C144.267 187.388 147.128 190.294 150.661 190.416C165.206 190.923 202.505 191.903 223.758 189.566C227.585 189.145 230.51 185.83 230.612 181.816C231.144 160.884 232.58 97.3337 231.122 72.432C230.889 68.4596 227.852 65.2893 224.046 65.0333C208.297 63.9726 167.856 61.5274 149.782 63.0311C146.39 63.3132 143.762 66.2281 143.71 69.7797H143.709Z" fill="#7D97F4"/>
<path id="Vector_23" d="M146.246 72.7898C145.977 92.2912 145.217 157.165 146.625 181.109C146.831 184.609 149.492 187.374 152.774 187.493C166.292 187.983 200.957 188.936 220.707 186.726C224.264 186.327 226.98 183.177 227.073 179.36C227.555 159.459 228.853 99.0371 227.485 75.3603C227.266 71.583 224.442 68.5675 220.904 68.3216C206.268 67.3043 168.682 64.9563 151.886 66.3763C148.733 66.643 146.292 69.4125 146.246 72.7891L146.246 72.7898Z" fill="#91B3FA"/>
<path id="Vector_24" d="M178.851 59.5298C178.864 60.0967 179.316 60.5544 179.883 60.5711C182.681 60.6562 190.565 60.8975 194.09 61.0241C194.784 61.0489 195.315 60.4136 195.168 59.7348C195.156 59.7134 195.066 58.8422 194.176 58.7806C191.792 58.6151 184.6 58.1681 179.848 58.4422C178.873 58.4985 178.819 59.6075 178.851 59.5291V59.5298Z" fill="#1F5AA9"/>
<path id="Vector_25" d="M128.572 99.0197H89.8368C89.3925 99.0197 89.0322 99.3797 89.0322 99.8238V114.344C89.0322 114.788 89.3925 115.148 89.8368 115.148H128.572C129.016 115.148 129.377 114.788 129.377 114.344V99.8238C129.377 99.3797 129.016 99.0197 128.572 99.0197Z" fill="url(#paint7_linear_34_532)"/>
<path id="Vector_26" d="M100.036 104.638C99.9791 104.729 99.9187 104.798 99.8564 104.844C99.7933 104.889 99.7122 104.912 99.6136 104.912C99.5258 104.912 99.4319 104.884 99.3307 104.829C99.2294 104.774 99.1154 104.712 98.988 104.643C98.86 104.575 98.7145 104.513 98.5509 104.458C98.3873 104.403 98.2002 104.374 97.991 104.374C97.6289 104.374 97.3593 104.452 97.1823 104.606C97.0053 104.76 96.9168 104.968 96.9168 105.231C96.9168 105.398 96.9704 105.537 97.0771 105.648C97.1837 105.758 97.3238 105.853 97.4968 105.933C97.6698 106.013 97.8683 106.087 98.0909 106.153C98.3135 106.22 98.5408 106.294 98.7735 106.375C99.0061 106.457 99.2334 106.554 99.4561 106.664C99.6787 106.774 99.8771 106.915 100.051 107.086C100.224 107.258 100.364 107.466 100.471 107.712C100.577 107.957 100.631 108.253 100.631 108.599C100.631 108.984 100.564 109.344 100.431 109.679C100.298 110.014 100.104 110.306 99.851 110.556C99.5975 110.805 99.2851 111.001 98.9136 111.144C98.5421 111.287 98.1204 111.358 97.6483 111.358C97.3889 111.358 97.1253 111.331 96.8571 111.279C96.5883 111.226 96.3288 111.15 96.0773 111.053C95.8259 110.956 95.5898 110.84 95.3686 110.707C95.1473 110.574 94.9549 110.426 94.7913 110.261L95.3625 109.359C95.4048 109.291 95.4638 109.235 95.5396 109.194C95.616 109.152 95.6978 109.131 95.785 109.131C95.899 109.131 96.0143 109.167 96.131 109.239C96.247 109.312 96.3784 109.392 96.5252 109.479C96.6721 109.567 96.8404 109.647 97.0308 109.719C97.2212 109.792 97.4458 109.828 97.7047 109.828C98.0553 109.828 98.3276 109.751 98.522 109.597C98.7165 109.442 98.8137 109.198 98.8137 108.863C98.8137 108.668 98.7601 108.511 98.6535 108.389C98.5468 108.267 98.4067 108.167 98.2337 108.086C98.06 108.006 97.8629 107.936 97.6423 107.875C97.421 107.814 97.1944 107.746 96.9617 107.672C96.7297 107.598 96.5024 107.507 96.2818 107.398C96.0606 107.289 95.8634 107.147 95.6904 106.97C95.5174 106.793 95.3773 106.572 95.2707 106.307C95.1641 106.042 95.1104 105.716 95.1104 105.328C95.1104 105.016 95.1735 104.711 95.2988 104.414C95.4242 104.117 95.6093 103.852 95.8534 103.621C96.0974 103.388 96.3965 103.203 96.7505 103.064C97.1052 102.925 97.5109 102.855 97.9682 102.855C98.2236 102.855 98.4717 102.875 98.7138 102.915C98.9559 102.955 99.1852 103.014 99.4024 103.092C99.6197 103.17 99.8222 103.263 100.011 103.372C100.199 103.481 100.368 103.603 100.516 103.741L100.036 104.637V104.638Z" fill="white"/>
<path id="Vector_27" d="M106.95 102.948V104.433H103.533V106.375H106.151V107.803H103.533V109.784H106.95V111.269H101.59V102.948H106.95V102.948Z" fill="white"/>
<path id="Vector_28" d="M109.276 102.959C109.333 102.967 109.384 102.981 109.43 103.002C109.476 103.023 109.52 103.052 109.561 103.091C109.603 103.129 109.651 103.18 109.704 103.245L113.658 108.242C113.643 108.081 113.631 107.927 113.624 107.776C113.617 107.626 113.613 107.484 113.613 107.35V102.947H115.316V111.268H114.31C114.162 111.268 114.036 111.245 113.933 111.199C113.831 111.154 113.731 111.07 113.636 110.948L109.71 105.991C109.722 106.136 109.731 106.278 109.738 106.417C109.746 106.556 109.75 106.686 109.75 106.808V111.268H108.047V102.948H109.065C109.148 102.948 109.219 102.952 109.276 102.959Z" fill="white"/>
<path id="Vector_29" d="M124.242 107.105C124.242 107.707 124.138 108.262 123.93 108.77C123.722 109.278 123.43 109.718 123.053 110.089C122.675 110.46 122.221 110.75 121.69 110.957C121.158 111.165 120.569 111.268 119.921 111.268H116.686V102.948H119.921C120.569 102.948 121.158 103.052 121.69 103.262C122.221 103.472 122.675 103.761 123.053 104.13C123.43 104.499 123.722 104.938 123.93 105.446C124.138 105.954 124.242 106.507 124.242 107.105ZM122.264 107.105C122.264 106.694 122.211 106.322 122.105 105.991C121.998 105.66 121.845 105.38 121.645 105.149C121.445 104.919 121.2 104.742 120.911 104.618C120.621 104.494 120.292 104.432 119.922 104.432H118.63V109.783H119.922C120.291 109.783 120.62 109.721 120.911 109.597C121.2 109.474 121.445 109.296 121.645 109.067C121.845 108.836 121.998 108.555 122.105 108.224C122.211 107.893 122.264 107.52 122.264 107.105Z" fill="white"/>
<g id="right_arrow">
<path id="Vector_30" d="M189.252 83.4284C163.19 67.3398 140.942 67.4786 115.344 79.7622C113.688 80.557 112.638 82.2349 112.659 84.071L112.671 85.1351C112.707 88.3865 115.951 90.6259 119.007 89.5089C141.141 81.4154 157.722 77.1381 184.547 91.5963C187.499 93.1878 191.123 91.2632 191.469 87.9281C191.656 86.1275 190.793 84.3799 189.252 83.4284Z" fill="url(#paint8_linear_34_532)"/>
<path id="Vector_31" d="M184.654 70.9886L198.59 92.326C199.014 92.976 198.591 93.8431 197.817 93.9095L173.377 96.0042C172.468 96.082 171.813 95.1505 172.194 94.3216C178.031 86.8164 181.446 79.0687 182.866 71.1199C183.203 70.3888 184.213 70.3138 184.654 70.9879L184.654 70.9886Z" fill="url(#paint9_linear_34_532)"/>
</g>
<path id="Vector_32" d="M100.48 171.608L94.6121 173.074L96.0792 184.071C96.0792 184.071 93.8786 186.27 93.145 189.202C92.4115 192.135 91.7349 204.446 91.7349 204.446L90.3422 205.287L90.1726 205.99L94.2239 211.433L93.552 207.1C93.4454 206.412 93.6298 205.017 93.5721 204.989C95.7728 199.124 100.48 182.604 100.48 182.604V171.607L100.48 171.608Z" fill="url(#paint10_linear_34_532)"/>
<path id="Vector_33" d="M102.195 206.065C102.131 206.064 102.069 206.069 102.005 206.065C102.289 202.53 103.585 186.97 104.882 181.138C106.349 174.54 102.681 161.345 102.681 161.345L96.0793 167.943L99.7471 180.405C97.234 184.173 100.157 206.238 100.094 206.228L100.098 206.277L99.1416 207.592L99.2583 208.305L105.105 211.753L102.804 208.019C102.439 207.427 102.237 206.755 102.196 206.065H102.195Z" fill="url(#paint11_linear_34_532)"/>
<path id="Vector_34" d="M94.7697 132.084C94.7697 132.084 81.9159 146.562 94.7697 153.985L96.0792 153.037C96.0792 153.037 89.6979 146.931 96.0792 139.454L94.7697 132.084Z" fill="url(#paint12_linear_34_532)"/>
<path id="Vector_35" d="M105.489 212.293H103.623C103.274 212.293 102.945 212.133 102.731 211.856C102.15 211.101 100.945 209.628 100.369 209.589C99.5928 209.538 99.692 212.293 99.692 212.293H99.2575L98.707 208.869C98.5682 208.007 98.9974 207.154 99.7711 206.75C99.7711 206.75 99.9481 208.061 100.91 208.641C101.871 209.22 104.822 211.296 104.822 211.296C104.822 211.296 105.184 211.245 105.581 211.316C106.169 211.423 106.087 212.294 105.489 212.294V212.293Z" fill="url(#paint13_linear_34_532)"/>
<path id="Vector_36" d="M94.3693 212.081L92.6495 211.358C92.3276 211.222 92.0862 210.947 91.997 210.61C91.7536 209.689 91.2152 207.863 90.6989 207.605C90.0043 207.256 89.026 209.835 89.026 209.835L88.625 209.667L89.4464 206.297C89.6529 205.449 90.3791 204.828 91.2494 204.756C91.2494 204.756 90.9048 206.033 91.5659 206.939C92.227 207.846 94.142 210.903 94.142 210.903C94.142 210.903 94.4954 210.995 94.8333 211.215C95.3349 211.541 94.9205 212.312 94.3693 212.081Z" fill="url(#paint14_linear_34_532)"/>
<path id="Vector_37" d="M104.362 150.189C104.362 150.189 104.146 151.511 104.463 155.144C104.779 158.776 106.29 167.305 105.982 175.465C105.982 175.465 101.687 176.466 94.2247 175.992C94.2247 175.992 91.0753 163.251 91.843 158.408C92.6101 153.564 96.772 150.09 96.772 150.09L104.363 150.189H104.362Z" fill="url(#paint15_linear_34_532)"/>
<path id="Vector_38" d="M101.189 125.915L101.714 132.084H96.7263L97.9661 122.668L101.189 125.915Z" fill="url(#paint16_linear_34_532)"/>
<path id="Vector_39" d="M95.2485 131.231C96.9698 131.136 100.819 130.96 103.545 131.109C104.98 131.187 106.735 131.585 107.028 132.991L107.142 136.807C107.389 137.994 107.352 139.222 107.034 140.391L104.363 150.189C104.363 150.189 101.987 151.615 96.772 150.089C96.772 150.089 92.1916 139.174 94.0664 132.192C94.2119 131.65 94.688 131.262 95.2485 131.231Z" fill="url(#paint17_linear_34_532)"/>
<path id="Vector_40" d="M105.871 131.516C106.138 131.455 106.411 131.41 106.676 131.366C109.707 130.862 112.504 129.739 115.46 129.019C115.829 128.929 117.408 128.83 117.581 128.444C119.01 125.263 118.918 121.477 119.425 118.077L119.427 118.061C119.489 117.647 119.875 117.361 120.289 117.422C120.563 117.463 120.78 117.645 120.879 117.883C121.92 120.389 122.542 123.128 122.566 125.845C122.588 128.305 122.198 130.807 120.069 132.357C117.923 133.919 114.219 136.006 111.736 136.575C109.972 136.979 105.31 138.87 104.069 136.677C103.796 136.194 103.729 135.623 103.7 135.069C103.665 134.386 103.682 133.684 103.926 133.045C104.268 132.145 104.973 131.719 105.873 131.515L105.871 131.516Z" fill="url(#paint18_linear_34_532)"/>
<path id="Vector_41" d="M120.137 119.038L118.428 117.511L118.848 112.704C118.848 112.704 119.737 112.613 119.434 114.588C119.434 114.588 120.396 114.177 121.139 114.827C121.881 115.478 121.452 119.539 120.138 119.038H120.137Z" fill="url(#paint19_linear_34_532)"/>
<path id="Vector_42" d="M102.175 118.342C102.373 118.402 104.912 122.873 104.262 125.166C103.613 127.46 99.5732 126.056 97.9151 123.375C96.2569 120.693 96.9019 116.753 102.175 118.342Z" fill="url(#paint20_linear_34_532)"/>
<path id="Vector_43" d="M93.0888 124.073C93.4629 128.08 90.5958 127.821 89.2956 130.048C87.1895 133.657 82.1445 132.123 78.8496 135.936C76.4706 138.69 76.4974 143.882 79.0763 147.3C82.6481 152.034 89.9977 152.199 92.9701 149.527C95.8111 146.974 93.9316 142.473 97.8421 139.33C99.5023 137.995 100.587 138.207 101.376 136.735C102.76 134.158 101.061 130.484 100.407 129.068C98.9873 125.997 97.7355 125.743 97.822 124.178C97.9909 121.134 102.827 120.287 102.628 118.234C102.448 116.365 98.054 114.049 95.0319 115.539C90.3564 117.844 92.9205 122.289 93.0874 124.075L93.0888 124.073Z" fill="url(#paint21_linear_34_532)"/>
<path id="Vector_44" d="M79.0347 145.032C78.975 145.046 78.9126 145.018 78.8838 144.961C77.6185 142.452 77.3973 140.202 78.2274 138.274C79.6046 135.076 83.4608 133.887 83.4996 133.876C83.5587 133.851 83.6458 133.895 83.6673 133.966C83.6887 134.037 83.6485 134.112 83.5768 134.134C83.5392 134.145 79.7997 135.299 78.4741 138.383C77.6782 140.233 77.8968 142.406 79.1245 144.841C79.158 144.907 79.1312 144.988 79.0648 145.022C79.0554 145.026 79.0447 145.03 79.0347 145.032V145.032Z" fill="#BDD0FB"/>
<path id="Vector_45" d="M92.4438 144.01C92.4384 144.012 92.4324 144.012 92.4263 144.012C92.3894 144.011 92.3599 143.98 92.3606 143.943C92.4236 141.402 93.129 139.483 94.4573 138.237C95.4235 137.331 96.4568 137.025 97.3674 136.756C98.2458 136.496 99.0041 136.271 99.4943 135.576C100.507 134.14 99.7913 131.423 97.3674 127.503C97.3479 127.472 97.358 127.43 97.3895 127.411C97.4217 127.391 97.4626 127.401 97.482 127.433C99.9368 131.403 100.65 134.169 99.6042 135.654C99.0873 136.388 98.3081 136.619 97.4056 136.885C96.5091 137.151 95.4926 137.451 94.5492 138.335C93.2477 139.555 92.5564 141.443 92.4947 143.947C92.494 143.979 92.4719 144.004 92.4424 144.011L92.4438 144.01Z" fill="#BDD0FB"/>
<path id="Vector_46" d="M94.855 122.18C94.8483 122.181 94.8409 122.182 94.8335 122.181C94.7966 122.178 94.7691 122.145 94.7725 122.107C94.9227 120.515 96.4045 120.399 97.9749 120.277C98.9686 120.2 99.9958 120.119 100.779 119.673C101.363 119.34 101.668 118.965 101.686 118.557C101.718 117.862 100.902 117.287 100.894 117.281C100.863 117.26 100.856 117.218 100.878 117.188C100.898 117.157 100.941 117.149 100.971 117.171C101.008 117.196 101.855 117.793 101.822 118.563C101.802 119.02 101.474 119.432 100.847 119.79C100.037 120.251 98.9948 120.333 97.9863 120.411C96.4099 120.535 95.0474 120.641 94.9079 122.121C94.9053 122.15 94.8838 122.174 94.8563 122.18H94.855Z" fill="#BDD0FB"/>
<path id="Vector_47" d="M164.742 135.184C168.122 131.806 168.122 126.33 164.742 122.952C161.362 119.574 155.883 119.574 152.503 122.952C149.123 126.33 149.123 131.806 152.503 135.184C155.883 138.561 161.362 138.561 164.742 135.184Z" fill="url(#paint22_linear_34_532)"/>
<path id="Vector_48" d="M164.538 134.98C167.805 131.715 167.805 126.421 164.538 123.156C161.271 119.891 155.974 119.891 152.707 123.156C149.44 126.421 149.44 131.715 152.707 134.98C155.974 138.245 161.271 138.245 164.538 134.98Z" fill="url(#paint23_linear_34_532)"/>
<path id="Vector_49" opacity="0.7" d="M151.723 125.919C151.674 125.919 151.624 125.908 151.577 125.884C151.417 125.804 151.352 125.608 151.433 125.448C152.811 122.719 155.566 121.025 158.622 121.025C159.11 121.025 159.598 121.069 160.074 121.155C160.25 121.187 160.367 121.356 160.335 121.533C160.303 121.709 160.135 121.826 159.957 121.794C159.52 121.715 159.071 121.675 158.622 121.675C155.812 121.675 153.28 123.233 152.013 125.741C151.956 125.855 151.842 125.92 151.723 125.92V125.919Z" fill="white"/>
<path id="Vector_50" opacity="0.78" d="M163.812 134.254C166.577 131.491 166.577 127.01 163.812 124.246C161.046 121.482 156.563 121.482 153.797 124.246C151.032 127.01 151.032 131.491 153.797 134.254C156.563 137.018 161.046 137.018 163.812 134.254Z" fill="white"/>
<path id="Vector_51" d="M158.11 134.51V133.74C157.306 133.708 156.512 133.519 155.948 133.272C155.747 133.184 155.643 132.958 155.702 132.746L155.898 132.029C155.969 131.766 156.256 131.63 156.507 131.735C157.067 131.97 157.758 132.156 158.503 132.156C159.249 132.156 159.854 131.894 159.854 131.356C159.854 130.872 159.408 130.584 158.333 130.295C156.799 129.875 155.698 129.207 155.698 127.858C155.698 126.639 156.59 125.709 158.136 125.46V124.69C158.136 124.442 158.338 124.242 158.585 124.242H159.038C159.286 124.242 159.486 124.443 159.486 124.69V125.382C160.229 125.411 160.77 125.538 161.199 125.689C161.419 125.766 161.539 126.003 161.478 126.228L161.299 126.891C161.229 127.147 160.956 127.287 160.708 127.194C160.313 127.044 159.754 126.889 159.028 126.889C158.11 126.889 157.847 127.269 157.847 127.609C157.847 128.028 158.398 128.317 159.591 128.683C161.296 129.194 162.004 129.901 162.004 131.173C162.004 132.339 161.139 133.387 159.461 133.649V134.511C159.461 134.759 159.26 134.959 159.012 134.959H158.559C158.311 134.959 158.111 134.758 158.111 134.511L158.11 134.51Z" fill="url(#paint24_linear_34_532)"/>
<path id="Vector_52" d="M206.869 163.725C212.924 157.674 212.924 147.865 206.869 141.815C200.815 135.764 191 135.764 184.946 141.815C178.892 147.865 178.892 157.674 184.946 163.725C191 169.775 200.815 169.775 206.869 163.725Z" fill="url(#paint25_linear_34_532)"/>
<path id="Vector_53" d="M206.505 163.36C212.358 157.511 212.358 148.028 206.505 142.179C200.652 136.33 191.163 136.33 185.31 142.179C179.458 148.028 179.458 157.511 185.31 163.36C191.163 169.209 200.652 169.209 206.505 163.36Z" fill="url(#paint26_linear_34_532)"/>
<path id="Vector_54" opacity="0.7" d="M183.549 146.872C183.5 146.872 183.45 146.861 183.403 146.838C183.243 146.757 183.178 146.562 183.259 146.401C185.684 141.601 190.531 138.619 195.907 138.619C196.766 138.619 197.625 138.696 198.461 138.848C198.638 138.88 198.755 139.049 198.723 139.226C198.691 139.402 198.522 139.519 198.345 139.487C197.546 139.342 196.726 139.268 195.907 139.268C190.777 139.268 186.153 142.113 183.839 146.694C183.782 146.807 183.668 146.872 183.549 146.872V146.872Z" fill="white"/>
<path id="Vector_55" opacity="0.78" d="M205.203 162.059C210.157 157.109 210.157 149.083 205.203 144.132C200.25 139.182 192.218 139.182 187.265 144.132C182.311 149.083 182.311 157.109 187.265 162.059C192.218 167.01 200.25 167.01 205.203 162.059Z" fill="white"/>
<path id="Vector_56" d="M194.99 162.519V161.14C193.551 161.083 192.128 160.744 191.117 160.301C190.757 160.143 190.572 159.738 190.676 159.359L191.027 158.075C191.156 157.603 191.669 157.36 192.119 157.549C193.122 157.969 194.359 158.301 195.694 158.301C197.029 158.301 198.114 157.831 198.114 156.869C198.114 156.001 197.315 155.485 195.389 154.968C192.642 154.217 190.669 153.02 190.669 150.602C190.669 148.419 192.266 146.753 195.037 146.307V144.928C195.037 144.484 195.397 144.124 195.841 144.124H196.652C197.096 144.124 197.456 144.484 197.456 144.928V146.166C198.787 146.219 199.756 146.447 200.525 146.717C200.919 146.855 201.134 147.279 201.025 147.683L200.703 148.871C200.578 149.329 200.088 149.58 199.644 149.412C198.936 149.145 197.935 148.866 196.634 148.866C194.99 148.866 194.52 149.547 194.52 150.157C194.52 150.908 195.507 151.424 197.644 152.081C200.696 152.997 201.965 154.264 201.965 156.541C201.965 158.629 200.415 160.507 197.409 160.977V162.52C197.409 162.964 197.049 163.323 196.605 163.323H195.794C195.35 163.323 194.99 162.964 194.99 162.52L194.99 162.519Z" fill="url(#paint27_linear_34_532)"/>
<path id="Vector_57" d="M175.637 158.508C180.072 154.075 180.072 146.888 175.637 142.455C171.201 138.022 164.01 138.022 159.574 142.455C155.139 146.888 155.139 154.075 159.574 158.508C164.01 162.94 171.201 162.94 175.637 158.508Z" fill="url(#paint28_linear_34_532)"/>
<path id="Vector_58" d="M175.37 158.241C179.658 153.955 179.658 147.007 175.37 142.722C171.082 138.436 164.129 138.436 159.841 142.722C155.553 147.007 155.553 153.955 159.841 158.241C164.129 162.526 171.082 162.526 175.37 158.241Z" fill="url(#paint29_linear_34_532)"/>
<path id="Vector_59" opacity="0.7" d="M158.551 146.248C158.502 146.248 158.452 146.237 158.405 146.213C158.244 146.133 158.18 145.937 158.261 145.777C160.052 142.23 163.633 140.027 167.606 140.027C168.24 140.027 168.875 140.084 169.492 140.196C169.669 140.228 169.786 140.398 169.754 140.574C169.722 140.751 169.554 140.868 169.376 140.835C168.796 140.73 168.201 140.676 167.606 140.676C163.879 140.676 160.521 142.743 158.841 146.069C158.784 146.182 158.67 146.247 158.551 146.247V146.248Z" fill="white"/>
<path id="Vector_60" opacity="0.78" d="M169.543 159.849C174.59 158.913 177.921 154.065 176.984 149.022C176.047 143.979 171.196 140.649 166.15 141.586C161.104 142.523 157.772 147.37 158.709 152.413C159.647 157.456 164.497 160.786 169.543 159.849Z" fill="white"/>
<path id="Vector_61" d="M166.932 157.625V156.614C165.878 156.572 164.836 156.324 164.095 156C163.831 155.884 163.696 155.588 163.772 155.31L164.029 154.368C164.124 154.023 164.499 153.844 164.83 153.983C165.564 154.291 166.471 154.534 167.449 154.534C168.428 154.534 169.221 154.191 169.221 153.485C169.221 152.849 168.637 152.471 167.225 152.093C165.212 151.542 163.767 150.665 163.767 148.894C163.767 147.295 164.937 146.074 166.967 145.747V144.737C166.967 144.412 167.231 144.148 167.557 144.148H168.151C168.476 144.148 168.74 144.411 168.74 144.737V145.644C169.716 145.683 170.425 145.85 170.989 146.048C171.278 146.149 171.436 146.46 171.355 146.755L171.119 147.625C171.028 147.961 170.669 148.144 170.343 148.022C169.824 147.825 169.091 147.622 168.138 147.622C166.934 147.622 166.589 148.12 166.589 148.567C166.589 149.117 167.312 149.496 168.878 149.977C171.114 150.648 172.044 151.577 172.044 153.244C172.044 154.775 170.908 156.151 168.705 156.494V157.626C168.705 157.951 168.442 158.215 168.116 158.215H167.522C167.197 158.215 166.932 157.951 166.932 157.626V157.625Z" fill="url(#paint30_linear_34_532)"/>
<path id="Vector_62" d="M219.862 206.602C219.862 206.602 220.698 207.782 221.065 211.186C221.1 211.503 220.862 211.787 220.542 211.803L214.489 212.11C214.246 212.122 214.059 211.893 214.125 211.658C214.427 210.591 215.37 207.979 217.689 206.395L219.861 206.602H219.862Z" fill="url(#paint31_linear_34_532)"/>
<path id="Vector_63" d="M220.683 204.752L220.02 207.568C219.963 207.812 219.747 207.987 219.498 207.987C219.164 207.988 218.682 207.961 218.226 207.832C217.811 207.714 217.548 207.304 217.597 206.875L217.908 204.119L220.683 204.752H220.683Z" fill="url(#paint32_linear_34_532)"/>
<path id="Vector_64" d="M206.037 206.812C206.037 206.812 207.259 208.572 207.321 211.046C207.336 211.628 206.864 212.109 206.281 212.129L196.873 212.457C196.432 212.472 196.234 211.913 196.585 211.647C198.322 210.336 201.74 207.88 204.239 206.875L206.037 206.812Z" fill="url(#paint33_linear_34_532)"/>
<path id="Vector_65" d="M206.272 203.81L206.031 207.424C206.004 207.828 205.656 208.146 205.252 208.113C205.006 208.092 204.711 208.029 204.385 207.883C204.075 207.743 203.883 207.424 203.896 207.085L204.06 202.724L206.272 203.81L206.272 203.81Z" fill="url(#paint34_linear_34_532)"/>
<path id="Vector_66" d="M225.001 156.134C225.001 156.134 227.276 158.645 227.45 161.376C227.624 164.108 220.89 207.432 220.89 207.432C220.89 207.432 218.316 207.568 217.103 206.632C217.103 206.632 218.745 178.208 218.307 171.548C218.307 171.548 208.848 200.118 206.546 205.213C206.546 205.213 204.078 205.234 203.346 204.684C203.346 204.684 209.239 166.931 212.026 160.415L225.001 156.134Z" fill="url(#paint35_linear_34_532)"/>
<path id="Vector_67" d="M218.515 170.732C218.664 170.732 218.803 170.642 218.859 170.496L220.345 166.637L222.702 165.476C222.885 165.386 222.96 165.165 222.87 164.983C222.78 164.8 222.559 164.725 222.376 164.815L219.89 166.04C219.807 166.081 219.742 166.151 219.709 166.238L218.171 170.231C218.098 170.421 218.193 170.634 218.383 170.707C218.426 170.723 218.471 170.732 218.515 170.732H218.515Z" fill="url(#paint36_linear_34_532)"/>
<path id="Vector_68" d="M202.907 128.173C213.642 128.489 216.174 131.001 216.174 131.001L210.153 138.489C210.153 138.489 199.726 137.106 192.889 130.494C194.461 129.144 195.622 127.586 196.392 126.359C198.233 127.378 200.403 128.099 202.908 128.173H202.907Z" fill="url(#paint37_linear_34_532)"/>
<path id="Vector_69" d="M188.011 110.694C188.064 110.354 188.536 110.314 188.646 110.639L189.677 113.686C189.876 114.275 189.89 114.911 189.715 115.508L189.049 117.139C188.814 117.944 188.934 118.81 189.382 119.519C190.453 121.218 192.788 124.362 196.392 126.359C195.621 127.586 194.46 129.144 192.888 130.494C190.379 128.068 188.353 124.939 187.503 120.915C186.908 120.657 186.561 120.03 186.658 119.388L188.011 110.694Z" fill="url(#paint38_linear_34_532)"/>
<path id="Vector_70" d="M198.878 132.453C203.077 128.843 210.415 127.825 214.628 127.542C216.474 127.418 218.144 128.625 218.59 130.419C219.885 135.621 223.474 149.178 224.201 151.52C224.798 153.442 225.436 155.325 225.843 156.503C226.086 157.207 225.717 157.975 225.014 158.221C221.351 159.503 214.886 160.692 212.269 161.146C211.693 161.245 211.185 160.764 211.25 160.184C211.306 159.692 211.226 159.194 211.021 158.743L203.226 141.678C196.496 147.632 191.189 147.648 187.328 145.744C188.241 143.73 188.92 141.686 189.369 139.612C195.429 139.264 198.877 132.454 198.877 132.454L198.878 132.453Z" fill="url(#paint39_linear_34_532)"/>
<path id="Vector_71" d="M179.668 137.392L180.903 136.083C184.107 138.859 186.947 139.751 189.37 139.612C188.921 141.686 188.242 143.73 187.33 145.744C182.244 143.235 179.669 137.393 179.669 137.393L179.668 137.392Z" fill="url(#paint40_linear_34_532)"/>
<path id="Vector_72" d="M180.422 137.502L174.35 137.057L169.135 133.323C169.991 132.912 174.393 134.445 174.393 134.445C174.393 134.445 179.195 134.263 180.474 134.405C181.536 134.523 181.212 136.032 181.072 136.539C181.043 136.643 181.022 136.705 181.022 136.705L180.421 137.502L180.422 137.502Z" fill="url(#paint41_linear_34_532)"/>
<path id="Vector_73" d="M209.785 119.497L212.096 127.634C212.096 127.634 208.146 129.756 205.225 129.182L204.422 122.01L209.785 119.497H209.785Z" fill="url(#paint42_linear_34_532)"/>
<path id="Vector_74" d="M204.995 113.588C204.911 113.683 201.766 121.498 201.766 121.498L206.269 123.197L210.351 116.233C210.351 116.233 206.413 111.994 204.995 113.588Z" fill="url(#paint43_linear_34_532)"/>
<path id="Vector_75" d="M208.479 117.149L206.618 120.984C206.594 121.033 206.564 121.078 206.528 121.118C206.306 121.368 205.479 122.174 204.706 121.278C204.005 120.465 203.354 119.733 202.697 119.54C202.403 119.452 202.09 119.603 201.976 119.888C201.69 120.598 201.077 122.21 200.757 123.692C200.692 123.993 200.871 124.291 201.166 124.382C202.052 124.657 203.937 125.182 205.552 125.25C205.771 125.259 205.977 125.15 206.09 124.962C206.641 124.047 208.324 121.273 208.913 120.573C209.465 119.916 210.621 120.066 211.102 120.163C211.26 120.196 211.422 120.162 211.554 120.07C212.021 119.746 212.937 118.887 211.928 117.621C211.716 117.356 211.766 116.973 212.038 116.77C212.578 116.366 213.192 115.611 212.492 114.509C211.781 113.389 210.67 113.43 209.974 113.598C209.692 113.667 209.41 113.519 209.29 113.255C209.223 113.105 209.089 112.982 208.833 112.975C208.489 112.966 208.234 112.649 208.279 112.308C208.364 111.652 208.223 110.795 207.121 110.311C205.167 109.453 203.684 111.266 203.394 112.711C203.104 114.155 205.275 114.965 206.601 115.015C207.609 115.053 208.238 116.126 208.483 116.638C208.56 116.8 208.558 116.989 208.479 117.15V117.149Z" fill="url(#paint44_linear_34_532)"/>
<path id="Vector_76" d="M208.22 121.962C208.22 121.962 208.833 119.466 209.901 119.461C210.969 119.455 211.898 120.437 210.69 121.74C209.186 123.362 208.22 121.962 208.22 121.962Z" fill="url(#paint45_linear_34_532)"/>
<path id="Vector_77" d="M194.377 134.043C200.26 128.163 200.26 118.63 194.377 112.751C188.493 106.871 178.955 106.871 173.071 112.751C167.188 118.63 167.188 128.163 173.071 134.043C178.955 139.922 188.493 139.922 194.377 134.043Z" fill="url(#paint46_linear_34_532)"/>
<path id="Vector_78" d="M194.022 133.689C199.71 128.005 199.71 118.789 194.022 113.104C188.335 107.42 179.113 107.42 173.425 113.104C167.738 118.789 167.738 128.005 173.425 133.689C179.113 139.373 188.335 139.373 194.022 133.689Z" fill="url(#paint47_linear_34_532)"/>
<path id="Vector_79" opacity="0.7" d="M171.714 117.675C171.665 117.675 171.615 117.664 171.568 117.64C171.408 117.56 171.344 117.364 171.425 117.204C173.782 112.536 178.495 109.636 183.725 109.636C184.559 109.636 185.394 109.711 186.208 109.859C186.385 109.891 186.502 110.06 186.47 110.237C186.438 110.413 186.269 110.529 186.092 110.499C185.316 110.357 184.519 110.285 183.725 110.285C178.743 110.285 174.252 113.049 172.005 117.497C171.948 117.61 171.834 117.675 171.715 117.675H171.714Z" fill="white"/>
<path id="Vector_80" opacity="0.78" d="M184.042 136.034C190.85 136.034 196.369 130.518 196.369 123.714C196.369 116.911 190.85 111.395 184.042 111.395C177.234 111.395 171.715 116.911 171.715 123.714C171.715 130.518 177.234 136.034 184.042 136.034Z" fill="white"/>
<path id="Vector_81" d="M182.832 132.873V131.532C181.434 131.476 180.051 131.146 179.069 130.717C178.718 130.563 178.539 130.17 178.64 129.801L178.981 128.552C179.106 128.095 179.605 127.858 180.042 128.041C181.017 128.449 182.22 128.772 183.517 128.772C184.815 128.772 185.868 128.316 185.868 127.381C185.868 126.537 185.092 126.036 183.221 125.534C180.551 124.804 178.633 123.641 178.633 121.291C178.633 119.17 180.185 117.551 182.878 117.117V115.777C182.878 115.345 183.228 114.996 183.659 114.996H184.447C184.879 114.996 185.228 115.346 185.228 115.777V116.98C186.522 117.032 187.464 117.253 188.211 117.516C188.594 117.651 188.803 118.063 188.697 118.454L188.384 119.609C188.263 120.054 187.787 120.297 187.355 120.135C186.667 119.875 185.694 119.604 184.43 119.604C182.832 119.604 182.376 120.265 182.376 120.858C182.376 121.588 183.335 122.09 185.411 122.729C188.378 123.618 189.611 124.849 189.611 127.062C189.611 129.092 188.105 130.917 185.183 131.373V132.873C185.183 133.304 184.833 133.653 184.402 133.653H183.614C183.183 133.653 182.833 133.304 182.833 132.873H182.832Z" fill="url(#paint48_linear_34_532)"/>
</g>
<defs>
<linearGradient id="paint0_linear_34_532" x1="112.842" y1="55.2143" x2="122.608" y2="55.2143" gradientUnits="userSpaceOnUse">
<stop stop-color="#DAE3FE"/>
<stop offset="1" stop-color="#E9EFFD"/>
</linearGradient>
<linearGradient id="paint1_linear_34_532" x1="106.068" y1="55.2049" x2="129.83" y2="55.2049" gradientUnits="userSpaceOnUse">
<stop stop-color="#DAE3FE"/>
<stop offset="1" stop-color="#E9EFFD"/>
</linearGradient>
<linearGradient id="paint2_linear_34_532" x1="77.0707" y1="48.197" x2="83.7223" y2="48.197" gradientUnits="userSpaceOnUse">
<stop stop-color="#DAE3FE"/>
<stop offset="1" stop-color="#E9EFFD"/>
</linearGradient>
<linearGradient id="paint3_linear_34_532" x1="72.3488" y1="48.1856" x2="88.7477" y2="48.1856" gradientUnits="userSpaceOnUse">
<stop stop-color="#DAE3FE"/>
<stop offset="1" stop-color="#E9EFFD"/>
</linearGradient>
<linearGradient id="paint4_linear_34_532" x1="69.5811" y1="131.617" x2="161.729" y2="129.605" gradientUnits="userSpaceOnUse">
<stop stop-color="#09005D"/>
<stop offset="1" stop-color="#1A0F91"/>
</linearGradient>
<linearGradient id="paint5_linear_34_532" x1="146.485" y1="69.7308" x2="26.8096" y2="289.272" gradientUnits="userSpaceOnUse">
<stop stop-color="#4F52FF"/>
<stop offset="1" stop-color="#4042E2"/>
</linearGradient>
<linearGradient id="paint6_linear_34_532" x1="137.166" y1="131.076" x2="237.952" y2="128.875" gradientUnits="userSpaceOnUse">
<stop stop-color="#09005D"/>
<stop offset="1" stop-color="#1A0F91"/>
</linearGradient>
<linearGradient id="paint7_linear_34_532" x1="89.0322" y1="115.148" x2="130.859" y2="108.824" gradientUnits="userSpaceOnUse">
<stop stop-color="#673091"/>
<stop offset="1" stop-color="#EC008C"/>
</linearGradient>
<linearGradient id="paint8_linear_34_532" x1="112.658" y1="92.1638" x2="192.257" y2="74.3147" gradientUnits="userSpaceOnUse">
<stop stop-color="#673091"/>
<stop offset="1" stop-color="#EC008C"/>
</linearGradient>
<linearGradient id="paint9_linear_34_532" x1="172.083" y1="96.0088" x2="200.257" y2="94.2264" gradientUnits="userSpaceOnUse">
<stop stop-color="#673091"/>
<stop offset="1" stop-color="#EC008C"/>
</linearGradient>
<linearGradient id="paint10_linear_34_532" x1="87.3403" y1="210.464" x2="103.89" y2="167.834" gradientUnits="userSpaceOnUse">
<stop stop-color="#FEBBBA"/>
<stop offset="1" stop-color="#FF928E"/>
</linearGradient>
<linearGradient id="paint11_linear_34_532" x1="87.089" y1="347.564" x2="141.778" y2="-292.014" gradientUnits="userSpaceOnUse">
<stop stop-color="#FEBBBA"/>
<stop offset="1" stop-color="#FF928E"/>
</linearGradient>
<linearGradient id="paint12_linear_34_532" x1="89.0569" y1="143.035" x2="96.0792" y2="143.035" gradientUnits="userSpaceOnUse">
<stop stop-color="#FEBBBA"/>
<stop offset="1" stop-color="#FF928E"/>
</linearGradient>
<linearGradient id="paint13_linear_34_532" x1="94.7771" y1="198.71" x2="100.916" y2="209.106" gradientUnits="userSpaceOnUse">
<stop stop-color="#09005D"/>
<stop offset="1" stop-color="#1A0F91"/>
</linearGradient>
<linearGradient id="paint14_linear_34_532" x1="89.7495" y1="195.407" x2="91.3783" y2="207.368" gradientUnits="userSpaceOnUse">
<stop stop-color="#09005D"/>
<stop offset="1" stop-color="#1A0F91"/>
</linearGradient>
<linearGradient id="paint15_linear_34_532" x1="108.031" y1="145.2" x2="92.093" y2="182.506" gradientUnits="userSpaceOnUse">
<stop stop-color="#09005D"/>
<stop offset="1" stop-color="#1A0F91"/>
</linearGradient>
<linearGradient id="paint16_linear_34_532" x1="96.7263" y1="127.376" x2="101.714" y2="127.376" gradientUnits="userSpaceOnUse">
<stop stop-color="#FEBBBA"/>
<stop offset="1" stop-color="#FF928E"/>
</linearGradient>
<linearGradient id="paint17_linear_34_532" x1="93.6157" y1="150.794" x2="108.105" y2="150.187" gradientUnits="userSpaceOnUse">
<stop stop-color="#673091"/>
<stop offset="1" stop-color="#EC008C"/>
</linearGradient>
<linearGradient id="paint18_linear_34_532" x1="109.023" y1="108.301" x2="119.726" y2="164.247" gradientUnits="userSpaceOnUse">
<stop stop-color="#FEBBBA"/>
<stop offset="1" stop-color="#FF928E"/>
</linearGradient>
<linearGradient id="paint19_linear_34_532" x1="118.301" y1="107.961" x2="127.637" y2="156.758" gradientUnits="userSpaceOnUse">
<stop stop-color="#FEBBBA"/>
<stop offset="1" stop-color="#FF928E"/>
</linearGradient>
<linearGradient id="paint20_linear_34_532" x1="105.889" y1="126.265" x2="93.1153" y2="114.8" gradientUnits="userSpaceOnUse">
<stop stop-color="#FEBBBA"/>
<stop offset="1" stop-color="#FF928E"/>
</linearGradient>
<linearGradient id="paint21_linear_34_532" x1="75.7408" y1="138.314" x2="105.96" y2="129.15" gradientUnits="userSpaceOnUse">
<stop stop-color="#09005D"/>
<stop offset="1" stop-color="#1A0F91"/>
</linearGradient>
<linearGradient id="paint22_linear_34_532" x1="146.78" y1="142.805" x2="158.38" y2="129.333" gradientUnits="userSpaceOnUse">
<stop stop-color="#FF928E"/>
<stop offset="1" stop-color="#FE7062"/>
</linearGradient>
<linearGradient id="paint23_linear_34_532" x1="158.622" y1="140.892" x2="170.36" y2="127.637" gradientUnits="userSpaceOnUse">
<stop stop-color="#673091"/>
<stop offset="1" stop-color="#EC008C"/>
</linearGradient>
<linearGradient id="paint24_linear_34_532" x1="155.686" y1="134.959" x2="162.377" y2="134.721" gradientUnits="userSpaceOnUse">
<stop stop-color="#673091"/>
<stop offset="1" stop-color="#EC008C"/>
</linearGradient>
<linearGradient id="paint25_linear_34_532" x1="174.694" y1="177.377" x2="195.473" y2="153.244" gradientUnits="userSpaceOnUse">
<stop stop-color="#FF928E"/>
<stop offset="1" stop-color="#FE7062"/>
</linearGradient>
<linearGradient id="paint26_linear_34_532" x1="195.908" y1="173.951" x2="216.933" y2="150.206" gradientUnits="userSpaceOnUse">
<stop stop-color="#673091"/>
<stop offset="1" stop-color="#EC008C"/>
</linearGradient>
<linearGradient id="paint27_linear_34_532" x1="190.647" y1="163.323" x2="202.634" y2="162.896" gradientUnits="userSpaceOnUse">
<stop stop-color="#673091"/>
<stop offset="1" stop-color="#EC008C"/>
</linearGradient>
<linearGradient id="paint28_linear_34_532" x1="152.063" y1="168.511" x2="167.287" y2="150.829" gradientUnits="userSpaceOnUse">
<stop stop-color="#FF928E"/>
<stop offset="1" stop-color="#FE7062"/>
</linearGradient>
<linearGradient id="paint29_linear_34_532" x1="167.606" y1="166" x2="183.01" y2="148.603" gradientUnits="userSpaceOnUse">
<stop stop-color="#673091"/>
<stop offset="1" stop-color="#EC008C"/>
</linearGradient>
<linearGradient id="paint30_linear_34_532" x1="163.751" y1="158.215" x2="172.534" y2="157.902" gradientUnits="userSpaceOnUse">
<stop stop-color="#673091"/>
<stop offset="1" stop-color="#EC008C"/>
</linearGradient>
<linearGradient id="paint31_linear_34_532" x1="220.975" y1="208.96" x2="214.01" y2="209.314" gradientUnits="userSpaceOnUse">
<stop stop-color="#09005D"/>
<stop offset="1" stop-color="#1A0F91"/>
</linearGradient>
<linearGradient id="paint32_linear_34_532" x1="220.519" y1="206.269" x2="217.708" y2="205.952" gradientUnits="userSpaceOnUse">
<stop stop-color="#FEBBBA"/>
<stop offset="1" stop-color="#FF928E"/>
</linearGradient>
<linearGradient id="paint33_linear_34_532" x1="207.259" y1="209.431" x2="196.322" y2="209.813" gradientUnits="userSpaceOnUse">
<stop stop-color="#09005D"/>
<stop offset="1" stop-color="#1A0F91"/>
</linearGradient>
<linearGradient id="paint34_linear_34_532" x1="206.451" y1="205.15" x2="203.664" y2="205.534" gradientUnits="userSpaceOnUse">
<stop stop-color="#FEBBBA"/>
<stop offset="1" stop-color="#FF928E"/>
</linearGradient>
<linearGradient id="paint35_linear_34_532" x1="262.353" y1="111.88" x2="216.445" y2="184.033" gradientUnits="userSpaceOnUse">
<stop stop-color="#4F52FF"/>
<stop offset="1" stop-color="#4042E2"/>
</linearGradient>
<linearGradient id="paint36_linear_34_532" x1="220.528" y1="123.219" x2="220.528" y2="151.666" gradientUnits="userSpaceOnUse">
<stop stop-color="#4F52FF"/>
<stop offset="1" stop-color="#4042E2"/>
</linearGradient>
<linearGradient id="paint37_linear_34_532" x1="203.503" y1="115.245" x2="205.643" y2="147.312" gradientUnits="userSpaceOnUse">
<stop stop-color="#09005D"/>
<stop offset="1" stop-color="#1A0F91"/>
</linearGradient>
<linearGradient id="paint38_linear_34_532" x1="196.984" y1="121.164" x2="186.595" y2="119.992" gradientUnits="userSpaceOnUse">
<stop stop-color="#FEBBBA"/>
<stop offset="1" stop-color="#FF928E"/>
</linearGradient>
<linearGradient id="paint39_linear_34_532" x1="175.917" y1="173.057" x2="205.266" y2="150.416" gradientUnits="userSpaceOnUse">
<stop stop-color="#09005D"/>
<stop offset="1" stop-color="#1A0F91"/>
</linearGradient>
<linearGradient id="paint40_linear_34_532" x1="173.205" y1="120.777" x2="192.487" y2="151.225" gradientUnits="userSpaceOnUse">
<stop stop-color="#FEBBBA"/>
<stop offset="1" stop-color="#FF928E"/>
</linearGradient>
<linearGradient id="paint41_linear_34_532" x1="168.563" y1="123.716" x2="187.846" y2="154.165" gradientUnits="userSpaceOnUse">
<stop stop-color="#FEBBBA"/>
<stop offset="1" stop-color="#FF928E"/>
</linearGradient>
<linearGradient id="paint42_linear_34_532" x1="200.36" y1="106.756" x2="217.58" y2="149.131" gradientUnits="userSpaceOnUse">
<stop stop-color="#FEBBBA"/>
<stop offset="1" stop-color="#FF928E"/>
</linearGradient>
<linearGradient id="paint43_linear_34_532" x1="206.381" y1="114.874" x2="205.107" y2="130.848" gradientUnits="userSpaceOnUse">
<stop stop-color="#FEBBBA"/>
<stop offset="1" stop-color="#FF928E"/>
</linearGradient>
<linearGradient id="paint44_linear_34_532" x1="209.848" y1="122.082" x2="201.223" y2="114.406" gradientUnits="userSpaceOnUse">
<stop stop-color="#09005D"/>
<stop offset="1" stop-color="#1A0F91"/>
</linearGradient>
<linearGradient id="paint45_linear_34_532" x1="210.231" y1="131.843" x2="209.724" y2="120.751" gradientUnits="userSpaceOnUse">
<stop stop-color="#FEBBBA"/>
<stop offset="1" stop-color="#FF928E"/>
</linearGradient>
<linearGradient id="paint46_linear_34_532" x1="163.109" y1="147.31" x2="183.302" y2="123.858" gradientUnits="userSpaceOnUse">
<stop stop-color="#FF928E"/>
<stop offset="1" stop-color="#FE7062"/>
</linearGradient>
<linearGradient id="paint47_linear_34_532" x1="183.724" y1="143.981" x2="204.157" y2="120.905" gradientUnits="userSpaceOnUse">
<stop stop-color="#673091"/>
<stop offset="1" stop-color="#EC008C"/>
</linearGradient>
<linearGradient id="paint48_linear_34_532" x1="178.612" y1="133.653" x2="190.261" y2="133.238" gradientUnits="userSpaceOnUse">
<stop stop-color="#673091"/>
<stop offset="1" stop-color="#EC008C"/>
</linearGradient>
</defs>
</svg>
