<svg width="300" height="240" viewBox="0 0 300 240" fill="none" xmlns="http://www.w3.org/2000/svg">
<g id="Frame 8">
<rect id="Rectangle 14" width="300" height="240" rx="18" fill="#E7EDFD"/>
<path id="Vector" d="M70.8233 189.084C70.8233 190.672 72.1287 191.972 73.7236 191.972H230.556C232.151 191.972 233.457 190.672 233.457 189.084L234.761 99.246C234.761 97.6575 232.884 94.5562 229.443 94.7891L76.169 90.8359C74.1678 90.7843 72.2323 91.5521 70.8154 92.9605C69.3978 94.3689 68.6222 96.2942 68.6701 98.287L70.824 189.084H70.8233Z" fill="url(#paint0_linear_41_1274)"/>
<path id="Vector_2" d="M73.687 186.313C73.687 187.818 74.922 189.048 76.4305 189.048H226.774C228.284 189.048 229.518 187.817 229.518 186.313L230.75 104.758C230.605 99.8502 226.288 98.0857 223.671 98.1903L76.7718 94.2616C75.3655 94.2239 74.0064 94.764 73.0104 95.7541C72.0144 96.7442 71.4667 98.099 71.5018 99.5008L73.6863 186.313H73.687Z" fill="url(#paint1_linear_41_1274)"/>
<path id="Vector_3" opacity="0.55" d="M227.893 147.568H227.887C227.665 147.565 227.488 147.383 227.491 147.161L227.588 140.548C227.592 140.329 227.771 140.152 227.99 140.152H227.996C228.219 140.156 228.396 140.338 228.393 140.559L228.295 147.173C228.292 147.392 228.112 147.568 227.893 147.568Z" fill="white"/>
<path id="Vector_4" opacity="0.55" d="M228.132 131.36H228.126C227.904 131.357 227.726 131.175 227.73 130.953L228.103 105.621C228.096 104.117 227.638 102.915 226.741 102.059C225.067 100.46 222.409 100.542 222.297 100.547L175.345 99.2923C175.123 99.287 174.948 99.1023 174.954 98.8813C174.96 98.6602 175.13 98.4716 175.367 98.4914L222.291 99.7463C222.583 99.7291 225.413 99.6801 227.298 101.48C228.358 102.493 228.899 103.888 228.908 105.626L228.535 130.966C228.531 131.185 228.352 131.361 228.133 131.361L228.132 131.36Z" fill="white"/>
<path id="Vector_5" d="M58.4761 199.43L242.626 199.43C242.833 199.43 243.001 199.262 243.001 199.056V191.91C243.001 191.703 242.833 191.536 242.626 191.536L58.4761 191.536C58.269 191.536 58.101 191.703 58.101 191.91V199.056C58.101 199.262 58.269 199.43 58.4761 199.43Z" fill="url(#paint2_linear_41_1274)"/>
<path id="Vector_6" d="M200.973 28.6645L92.143 28C88.5662 27.9782 85.7058 30.9558 85.8831 34.5172L93.37 188.642H214.478L221.202 50.9401L200.973 28.6645Z" fill="#91B3FA"/>
<path id="Vector_7" d="M205.499 50.2796C201.954 50.1552 199.228 47.1094 199.508 43.5851L200.674 28.8677L221.224 50.8494L205.499 50.2796Z" fill="#BDD0FB"/>
<path id="Vector_8" opacity="0.39" d="M201.481 106.901H107.074C104.225 106.901 101.892 105.604 101.806 103.972L99.833 66.8534C99.7427 65.1498 102.128 63.7401 105.101 63.7401H201.481C204.392 63.7401 206.752 65.0929 206.752 66.7614V103.88C206.752 105.548 204.392 106.901 201.481 106.901Z" fill="white"/>
<path id="Vector_9" d="M201.33 107.233H106.922C103.879 107.233 101.419 105.808 101.322 103.989L99.3491 66.8713C99.3159 66.2413 99.5675 65.6251 100.077 65.089C101.063 64.0525 102.931 63.4086 104.95 63.4086H201.33C204.472 63.4086 206.933 64.8818 206.933 66.7621V103.88C206.933 105.761 204.472 107.234 201.33 107.234V107.233ZM104.95 64.0717C103.107 64.0717 101.425 64.6363 100.561 65.545C100.174 65.9514 99.9905 66.3855 100.014 66.8349L101.987 103.953C102.063 105.395 104.278 106.568 106.922 106.568H201.33C204.006 106.568 206.267 105.336 206.267 103.879V66.7608C206.267 65.3028 204.006 64.0717 201.33 64.0717H104.95Z" fill="white"/>
<path id="Vector_10" d="M127.252 63.4418L127.039 106.899L127.705 106.902L127.918 63.4451L127.252 63.4418Z" fill="white"/>
<path id="Vector_11" d="M182.763 63.4418L182.55 106.899L183.216 106.902L183.429 63.4451L182.763 63.4418Z" fill="white"/>
<path id="Vector_12" d="M127.588 75.2389L127.585 75.9027L206.598 76.2876L206.601 75.6238L127.588 75.2389Z" fill="white"/>
<path id="Vector_13" d="M206.593 92.3098H127.369V92.9736H206.593V92.3098Z" fill="white"/>
<path id="Vector_14" opacity="0.39" d="M201.643 179.054H107.236C104.387 179.054 102.054 177.757 101.968 176.125L99.9952 139.007C99.9049 137.303 102.29 135.893 105.263 135.893H201.643C204.554 135.893 206.914 137.246 206.914 138.915V176.033C206.914 177.701 204.554 179.054 201.643 179.054Z" fill="white"/>
<path id="Vector_15" d="M201.492 179.386H107.084C104.04 179.386 101.58 177.961 101.483 176.143L99.5105 139.025C99.4773 138.395 99.7289 137.778 100.239 137.242C101.225 136.206 103.092 135.562 105.111 135.562H201.491C204.633 135.562 207.094 137.035 207.094 138.915V176.034C207.094 177.914 204.633 179.387 201.491 179.387L201.492 179.386ZM105.112 136.225C103.269 136.225 101.587 136.79 100.723 137.698C100.336 138.105 100.152 138.539 100.176 138.988L102.149 176.106C102.225 177.549 104.44 178.721 107.084 178.721H201.492C204.168 178.721 206.429 177.49 206.429 176.032V138.914C206.429 137.456 204.168 136.225 201.492 136.225H105.112Z" fill="white"/>
<path id="Vector_16" d="M127.414 135.597L127.201 179.054L127.867 179.058L128.08 135.6L127.414 135.597Z" fill="white"/>
<path id="Vector_17" d="M182.926 135.597L182.713 179.054L183.379 179.058L183.592 135.6L182.926 135.597Z" fill="white"/>
<path id="Vector_18" d="M127.749 147.391L127.746 148.055L206.759 148.439L206.762 147.776L127.749 147.391Z" fill="white"/>
<path id="Vector_19" d="M206.754 164.463H127.531V165.127H206.754V164.463Z" fill="white"/>
<path id="Vector_20" opacity="0.55" d="M196.27 48.7581H108.039C107.755 48.7581 107.524 48.988 107.524 49.2716V55.8841C107.524 56.1678 107.755 56.3977 108.039 56.3977H196.27C196.555 56.3977 196.785 56.1678 196.785 55.8841V49.2716C196.785 48.988 196.555 48.7581 196.27 48.7581Z" fill="white"/>
<path id="Vector_21" opacity="0.42" d="M204.964 114.097H102.542C102.289 114.097 102.084 114.302 102.084 114.554V119.395C102.084 119.647 102.289 119.852 102.542 119.852H204.964C205.217 119.852 205.422 119.647 205.422 119.395V114.554C205.422 114.302 205.217 114.097 204.964 114.097Z" fill="white"/>
<path id="Vector_22" opacity="0.42" d="M204.664 122.951H102.242C101.989 122.951 101.784 123.155 101.784 123.407V128.249C101.784 128.501 101.989 128.705 102.242 128.705H204.664C204.917 128.705 205.122 128.501 205.122 128.249V123.407C205.122 123.155 204.917 122.951 204.664 122.951Z" fill="white"/>
<g id="card_soon">
<path id="Vector_23" d="M180.432 85.6524L180.669 105.931L180.705 109.07C180.72 109.48 180.394 109.827 179.984 109.841L139.568 111.264C139.157 111.278 138.808 110.955 138.794 110.546L138.637 107.41L137.638 87.4063C137.623 86.9966 138.079 86.1806 138.968 86.2097L178.431 83.8006C178.946 83.7695 179.452 83.9495 179.83 84.3003C180.208 84.6504 180.426 85.1395 180.432 85.6531V85.6524Z" fill="url(#paint3_linear_41_1274)"/>
<path id="Vector_24" d="M174.678 109.553C174.618 109.553 174.569 109.506 174.567 109.446C174.565 109.385 174.613 109.334 174.674 109.332L178.983 109.18C179.234 109.172 179.492 109.044 179.691 108.83C179.888 108.617 179.997 108.35 179.989 108.099L179.523 94.9593C179.521 94.8984 179.569 94.8468 179.63 94.8448C179.693 94.8368 179.743 94.8904 179.745 94.9513L180.21 108.092C180.234 108.742 179.641 109.378 178.991 109.401L174.681 109.553C174.681 109.553 174.678 109.553 174.677 109.553H174.678Z" fill="#91B3FA"/>
<path id="Vector_25" d="M139.003 96.4953C138.943 96.4953 138.894 96.4483 138.892 96.3888L138.613 88.5128C138.583 87.6491 139.229 86.8953 140.024 86.8668L143.448 86.7464C143.511 86.7384 143.56 86.7921 143.562 86.8529C143.564 86.9138 143.517 86.9655 143.455 86.9674L140.032 87.0879C139.369 87.1111 138.809 87.7736 138.835 88.5049L139.114 96.3808C139.116 96.4417 139.068 96.4933 139.007 96.4953C139.006 96.4953 139.004 96.4953 139.003 96.4953Z" fill="#91B3FA"/>
<path id="Vector_26" d="M147.936 94.7108L142.944 94.8863C142.531 94.9008 142.208 95.2463 142.223 95.658L142.357 99.4427C142.371 99.8544 142.718 100.176 143.131 100.162L148.123 99.9864C148.536 99.9719 148.859 99.6263 148.844 99.2146L148.71 95.4299C148.696 95.0183 148.349 94.6963 147.936 94.7108Z" fill="#BCD1FC"/>
<path id="Vector_27" opacity="0.8" d="M144.592 98.6072C144.361 98.6072 144.169 98.4239 144.16 98.1916L144.115 96.9427C144.108 96.7051 144.294 96.5052 144.532 96.4966L145.956 96.4463C146.183 96.4377 146.395 96.6244 146.404 96.8613L146.448 98.1102C146.456 98.3478 146.269 98.5477 146.031 98.5563L144.607 98.6066C144.602 98.6066 144.598 98.6066 144.592 98.6066V98.6072ZM145.972 96.8553H145.971L144.548 96.9056C144.536 96.9056 144.526 96.9162 144.526 96.9288L144.571 98.1777C144.571 98.1896 144.582 98.1989 144.594 98.1989H144.594L146.018 98.1486C146.03 98.1486 146.04 98.138 146.039 98.1254L145.995 96.8772C145.995 96.8653 145.984 96.8553 145.972 96.8553Z" fill="white"/>
<path id="Vector_28" d="M142.282 97.4961C142.172 97.4961 142.082 97.4094 142.078 97.2988C142.074 97.1863 142.162 97.091 142.276 97.087L144.325 97.0149C144.432 97.0136 144.533 97.099 144.536 97.2121C144.54 97.3246 144.452 97.42 144.339 97.4239L142.29 97.4961C142.29 97.4961 142.286 97.4961 142.283 97.4961H142.282Z" fill="white"/>
<path id="Vector_29" d="M142.3 98.007C142.19 98.007 142.1 97.9203 142.096 97.8097C142.092 97.6972 142.18 97.6019 142.294 97.598L144.342 97.5258C144.45 97.5232 144.551 97.6099 144.554 97.723C144.558 97.8356 144.47 97.9309 144.356 97.9348L142.308 98.007C142.308 98.007 142.303 98.007 142.3 98.007Z" fill="white"/>
<path id="Vector_30" d="M146.55 97.3458C146.44 97.3458 146.35 97.2591 146.346 97.1486C146.342 97.0361 146.43 96.9408 146.544 96.9368L148.763 96.8587C148.868 96.8541 148.972 96.9427 148.975 97.0559C148.979 97.1684 148.891 97.2637 148.777 97.2677L146.558 97.3458C146.558 97.3458 146.553 97.3458 146.55 97.3458Z" fill="white"/>
<path id="Vector_31" d="M146.568 97.8567C146.458 97.8567 146.368 97.77 146.364 97.6595C146.36 97.547 146.448 97.4517 146.562 97.4477L148.781 97.3696C148.886 97.3643 148.99 97.4537 148.993 97.5668C148.997 97.6793 148.909 97.7747 148.795 97.7786L146.575 97.8567C146.575 97.8567 146.571 97.8567 146.568 97.8567Z" fill="white"/>
<path id="Vector_32" d="M144.779 96.905C144.689 96.905 144.607 96.8454 144.582 96.7547L144.076 94.9181C144.046 94.8089 144.11 94.6964 144.219 94.6666C144.327 94.6369 144.441 94.7004 144.471 94.8096L144.977 96.6462C145.007 96.7554 144.942 96.8679 144.833 96.8977C144.815 96.903 144.797 96.905 144.779 96.905H144.779Z" fill="white"/>
<path id="Vector_33" d="M145.969 96.8634C145.955 96.8634 145.941 96.8621 145.927 96.8588C145.817 96.8356 145.746 96.7277 145.769 96.6172L146.159 94.7495C146.182 94.639 146.292 94.5681 146.402 94.5913C146.512 94.6145 146.584 94.7223 146.56 94.8329L146.17 96.7006C146.15 96.7972 146.064 96.8634 145.969 96.8634Z" fill="white"/>
<path id="Vector_34" d="M144.462 100.381C144.449 100.381 144.436 100.38 144.422 100.377C144.31 100.355 144.238 100.247 144.261 100.137L144.635 98.2691C144.657 98.1586 144.766 98.0865 144.876 98.109C144.988 98.1308 145.06 98.2387 145.037 98.3492L144.663 100.217C144.643 100.314 144.558 100.381 144.462 100.381Z" fill="white"/>
<path id="Vector_35" d="M146.548 100.308C146.459 100.308 146.376 100.249 146.351 100.159L145.829 98.3227C145.799 98.2141 145.862 98.101 145.971 98.0705C146.08 98.0394 146.193 98.103 146.224 98.2115L146.746 100.047C146.776 100.156 146.713 100.269 146.604 100.3C146.585 100.305 146.566 100.308 146.548 100.308Z" fill="white"/>
<path id="Vector_36" d="M147.592 88.9296L142.026 89.1253C141.536 89.1425 141.152 89.5527 141.17 90.0415L141.173 90.1433C141.191 90.6321 141.602 91.0144 142.093 90.9971L147.658 90.8015C148.148 90.7842 148.532 90.374 148.514 89.8853L148.511 89.7834C148.493 89.2946 148.082 88.9124 147.592 88.9296Z" fill="white" fill-opacity="0.5"/>
<path id="Vector_37" d="M148.62 102.354L142.461 102.57C141.993 102.587 141.627 102.978 141.644 103.445L141.644 103.457C141.661 103.924 142.053 104.288 142.521 104.272L148.68 104.056C149.148 104.039 149.514 103.648 149.497 103.181L149.497 103.169C149.48 102.702 149.088 102.337 148.62 102.354Z" fill="white" fill-opacity="0.5"/>
<path id="Vector_38" d="M151.339 102.258L157.498 102.041C157.966 102.025 158.359 102.39 158.375 102.856L158.376 102.869C158.392 103.335 158.026 103.727 157.558 103.743L151.4 103.96C150.932 103.976 150.539 103.611 150.522 103.145L150.522 103.132C150.505 102.666 150.872 102.274 151.339 102.258L151.339 102.258Z" fill="white" fill-opacity="0.5"/>
<path id="Vector_39" d="M160.217 101.946L166.375 101.73C166.843 101.713 167.236 102.078 167.253 102.544L167.253 102.557C167.269 103.023 166.903 103.415 166.435 103.431L160.277 103.648C159.809 103.664 159.416 103.299 159.4 102.833L159.399 102.82C159.383 102.354 159.749 101.962 160.217 101.946Z" fill="white" fill-opacity="0.5"/>
<path id="Vector_40" d="M169.264 101.628L175.424 101.411C175.891 101.395 176.284 101.76 176.301 102.226L176.301 102.239C176.318 102.705 175.952 103.097 175.484 103.113L169.325 103.33C168.857 103.346 168.465 102.981 168.448 102.515L168.448 102.502C168.431 102.036 168.797 101.644 169.265 101.628L169.264 101.628Z" fill="white" fill-opacity="0.5"/>
<path id="Vector_41" d="M155.437 106.721C155.45 107.091 155.159 107.403 154.787 107.416L143.33 107.819C142.958 107.832 142.645 107.542 142.633 107.171V107.152C142.619 106.782 142.91 106.47 143.282 106.457L154.739 106.054C155.111 106.041 155.424 106.331 155.436 106.702V106.721H155.437Z" fill="white" fill-opacity="0.5"/>
<path id="Vector_42" d="M174.699 105.015L169.729 105.189C169.357 105.202 169.066 105.513 169.079 105.884L169.08 105.903C169.093 106.274 169.405 106.564 169.777 106.55L174.747 106.376C175.119 106.363 175.41 106.051 175.397 105.681L175.396 105.662C175.383 105.291 175.071 105.001 174.699 105.015Z" fill="white" fill-opacity="0.5"/>
</g>
<g id="santim4">
<path id="Vector_43" d="M150.044 73.1635C151.814 69.6995 150.432 65.4612 146.957 63.697C143.482 61.9328 139.23 63.3107 137.46 66.7747C135.69 70.2386 137.072 74.4769 140.547 76.2412C144.023 78.0054 148.274 76.6275 150.044 73.1635Z" fill="url(#paint4_linear_41_1274)"/>
<path id="Vector_44" d="M148.576 74.7759C151.242 72.1184 151.242 67.8096 148.576 65.1521C145.91 62.4945 141.587 62.4945 138.921 65.1521C136.255 67.8096 136.255 72.1184 138.921 74.7759C141.587 77.4334 145.91 77.4334 148.576 74.7759Z" fill="url(#paint5_linear_41_1274)"/>
<path id="Vector_45" opacity="0.78" d="M138.119 67.4014C138.079 67.4014 138.038 67.3922 138 67.373C137.869 67.3074 137.816 67.1486 137.883 67.0182C139.007 64.7977 141.254 63.4185 143.749 63.4185C144.147 63.4185 144.546 63.4542 144.934 63.5244C145.078 63.5508 145.173 63.6878 145.147 63.8314C145.121 63.9751 144.983 64.0697 144.839 64.0439C144.482 63.979 144.116 63.9466 143.749 63.9466C141.456 63.9466 139.39 65.2147 138.356 67.2565C138.31 67.3485 138.216 67.4014 138.119 67.4014Z" fill="white"/>
<path id="Vector_46" opacity="0.78" d="M147.983 74.1847C150.239 71.9355 150.239 68.2889 147.983 66.0397C145.726 63.7905 142.068 63.7905 139.811 66.0397C137.555 68.2889 137.555 71.9355 139.811 74.1847C142.068 76.4338 145.726 76.4338 147.983 74.1847Z" fill="white"/>
<path id="Vector_47" d="M143.33 74.3939V73.7671C142.675 73.7406 142.027 73.5871 141.567 73.3859C141.402 73.3144 141.318 73.1304 141.365 72.9577L141.525 72.3739C141.584 72.1595 141.818 72.0489 142.023 72.135C142.479 72.3256 143.043 72.4765 143.651 72.4765C144.26 72.4765 144.754 72.2634 144.754 71.8259C144.754 71.4315 144.39 71.1965 143.513 70.9622C142.261 70.6207 141.362 70.0773 141.362 68.9787C141.362 67.9872 142.09 67.2301 143.352 67.0269V66.4001C143.352 66.1983 143.516 66.0348 143.718 66.0348H144.088C144.29 66.0348 144.454 66.1983 144.454 66.4001V66.9627C145.06 66.9872 145.502 67.0904 145.852 67.2129C146.032 67.2757 146.13 67.4683 146.08 67.6517L145.933 68.1917C145.877 68.4002 145.654 68.5141 145.451 68.4379C145.129 68.3162 144.673 68.1897 144.08 68.1897C143.331 68.1897 143.118 68.4988 143.118 68.7761C143.118 69.1176 143.567 69.3519 144.54 69.6504C145.931 70.0661 146.509 70.6419 146.509 71.6763C146.509 72.6254 145.803 73.4785 144.434 73.6916V74.3932C144.434 74.5951 144.27 74.7585 144.067 74.7585H143.698C143.495 74.7585 143.331 74.5951 143.331 74.3932L143.33 74.3939Z" fill="url(#paint6_linear_41_1274)"/>
</g>
<g id="santim1">
<path id="Vector_48" d="M172.542 70.2806C177.343 65.4954 177.343 57.737 172.542 52.9518C167.741 48.1666 159.958 48.1666 155.157 52.9518C150.357 57.737 150.357 65.4954 155.157 70.2806C159.958 75.0659 167.741 75.0659 172.542 70.2806Z" fill="url(#paint7_linear_41_1274)"/>
<path id="Vector_49" d="M172.253 69.9928C176.894 65.3665 176.894 57.8659 172.253 53.2396C167.612 48.6133 160.087 48.6133 155.446 53.2396C150.805 57.8659 150.805 65.3665 155.446 69.9928C160.087 74.6191 167.612 74.6191 172.253 69.9928Z" fill="url(#paint8_linear_41_1274)"/>
<path id="Vector_50" opacity="0.78" d="M154.05 56.9596C154.01 56.9596 153.969 56.9503 153.931 56.9311C153.8 56.8656 153.747 56.7068 153.814 56.5764C155.738 52.7768 159.584 50.4166 163.85 50.4166C164.531 50.4166 165.213 50.4775 165.877 50.5986C166.021 50.6251 166.116 50.7621 166.09 50.9057C166.064 51.0493 165.926 51.144 165.782 51.1182C165.149 51.003 164.499 50.9448 163.85 50.9448C159.785 50.9448 156.12 53.1937 154.287 56.814C154.241 56.906 154.147 56.9589 154.05 56.9589V56.9596Z" fill="white"/>
<path id="Vector_51" opacity="0.78" d="M164.109 71.9006C169.664 71.9006 174.167 67.4117 174.167 61.8744C174.167 56.337 169.664 51.8481 164.109 51.8481C158.553 51.8481 154.05 56.337 154.05 61.8744C154.05 67.4117 158.553 71.9006 164.109 71.9006Z" fill="white"/>
<path id="Vector_52" d="M163.122 69.3281V68.2374C161.981 68.1917 160.852 67.9237 160.051 67.5735C159.765 67.4485 159.619 67.1288 159.701 66.8283L159.979 65.8124C160.081 65.4398 160.488 65.2472 160.845 65.3961C161.64 65.7283 162.622 65.9911 163.68 65.9911C164.739 65.9911 165.598 65.6198 165.598 64.8587C165.598 64.1717 164.965 63.7633 163.438 63.355C161.259 62.7606 159.694 61.8142 159.694 59.9021C159.694 58.1754 160.961 56.8577 163.158 56.5049V55.4142C163.158 55.0634 163.444 54.7788 163.796 54.7788H164.438C164.79 54.7788 165.076 55.0634 165.076 55.4142V56.3937C166.132 56.4361 166.9 56.6154 167.51 56.8292C167.823 56.9384 167.993 57.274 167.906 57.593L167.651 58.5328C167.553 58.8955 167.163 59.0934 166.812 58.961C166.25 58.7492 165.456 58.5288 164.425 58.5288C163.121 58.5288 162.749 59.0669 162.749 59.55C162.749 60.1444 163.531 60.5527 165.225 61.0723C167.646 61.7963 168.652 62.7983 168.652 64.5992C168.652 66.2512 167.423 67.7364 165.039 68.1076V69.3281C165.039 69.6789 164.754 69.9635 164.402 69.9635H163.759C163.407 69.9635 163.122 69.6789 163.122 69.3281Z" fill="url(#paint9_linear_41_1274)"/>
</g>
<g id="santim2">
<path id="Vector_53" d="M181.272 97.901C186.212 92.9769 186.212 84.9935 181.272 80.0695C176.332 75.1455 168.323 75.1455 163.383 80.0695C158.444 84.9935 158.444 92.9769 163.383 97.901C168.323 102.825 176.332 102.825 181.272 97.901Z" fill="url(#paint10_linear_41_1274)"/>
<path id="Vector_54" d="M180.975 97.6047C185.751 92.8443 185.751 85.1261 180.975 80.3657C176.199 75.6053 168.456 75.6053 163.68 80.3657C158.905 85.1261 158.905 92.8443 163.68 97.6047C168.456 102.365 176.199 102.365 180.975 97.6047Z" fill="url(#paint11_linear_41_1274)"/>
<path id="Vector_55" opacity="0.78" d="M162.244 84.1864C162.204 84.1864 162.163 84.1771 162.125 84.1579C161.994 84.0924 161.941 83.9336 162.008 83.8032C163.986 79.8963 167.941 77.4694 172.328 77.4694C173.028 77.4694 173.729 77.5322 174.412 77.656C174.556 77.6825 174.652 77.8195 174.625 77.9631C174.599 78.1067 174.462 78.2014 174.317 78.1755C173.666 78.0571 172.997 77.9975 172.328 77.9975C168.142 77.9975 164.369 80.3133 162.481 84.0408C162.435 84.1328 162.341 84.1857 162.244 84.1857V84.1864Z" fill="white"/>
<path id="Vector_56" opacity="0.78" d="M179.913 96.5464C183.955 92.5175 183.955 85.9852 179.913 81.9563C175.871 77.9273 169.318 77.9273 165.276 81.9563C161.234 85.9852 161.234 92.5175 165.276 96.5464C169.318 100.575 175.871 100.575 179.913 96.5464Z" fill="white"/>
<path id="Vector_57" d="M171.579 96.9209V95.7984C170.405 95.7514 169.244 95.4755 168.419 95.1154C168.125 94.987 167.974 94.6574 168.059 94.3483L168.345 93.3026C168.45 92.9188 168.869 92.7209 169.236 92.8744C170.054 93.2159 171.064 93.4866 172.154 93.4866C173.244 93.4866 174.128 93.1047 174.128 92.3211C174.128 91.6143 173.477 91.194 171.905 90.7737C169.663 90.1622 168.053 89.188 168.053 87.221C168.053 85.4446 169.357 84.0885 171.617 83.7251V82.6026C171.617 82.2413 171.911 81.9487 172.273 81.9487H172.935C173.297 81.9487 173.591 82.2413 173.591 82.6026V83.6106C174.677 83.6536 175.468 83.839 176.095 84.0587C176.417 84.1712 176.593 84.5167 176.503 84.8443L176.24 85.8112C176.138 86.1839 175.739 86.3884 175.376 86.252C174.799 86.0343 173.982 85.8073 172.92 85.8073C171.579 85.8073 171.195 86.3612 171.195 86.8576C171.195 87.4692 172 87.8888 173.744 88.4242C176.235 89.1694 177.271 90.2006 177.271 92.0537C177.271 93.754 176.006 95.2822 173.553 95.6641V96.9203C173.553 97.2816 173.259 97.5742 172.897 97.5742H172.235C171.872 97.5742 171.579 97.2816 171.579 96.9203V96.9209Z" fill="url(#paint12_linear_41_1274)"/>
</g>
<g id="santim3">
<path id="Vector_58" d="M188.555 81.0486C193.674 81.0486 197.824 76.9123 197.824 71.8099C197.824 66.7076 193.674 62.5713 188.555 62.5713C183.436 62.5713 179.287 66.7076 179.287 71.8099C179.287 76.9123 183.436 81.0486 188.555 81.0486Z" fill="url(#paint13_linear_41_1274)"/>
<path id="Vector_59" d="M194.891 78.125C198.39 74.6373 198.39 68.9826 194.891 65.4948C191.392 62.0071 185.719 62.0071 182.22 65.4948C178.721 68.9826 178.721 74.6373 182.22 78.125C185.719 81.6128 191.392 81.6128 194.891 78.125Z" fill="url(#paint14_linear_41_1274)"/>
<path id="Vector_60" opacity="0.78" d="M181.167 68.3638C181.127 68.3638 181.086 68.3545 181.047 68.3353C180.916 68.2698 180.864 68.1109 180.93 67.9805C182.392 65.0943 185.314 63.3007 188.555 63.3007C189.073 63.3007 189.591 63.347 190.095 63.439C190.239 63.4655 190.335 63.6031 190.308 63.7461C190.282 63.8897 190.145 63.985 190 63.9585C189.527 63.8725 189.041 63.8288 188.555 63.8288C185.514 63.8288 182.774 65.5105 181.403 68.2181C181.357 68.3101 181.263 68.3631 181.166 68.3631L181.167 68.3638Z" fill="white"/>
<path id="Vector_61" opacity="0.78" d="M190.492 79.3674C194.568 78.4085 197.093 74.3373 196.131 70.2743C195.169 66.2113 191.084 63.6949 187.008 64.6539C182.932 65.6129 180.408 69.684 181.37 73.747C182.332 77.8101 186.416 80.3264 190.492 79.3674Z" fill="white"/>
<path id="Vector_62" d="M188.006 77.6243V76.8016C187.147 76.7672 186.295 76.5647 185.691 76.3013C185.475 76.2073 185.365 75.9657 185.427 75.7394L185.637 74.9736C185.714 74.6923 186.021 74.5474 186.29 74.6599C186.89 74.9101 187.629 75.1086 188.427 75.1086C189.225 75.1086 189.873 74.8287 189.873 74.2548C189.873 73.7373 189.396 73.4289 188.245 73.1211C186.602 72.673 185.423 71.9596 185.423 70.5181C185.423 69.2162 186.378 68.2228 188.034 67.9567V67.1341C188.034 66.8693 188.249 66.6549 188.515 66.6549H189C189.265 66.6549 189.48 66.8693 189.48 67.1341V67.8727C190.277 67.9045 190.855 68.0401 191.316 68.201C191.551 68.2837 191.68 68.5365 191.614 68.7768L191.422 69.4849C191.347 69.7583 191.055 69.9079 190.789 69.8079C190.365 69.6484 189.767 69.4823 188.99 69.4823C188.007 69.4823 187.726 69.888 187.726 70.252C187.726 70.7001 188.316 71.0078 189.593 71.3997C191.419 71.9457 192.177 72.7015 192.177 74.0589C192.177 75.3045 191.25 76.4244 189.453 76.7043V77.6249C189.453 77.8897 189.238 78.1041 188.972 78.1041H188.488C188.222 78.1041 188.007 77.8897 188.007 77.6249L188.006 77.6243Z" fill="url(#paint15_linear_41_1274)"/>
</g>
<path id="Vector_63" d="M58 149.333H138.432V209.891C138.432 210.504 137.933 211.001 137.319 211.001H59.1128C58.4986 211.001 58 210.504 58 209.891V149.333Z" fill="url(#paint16_linear_41_1274)"/>
<path id="Vector_64" d="M58 146.715H138.432V205.458C138.432 206.071 137.933 206.568 137.319 206.568H59.1128C58.4986 206.568 58 206.071 58 205.458V146.715Z" fill="url(#paint17_linear_41_1274)"/>
<g id="Group 6">
<path id="Vector_65" d="M65.4001 149.333H62.6306V154.025H65.4001V149.333Z" fill="#0C0364"/>
<path id="Vector_66" d="M71.63 149.333H68.8606V154.025H71.63V149.333Z" fill="#0C0364"/>
<path id="Vector_67" d="M77.1337 149.333H74.3643V154.025H77.1337V149.333Z" fill="#0C0364"/>
<path id="Vector_68" d="M83.3647 149.333H80.5952V154.025H83.3647V149.333Z" fill="#0C0364"/>
<path id="Vector_69" d="M88.8681 149.333H86.0986V154.025H88.8681V149.333Z" fill="#0C0364"/>
<path id="Vector_70" d="M95.099 149.333H92.3296V154.025H95.099V149.333Z" fill="#0C0364"/>
<path id="Vector_71" d="M100.602 149.333H97.833V154.025H100.602V149.333Z" fill="#0C0364"/>
<path id="Vector_72" d="M106.833 149.333H104.064V154.025H106.833V149.333Z" fill="#0C0364"/>
<path id="Vector_73" d="M112.337 149.333H109.568V154.025H112.337V149.333Z" fill="#0C0364"/>
<path id="Vector_74" d="M118.568 149.333H115.798V154.025H118.568V149.333Z" fill="#0C0364"/>
<path id="Vector_75" d="M124.071 149.333H121.302V154.025H124.071V149.333Z" fill="#0C0364"/>
<path id="Vector_76" d="M130.302 149.333H127.532V154.025H130.302V149.333Z" fill="#0C0364"/>
</g>
<path id="Vector_77" d="M102.155 156.454H93.7969V164.785H102.155V156.454Z" fill="white"/>
<path id="Vector_78" d="M112.313 156.454H103.955V164.785H112.313V156.454Z" fill="white"/>
<path id="Vector_79" d="M122.368 156.454H114.01V164.785H122.368V156.454Z" fill="white"/>
<path id="Vector_80" d="M132.339 156.454H123.981V164.785H132.339V156.454Z" fill="white"/>
<path id="Vector_81" d="M71.9814 166.929H63.6233V175.26H71.9814V166.929Z" fill="white"/>
<path id="Vector_82" d="M82.0359 166.929H73.6777V175.26H82.0359V166.929Z" fill="white"/>
<path id="Vector_83" d="M92.0075 166.929H83.6494V175.26H92.0075V166.929Z" fill="white"/>
<path id="Vector_84" d="M102.145 166.929H93.7869V175.26H102.145V166.929Z" fill="white"/>
<path id="Vector_85" d="M112.302 166.929H103.944V175.26H112.302V166.929Z" fill="white"/>
<path id="Vector_86" d="M122.357 166.929H113.999V175.26H122.357V166.929Z" fill="white"/>
<path id="Vector_87" d="M132.329 166.929H123.97V175.26H132.329V166.929Z" fill="white"/>
<path id="Vector_88" d="M72.2297 176.91H63.8716V185.241H72.2297V176.91Z" fill="white"/>
<path id="Vector_89" d="M82.2841 176.91H73.926V185.241H82.2841V176.91Z" fill="white"/>
<path id="Vector_90" d="M92.2558 176.91H83.8977V185.241H92.2558V176.91Z" fill="#EC008C"/>
<path id="Vector_91" d="M102.393 176.91H94.0352V185.241H102.393V176.91Z" fill="white"/>
<path id="Vector_92" d="M112.551 176.91H104.193V185.241H112.551V176.91Z" fill="white"/>
<path id="Vector_93" d="M122.605 176.91H114.247V185.241H122.605V176.91Z" fill="white"/>
<path id="Vector_94" d="M132.577 176.91H124.219V185.241H132.577V176.91Z" fill="white"/>
<path id="Vector_95" d="M72.478 186.767H64.1199V195.099H72.478V186.767Z" fill="white"/>
<path id="Vector_96" d="M82.5324 186.767H74.1743V195.099H82.5324V186.767Z" fill="white"/>
<path id="Vector_97" d="M92.5041 186.767H84.146V195.099H92.5041V186.767Z" fill="white"/>
<path id="Vector_98" d="M102.642 186.767H94.2837V195.099H102.642V186.767Z" fill="white"/>
<path id="Vector_99" d="M112.799 186.767H104.441V195.099H112.799V186.767Z" fill="white"/>
<path id="Vector_100" d="M122.854 186.767H114.496V195.099H122.854V186.767Z" fill="white"/>
<path id="Vector_101" d="M132.825 186.767H124.467V195.099H132.825V186.767Z" fill="white"/>
<path id="Vector_102" d="M72.478 196.602H64.1199V204.934H72.478V196.602Z" fill="white"/>
<path id="Vector_103" d="M82.5324 196.602H74.1743V204.934H82.5324V196.602Z" fill="white"/>
<path id="Vector_104" d="M92.5041 196.602H84.146V204.934H92.5041V196.602Z" fill="white"/>
<g id="Group 7">
<path id="Vector_105" d="M68.0977 146H64.5421C63.7234 146 63.0535 146.668 63.0535 147.484V150.78H64.1284V148.637C64.1284 147.821 64.7984 147.154 65.6171 147.154H69.1727C69.3061 147.154 69.4356 147.173 69.5591 147.207C69.4276 146.522 68.8214 146 68.0977 146Z" fill="#0C0364"/>
<path id="Vector_106" d="M74.0442 146H70.4886C69.67 146 69 146.668 69 147.484V150.78H70.075V148.637C70.075 147.821 70.7449 147.154 71.5636 147.154H75.1192C75.2527 147.154 75.3821 147.173 75.5056 147.207C75.3742 146.522 74.7679 146 74.0442 146Z" fill="#0C0364"/>
<path id="Vector_107" d="M80.0442 146H76.4886C75.6699 146 75 146.668 75 147.484V150.78H76.075V148.637C76.075 147.821 76.7449 147.154 77.5636 147.154H81.1192C81.2527 147.154 81.3821 147.173 81.5056 147.207C81.3742 146.522 80.7679 146 80.0442 146Z" fill="#0C0364"/>
<path id="Vector_108" d="M86.0442 146H82.4886C81.6699 146 81 146.668 81 147.484V150.78H82.075V148.637C82.075 147.821 82.7449 147.154 83.5636 147.154H87.1192C87.2526 147.154 87.3821 147.173 87.5056 147.207C87.3742 146.522 86.7679 146 86.0442 146Z" fill="#0C0364"/>
<path id="Vector_109" d="M92.0442 146H88.4886C87.67 146 87 146.668 87 147.484V150.78H88.075V148.637C88.075 147.821 88.7449 147.154 89.5636 147.154H93.1192C93.2527 147.154 93.3821 147.173 93.5056 147.207C93.3742 146.522 92.7679 146 92.0442 146Z" fill="#0C0364"/>
<path id="Vector_110" d="M98.0442 146H94.4886C93.6699 146 93 146.668 93 147.484V150.78H94.075V148.637C94.075 147.821 94.7449 147.154 95.5636 147.154H99.1192C99.2526 147.154 99.3821 147.173 99.5056 147.207C99.3742 146.522 98.7679 146 98.0442 146Z" fill="#0C0364"/>
<path id="Vector_111" d="M103.783 145.597H100.227C99.4082 145.597 98.7383 146.265 98.7383 147.081V150.378H99.8133V148.235C99.8133 147.419 100.483 146.751 101.302 146.751H104.857C104.991 146.751 105.12 146.77 105.244 146.804C105.112 146.119 104.506 145.597 103.783 145.597Z" fill="#0C0364"/>
<path id="Vector_112" d="M110.194 145.597H106.638C105.819 145.597 105.149 146.265 105.149 147.081V150.378H106.224V148.235C106.224 147.419 106.894 146.751 107.713 146.751H111.269C111.402 146.751 111.532 146.77 111.655 146.804C111.524 146.119 110.917 145.597 110.194 145.597Z" fill="#0C0364"/>
<path id="Vector_113" d="M115.721 145.545H112.166C111.347 145.545 110.677 146.213 110.677 147.029V150.326H111.752V148.183C111.752 147.367 112.422 146.699 113.241 146.699H116.796C116.93 146.699 117.059 146.718 117.183 146.752C117.051 146.067 116.445 145.545 115.721 145.545Z" fill="#0C0364"/>
<path id="Vector_114" d="M121.462 145.545H117.907C117.088 145.545 116.418 146.213 116.418 147.029V150.326H117.493V148.183C117.493 147.367 118.163 146.699 118.982 146.699H122.537C122.671 146.699 122.8 146.718 122.924 146.752C122.792 146.067 122.186 145.545 121.462 145.545Z" fill="#0C0364"/>
<path id="Vector_115" d="M132.832 145.679H129.276C128.458 145.679 127.788 146.347 127.788 147.163V150.459H128.863V148.316C128.863 147.5 129.533 146.832 130.351 146.832H133.907C134.04 146.832 134.17 146.852 134.293 146.885C134.162 146.2 133.556 145.679 132.832 145.679Z" fill="#0C0364"/>
<path id="Vector_116" d="M127.873 145.545H124.317C123.499 145.545 122.829 146.213 122.829 147.029V150.326H123.904V148.183C123.904 147.367 124.574 146.699 125.392 146.699H128.948C129.081 146.699 129.211 146.718 129.334 146.752C129.203 146.067 128.597 145.545 127.873 145.545Z" fill="#0C0364"/>
</g>
<path id="Vector_117" d="M160.831 172.656C160.794 172.642 140.94 137.984 138.257 134.722C137.805 134.173 137.107 133.894 136.4 133.978L130.859 134.637L124.348 148.676L135.194 142.38C134.121 149.778 148.054 160.773 152.833 164.786C153.318 165.193 153.357 165.922 152.92 166.379L151.012 168.37C154.144 171.534 157.758 173.566 161.837 174.506L160.832 172.657L160.831 172.656Z" fill="url(#paint18_linear_41_1274)"/>
<path id="Vector_118" d="M152.115 167.295C152.115 167.295 150.897 167.686 150.485 168.768C150.288 169.285 150.5 169.87 150.952 170.193C152.956 171.624 159.57 176.247 162.622 177.152C162.872 177.226 163.11 177 163.054 176.746C162.897 176.039 162.39 174.628 160.758 172.563L160.905 172.858C161.09 173.231 160.682 173.62 160.318 173.416C158.277 172.268 154.119 169.753 152.115 167.295Z" fill="url(#paint19_linear_41_1274)"/>
<path id="Vector_119" d="M153.098 181.162C153.065 181.141 150.086 173.987 150.052 173.966C147.321 157.391 140.658 143.195 138.692 139.459C138.362 138.831 137.734 138.417 137.025 138.356L131.464 137.883L122.238 150.318L134.138 146.34C131.585 153.369 142.997 166.948 146.862 171.841C147.255 172.337 147.146 173.06 146.624 173.419L144.352 174.983C146.777 178.714 149.903 181.433 153.707 183.176L153.098 181.162Z" fill="url(#paint20_linear_41_1274)"/>
<path id="Vector_120" d="M145.651 174.154C145.651 174.154 144.379 174.292 143.756 175.268C143.458 175.734 143.547 176.351 143.923 176.758C145.596 178.564 151.134 184.425 153.938 185.927C154.168 186.051 154.447 185.878 154.444 185.618C154.434 184.894 154.224 183.41 153.045 181.058L153.129 181.376C153.235 181.779 152.756 182.078 152.441 181.804C150.676 180.267 147.114 176.966 145.651 174.154H145.651Z" fill="url(#paint21_linear_41_1274)"/>
<path id="Vector_121" d="M105.436 135.264C105.436 135.264 100.406 142.722 99.9925 146.124C99.5795 149.526 101.384 150.703 106.649 151.136C122.317 152.428 130.041 147.746 130.041 147.746C131.112 140.935 131.875 139.201 140.827 135.498C140.827 135.498 129.505 136.394 127.226 135.512C124.947 134.631 105.436 135.263 105.436 135.263L105.436 135.264Z" fill="url(#paint22_linear_41_1274)"/>
<path id="Vector_122" d="M125.495 93.48C125.495 93.48 121.991 89.3481 118.266 94.4178C117.592 95.3358 115.001 94.5786 114.051 96.5006C113.56 97.4927 112.501 98.0566 111.41 97.8561C108.691 97.3564 104.249 97.314 102.055 101.56C100.381 104.8 101.674 106.697 103.348 107.778C104.577 108.573 105.015 110.185 104.273 111.443C103.559 112.65 103.425 114.284 105.266 116.251C109.392 120.658 117.559 113.454 117.559 113.454L124.043 98.1804L125.495 93.48Z" fill="url(#paint23_linear_41_1274)"/>
<path id="Vector_123" d="M119.04 134.277C119.04 134.277 124.897 128.716 127.781 125.034C129.339 123.043 129.829 120.423 129.108 118.002C127.792 113.581 125.453 109.002 125.239 108.289C124.911 107.197 118.343 107.242 118.343 107.242C118.343 107.242 105.418 115.604 100.34 129.767L106.044 131.537C106.044 131.537 109.419 125.894 112.753 122.306C112.753 122.306 106.983 129.903 106.78 133.014L119.04 134.277Z" fill="url(#paint24_linear_41_1274)"/>
<path id="Vector_124" d="M130.201 136.471L125.799 131.697L120.716 133.062C120.716 133.062 114.789 133.978 111.398 133.062L108.005 132.147L100.34 129.768L99.1366 133.159C98.8312 134.021 99.138 134.976 99.8849 135.506C100.548 135.976 101.325 136.492 101.821 136.708C102.83 137.148 125.074 136.847 125.074 136.847L130.201 136.471H130.201Z" fill="url(#paint25_linear_41_1274)"/>
<path id="Vector_125" d="M122.858 99.3703L118.443 107.553C118.734 109.339 123.247 109.389 123.945 108.322C124.016 108.214 124.056 108.088 124.083 107.962L126.724 102.494C126.838 101.961 125.371 100.165 124.889 99.9084L123.134 98.9772C122.458 98.6185 125.277 98.5907 122.858 99.3697V99.3703Z" fill="url(#paint26_linear_41_1274)"/>
<path id="Vector_126" d="M131.792 97.4504C131.792 97.4504 132.291 100.215 130.11 103.73C127.931 107.245 125.76 107.086 124.657 105.833C123.554 104.579 122.234 102.492 122.834 98.9859C123.435 95.4801 131.039 93.9254 131.792 97.4504Z" fill="url(#paint27_linear_41_1274)"/>
<path id="Vector_127" d="M125.473 99.3664C125.473 99.3664 129.003 94.7448 131.713 98.7734L131.667 100.165C131.667 100.165 135.19 100.001 134.809 96.7634C134.427 93.5257 131.549 91.3138 127.561 92.4204C123.572 93.5263 121.242 94.7865 120.791 97.5464C120.341 100.307 122.602 99.8555 122.602 99.8555C122.602 99.8555 123.466 97.9507 124.509 97.821C125.552 97.6906 125.175 99.1976 125.175 99.1976L125.472 99.3664H125.473Z" fill="url(#paint28_linear_41_1274)"/>
<path id="Vector_128" d="M124.663 99.2433C124.663 99.2433 126.492 96.8785 124.827 96.3874C123.162 95.8963 123.225 98.7045 123.333 99.7496L124.663 99.2433Z" fill="url(#paint29_linear_41_1274)"/>
<path id="Vector_129" d="M115.631 138.36C115.646 138.361 115.662 138.361 115.677 138.361L135.923 138.34C136.423 138.34 136.828 137.935 136.828 137.436C136.828 136.937 136.419 136.524 135.921 136.533L115.676 136.555C115.175 136.555 114.77 136.96 114.771 137.459C114.771 137.943 115.152 138.337 115.631 138.361V138.36Z" fill="url(#paint30_linear_41_1274)"/>
<path id="Vector_130" d="M154.123 120.038H137.263C136.019 120.038 134.887 120.753 134.356 121.874L126.562 138.35H147.515C148.316 138.35 149.037 137.861 149.332 137.119L155.376 121.874C155.725 120.993 155.074 120.038 154.124 120.038L154.123 120.038Z" fill="url(#paint31_linear_41_1274)"/>
<path id="Vector_131" d="M142.244 128.485C141.879 129.617 142.149 130.715 142.847 130.94C143.546 131.164 144.408 130.428 144.773 129.296C145.139 128.165 144.869 127.066 144.171 126.842C143.472 126.618 142.61 127.354 142.244 128.486V128.485Z" fill="#91B3FA"/>
</g>
<defs>
<linearGradient id="paint0_linear_41_1274" x1="166.465" y1="185.066" x2="129.638" y2="74.23" gradientUnits="userSpaceOnUse">
<stop stop-color="#09005D"/>
<stop offset="1" stop-color="#1A0F91"/>
</linearGradient>
<linearGradient id="paint1_linear_41_1274" x1="71.5005" y1="141.653" x2="230.75" y2="141.653" gradientUnits="userSpaceOnUse">
<stop stop-color="#4F52FF"/>
<stop offset="1" stop-color="#4042E2"/>
</linearGradient>
<linearGradient id="paint2_linear_41_1274" x1="150.55" y1="87.2011" x2="150.55" y2="131.467" gradientUnits="userSpaceOnUse">
<stop stop-color="#09005D"/>
<stop offset="1" stop-color="#1A0F91"/>
</linearGradient>
<linearGradient id="paint3_linear_41_1274" x1="137.637" y1="111.264" x2="182.902" y2="106.974" gradientUnits="userSpaceOnUse">
<stop stop-color="#673091"/>
<stop offset="1" stop-color="#EC008C"/>
</linearGradient>
<linearGradient id="paint4_linear_41_1274" x1="134.092" y1="81.1437" x2="143.528" y2="70.1549" gradientUnits="userSpaceOnUse">
<stop stop-color="#FE7062"/>
<stop offset="1" stop-color="#FF928E"/>
</linearGradient>
<linearGradient id="paint5_linear_41_1274" x1="143.748" y1="79.5878" x2="153.298" y2="68.7744" gradientUnits="userSpaceOnUse">
<stop stop-color="#673091"/>
<stop offset="1" stop-color="#EC008C"/>
</linearGradient>
<linearGradient id="paint6_linear_41_1274" x1="141.352" y1="74.7585" x2="146.814" y2="74.5634" gradientUnits="userSpaceOnUse">
<stop stop-color="#673091"/>
<stop offset="1" stop-color="#EC008C"/>
</linearGradient>
<linearGradient id="paint7_linear_41_1274" x1="147.028" y1="81.0789" x2="163.456" y2="61.949" gradientUnits="userSpaceOnUse">
<stop stop-color="#FE7062"/>
<stop offset="1" stop-color="#FF928E"/>
</linearGradient>
<linearGradient id="paint8_linear_41_1274" x1="163.849" y1="78.3694" x2="180.474" y2="59.5453" gradientUnits="userSpaceOnUse">
<stop stop-color="#673091"/>
<stop offset="1" stop-color="#EC008C"/>
</linearGradient>
<linearGradient id="paint9_linear_41_1274" x1="159.678" y1="69.9635" x2="169.182" y2="69.624" gradientUnits="userSpaceOnUse">
<stop stop-color="#673091"/>
<stop offset="1" stop-color="#EC008C"/>
</linearGradient>
<linearGradient id="paint10_linear_41_1274" x1="155.018" y1="109.012" x2="171.923" y2="89.3277" gradientUnits="userSpaceOnUse">
<stop stop-color="#FE7062"/>
<stop offset="1" stop-color="#FF928E"/>
</linearGradient>
<linearGradient id="paint11_linear_41_1274" x1="172.328" y1="106.224" x2="189.435" y2="86.8543" gradientUnits="userSpaceOnUse">
<stop stop-color="#673091"/>
<stop offset="1" stop-color="#EC008C"/>
</linearGradient>
<linearGradient id="paint12_linear_41_1274" x1="168.036" y1="97.5742" x2="177.816" y2="97.2248" gradientUnits="userSpaceOnUse">
<stop stop-color="#673091"/>
<stop offset="1" stop-color="#EC008C"/>
</linearGradient>
<linearGradient id="paint13_linear_41_1274" x1="175.873" y1="86.4836" x2="188.258" y2="72.0611" gradientUnits="userSpaceOnUse">
<stop stop-color="#FE7062"/>
<stop offset="1" stop-color="#FF928E"/>
</linearGradient>
<linearGradient id="paint14_linear_41_1274" x1="188.556" y1="84.4401" x2="201.089" y2="70.2487" gradientUnits="userSpaceOnUse">
<stop stop-color="#673091"/>
<stop offset="1" stop-color="#EC008C"/>
</linearGradient>
<linearGradient id="paint15_linear_41_1274" x1="185.41" y1="78.1041" x2="192.577" y2="77.8481" gradientUnits="userSpaceOnUse">
<stop stop-color="#673091"/>
<stop offset="1" stop-color="#EC008C"/>
</linearGradient>
<linearGradient id="paint16_linear_41_1274" x1="58" y1="211.001" x2="142.767" y2="204.318" gradientUnits="userSpaceOnUse">
<stop offset="0.340241" stop-color="#EC008C"/>
<stop offset="0.759386" stop-color="#673091"/>
</linearGradient>
<linearGradient id="paint17_linear_41_1274" x1="58" y1="206.568" x2="142.734" y2="199.685" gradientUnits="userSpaceOnUse">
<stop stop-color="#673091"/>
<stop offset="1" stop-color="#EC008C"/>
</linearGradient>
<linearGradient id="paint18_linear_41_1274" x1="165.591" y1="143.622" x2="134.338" y2="161.519" gradientUnits="userSpaceOnUse">
<stop stop-color="#FEBBBA"/>
<stop offset="1" stop-color="#FF928E"/>
</linearGradient>
<linearGradient id="paint19_linear_41_1274" x1="-576.011" y1="1701.23" x2="-593.156" y2="1737.22" gradientUnits="userSpaceOnUse">
<stop stop-color="#09005D"/>
<stop offset="1" stop-color="#1A0F91"/>
</linearGradient>
<linearGradient id="paint20_linear_41_1274" x1="162.562" y1="148.064" x2="269.468" y2="80.9238" gradientUnits="userSpaceOnUse">
<stop stop-color="#FEBBBA"/>
<stop offset="1" stop-color="#FF928E"/>
</linearGradient>
<linearGradient id="paint21_linear_41_1274" x1="-1267.9" y1="2039.8" x2="-1291.98" y2="2071.6" gradientUnits="userSpaceOnUse">
<stop stop-color="#09005D"/>
<stop offset="1" stop-color="#1A0F91"/>
</linearGradient>
<linearGradient id="paint22_linear_41_1274" x1="136.27" y1="121.261" x2="110.616" y2="149.466" gradientUnits="userSpaceOnUse">
<stop stop-color="#4F52FF"/>
<stop offset="1" stop-color="#4042E2"/>
</linearGradient>
<linearGradient id="paint23_linear_41_1274" x1="130.819" y1="83.1874" x2="117.259" y2="98.8904" gradientUnits="userSpaceOnUse">
<stop stop-color="#09005D"/>
<stop offset="1" stop-color="#1A0F91"/>
</linearGradient>
<linearGradient id="paint24_linear_41_1274" x1="100.34" y1="134.277" x2="131.063" y2="132.278" gradientUnits="userSpaceOnUse">
<stop stop-color="#673091"/>
<stop offset="1" stop-color="#EC008C"/>
</linearGradient>
<linearGradient id="paint25_linear_41_1274" x1="110.766" y1="133.357" x2="79.5846" y2="133.357" gradientUnits="userSpaceOnUse">
<stop stop-color="#FEBBBA"/>
<stop offset="1" stop-color="#FF928E"/>
</linearGradient>
<linearGradient id="paint26_linear_41_1274" x1="123.485" y1="118.474" x2="122.769" y2="107.278" gradientUnits="userSpaceOnUse">
<stop stop-color="#FEBBBA"/>
<stop offset="1" stop-color="#FF928E"/>
</linearGradient>
<linearGradient id="paint27_linear_41_1274" x1="122.408" y1="109.032" x2="135.908" y2="83.1136" gradientUnits="userSpaceOnUse">
<stop stop-color="#FEBBBA"/>
<stop offset="1" stop-color="#FF928E"/>
</linearGradient>
<linearGradient id="paint28_linear_41_1274" x1="139.361" y1="94.3531" x2="120.366" y2="98.1766" gradientUnits="userSpaceOnUse">
<stop stop-color="#09005D"/>
<stop offset="1" stop-color="#1A0F91"/>
</linearGradient>
<linearGradient id="paint29_linear_41_1274" x1="119.302" y1="107.414" x2="132.802" y2="81.4958" gradientUnits="userSpaceOnUse">
<stop stop-color="#FEBBBA"/>
<stop offset="1" stop-color="#FF928E"/>
</linearGradient>
<linearGradient id="paint30_linear_41_1274" x1="112.18" y1="132.973" x2="128.242" y2="138.258" gradientUnits="userSpaceOnUse">
<stop stop-color="#09005D"/>
<stop offset="1" stop-color="#1A0F91"/>
</linearGradient>
<linearGradient id="paint31_linear_41_1274" x1="154.532" y1="130.381" x2="7.83002" y2="117.998" gradientUnits="userSpaceOnUse">
<stop stop-color="#09005D"/>
<stop offset="1" stop-color="#1A0F91"/>
</linearGradient>
</defs>
</svg>
