<svg width="300" height="240" viewBox="0 0 300 240" fill="none" xmlns="http://www.w3.org/2000/svg">
<g id="row_4_page2">
<rect id="Rectangle 9" width="300" height="240" rx="18" fill="#E7EDFD"/>
<path id="Vector" d="M213.66 48.1887C214.324 75.5371 216.477 169.873 215.449 203.303C215.34 206.844 212.56 209.687 209.092 209.803C191.939 210.376 129.058 211.828 101.002 210.627C95.1586 210.376 90.5115 205.543 90.3899 199.571C89.8071 170.865 88.5207 90.1269 91.5778 53.1403C91.9444 48.7085 95.3504 45.1797 99.6835 44.7368C118.364 42.8284 181.515 38.164 205.754 39.7701C210.125 40.0599 213.551 43.7162 213.659 48.1881L213.66 48.1887Z" fill="url(#paint0_linear_32_192)"/>
<path id="Vector_2" d="M202.61 60.2473V83.4241C202.61 87.8683 199.79 91.4715 196.313 91.4715H109.669C106.192 91.4715 103.373 87.8683 103.373 83.4241V60.2473C103.373 55.8031 106.192 52.2 109.669 52.2H196.313C199.791 52.2 202.61 55.8031 202.61 60.2473H202.61Z" fill="url(#paint1_linear_32_192)"/>
<path id="Vector_3" opacity="0.43" d="M107.974 59.5093C108.753 58.5079 109.811 57.9408 110.912 57.9335L192.001 57.3953C194.169 57.3809 195.969 59.5008 196.133 62.2615L197.504 85.27C197.616 87.154 195.172 88.7055 192.082 88.7115L112.366 88.8567C109.281 88.862 106.752 87.3242 106.752 85.4428L106.754 63.2735C106.754 61.8652 107.192 60.5115 107.972 59.51L107.974 59.5093Z" fill="#91B3FA"/>
<path id="Vector_4" d="M109.656 182.004C109.656 185.969 112.87 189.183 116.834 189.183H125.573C129.537 189.183 132.751 185.969 132.751 182.004C132.751 178.039 129.537 174.825 125.573 174.825H116.834C112.87 174.825 109.656 178.039 109.656 182.004Z" fill="url(#paint2_linear_32_192)"/>
<path id="Vector_5" d="M172.532 182.004C172.532 185.969 175.745 189.183 179.71 189.183H188.448C192.413 189.183 195.626 185.969 195.626 182.004C195.626 178.039 192.413 174.825 188.448 174.825H179.71C175.745 174.825 172.532 178.039 172.532 182.004Z" fill="url(#paint3_linear_32_192)"/>
<path id="Vector_6" d="M141.323 182.004C141.323 185.969 144.536 189.183 148.501 189.183H157.239C161.204 189.183 164.417 185.969 164.417 182.004C164.417 178.039 161.204 174.825 157.239 174.825H148.501C144.536 174.825 141.323 178.039 141.323 182.004Z" fill="#91B3FA"/>
<path id="Vector_7" d="M194.957 111.306H183.12C182.413 111.306 181.839 111.88 181.839 112.587V121.296C181.839 122.004 182.413 122.577 183.12 122.577H194.957C195.665 122.577 196.238 122.004 196.238 121.296V112.587C196.238 111.88 195.665 111.306 194.957 111.306Z" fill="url(#paint4_linear_32_192)"/>
<path id="Vector_8" d="M194.957 130.509H183.12C182.413 130.509 181.839 131.083 181.839 131.79V140.499C181.839 141.207 182.413 141.78 183.12 141.78H194.957C195.665 141.78 196.238 141.207 196.238 140.499V131.79C196.238 131.083 195.665 130.509 194.957 130.509Z" fill="url(#paint5_linear_32_192)"/>
<path id="Vector_9" d="M194.957 149.712H183.12C182.413 149.712 181.839 150.286 181.839 150.993V159.702C181.839 160.41 182.413 160.983 183.12 160.983H194.957C195.665 160.983 196.238 160.41 196.238 159.702V150.993C196.238 150.286 195.665 149.712 194.957 149.712Z" fill="url(#paint6_linear_32_192)"/>
<path id="Vector_10" d="M171.584 111.306H159.747C159.039 111.306 158.466 111.88 158.466 112.587V121.296C158.466 122.004 159.039 122.577 159.747 122.577H171.584C172.291 122.577 172.865 122.004 172.865 121.296V112.587C172.865 111.88 172.291 111.306 171.584 111.306Z" fill="url(#paint7_linear_32_192)"/>
<path id="Vector_11" d="M171.584 130.509H159.747C159.039 130.509 158.466 131.083 158.466 131.79V140.499C158.466 141.207 159.039 141.78 159.747 141.78H171.584C172.291 141.78 172.865 141.207 172.865 140.499V131.79C172.865 131.083 172.291 130.509 171.584 130.509Z" fill="url(#paint8_linear_32_192)"/>
<path id="Vector_12" d="M171.375 149.712H159.539C158.831 149.712 158.257 150.286 158.257 150.993V159.702C158.257 160.41 158.831 160.983 159.539 160.983H171.375C172.083 160.983 172.657 160.41 172.657 159.702V150.993C172.657 150.286 172.083 149.712 171.375 149.712Z" fill="url(#paint9_linear_32_192)"/>
<path id="Vector_13" d="M148.002 111.306H136.165C135.458 111.306 134.884 111.88 134.884 112.587V121.296C134.884 122.004 135.458 122.577 136.165 122.577H148.002C148.71 122.577 149.283 122.004 149.283 121.296V112.587C149.283 111.88 148.71 111.306 148.002 111.306Z" fill="url(#paint10_linear_32_192)"/>
<path id="Vector_14" d="M148.002 130.509H136.165C135.458 130.509 134.884 131.083 134.884 131.79V140.499C134.884 141.207 135.458 141.78 136.165 141.78H148.002C148.71 141.78 149.283 141.207 149.283 140.499V131.79C149.283 131.083 148.71 130.509 148.002 130.509Z" fill="url(#paint11_linear_32_192)"/>
<path id="Vector_15" d="M148.002 149.712H136.165C135.458 149.712 134.884 150.286 134.884 150.993V159.702C134.884 160.41 135.458 160.983 136.165 160.983H148.002C148.71 160.983 149.283 160.41 149.283 159.702V150.993C149.283 150.286 148.71 149.712 148.002 149.712Z" fill="url(#paint12_linear_32_192)"/>
<path id="Vector_16" d="M122.299 111.306H110.462C109.755 111.306 109.181 111.88 109.181 112.587V121.296C109.181 122.004 109.755 122.577 110.462 122.577H122.299C123.007 122.577 123.58 122.004 123.58 121.296V112.587C123.58 111.88 123.007 111.306 122.299 111.306Z" fill="url(#paint13_linear_32_192)"/>
<path id="Vector_17" d="M122.299 130.509H110.462C109.755 130.509 109.181 131.083 109.181 131.79V140.499C109.181 141.207 109.755 141.78 110.462 141.78H122.299C123.007 141.78 123.58 141.207 123.58 140.499V131.79C123.58 131.083 123.007 130.509 122.299 130.509Z" fill="url(#paint14_linear_32_192)"/>
<path id="Vector_18" d="M122.299 149.712H110.462C109.755 149.712 109.181 150.286 109.181 150.993V159.702C109.181 160.41 109.755 160.983 110.462 160.983H122.299C123.007 160.983 123.58 160.41 123.58 159.702V150.993C123.58 150.286 123.007 149.712 122.299 149.712Z" fill="url(#paint15_linear_32_192)"/>
<path id="Vector_19" d="M121.841 101.287H107.233C106.945 101.287 106.711 101.521 106.711 101.809V105.358C106.711 105.646 106.945 105.879 107.233 105.879H121.841C122.129 105.879 122.363 105.646 122.363 105.358V101.809C122.363 101.521 122.129 101.287 121.841 101.287Z" fill="url(#paint16_linear_32_192)"/>
<path id="Vector_20" d="M147.927 101.287H133.319C133.031 101.287 132.797 101.521 132.797 101.809V105.358C132.797 105.646 133.031 105.879 133.319 105.879H147.927C148.215 105.879 148.449 105.646 148.449 105.358V101.809C148.449 101.521 148.215 101.287 147.927 101.287Z" fill="url(#paint17_linear_32_192)"/>
<path id="Vector_21" d="M171.926 101.287H157.318C157.03 101.287 156.796 101.521 156.796 101.809V105.358C156.796 105.646 157.03 105.879 157.318 105.879H171.926C172.214 105.879 172.448 105.646 172.448 105.358V101.809C172.448 101.521 172.214 101.287 171.926 101.287Z" fill="url(#paint18_linear_32_192)"/>
<path id="Vector_22" d="M198.012 101.287H183.404C183.116 101.287 182.883 101.521 182.883 101.809V105.358C182.883 105.646 183.116 105.879 183.404 105.879H198.012C198.301 105.879 198.534 105.646 198.534 105.358V101.809C198.534 101.521 198.301 101.287 198.012 101.287Z" fill="url(#paint19_linear_32_192)"/>
<path id="Vector_23" d="M238.896 204.555C238.896 204.555 239.702 205.827 239.905 209.389C239.925 209.721 239.662 210.004 239.329 210.004H233.018C232.764 210.004 232.583 209.755 232.664 209.514C233.034 208.419 234.152 205.75 236.647 204.225L238.895 204.555L238.896 204.555Z" fill="url(#paint20_linear_32_192)"/>
<path id="Vector_24" d="M239.17 202.142L238.813 205.136C238.783 205.394 238.58 205.601 238.322 205.631C237.977 205.67 237.475 205.699 236.988 205.618C236.544 205.546 236.225 205.151 236.225 204.701V201.811L239.171 202.143L239.17 202.142Z" fill="url(#paint21_linear_32_192)"/>
<path id="Vector_25" d="M223.281 204.225C223.281 204.225 224.489 206.103 224.463 208.681C224.457 209.289 223.948 209.772 223.341 209.772H213.539C213.08 209.772 212.894 209.182 213.269 208.919C215.124 207.616 218.77 205.182 221.406 204.226H223.28L223.281 204.225Z" fill="url(#paint22_linear_32_192)"/>
<path id="Vector_26" d="M224.29 200.992L223.529 204.689C223.443 205.103 223.039 205.381 222.627 205.289C222.377 205.233 222.081 205.126 221.765 204.928C221.465 204.74 221.313 204.383 221.374 204.035L222.162 199.556L224.29 200.992V200.992Z" fill="url(#paint23_linear_32_192)"/>
<path id="Vector_27" d="M237.771 149.587C237.771 149.587 240.419 151.921 240.917 154.729C241.415 157.538 239.506 203.187 239.506 203.187C239.506 203.187 236.859 203.627 235.494 202.801C235.494 202.801 233.875 173.175 232.645 166.329C232.645 166.329 226.193 197.017 224.406 202.562C224.406 202.562 221.855 202.872 221.032 202.387C221.032 202.387 222.722 162.606 224.846 155.534L237.772 149.586L237.771 149.587Z" fill="url(#paint24_linear_32_192)"/>
<path id="Vector_28" d="M232.722 165.345C232.7 165.345 232.678 165.342 232.655 165.336C232.513 165.299 232.428 165.154 232.465 165.012L233.589 160.698C233.607 160.634 233.647 160.578 233.703 160.542L236.133 158.983C236.257 158.904 236.421 158.94 236.5 159.063C236.58 159.187 236.543 159.351 236.42 159.431L234.078 160.933L232.98 165.147C232.949 165.267 232.841 165.345 232.723 165.345L232.722 165.345Z" fill="url(#paint25_linear_32_192)"/>
<g id="man">
<path id="Vector_29" d="M210.9 119.142C220.117 125.477 220.914 129.106 220.914 129.106L211.417 132.267C211.417 132.267 203.073 125.17 200.821 115.522C202.959 115.226 204.855 114.517 206.222 113.877C207.257 115.808 208.75 117.665 210.9 119.142V119.142Z" fill="url(#paint26_linear_32_192)"/>
<path id="Vector_30" d="M207.732 95.4274C207.97 95.1606 208.406 95.3913 208.318 95.7383L207.5 98.9885C207.342 99.6167 206.995 100.181 206.506 100.605L205.002 101.658C204.342 102.231 203.957 103.057 203.949 103.931C203.927 106.023 204.195 110.095 206.222 113.877C204.855 114.517 202.959 115.226 200.821 115.522C199.995 111.981 199.988 108.097 201.516 104.093C201.141 103.531 201.192 102.786 201.639 102.279L207.732 95.4274Z" fill="url(#paint27_linear_32_192)"/>
<path id="Vector_31" d="M207.978 128.112C211.901 123.884 219.375 121.974 223.701 121.189C225.597 120.845 227.465 121.9 228.137 123.706C230.084 128.94 235.379 142.56 236.406 144.901C237.248 146.821 238.127 148.697 238.686 149.87C239.02 150.57 238.728 151.409 238.029 151.745C234.388 153.5 227.839 155.486 225.183 156.261C224.599 156.431 224.017 155.992 224.017 155.384C224.017 154.868 223.877 154.361 223.611 153.919L213.554 137.157C207.286 144.109 202.075 145.002 197.859 143.48C198.568 141.289 198.703 139.333 198.925 137.133C205.155 136.066 207.977 128.112 207.977 128.112H207.978Z" fill="url(#paint28_linear_32_192)"/>
<path id="Vector_32" d="M187.223 135.689L189.149 134.326C192.992 136.5 196.993 137.671 199.437 137.029C199.406 139.24 199.135 141.468 198.619 143.714C192.91 142.2 187.224 135.689 187.224 135.689L187.223 135.689Z" fill="url(#paint29_linear_32_192)"/>
<path id="Vector_33" d="M182.681 134.686C182.681 134.686 186.603 132.348 187.798 131.744C188.791 131.243 189.369 132.743 189.535 133.266C189.57 133.373 189.587 133.439 189.587 133.439L189.516 134.477L185.337 136.789C184.568 137.215 182.784 137.133 183.63 137.277C183.817 137.309 181.891 136.995 181.695 136.776C180.847 135.833 179.354 132.785 179.173 132.506C179.132 132.443 182.681 134.686 182.681 134.686Z" fill="url(#paint30_linear_32_192)"/>
<path id="Vector_34" d="M217.75 113.424L221.268 122.009C221.268 122.009 217.252 124.239 214.163 123.986L212.495 116.652L217.75 113.424Z" fill="url(#paint31_linear_32_192)"/>
<path id="Vector_35" d="M212.104 107.863C212.027 107.972 209.686 116.431 209.686 116.431L214.544 117.665L217.954 109.977C217.954 109.977 213.385 106.048 212.104 107.863H212.104Z" fill="url(#paint32_linear_32_192)"/>
<path id="Vector_36" d="M216.125 111.145L214.647 115.333C214.628 115.387 214.603 115.436 214.57 115.483C214.37 115.768 213.607 116.698 212.703 115.86C211.883 115.1 211.123 114.418 210.422 114.295C210.106 114.239 209.801 114.431 209.716 114.74C209.504 115.509 209.056 117.25 208.899 118.822C208.867 119.14 209.087 119.429 209.403 119.489C210.351 119.669 212.363 119.993 214.042 119.874C214.27 119.859 214.47 119.722 214.565 119.514C215.028 118.503 216.446 115.434 216.973 114.64C217.468 113.894 218.682 113.916 219.191 113.96C219.358 113.975 219.522 113.921 219.647 113.811C220.093 113.421 220.94 112.424 219.748 111.231C219.498 110.981 219.506 110.579 219.762 110.337C220.274 109.855 220.822 109.001 219.969 107.943C219.102 106.866 217.958 107.038 217.257 107.293C216.973 107.397 216.664 107.277 216.51 107.017C216.421 106.87 216.269 106.758 216.004 106.781C215.646 106.812 215.345 106.513 215.352 106.155C215.364 105.465 215.117 104.594 213.922 104.222C211.799 103.562 210.476 105.612 210.345 107.142C210.215 108.672 212.556 109.257 213.933 109.154C214.979 109.076 215.757 110.113 216.069 110.615C216.169 110.774 216.188 110.97 216.126 111.146L216.125 111.145Z" fill="url(#paint33_linear_32_192)"/>
<path id="Vector_37" d="M216.419 116.159C216.419 116.159 216.762 113.503 217.867 113.373C218.971 113.243 220.047 114.151 218.948 115.642C217.582 117.496 216.419 116.159 216.419 116.159H216.419Z" fill="url(#paint34_linear_32_192)"/>
<path id="Vector_38" d="M180.415 133.45L184.737 136.52L188.372 133.306C185.49 134.789 182.888 134.518 180.415 133.449L180.415 133.45Z" fill="url(#paint35_linear_32_192)"/>
</g>
<g id="card_back">
<path id="Vector_39" d="M216.112 89.3344L190.293 128.784L186.295 134.892C185.792 135.701 184.717 135.951 183.908 135.449L104.316 85.9823C103.506 85.4796 103.254 84.4045 103.757 83.5956L107.518 77.3403L131.516 37.4366C132.019 36.6276 133.954 35.6406 135.626 36.8451L214.663 83.175C215.695 83.7809 216.435 84.7817 216.708 85.9469C216.982 87.1107 216.767 88.3356 216.113 89.3351L216.112 89.3344Z" fill="url(#paint36_linear_32_192)"/>
</g>
<g id="card_front" opacity="0.47">
<path id="Vector_40" d="M185.126 132.431C184.657 133.186 183.643 133.411 182.871 132.932L107.051 85.8102C106.279 85.3311 106.032 84.3211 106.501 83.566L132.394 40.4811C132.863 39.7261 134.686 38.8166 136.281 39.9613L211.548 84.1351C212.531 84.7121 213.24 85.6584 213.509 86.7532C213.778 87.848 213.585 88.996 212.974 89.9291L185.126 132.43V132.431Z" fill="url(#paint37_linear_32_192)"/>
<path id="Vector_41" d="M184.013 133.888C183.467 133.888 182.929 133.755 182.473 133.471L173.985 128.197C173.778 128.068 173.715 127.796 173.843 127.589C173.972 127.382 174.244 127.32 174.45 127.447L182.938 132.722C183.896 133.318 185.421 132.956 186.019 131.994L202.15 106.029C202.279 105.823 202.551 105.759 202.758 105.887C202.965 106.016 203.028 106.287 202.899 106.494L186.768 132.459C186.205 133.366 185.094 133.888 184.013 133.888Z" fill="white"/>
<path id="Vector_42" d="M122.507 57.1396C122.428 57.1396 122.347 57.1179 122.275 57.0732C122.068 56.9444 122.005 56.673 122.133 56.466L131.802 40.9029C132.313 40.0801 133.144 39.446 134.082 39.1634C135.078 38.8631 136.079 38.9794 136.901 39.49L143.643 43.68C143.85 43.8088 143.913 44.0802 143.785 44.2872C143.657 44.4935 143.385 44.5572 143.178 44.4291L136.436 40.2392C135.212 39.4782 133.396 40.0065 132.55 41.3688L122.882 56.9319C122.798 57.066 122.654 57.1402 122.507 57.1402V57.1396Z" fill="white"/>
<path id="Vector_43" d="M142.428 67.2242C142.933 66.4107 142.683 65.3415 141.87 64.8361L132.039 58.726C131.226 58.2207 130.157 58.4704 129.651 59.2839L125.005 66.7629C124.5 67.5764 124.749 68.6456 125.563 69.1509L135.394 75.2611C136.207 75.7664 137.276 75.5167 137.781 74.7031L142.428 67.2242Z" fill="#91B3FA"/>
<path id="Vector_44" opacity="0.8" d="M133.741 69.6852C133.61 69.6852 133.476 69.6497 133.357 69.5754L130.553 67.8327C130.211 67.6198 130.105 67.1683 130.318 66.8253L131.852 64.3571C131.955 64.1908 132.116 64.0752 132.306 64.0305C132.497 63.9858 132.693 64.0186 132.858 64.1218L135.662 65.8646C136.005 66.0775 136.11 66.5289 135.898 66.872L134.364 69.3402C134.225 69.563 133.986 69.6852 133.742 69.6852H133.741ZM132.473 64.4215C132.448 64.4215 132.423 64.4241 132.399 64.43C132.315 64.4497 132.244 64.5003 132.199 64.5733L130.665 67.0415C130.62 67.1144 130.605 67.2012 130.625 67.2846C130.645 67.3688 130.695 67.4397 130.768 67.4851L133.572 69.2278C133.722 69.3211 133.921 69.2751 134.015 69.124L135.549 66.6558C135.594 66.5828 135.609 66.4961 135.589 66.4126C135.569 66.3285 135.519 66.2575 135.446 66.2122L132.641 64.4694C132.59 64.4372 132.532 64.4208 132.472 64.4208L132.473 64.4215Z" fill="white"/>
<path id="Vector_45" d="M131.676 65.2311C131.639 65.2311 131.602 65.2212 131.568 65.2002L127.534 62.6925C127.438 62.6327 127.409 62.5066 127.469 62.4106C127.528 62.3147 127.655 62.2851 127.751 62.3449L131.785 64.8526C131.881 64.9124 131.91 65.0385 131.85 65.1345C131.812 65.1969 131.745 65.2311 131.676 65.2311Z" fill="white"/>
<path id="Vector_46" d="M131.049 66.2405C131.013 66.2405 130.975 66.2306 130.942 66.2096L126.907 63.7019C126.811 63.6421 126.781 63.5159 126.841 63.42C126.901 63.3241 127.027 63.2945 127.123 63.3543L131.158 65.8619C131.254 65.9217 131.283 66.0479 131.224 66.1439C131.185 66.2063 131.118 66.2405 131.049 66.2405Z" fill="white"/>
<path id="Vector_47" d="M140.417 70.6643C140.381 70.6643 140.343 70.6545 140.31 70.6335L135.939 67.9168C135.843 67.857 135.814 67.7309 135.873 67.6349C135.933 67.539 136.059 67.5094 136.155 67.5692L140.526 70.2858C140.622 70.3456 140.651 70.4718 140.592 70.5677C140.553 70.6302 140.486 70.6643 140.417 70.6643Z" fill="white"/>
<path id="Vector_48" d="M139.79 71.6731C139.754 71.6731 139.716 71.6632 139.683 71.6422L135.312 68.9255C135.216 68.8657 135.187 68.7396 135.247 68.6436C135.306 68.5477 135.432 68.5181 135.528 68.5779L139.899 71.2945C139.995 71.3543 140.024 71.4805 139.965 71.5765C139.926 71.6389 139.859 71.6731 139.79 71.6731Z" fill="white"/>
<path id="Vector_49" d="M133.211 64.8085C133.189 64.8085 133.168 64.8052 133.146 64.798C133.039 64.7619 132.981 64.6462 133.017 64.5384L134.424 60.3406C134.46 60.2335 134.576 60.1757 134.684 60.2118C134.791 60.248 134.848 60.3636 134.812 60.4714L133.406 64.6692C133.377 64.7546 133.297 64.8092 133.211 64.8092V64.8085Z" fill="white"/>
<path id="Vector_50" d="M135.554 66.2648C135.501 66.2648 135.448 66.2444 135.408 66.203C135.329 66.1222 135.33 65.9927 135.411 65.9132L138.583 62.8121C138.664 62.7326 138.793 62.7346 138.873 62.8154C138.952 62.8962 138.95 63.0257 138.869 63.1052L135.697 66.2063C135.657 66.245 135.606 66.2648 135.554 66.2648Z" fill="white"/>
<path id="Vector_51" d="M128.097 71.1079C128.044 71.1079 127.992 71.0875 127.952 71.0475C127.872 70.9673 127.872 70.8372 127.952 70.7577L131.092 67.6369C131.172 67.5574 131.302 67.5574 131.382 67.6375C131.461 67.7177 131.461 67.8478 131.381 67.9273L128.241 71.0481C128.201 71.0875 128.149 71.1079 128.097 71.1079Z" fill="white"/>
<path id="Vector_52" d="M132.205 73.6609C132.184 73.6609 132.162 73.6576 132.141 73.6511C132.034 73.6162 131.975 73.5006 132.01 73.3928L133.385 69.1746C133.42 69.0675 133.536 69.0077 133.643 69.0432C133.751 69.078 133.81 69.1937 133.775 69.3014L132.4 73.5196C132.371 73.6057 132.291 73.6609 132.205 73.6609Z" fill="white"/>
<path id="Vector_53" opacity="0.47" d="M149.234 56.2683C148.634 57.2343 147.365 57.5307 146.399 56.9307L135.439 50.1194C134.473 49.5195 134.177 48.2499 134.777 47.2839L134.902 47.0828C135.501 46.1168 136.771 45.8204 137.737 46.4204L148.696 53.2317C149.662 53.8316 149.959 55.1012 149.359 56.0672L149.234 56.2683Z" fill="white"/>
<path id="Vector_54" d="M133.898 83.2046C133.325 84.1259 132.114 84.4091 131.193 83.8361L119.064 76.298C118.143 75.7257 117.86 74.5139 118.433 73.5926L118.449 73.5676C119.021 72.6463 120.232 72.3631 121.154 72.9361L133.282 80.4742C134.203 81.0465 134.486 82.2583 133.913 83.1796L133.898 83.2046Z" fill="white"/>
<path id="Vector_55" d="M151.38 94.0698C150.808 94.9911 149.597 95.2743 148.675 94.7013L136.547 87.1632C135.626 86.5909 135.343 85.3791 135.915 84.4578L135.931 84.4328C136.503 83.5115 137.715 83.2283 138.636 83.8013L150.765 91.3394C151.686 91.9117 151.969 93.1235 151.396 94.0448L151.38 94.0698Z" fill="white"/>
<path id="Vector_56" d="M168.864 104.936C168.292 105.857 167.08 106.14 166.159 105.567L154.03 98.0291C153.109 97.4567 152.826 96.2449 153.399 95.3236L153.415 95.2987C153.987 94.3773 155.198 94.0941 156.12 94.6671L168.248 102.205C169.169 102.778 169.452 103.989 168.88 104.911L168.864 104.936Z" fill="white"/>
<path id="Vector_57" d="M186.683 116.01C186.111 116.931 184.899 117.214 183.978 116.641L171.849 109.103C170.928 108.531 170.645 107.319 171.218 106.398L171.234 106.373C171.806 105.452 173.018 105.168 173.939 105.741L186.067 113.279C186.988 113.852 187.272 115.064 186.699 115.985L186.683 116.01Z" fill="white"/>
<path id="Vector_58" d="M140.729 97.7123C140.274 98.4451 139.311 98.6698 138.578 98.2144L116.016 84.1916C115.283 83.7362 115.058 82.7735 115.514 82.0401L115.537 82.0033C115.992 81.2706 116.954 81.0459 117.688 81.5013L140.25 95.5241C140.983 95.9795 141.208 96.9428 140.752 97.6755L140.729 97.7123Z" fill="white"/>
<path id="Vector_59" d="M180.483 121.487C180.028 122.22 179.065 122.445 178.332 121.989L168.545 115.907C167.813 115.451 167.588 114.489 168.043 113.755L168.066 113.718C168.521 112.986 169.484 112.761 170.217 113.216L180.004 119.299C180.737 119.754 180.962 120.717 180.506 121.45L180.483 121.487Z" fill="white"/>
</g>
<g id="coin6">
<path id="Vector_60" d="M105.072 144.286C114.786 134.571 114.786 118.819 105.072 109.104C95.3586 99.3887 79.61 99.3887 69.8966 109.104C60.1831 118.819 60.1831 134.571 69.8966 144.286C79.61 154.001 95.3586 154.001 105.072 144.286Z" fill="url(#paint38_linear_32_192)"/>
<path id="Vector_61" d="M104.487 143.701C113.878 134.309 113.878 119.081 104.487 109.689C95.0969 100.297 79.872 100.297 70.4816 109.689C61.0912 119.081 61.0912 134.309 70.4816 143.701C79.872 153.093 95.0969 153.093 104.487 143.701Z" fill="url(#paint39_linear_32_192)"/>
<g id="Group" opacity="0.58">
<path id="Vector_62" d="M67.6562 117.145C67.5899 117.145 67.5215 117.13 67.4578 117.098C67.2403 116.988 67.1536 116.723 67.2627 116.506C71.1391 108.825 78.8873 104.053 87.4838 104.053C88.855 104.053 90.2295 104.177 91.5672 104.42C91.8063 104.464 91.9653 104.694 91.9213 104.933C91.8779 105.172 91.6499 105.333 91.4088 105.287C90.1224 105.053 88.8018 104.934 87.4831 104.934C79.2211 104.934 71.7744 109.52 68.0491 116.902C67.9716 117.056 67.8165 117.145 67.6556 117.145L67.6562 117.145Z" fill="white"/>
</g>
<path id="Vector_63" opacity="0.78" d="M102.399 141.612C110.347 133.663 110.347 120.775 102.399 112.825C94.4513 104.876 81.5652 104.876 73.6173 112.825C65.6694 120.775 65.6694 133.663 73.6173 141.612C81.5652 149.562 94.4513 149.562 102.399 141.612Z" fill="white"/>
<path id="coin6_2" d="M86.0113 142.351V140.137C83.7032 140.044 81.4201 139.499 79.7986 138.79C79.2197 138.536 78.9241 137.886 79.0909 137.276L79.6534 135.214C79.8597 134.456 80.6823 134.065 81.4056 134.368C83.014 135.043 85.0002 135.576 87.1421 135.576C89.284 135.576 91.0231 134.823 91.0231 133.277C91.0231 131.882 89.7419 131.054 86.6519 130.224C82.2433 129.019 79.0778 127.096 79.0778 123.214C79.0778 119.709 81.6402 117.033 86.0869 116.317V114.103C86.0869 113.39 86.6644 112.812 87.3766 112.812H88.6775C89.3897 112.812 89.9679 113.39 89.9679 114.103V116.091C92.1039 116.177 93.6584 116.542 94.8923 116.976C95.5243 117.198 95.8699 117.879 95.6945 118.526L95.1774 120.434C94.9777 121.17 94.1919 121.573 93.479 121.303C92.3431 120.873 90.7366 120.426 88.6493 120.426C86.0113 120.426 85.2577 121.519 85.2577 122.498C85.2577 123.704 86.8405 124.534 90.2695 125.589C95.1682 127.059 97.203 129.094 97.203 132.75C97.203 136.104 94.7162 139.119 89.893 139.873V142.351C89.893 143.064 89.3155 143.642 88.6026 143.642H87.3017C86.5895 143.642 86.0113 143.064 86.0113 142.351Z" fill="url(#paint40_linear_32_192)"/>
</g>
<g id="coin5">
<path id="Vector_64" d="M112.514 154.976H62.4552C62.3017 154.976 62.1772 155.101 62.1772 155.254V163.4C62.1772 163.554 62.3017 163.678 62.4552 163.678H112.514C112.667 163.678 112.791 163.554 112.791 163.4V155.254C112.791 155.101 112.667 154.976 112.514 154.976Z" fill="url(#paint41_linear_32_192)"/>
<path id="Vector_65" d="M65.178 156.538H64.2424C64.2083 156.538 64.1807 156.565 64.1807 156.6V162.055C64.1807 162.089 64.2083 162.117 64.2424 162.117H65.178C65.2121 162.117 65.2398 162.089 65.2398 162.055V156.6C65.2398 156.565 65.2121 156.538 65.178 156.538Z" fill="url(#paint42_linear_32_192)"/>
<path id="Vector_66" d="M68.9737 156.538H68.0381C68.004 156.538 67.9763 156.565 67.9763 156.6V162.055C67.9763 162.089 68.004 162.117 68.0381 162.117H68.9737C69.0078 162.117 69.0354 162.089 69.0354 162.055V156.6C69.0354 156.565 69.0078 156.538 68.9737 156.538Z" fill="url(#paint43_linear_32_192)"/>
<path id="Vector_67" d="M72.7691 156.538H71.8335C71.7994 156.538 71.7717 156.565 71.7717 156.6V162.055C71.7717 162.089 71.7994 162.117 71.8335 162.117H72.7691C72.8032 162.117 72.8308 162.089 72.8308 162.055V156.6C72.8308 156.565 72.8032 156.538 72.7691 156.538Z" fill="url(#paint44_linear_32_192)"/>
<path id="Vector_68" d="M76.5647 156.538H75.6291C75.595 156.538 75.5674 156.565 75.5674 156.6V162.055C75.5674 162.089 75.595 162.117 75.6291 162.117H76.5647C76.5988 162.117 76.6265 162.089 76.6265 162.055V156.6C76.6265 156.565 76.5988 156.538 76.5647 156.538Z" fill="url(#paint45_linear_32_192)"/>
<path id="Vector_69" d="M80.3611 156.538H79.4255C79.3914 156.538 79.3638 156.565 79.3638 156.6V162.055C79.3638 162.089 79.3914 162.117 79.4255 162.117H80.3611C80.3952 162.117 80.4229 162.089 80.4229 162.055V156.6C80.4229 156.565 80.3952 156.538 80.3611 156.538Z" fill="url(#paint46_linear_32_192)"/>
<path id="Vector_70" d="M84.1568 156.538H83.2212C83.1871 156.538 83.1594 156.565 83.1594 156.6V162.055C83.1594 162.089 83.1871 162.117 83.2212 162.117H84.1568C84.1909 162.117 84.2185 162.089 84.2185 162.055V156.6C84.2185 156.565 84.1909 156.538 84.1568 156.538Z" fill="url(#paint47_linear_32_192)"/>
<path id="Vector_71" d="M87.9522 156.538H87.0166C86.9825 156.538 86.9548 156.565 86.9548 156.6V162.055C86.9548 162.089 86.9825 162.117 87.0166 162.117H87.9522C87.9863 162.117 88.014 162.089 88.014 162.055V156.6C88.014 156.565 87.9863 156.538 87.9522 156.538Z" fill="url(#paint48_linear_32_192)"/>
<path id="Vector_72" d="M91.7478 156.538H90.8122C90.7781 156.538 90.7505 156.565 90.7505 156.6V162.055C90.7505 162.089 90.7781 162.117 90.8122 162.117H91.7478C91.782 162.117 91.8096 162.089 91.8096 162.055V156.6C91.8096 156.565 91.782 156.538 91.7478 156.538Z" fill="url(#paint49_linear_32_192)"/>
<path id="Vector_73" d="M95.5435 156.538H94.6079C94.5738 156.538 94.5461 156.565 94.5461 156.6V162.055C94.5461 162.089 94.5738 162.117 94.6079 162.117H95.5435C95.5776 162.117 95.6053 162.089 95.6053 162.055V156.6C95.6053 156.565 95.5776 156.538 95.5435 156.538Z" fill="url(#paint50_linear_32_192)"/>
<path id="Vector_74" d="M99.3392 156.538H98.4036C98.3694 156.538 98.3418 156.565 98.3418 156.6V162.055C98.3418 162.089 98.3694 162.117 98.4036 162.117H99.3392C99.3733 162.117 99.4009 162.089 99.4009 162.055V156.6C99.4009 156.565 99.3733 156.538 99.3392 156.538Z" fill="url(#paint51_linear_32_192)"/>
<path id="Vector_75" d="M103.135 156.538H102.199C102.165 156.538 102.137 156.565 102.137 156.6V162.055C102.137 162.089 102.165 162.117 102.199 162.117H103.135C103.169 162.117 103.197 162.089 103.197 162.055V156.6C103.197 156.565 103.169 156.538 103.135 156.538Z" fill="url(#paint52_linear_32_192)"/>
<path id="Vector_76" d="M106.93 156.538H105.995C105.961 156.538 105.933 156.565 105.933 156.6V162.055C105.933 162.089 105.961 162.117 105.995 162.117H106.93C106.964 162.117 106.992 162.089 106.992 162.055V156.6C106.992 156.565 106.964 156.538 106.93 156.538Z" fill="url(#paint53_linear_32_192)"/>
<path id="Vector_77" d="M110.726 156.538H109.79C109.756 156.538 109.729 156.565 109.729 156.6V162.055C109.729 162.089 109.756 162.117 109.79 162.117H110.726C110.76 162.117 110.788 162.089 110.788 162.055V156.6C110.788 156.565 110.76 156.538 110.726 156.538Z" fill="url(#paint54_linear_32_192)"/>
</g>
<g id="coin4">
<path id="Vector_78" d="M112.514 164.64H62.4552C62.3017 164.64 62.1772 164.765 62.1772 164.918V173.064C62.1772 173.218 62.3017 173.342 62.4552 173.342H112.514C112.667 173.342 112.791 173.218 112.791 173.064V164.918C112.791 164.765 112.667 164.64 112.514 164.64Z" fill="url(#paint55_linear_32_192)"/>
<path id="Vector_79" d="M65.178 166.202H64.2424C64.2083 166.202 64.1807 166.23 64.1807 166.264V171.72C64.1807 171.754 64.2083 171.782 64.2424 171.782H65.178C65.2121 171.782 65.2398 171.754 65.2398 171.72V166.264C65.2398 166.23 65.2121 166.202 65.178 166.202Z" fill="url(#paint56_linear_32_192)"/>
<path id="Vector_80" d="M68.9737 166.202H68.0381C68.004 166.202 67.9763 166.23 67.9763 166.264V171.72C67.9763 171.754 68.004 171.782 68.0381 171.782H68.9737C69.0078 171.782 69.0354 171.754 69.0354 171.72V166.264C69.0354 166.23 69.0078 166.202 68.9737 166.202Z" fill="url(#paint57_linear_32_192)"/>
<path id="Vector_81" d="M72.7691 166.202H71.8335C71.7994 166.202 71.7717 166.23 71.7717 166.264V171.72C71.7717 171.754 71.7994 171.782 71.8335 171.782H72.7691C72.8032 171.782 72.8308 171.754 72.8308 171.72V166.264C72.8308 166.23 72.8032 166.202 72.7691 166.202Z" fill="url(#paint58_linear_32_192)"/>
<path id="Vector_82" d="M76.5647 166.202H75.6291C75.595 166.202 75.5674 166.23 75.5674 166.264V171.72C75.5674 171.754 75.595 171.782 75.6291 171.782H76.5647C76.5988 171.782 76.6265 171.754 76.6265 171.72V166.264C76.6265 166.23 76.5988 166.202 76.5647 166.202Z" fill="url(#paint59_linear_32_192)"/>
<path id="Vector_83" d="M80.3611 166.202H79.4255C79.3914 166.202 79.3638 166.23 79.3638 166.264V171.72C79.3638 171.754 79.3914 171.782 79.4255 171.782H80.3611C80.3952 171.782 80.4229 171.754 80.4229 171.72V166.264C80.4229 166.23 80.3952 166.202 80.3611 166.202Z" fill="url(#paint60_linear_32_192)"/>
<path id="Vector_84" d="M84.1568 166.202H83.2212C83.1871 166.202 83.1594 166.23 83.1594 166.264V171.72C83.1594 171.754 83.1871 171.782 83.2212 171.782H84.1568C84.1909 171.782 84.2185 171.754 84.2185 171.72V166.264C84.2185 166.23 84.1909 166.202 84.1568 166.202Z" fill="url(#paint61_linear_32_192)"/>
<path id="Vector_85" d="M87.9522 166.202H87.0166C86.9825 166.202 86.9548 166.23 86.9548 166.264V171.72C86.9548 171.754 86.9825 171.782 87.0166 171.782H87.9522C87.9863 171.782 88.014 171.754 88.014 171.72V166.264C88.014 166.23 87.9863 166.202 87.9522 166.202Z" fill="url(#paint62_linear_32_192)"/>
<path id="Vector_86" d="M91.7478 166.202H90.8122C90.7781 166.202 90.7505 166.23 90.7505 166.264V171.72C90.7505 171.754 90.7781 171.782 90.8122 171.782H91.7478C91.782 171.782 91.8096 171.754 91.8096 171.72V166.264C91.8096 166.23 91.782 166.202 91.7478 166.202Z" fill="url(#paint63_linear_32_192)"/>
<path id="Vector_87" d="M95.5435 166.202H94.6079C94.5738 166.202 94.5461 166.23 94.5461 166.264V171.72C94.5461 171.754 94.5738 171.782 94.6079 171.782H95.5435C95.5776 171.782 95.6053 171.754 95.6053 171.72V166.264C95.6053 166.23 95.5776 166.202 95.5435 166.202Z" fill="url(#paint64_linear_32_192)"/>
<path id="Vector_88" d="M99.3392 166.202H98.4036C98.3694 166.202 98.3418 166.23 98.3418 166.264V171.72C98.3418 171.754 98.3694 171.782 98.4036 171.782H99.3392C99.3733 171.782 99.4009 171.754 99.4009 171.72V166.264C99.4009 166.23 99.3733 166.202 99.3392 166.202Z" fill="url(#paint65_linear_32_192)"/>
<path id="Vector_89" d="M103.135 166.202H102.199C102.165 166.202 102.137 166.23 102.137 166.264V171.72C102.137 171.754 102.165 171.782 102.199 171.782H103.135C103.169 171.782 103.197 171.754 103.197 171.72V166.264C103.197 166.23 103.169 166.202 103.135 166.202Z" fill="url(#paint66_linear_32_192)"/>
<path id="Vector_90" d="M105.995 166.202H106.931C106.965 166.202 106.993 166.23 106.993 166.264V171.72C106.993 171.754 106.965 171.782 106.931 171.782H105.995C105.96 171.782 105.933 171.754 105.933 171.72V166.264C105.933 166.23 105.96 166.202 105.995 166.202Z" fill="url(#paint67_linear_32_192)"/>
<path id="Vector_91" d="M110.726 166.202H109.79C109.756 166.202 109.729 166.23 109.729 166.264V171.72C109.729 171.754 109.756 171.782 109.79 171.782H110.726C110.76 171.782 110.788 171.754 110.788 171.72V166.264C110.788 166.23 110.76 166.202 110.726 166.202Z" fill="url(#paint68_linear_32_192)"/>
</g>
<g id="coin3">
<path id="Vector_92" d="M112.514 174.305H62.4552C62.3017 174.305 62.1772 174.429 62.1772 174.583V182.729C62.1772 182.882 62.3017 183.007 62.4552 183.007H112.514C112.667 183.007 112.791 182.882 112.791 182.729V174.583C112.791 174.429 112.667 174.305 112.514 174.305Z" fill="url(#paint69_linear_32_192)"/>
<path id="Vector_93" d="M65.178 175.866H64.2424C64.2083 175.866 64.1807 175.894 64.1807 175.928V181.384C64.1807 181.418 64.2083 181.445 64.2424 181.445H65.178C65.2121 181.445 65.2398 181.418 65.2398 181.384V175.928C65.2398 175.894 65.2121 175.866 65.178 175.866Z" fill="url(#paint70_linear_32_192)"/>
<path id="Vector_94" d="M68.9737 175.866H68.0381C68.004 175.866 67.9763 175.894 67.9763 175.928V181.384C67.9763 181.418 68.004 181.445 68.0381 181.445H68.9737C69.0078 181.445 69.0354 181.418 69.0354 181.384V175.928C69.0354 175.894 69.0078 175.866 68.9737 175.866Z" fill="url(#paint71_linear_32_192)"/>
<path id="Vector_95" d="M72.7691 175.866H71.8335C71.7994 175.866 71.7717 175.894 71.7717 175.928V181.384C71.7717 181.418 71.7994 181.445 71.8335 181.445H72.7691C72.8032 181.445 72.8308 181.418 72.8308 181.384V175.928C72.8308 175.894 72.8032 175.866 72.7691 175.866Z" fill="url(#paint72_linear_32_192)"/>
<path id="Vector_96" d="M76.5647 175.866H75.6291C75.595 175.866 75.5674 175.894 75.5674 175.928V181.384C75.5674 181.418 75.595 181.445 75.6291 181.445H76.5647C76.5988 181.445 76.6265 181.418 76.6265 181.384V175.928C76.6265 175.894 76.5988 175.866 76.5647 175.866Z" fill="url(#paint73_linear_32_192)"/>
<path id="Vector_97" d="M80.3611 175.866H79.4255C79.3914 175.866 79.3638 175.894 79.3638 175.928V181.384C79.3638 181.418 79.3914 181.445 79.4255 181.445H80.3611C80.3952 181.445 80.4229 181.418 80.4229 181.384V175.928C80.4229 175.894 80.3952 175.866 80.3611 175.866Z" fill="url(#paint74_linear_32_192)"/>
<path id="Vector_98" d="M84.1568 175.866H83.2212C83.1871 175.866 83.1594 175.894 83.1594 175.928V181.384C83.1594 181.418 83.1871 181.445 83.2212 181.445H84.1568C84.1909 181.445 84.2185 181.418 84.2185 181.384V175.928C84.2185 175.894 84.1909 175.866 84.1568 175.866Z" fill="url(#paint75_linear_32_192)"/>
<path id="Vector_99" d="M87.9522 175.866H87.0166C86.9825 175.866 86.9548 175.894 86.9548 175.928V181.384C86.9548 181.418 86.9825 181.445 87.0166 181.445H87.9522C87.9863 181.445 88.014 181.418 88.014 181.384V175.928C88.014 175.894 87.9863 175.866 87.9522 175.866Z" fill="url(#paint76_linear_32_192)"/>
<path id="Vector_100" d="M91.7478 175.866H90.8122C90.7781 175.866 90.7505 175.894 90.7505 175.928V181.384C90.7505 181.418 90.7781 181.445 90.8122 181.445H91.7478C91.782 181.445 91.8096 181.418 91.8096 181.384V175.928C91.8096 175.894 91.782 175.866 91.7478 175.866Z" fill="url(#paint77_linear_32_192)"/>
<path id="Vector_101" d="M95.5435 175.866H94.6079C94.5738 175.866 94.5461 175.894 94.5461 175.928V181.384C94.5461 181.418 94.5738 181.445 94.6079 181.445H95.5435C95.5776 181.445 95.6053 181.418 95.6053 181.384V175.928C95.6053 175.894 95.5776 175.866 95.5435 175.866Z" fill="url(#paint78_linear_32_192)"/>
<path id="Vector_102" d="M99.3392 175.866H98.4036C98.3694 175.866 98.3418 175.894 98.3418 175.928V181.384C98.3418 181.418 98.3694 181.445 98.4036 181.445H99.3392C99.3733 181.445 99.4009 181.418 99.4009 181.384V175.928C99.4009 175.894 99.3733 175.866 99.3392 175.866Z" fill="url(#paint79_linear_32_192)"/>
<path id="Vector_103" d="M103.135 175.866H102.199C102.165 175.866 102.137 175.894 102.137 175.928V181.384C102.137 181.418 102.165 181.445 102.199 181.445H103.135C103.169 181.445 103.197 181.418 103.197 181.384V175.928C103.197 175.894 103.169 175.866 103.135 175.866Z" fill="url(#paint80_linear_32_192)"/>
<path id="Vector_104" d="M106.93 175.866H105.995C105.961 175.866 105.933 175.894 105.933 175.928V181.384C105.933 181.418 105.961 181.445 105.995 181.445H106.93C106.964 181.445 106.992 181.418 106.992 181.384V175.928C106.992 175.894 106.964 175.866 106.93 175.866Z" fill="url(#paint81_linear_32_192)"/>
<path id="Vector_105" d="M110.726 175.866H109.79C109.756 175.866 109.729 175.894 109.729 175.928V181.384C109.729 181.418 109.756 181.445 109.79 181.445H110.726C110.76 181.445 110.788 181.418 110.788 181.384V175.928C110.788 175.894 110.76 175.866 110.726 175.866Z" fill="url(#paint82_linear_32_192)"/>
</g>
<g id="coin2">
<path id="Vector_106" d="M112.514 183.97H62.4552C62.3017 183.97 62.1772 184.094 62.1772 184.248V192.393C62.1772 192.547 62.3017 192.671 62.4552 192.671H112.514C112.667 192.671 112.791 192.547 112.791 192.393V184.248C112.791 184.094 112.667 183.97 112.514 183.97Z" fill="url(#paint83_linear_32_192)"/>
<path id="Vector_107" d="M65.178 185.531H64.2424C64.2083 185.531 64.1807 185.559 64.1807 185.593V191.048C64.1807 191.082 64.2083 191.11 64.2424 191.11H65.178C65.2121 191.11 65.2398 191.082 65.2398 191.048V185.593C65.2398 185.559 65.2121 185.531 65.178 185.531Z" fill="url(#paint84_linear_32_192)"/>
<path id="Vector_108" d="M68.9737 185.531H68.0381C68.004 185.531 67.9763 185.559 67.9763 185.593V191.048C67.9763 191.082 68.004 191.11 68.0381 191.11H68.9737C69.0078 191.11 69.0354 191.082 69.0354 191.048V185.593C69.0354 185.559 69.0078 185.531 68.9737 185.531Z" fill="url(#paint85_linear_32_192)"/>
<path id="Vector_109" d="M71.8337 185.531H72.7693C72.8034 185.531 72.831 185.559 72.831 185.593V191.048C72.831 191.082 72.8034 191.11 72.7693 191.11H71.833C71.7988 191.11 71.7712 191.082 71.7712 191.048V185.593C71.7712 185.559 71.7988 185.531 71.833 185.531H71.8337Z" fill="url(#paint86_linear_32_192)"/>
<path id="Vector_110" d="M76.5647 185.531H75.6291C75.595 185.531 75.5674 185.559 75.5674 185.593V191.048C75.5674 191.082 75.595 191.11 75.6291 191.11H76.5647C76.5988 191.11 76.6265 191.082 76.6265 191.048V185.593C76.6265 185.559 76.5988 185.531 76.5647 185.531Z" fill="url(#paint87_linear_32_192)"/>
<path id="Vector_111" d="M80.3611 185.531H79.4255C79.3914 185.531 79.3638 185.559 79.3638 185.593V191.048C79.3638 191.082 79.3914 191.11 79.4255 191.11H80.3611C80.3952 191.11 80.4229 191.082 80.4229 191.048V185.593C80.4229 185.559 80.3952 185.531 80.3611 185.531Z" fill="url(#paint88_linear_32_192)"/>
<path id="Vector_112" d="M84.1568 185.531H83.2212C83.1871 185.531 83.1594 185.559 83.1594 185.593V191.048C83.1594 191.082 83.1871 191.11 83.2212 191.11H84.1568C84.1909 191.11 84.2185 191.082 84.2185 191.048V185.593C84.2185 185.559 84.1909 185.531 84.1568 185.531Z" fill="url(#paint89_linear_32_192)"/>
<path id="Vector_113" d="M87.9522 185.531H87.0166C86.9825 185.531 86.9548 185.559 86.9548 185.593V191.048C86.9548 191.082 86.9825 191.11 87.0166 191.11H87.9522C87.9863 191.11 88.014 191.082 88.014 191.048V185.593C88.014 185.559 87.9863 185.531 87.9522 185.531Z" fill="url(#paint90_linear_32_192)"/>
<path id="Vector_114" d="M91.7478 185.531H90.8122C90.7781 185.531 90.7505 185.559 90.7505 185.593V191.048C90.7505 191.082 90.7781 191.11 90.8122 191.11H91.7478C91.782 191.11 91.8096 191.082 91.8096 191.048V185.593C91.8096 185.559 91.782 185.531 91.7478 185.531Z" fill="url(#paint91_linear_32_192)"/>
<path id="Vector_115" d="M95.5435 185.531H94.6079C94.5738 185.531 94.5461 185.559 94.5461 185.593V191.048C94.5461 191.082 94.5738 191.11 94.6079 191.11H95.5435C95.5776 191.11 95.6053 191.082 95.6053 191.048V185.593C95.6053 185.559 95.5776 185.531 95.5435 185.531Z" fill="url(#paint92_linear_32_192)"/>
<path id="Vector_116" d="M98.4035 185.531H99.3391C99.3732 185.531 99.4008 185.559 99.4008 185.593V191.048C99.4008 191.082 99.3732 191.11 99.3391 191.11H98.4028C98.3687 191.11 98.3411 191.082 98.3411 191.048V185.593C98.3411 185.559 98.3687 185.531 98.4028 185.531H98.4035Z" fill="url(#paint93_linear_32_192)"/>
<path id="Vector_117" d="M102.199 185.531H103.135C103.17 185.531 103.197 185.559 103.197 185.593V191.048C103.197 191.082 103.17 191.11 103.135 191.11H102.199C102.165 191.11 102.137 191.082 102.137 191.048V185.593C102.137 185.559 102.165 185.531 102.199 185.531Z" fill="url(#paint94_linear_32_192)"/>
<path id="Vector_118" d="M106.93 185.531H105.995C105.961 185.531 105.933 185.559 105.933 185.593V191.048C105.933 191.082 105.961 191.11 105.995 191.11H106.93C106.964 191.11 106.992 191.082 106.992 191.048V185.593C106.992 185.559 106.964 185.531 106.93 185.531Z" fill="url(#paint95_linear_32_192)"/>
<path id="Vector_119" d="M110.726 185.531H109.79C109.756 185.531 109.729 185.559 109.729 185.593V191.048C109.729 191.082 109.756 191.11 109.79 191.11H110.726C110.76 191.11 110.788 191.082 110.788 191.048V185.593C110.788 185.559 110.76 185.531 110.726 185.531Z" fill="url(#paint96_linear_32_192)"/>
</g>
<g id="coin1">
<path id="Vector_120" d="M112.514 193.634H62.4552C62.3017 193.634 62.1772 193.758 62.1772 193.911V202.057C62.1772 202.211 62.3017 202.335 62.4552 202.335H112.514C112.667 202.335 112.791 202.211 112.791 202.057V193.911C112.791 193.758 112.667 193.634 112.514 193.634Z" fill="url(#paint97_linear_32_192)"/>
<path id="Vector_121" d="M65.178 195.195H64.2424C64.2083 195.195 64.1807 195.223 64.1807 195.257V200.712C64.1807 200.746 64.2083 200.774 64.2424 200.774H65.178C65.2121 200.774 65.2398 200.746 65.2398 200.712V195.257C65.2398 195.223 65.2121 195.195 65.178 195.195Z" fill="url(#paint98_linear_32_192)"/>
<path id="Vector_122" d="M68.9737 195.195H68.0381C68.004 195.195 67.9763 195.223 67.9763 195.257V200.712C67.9763 200.746 68.004 200.774 68.0381 200.774H68.9737C69.0078 200.774 69.0354 200.746 69.0354 200.712V195.257C69.0354 195.223 69.0078 195.195 68.9737 195.195Z" fill="url(#paint99_linear_32_192)"/>
<path id="Vector_123" d="M72.7691 195.195H71.8335C71.7994 195.195 71.7717 195.223 71.7717 195.257V200.712C71.7717 200.746 71.7994 200.774 71.8335 200.774H72.7691C72.8032 200.774 72.8308 200.746 72.8308 200.712V195.257C72.8308 195.223 72.8032 195.195 72.7691 195.195Z" fill="url(#paint100_linear_32_192)"/>
<path id="Vector_124" d="M76.5647 195.195H75.6291C75.595 195.195 75.5674 195.223 75.5674 195.257V200.712C75.5674 200.746 75.595 200.774 75.6291 200.774H76.5647C76.5988 200.774 76.6265 200.746 76.6265 200.712V195.257C76.6265 195.223 76.5988 195.195 76.5647 195.195Z" fill="url(#paint101_linear_32_192)"/>
<path id="Vector_125" d="M80.3611 195.195H79.4255C79.3914 195.195 79.3638 195.223 79.3638 195.257V200.712C79.3638 200.746 79.3914 200.774 79.4255 200.774H80.3611C80.3952 200.774 80.4229 200.746 80.4229 200.712V195.257C80.4229 195.223 80.3952 195.195 80.3611 195.195Z" fill="url(#paint102_linear_32_192)"/>
<path id="Vector_126" d="M84.1568 195.195H83.2212C83.1871 195.195 83.1594 195.223 83.1594 195.257V200.712C83.1594 200.746 83.1871 200.774 83.2212 200.774H84.1568C84.1909 200.774 84.2185 200.746 84.2185 200.712V195.257C84.2185 195.223 84.1909 195.195 84.1568 195.195Z" fill="url(#paint103_linear_32_192)"/>
<path id="Vector_127" d="M87.9522 195.195H87.0166C86.9825 195.195 86.9548 195.223 86.9548 195.257V200.712C86.9548 200.746 86.9825 200.774 87.0166 200.774H87.9522C87.9863 200.774 88.014 200.746 88.014 200.712V195.257C88.014 195.223 87.9863 195.195 87.9522 195.195Z" fill="url(#paint104_linear_32_192)"/>
<path id="Vector_128" d="M91.7478 195.195H90.8122C90.7781 195.195 90.7505 195.223 90.7505 195.257V200.712C90.7505 200.746 90.7781 200.774 90.8122 200.774H91.7478C91.782 200.774 91.8096 200.746 91.8096 200.712V195.257C91.8096 195.223 91.782 195.195 91.7478 195.195Z" fill="url(#paint105_linear_32_192)"/>
<path id="Vector_129" d="M95.5435 195.195H94.6079C94.5738 195.195 94.5461 195.223 94.5461 195.257V200.712C94.5461 200.746 94.5738 200.774 94.6079 200.774H95.5435C95.5776 200.774 95.6053 200.746 95.6053 200.712V195.257C95.6053 195.223 95.5776 195.195 95.5435 195.195Z" fill="url(#paint106_linear_32_192)"/>
<path id="Vector_130" d="M99.3392 195.195H98.4036C98.3694 195.195 98.3418 195.223 98.3418 195.257V200.712C98.3418 200.746 98.3694 200.774 98.4036 200.774H99.3392C99.3733 200.774 99.4009 200.746 99.4009 200.712V195.257C99.4009 195.223 99.3733 195.195 99.3392 195.195Z" fill="url(#paint107_linear_32_192)"/>
<path id="Vector_131" d="M103.135 195.195H102.199C102.165 195.195 102.137 195.223 102.137 195.257V200.712C102.137 200.746 102.165 200.774 102.199 200.774H103.135C103.169 200.774 103.197 200.746 103.197 200.712V195.257C103.197 195.223 103.169 195.195 103.135 195.195Z" fill="url(#paint108_linear_32_192)"/>
<path id="Vector_132" d="M106.93 195.195H105.995C105.961 195.195 105.933 195.223 105.933 195.257V200.712C105.933 200.746 105.961 200.774 105.995 200.774H106.93C106.964 200.774 106.992 200.746 106.992 200.712V195.257C106.992 195.223 106.964 195.195 106.93 195.195Z" fill="url(#paint109_linear_32_192)"/>
<path id="Vector_133" d="M110.726 195.195H109.79C109.756 195.195 109.729 195.223 109.729 195.257V200.712C109.729 200.746 109.756 200.774 109.79 200.774H110.726C110.76 200.774 110.788 200.746 110.788 200.712V195.257C110.788 195.223 110.76 195.195 110.726 195.195Z" fill="url(#paint110_linear_32_192)"/>
</g>
<path id="Vector_134" d="M112.514 203.298H62.4552C62.3017 203.298 62.1772 203.423 62.1772 203.576V211.722C62.1772 211.876 62.3017 212 62.4552 212H112.514C112.667 212 112.791 211.876 112.791 211.722V203.576C112.791 203.423 112.667 203.298 112.514 203.298Z" fill="url(#paint111_linear_32_192)"/>
<path id="Vector_135" d="M65.178 204.859H64.2424C64.2083 204.859 64.1807 204.887 64.1807 204.921V210.377C64.1807 210.411 64.2083 210.439 64.2424 210.439H65.178C65.2121 210.439 65.2398 210.411 65.2398 210.377V204.921C65.2398 204.887 65.2121 204.859 65.178 204.859Z" fill="url(#paint112_linear_32_192)"/>
<path id="Vector_136" d="M68.9737 204.859H68.0381C68.004 204.859 67.9763 204.887 67.9763 204.921V210.377C67.9763 210.411 68.004 210.439 68.0381 210.439H68.9737C69.0078 210.439 69.0354 210.411 69.0354 210.377V204.921C69.0354 204.887 69.0078 204.859 68.9737 204.859Z" fill="url(#paint113_linear_32_192)"/>
<path id="Vector_137" d="M72.7691 204.859H71.8335C71.7994 204.859 71.7717 204.887 71.7717 204.921V210.377C71.7717 210.411 71.7994 210.439 71.8335 210.439H72.7691C72.8032 210.439 72.8308 210.411 72.8308 210.377V204.921C72.8308 204.887 72.8032 204.859 72.7691 204.859Z" fill="url(#paint114_linear_32_192)"/>
<path id="Vector_138" d="M76.5647 204.859H75.6291C75.595 204.859 75.5674 204.887 75.5674 204.921V210.377C75.5674 210.411 75.595 210.439 75.6291 210.439H76.5647C76.5988 210.439 76.6265 210.411 76.6265 210.377V204.921C76.6265 204.887 76.5988 204.859 76.5647 204.859Z" fill="url(#paint115_linear_32_192)"/>
<path id="Vector_139" d="M80.3611 204.859H79.4255C79.3914 204.859 79.3638 204.887 79.3638 204.921V210.377C79.3638 210.411 79.3914 210.439 79.4255 210.439H80.3611C80.3952 210.439 80.4229 210.411 80.4229 210.377V204.921C80.4229 204.887 80.3952 204.859 80.3611 204.859Z" fill="url(#paint116_linear_32_192)"/>
<path id="Vector_140" d="M84.1568 204.859H83.2212C83.1871 204.859 83.1594 204.887 83.1594 204.921V210.377C83.1594 210.411 83.1871 210.439 83.2212 210.439H84.1568C84.1909 210.439 84.2185 210.411 84.2185 210.377V204.921C84.2185 204.887 84.1909 204.859 84.1568 204.859Z" fill="url(#paint117_linear_32_192)"/>
<path id="Vector_141" d="M87.9522 204.859H87.0166C86.9825 204.859 86.9548 204.887 86.9548 204.921V210.377C86.9548 210.411 86.9825 210.439 87.0166 210.439H87.9522C87.9863 210.439 88.014 210.411 88.014 210.377V204.921C88.014 204.887 87.9863 204.859 87.9522 204.859Z" fill="url(#paint118_linear_32_192)"/>
<path id="Vector_142" d="M91.7478 204.859H90.8122C90.7781 204.859 90.7505 204.887 90.7505 204.921V210.377C90.7505 210.411 90.7781 210.439 90.8122 210.439H91.7478C91.782 210.439 91.8096 210.411 91.8096 210.377V204.921C91.8096 204.887 91.782 204.859 91.7478 204.859Z" fill="url(#paint119_linear_32_192)"/>
<path id="Vector_143" d="M95.5435 204.859H94.6079C94.5738 204.859 94.5461 204.887 94.5461 204.921V210.377C94.5461 210.411 94.5738 210.439 94.6079 210.439H95.5435C95.5776 210.439 95.6053 210.411 95.6053 210.377V204.921C95.6053 204.887 95.5776 204.859 95.5435 204.859Z" fill="url(#paint120_linear_32_192)"/>
<path id="Vector_144" d="M99.3392 204.859H98.4036C98.3694 204.859 98.3418 204.887 98.3418 204.921V210.377C98.3418 210.411 98.3694 210.439 98.4036 210.439H99.3392C99.3733 210.439 99.4009 210.411 99.4009 210.377V204.921C99.4009 204.887 99.3733 204.859 99.3392 204.859Z" fill="url(#paint121_linear_32_192)"/>
<path id="Vector_145" d="M103.135 204.859H102.199C102.165 204.859 102.137 204.887 102.137 204.921V210.377C102.137 210.411 102.165 210.439 102.199 210.439H103.135C103.169 210.439 103.197 210.411 103.197 210.377V204.921C103.197 204.887 103.169 204.859 103.135 204.859Z" fill="url(#paint122_linear_32_192)"/>
<path id="Vector_146" d="M106.93 204.859H105.995C105.961 204.859 105.933 204.887 105.933 204.921V210.377C105.933 210.411 105.961 210.439 105.995 210.439H106.93C106.964 210.439 106.992 210.411 106.992 210.377V204.921C106.992 204.887 106.964 204.859 106.93 204.859Z" fill="url(#paint123_linear_32_192)"/>
<path id="Vector_147" d="M110.726 204.859H109.79C109.756 204.859 109.729 204.887 109.729 204.921V210.377C109.729 210.411 109.756 210.439 109.79 210.439H110.726C110.76 210.439 110.788 210.411 110.788 210.377V204.921C110.788 204.887 110.76 204.859 110.726 204.859Z" fill="url(#paint124_linear_32_192)"/>
</g>
<defs>
<linearGradient id="paint0_linear_32_192" x1="215.723" y1="125.265" x2="89.6192" y2="125.265" gradientUnits="userSpaceOnUse">
<stop stop-color="#09005D"/>
<stop offset="1" stop-color="#1A0F91"/>
</linearGradient>
<linearGradient id="paint1_linear_32_192" x1="226.251" y1="-5.92433" x2="125.897" y2="100.555" gradientUnits="userSpaceOnUse">
<stop stop-color="#4F52FF"/>
<stop offset="1" stop-color="#4042E2"/>
</linearGradient>
<linearGradient id="paint2_linear_32_192" x1="109.656" y1="189.183" x2="133.917" y2="186.825" gradientUnits="userSpaceOnUse">
<stop stop-color="#673091"/>
<stop offset="1" stop-color="#EC008C"/>
</linearGradient>
<linearGradient id="paint3_linear_32_192" x1="250.23" y1="26.3453" x2="165.951" y2="224.585" gradientUnits="userSpaceOnUse">
<stop stop-color="#4F52FF"/>
<stop offset="1" stop-color="#4042E2"/>
</linearGradient>
<linearGradient id="paint4_linear_32_192" x1="236.997" y1="4.09117" x2="140.7" y2="230.601" gradientUnits="userSpaceOnUse">
<stop stop-color="#4F52FF"/>
<stop offset="1" stop-color="#4042E2"/>
</linearGradient>
<linearGradient id="paint5_linear_32_192" x1="244.895" y1="4.71028" x2="148.598" y2="231.22" gradientUnits="userSpaceOnUse">
<stop stop-color="#4F52FF"/>
<stop offset="1" stop-color="#4042E2"/>
</linearGradient>
<linearGradient id="paint6_linear_32_192" x1="252.793" y1="5.32923" x2="156.496" y2="231.839" gradientUnits="userSpaceOnUse">
<stop stop-color="#4F52FF"/>
<stop offset="1" stop-color="#4042E2"/>
</linearGradient>
<linearGradient id="paint7_linear_32_192" x1="217.711" y1="-5.5248" x2="121.414" y2="220.985" gradientUnits="userSpaceOnUse">
<stop stop-color="#4F52FF"/>
<stop offset="1" stop-color="#4042E2"/>
</linearGradient>
<linearGradient id="paint8_linear_32_192" x1="225.609" y1="-4.90569" x2="129.312" y2="221.604" gradientUnits="userSpaceOnUse">
<stop stop-color="#4F52FF"/>
<stop offset="1" stop-color="#4042E2"/>
</linearGradient>
<linearGradient id="paint9_linear_32_192" x1="233.334" y1="-4.37282" x2="137.037" y2="222.137" gradientUnits="userSpaceOnUse">
<stop stop-color="#4F52FF"/>
<stop offset="1" stop-color="#4042E2"/>
</linearGradient>
<linearGradient id="paint10_linear_32_192" x1="198.253" y1="-15.2269" x2="101.956" y2="211.283" gradientUnits="userSpaceOnUse">
<stop stop-color="#4F52FF"/>
<stop offset="1" stop-color="#4042E2"/>
</linearGradient>
<linearGradient id="paint11_linear_32_192" x1="206.15" y1="-14.6071" x2="109.853" y2="211.902" gradientUnits="userSpaceOnUse">
<stop stop-color="#4F52FF"/>
<stop offset="1" stop-color="#4042E2"/>
</linearGradient>
<linearGradient id="paint12_linear_32_192" x1="214.048" y1="-13.9881" x2="117.751" y2="212.521" gradientUnits="userSpaceOnUse">
<stop stop-color="#4F52FF"/>
<stop offset="1" stop-color="#4042E2"/>
</linearGradient>
<linearGradient id="paint13_linear_32_192" x1="177.043" y1="-25.8016" x2="80.7465" y2="200.707" gradientUnits="userSpaceOnUse">
<stop stop-color="#4F52FF"/>
<stop offset="1" stop-color="#4042E2"/>
</linearGradient>
<linearGradient id="paint14_linear_32_192" x1="184.941" y1="-25.1825" x2="88.644" y2="201.327" gradientUnits="userSpaceOnUse">
<stop stop-color="#4F52FF"/>
<stop offset="1" stop-color="#4042E2"/>
</linearGradient>
<linearGradient id="paint15_linear_32_192" x1="192.839" y1="-24.5629" x2="96.5419" y2="201.946" gradientUnits="userSpaceOnUse">
<stop stop-color="#4F52FF"/>
<stop offset="1" stop-color="#4042E2"/>
</linearGradient>
<linearGradient id="paint16_linear_32_192" x1="167.163" y1="-20.2474" x2="75.8395" y2="194.562" gradientUnits="userSpaceOnUse">
<stop stop-color="#4F52FF"/>
<stop offset="1" stop-color="#4042E2"/>
</linearGradient>
<linearGradient id="paint17_linear_32_192" x1="188.922" y1="-10.0689" x2="97.5994" y2="204.741" gradientUnits="userSpaceOnUse">
<stop stop-color="#4F52FF"/>
<stop offset="1" stop-color="#4042E2"/>
</linearGradient>
<linearGradient id="paint18_linear_32_192" x1="208.943" y1="-0.705316" x2="117.619" y2="214.104" gradientUnits="userSpaceOnUse">
<stop stop-color="#4F52FF"/>
<stop offset="1" stop-color="#4042E2"/>
</linearGradient>
<linearGradient id="paint19_linear_32_192" x1="230.703" y1="9.47252" x2="139.38" y2="224.283" gradientUnits="userSpaceOnUse">
<stop stop-color="#4F52FF"/>
<stop offset="1" stop-color="#4042E2"/>
</linearGradient>
<linearGradient id="paint20_linear_32_192" x1="239.907" y1="207.115" x2="232.645" y2="207.115" gradientUnits="userSpaceOnUse">
<stop stop-color="#09005D"/>
<stop offset="1" stop-color="#1A0F91"/>
</linearGradient>
<linearGradient id="paint21_linear_32_192" x1="239.17" y1="203.74" x2="236.225" y2="203.74" gradientUnits="userSpaceOnUse">
<stop stop-color="#FEBBBA"/>
<stop offset="1" stop-color="#FF928E"/>
</linearGradient>
<linearGradient id="paint22_linear_32_192" x1="224.463" y1="206.998" x2="213.069" y2="206.998" gradientUnits="userSpaceOnUse">
<stop stop-color="#09005D"/>
<stop offset="1" stop-color="#1A0F91"/>
</linearGradient>
<linearGradient id="paint23_linear_32_192" x1="224.291" y1="202.432" x2="221.362" y2="202.432" gradientUnits="userSpaceOnUse">
<stop stop-color="#FEBBBA"/>
<stop offset="1" stop-color="#FF928E"/>
</linearGradient>
<linearGradient id="paint24_linear_32_192" x1="241" y1="176.446" x2="221.032" y2="176.446" gradientUnits="userSpaceOnUse">
<stop stop-color="#09005D"/>
<stop offset="1" stop-color="#1A0F91"/>
</linearGradient>
<linearGradient id="paint25_linear_32_192" x1="228.519" y1="166.488" x2="197.696" y2="189.545" gradientUnits="userSpaceOnUse">
<stop stop-color="#4F52FF"/>
<stop offset="1" stop-color="#4042E2"/>
</linearGradient>
<linearGradient id="paint26_linear_32_192" x1="203.116" y1="87.6318" x2="211.545" y2="125.329" gradientUnits="userSpaceOnUse">
<stop stop-color="#4F52FF"/>
<stop offset="1" stop-color="#4042E2"/>
</linearGradient>
<linearGradient id="paint27_linear_32_192" x1="216.78" y1="98.3826" x2="191.601" y2="114.457" gradientUnits="userSpaceOnUse">
<stop stop-color="#FEBBBA"/>
<stop offset="1" stop-color="#FF928E"/>
</linearGradient>
<linearGradient id="paint28_linear_32_192" x1="210.663" y1="131.382" x2="291.849" y2="195.464" gradientUnits="userSpaceOnUse">
<stop stop-color="#4F52FF"/>
<stop offset="1" stop-color="#4042E2"/>
</linearGradient>
<linearGradient id="paint29_linear_32_192" x1="190.695" y1="122.636" x2="195.094" y2="145.541" gradientUnits="userSpaceOnUse">
<stop stop-color="#FEBBBA"/>
<stop offset="1" stop-color="#FF928E"/>
</linearGradient>
<linearGradient id="paint30_linear_32_192" x1="182.69" y1="124.174" x2="187.09" y2="147.079" gradientUnits="userSpaceOnUse">
<stop stop-color="#FEBBBA"/>
<stop offset="1" stop-color="#FF928E"/>
</linearGradient>
<linearGradient id="paint31_linear_32_192" x1="206.167" y1="100.714" x2="229.964" y2="144.431" gradientUnits="userSpaceOnUse">
<stop stop-color="#FEBBBA"/>
<stop offset="1" stop-color="#FF928E"/>
</linearGradient>
<linearGradient id="paint32_linear_32_192" x1="213.671" y1="109.05" x2="214.214" y2="125.74" gradientUnits="userSpaceOnUse">
<stop stop-color="#FEBBBA"/>
<stop offset="1" stop-color="#FF928E"/>
</linearGradient>
<linearGradient id="paint33_linear_32_192" x1="218.099" y1="116.11" x2="208.273" y2="109.175" gradientUnits="userSpaceOnUse">
<stop stop-color="#09005D"/>
<stop offset="1" stop-color="#1A0F91"/>
</linearGradient>
<linearGradient id="paint34_linear_32_192" x1="219.634" y1="126.174" x2="217.814" y2="114.746" gradientUnits="userSpaceOnUse">
<stop stop-color="#FEBBBA"/>
<stop offset="1" stop-color="#FF928E"/>
</linearGradient>
<linearGradient id="paint35_linear_32_192" x1="182.628" y1="124.185" x2="187.028" y2="147.09" gradientUnits="userSpaceOnUse">
<stop stop-color="#FEBBBA"/>
<stop offset="1" stop-color="#FF928E"/>
</linearGradient>
<linearGradient id="paint36_linear_32_192" x1="105.5" y1="43" x2="158.662" y2="159.529" gradientUnits="userSpaceOnUse">
<stop stop-color="#673091"/>
<stop offset="1" stop-color="#EC008C"/>
</linearGradient>
<linearGradient id="paint37_linear_32_192" x1="106.264" y1="133.184" x2="219.574" y2="125.342" gradientUnits="userSpaceOnUse">
<stop stop-color="#673091"/>
<stop offset="1" stop-color="#EC008C"/>
</linearGradient>
<linearGradient id="paint38_linear_32_192" x1="53.4479" y1="166.208" x2="86.8173" y2="127.483" gradientUnits="userSpaceOnUse">
<stop stop-color="#FF928E"/>
<stop offset="1" stop-color="#FE7062"/>
</linearGradient>
<linearGradient id="paint39_linear_32_192" x1="87.4844" y1="160.707" x2="121.25" y2="122.605" gradientUnits="userSpaceOnUse">
<stop stop-color="#673091"/>
<stop offset="1" stop-color="#EC008C"/>
</linearGradient>
<linearGradient id="paint40_linear_32_192" x1="79.0447" y1="143.642" x2="98.2762" y2="142.957" gradientUnits="userSpaceOnUse">
<stop stop-color="#673091"/>
<stop offset="1" stop-color="#EC008C"/>
</linearGradient>
<linearGradient id="paint41_linear_32_192" x1="62.1772" y1="163.678" x2="109.947" y2="146.885" gradientUnits="userSpaceOnUse">
<stop stop-color="#673091"/>
<stop offset="1" stop-color="#EC008C"/>
</linearGradient>
<linearGradient id="paint42_linear_32_192" x1="66.9921" y1="155.668" x2="61.262" y2="164.856" gradientUnits="userSpaceOnUse">
<stop stop-color="#FF928E"/>
<stop offset="1" stop-color="#FE7062"/>
</linearGradient>
<linearGradient id="paint43_linear_32_192" x1="70.7884" y1="155.668" x2="65.0576" y2="164.856" gradientUnits="userSpaceOnUse">
<stop stop-color="#FF928E"/>
<stop offset="1" stop-color="#FE7062"/>
</linearGradient>
<linearGradient id="paint44_linear_32_192" x1="74.5838" y1="155.668" x2="68.853" y2="164.856" gradientUnits="userSpaceOnUse">
<stop stop-color="#FF928E"/>
<stop offset="1" stop-color="#FE7062"/>
</linearGradient>
<linearGradient id="paint45_linear_32_192" x1="78.3794" y1="155.668" x2="72.6487" y2="164.856" gradientUnits="userSpaceOnUse">
<stop stop-color="#FF928E"/>
<stop offset="1" stop-color="#FE7062"/>
</linearGradient>
<linearGradient id="paint46_linear_32_192" x1="82.1752" y1="155.668" x2="76.4444" y2="164.856" gradientUnits="userSpaceOnUse">
<stop stop-color="#FF928E"/>
<stop offset="1" stop-color="#FE7062"/>
</linearGradient>
<linearGradient id="paint47_linear_32_192" x1="85.9708" y1="155.668" x2="80.2401" y2="164.856" gradientUnits="userSpaceOnUse">
<stop stop-color="#FF928E"/>
<stop offset="1" stop-color="#FE7062"/>
</linearGradient>
<linearGradient id="paint48_linear_32_192" x1="89.7662" y1="155.668" x2="84.0355" y2="164.856" gradientUnits="userSpaceOnUse">
<stop stop-color="#FF928E"/>
<stop offset="1" stop-color="#FE7062"/>
</linearGradient>
<linearGradient id="paint49_linear_32_192" x1="93.5619" y1="155.668" x2="87.8311" y2="164.856" gradientUnits="userSpaceOnUse">
<stop stop-color="#FF928E"/>
<stop offset="1" stop-color="#FE7062"/>
</linearGradient>
<linearGradient id="paint50_linear_32_192" x1="97.3575" y1="155.668" x2="91.6274" y2="164.856" gradientUnits="userSpaceOnUse">
<stop stop-color="#FF928E"/>
<stop offset="1" stop-color="#FE7062"/>
</linearGradient>
<linearGradient id="paint51_linear_32_192" x1="101.153" y1="155.668" x2="95.4231" y2="164.856" gradientUnits="userSpaceOnUse">
<stop stop-color="#FF928E"/>
<stop offset="1" stop-color="#FE7062"/>
</linearGradient>
<linearGradient id="paint52_linear_32_192" x1="104.949" y1="155.668" x2="99.2187" y2="164.856" gradientUnits="userSpaceOnUse">
<stop stop-color="#FF928E"/>
<stop offset="1" stop-color="#FE7062"/>
</linearGradient>
<linearGradient id="paint53_linear_32_192" x1="108.745" y1="155.668" x2="103.014" y2="164.856" gradientUnits="userSpaceOnUse">
<stop stop-color="#FF928E"/>
<stop offset="1" stop-color="#FE7062"/>
</linearGradient>
<linearGradient id="paint54_linear_32_192" x1="112.541" y1="155.668" x2="106.81" y2="164.856" gradientUnits="userSpaceOnUse">
<stop stop-color="#FF928E"/>
<stop offset="1" stop-color="#FE7062"/>
</linearGradient>
<linearGradient id="paint55_linear_32_192" x1="62.1772" y1="173.342" x2="109.947" y2="156.549" gradientUnits="userSpaceOnUse">
<stop stop-color="#673091"/>
<stop offset="1" stop-color="#EC008C"/>
</linearGradient>
<linearGradient id="paint56_linear_32_192" x1="66.9921" y1="165.332" x2="61.262" y2="174.52" gradientUnits="userSpaceOnUse">
<stop stop-color="#FF928E"/>
<stop offset="1" stop-color="#FE7062"/>
</linearGradient>
<linearGradient id="paint57_linear_32_192" x1="70.7884" y1="165.332" x2="65.0576" y2="174.52" gradientUnits="userSpaceOnUse">
<stop stop-color="#FF928E"/>
<stop offset="1" stop-color="#FE7062"/>
</linearGradient>
<linearGradient id="paint58_linear_32_192" x1="74.5838" y1="165.332" x2="68.853" y2="174.52" gradientUnits="userSpaceOnUse">
<stop stop-color="#FF928E"/>
<stop offset="1" stop-color="#FE7062"/>
</linearGradient>
<linearGradient id="paint59_linear_32_192" x1="78.3794" y1="165.332" x2="72.6487" y2="174.52" gradientUnits="userSpaceOnUse">
<stop stop-color="#FF928E"/>
<stop offset="1" stop-color="#FE7062"/>
</linearGradient>
<linearGradient id="paint60_linear_32_192" x1="82.1752" y1="165.332" x2="76.4444" y2="174.52" gradientUnits="userSpaceOnUse">
<stop stop-color="#FF928E"/>
<stop offset="1" stop-color="#FE7062"/>
</linearGradient>
<linearGradient id="paint61_linear_32_192" x1="85.9708" y1="165.332" x2="80.2401" y2="174.52" gradientUnits="userSpaceOnUse">
<stop stop-color="#FF928E"/>
<stop offset="1" stop-color="#FE7062"/>
</linearGradient>
<linearGradient id="paint62_linear_32_192" x1="89.7662" y1="165.332" x2="84.0355" y2="174.52" gradientUnits="userSpaceOnUse">
<stop stop-color="#FF928E"/>
<stop offset="1" stop-color="#FE7062"/>
</linearGradient>
<linearGradient id="paint63_linear_32_192" x1="93.5619" y1="165.332" x2="87.8311" y2="174.52" gradientUnits="userSpaceOnUse">
<stop stop-color="#FF928E"/>
<stop offset="1" stop-color="#FE7062"/>
</linearGradient>
<linearGradient id="paint64_linear_32_192" x1="97.3575" y1="165.332" x2="91.6274" y2="174.52" gradientUnits="userSpaceOnUse">
<stop stop-color="#FF928E"/>
<stop offset="1" stop-color="#FE7062"/>
</linearGradient>
<linearGradient id="paint65_linear_32_192" x1="101.153" y1="165.332" x2="95.4231" y2="174.52" gradientUnits="userSpaceOnUse">
<stop stop-color="#FF928E"/>
<stop offset="1" stop-color="#FE7062"/>
</linearGradient>
<linearGradient id="paint66_linear_32_192" x1="104.949" y1="165.332" x2="99.2188" y2="174.52" gradientUnits="userSpaceOnUse">
<stop stop-color="#FF928E"/>
<stop offset="1" stop-color="#FE7062"/>
</linearGradient>
<linearGradient id="paint67_linear_32_192" x1="108.745" y1="165.332" x2="103.014" y2="174.52" gradientUnits="userSpaceOnUse">
<stop stop-color="#FF928E"/>
<stop offset="1" stop-color="#FE7062"/>
</linearGradient>
<linearGradient id="paint68_linear_32_192" x1="112.541" y1="165.332" x2="106.81" y2="174.52" gradientUnits="userSpaceOnUse">
<stop stop-color="#FF928E"/>
<stop offset="1" stop-color="#FE7062"/>
</linearGradient>
<linearGradient id="paint69_linear_32_192" x1="62.1772" y1="183.007" x2="109.947" y2="166.213" gradientUnits="userSpaceOnUse">
<stop stop-color="#673091"/>
<stop offset="1" stop-color="#EC008C"/>
</linearGradient>
<linearGradient id="paint70_linear_32_192" x1="66.9921" y1="174.996" x2="61.2619" y2="184.184" gradientUnits="userSpaceOnUse">
<stop stop-color="#FF928E"/>
<stop offset="1" stop-color="#FE7062"/>
</linearGradient>
<linearGradient id="paint71_linear_32_192" x1="70.7884" y1="174.996" x2="65.0576" y2="184.184" gradientUnits="userSpaceOnUse">
<stop stop-color="#FF928E"/>
<stop offset="1" stop-color="#FE7062"/>
</linearGradient>
<linearGradient id="paint72_linear_32_192" x1="74.5838" y1="174.996" x2="68.853" y2="184.184" gradientUnits="userSpaceOnUse">
<stop stop-color="#FF928E"/>
<stop offset="1" stop-color="#FE7062"/>
</linearGradient>
<linearGradient id="paint73_linear_32_192" x1="78.3794" y1="174.996" x2="72.6487" y2="184.184" gradientUnits="userSpaceOnUse">
<stop stop-color="#FF928E"/>
<stop offset="1" stop-color="#FE7062"/>
</linearGradient>
<linearGradient id="paint74_linear_32_192" x1="82.1752" y1="174.996" x2="76.4444" y2="184.184" gradientUnits="userSpaceOnUse">
<stop stop-color="#FF928E"/>
<stop offset="1" stop-color="#FE7062"/>
</linearGradient>
<linearGradient id="paint75_linear_32_192" x1="85.9708" y1="174.996" x2="80.24" y2="184.184" gradientUnits="userSpaceOnUse">
<stop stop-color="#FF928E"/>
<stop offset="1" stop-color="#FE7062"/>
</linearGradient>
<linearGradient id="paint76_linear_32_192" x1="89.7662" y1="174.996" x2="84.0355" y2="184.184" gradientUnits="userSpaceOnUse">
<stop stop-color="#FF928E"/>
<stop offset="1" stop-color="#FE7062"/>
</linearGradient>
<linearGradient id="paint77_linear_32_192" x1="93.5619" y1="174.996" x2="87.8311" y2="184.184" gradientUnits="userSpaceOnUse">
<stop stop-color="#FF928E"/>
<stop offset="1" stop-color="#FE7062"/>
</linearGradient>
<linearGradient id="paint78_linear_32_192" x1="97.3575" y1="174.996" x2="91.6274" y2="184.184" gradientUnits="userSpaceOnUse">
<stop stop-color="#FF928E"/>
<stop offset="1" stop-color="#FE7062"/>
</linearGradient>
<linearGradient id="paint79_linear_32_192" x1="101.153" y1="174.996" x2="95.4231" y2="184.184" gradientUnits="userSpaceOnUse">
<stop stop-color="#FF928E"/>
<stop offset="1" stop-color="#FE7062"/>
</linearGradient>
<linearGradient id="paint80_linear_32_192" x1="104.949" y1="174.996" x2="99.2187" y2="184.184" gradientUnits="userSpaceOnUse">
<stop stop-color="#FF928E"/>
<stop offset="1" stop-color="#FE7062"/>
</linearGradient>
<linearGradient id="paint81_linear_32_192" x1="108.745" y1="174.996" x2="103.014" y2="184.184" gradientUnits="userSpaceOnUse">
<stop stop-color="#FF928E"/>
<stop offset="1" stop-color="#FE7062"/>
</linearGradient>
<linearGradient id="paint82_linear_32_192" x1="112.541" y1="174.996" x2="106.81" y2="184.184" gradientUnits="userSpaceOnUse">
<stop stop-color="#FF928E"/>
<stop offset="1" stop-color="#FE7062"/>
</linearGradient>
<linearGradient id="paint83_linear_32_192" x1="62.1772" y1="192.671" x2="109.947" y2="175.878" gradientUnits="userSpaceOnUse">
<stop stop-color="#673091"/>
<stop offset="1" stop-color="#EC008C"/>
</linearGradient>
<linearGradient id="paint84_linear_32_192" x1="66.9921" y1="184.66" x2="61.2619" y2="193.848" gradientUnits="userSpaceOnUse">
<stop stop-color="#FF928E"/>
<stop offset="1" stop-color="#FE7062"/>
</linearGradient>
<linearGradient id="paint85_linear_32_192" x1="70.7884" y1="184.66" x2="65.0576" y2="193.848" gradientUnits="userSpaceOnUse">
<stop stop-color="#FF928E"/>
<stop offset="1" stop-color="#FE7062"/>
</linearGradient>
<linearGradient id="paint86_linear_32_192" x1="74.5839" y1="184.66" x2="68.8532" y2="193.848" gradientUnits="userSpaceOnUse">
<stop stop-color="#FF928E"/>
<stop offset="1" stop-color="#FE7062"/>
</linearGradient>
<linearGradient id="paint87_linear_32_192" x1="78.3794" y1="184.66" x2="72.6487" y2="193.848" gradientUnits="userSpaceOnUse">
<stop stop-color="#FF928E"/>
<stop offset="1" stop-color="#FE7062"/>
</linearGradient>
<linearGradient id="paint88_linear_32_192" x1="82.1752" y1="184.66" x2="76.4444" y2="193.848" gradientUnits="userSpaceOnUse">
<stop stop-color="#FF928E"/>
<stop offset="1" stop-color="#FE7062"/>
</linearGradient>
<linearGradient id="paint89_linear_32_192" x1="85.9708" y1="184.66" x2="80.24" y2="193.848" gradientUnits="userSpaceOnUse">
<stop stop-color="#FF928E"/>
<stop offset="1" stop-color="#FE7062"/>
</linearGradient>
<linearGradient id="paint90_linear_32_192" x1="89.7662" y1="184.66" x2="84.0355" y2="193.848" gradientUnits="userSpaceOnUse">
<stop stop-color="#FF928E"/>
<stop offset="1" stop-color="#FE7062"/>
</linearGradient>
<linearGradient id="paint91_linear_32_192" x1="93.5619" y1="184.66" x2="87.8311" y2="193.848" gradientUnits="userSpaceOnUse">
<stop stop-color="#FF928E"/>
<stop offset="1" stop-color="#FE7062"/>
</linearGradient>
<linearGradient id="paint92_linear_32_192" x1="97.3575" y1="184.66" x2="91.6268" y2="193.848" gradientUnits="userSpaceOnUse">
<stop stop-color="#FF928E"/>
<stop offset="1" stop-color="#FE7062"/>
</linearGradient>
<linearGradient id="paint93_linear_32_192" x1="101.153" y1="184.66" x2="95.423" y2="193.848" gradientUnits="userSpaceOnUse">
<stop stop-color="#FF928E"/>
<stop offset="1" stop-color="#FE7062"/>
</linearGradient>
<linearGradient id="paint94_linear_32_192" x1="104.949" y1="184.66" x2="99.2187" y2="193.848" gradientUnits="userSpaceOnUse">
<stop stop-color="#FF928E"/>
<stop offset="1" stop-color="#FE7062"/>
</linearGradient>
<linearGradient id="paint95_linear_32_192" x1="108.745" y1="184.66" x2="103.014" y2="193.848" gradientUnits="userSpaceOnUse">
<stop stop-color="#FF928E"/>
<stop offset="1" stop-color="#FE7062"/>
</linearGradient>
<linearGradient id="paint96_linear_32_192" x1="112.541" y1="184.66" x2="106.81" y2="193.848" gradientUnits="userSpaceOnUse">
<stop stop-color="#FF928E"/>
<stop offset="1" stop-color="#FE7062"/>
</linearGradient>
<linearGradient id="paint97_linear_32_192" x1="62.1772" y1="202.335" x2="109.947" y2="185.542" gradientUnits="userSpaceOnUse">
<stop stop-color="#673091"/>
<stop offset="1" stop-color="#EC008C"/>
</linearGradient>
<linearGradient id="paint98_linear_32_192" x1="66.9921" y1="194.325" x2="61.262" y2="203.513" gradientUnits="userSpaceOnUse">
<stop stop-color="#FF928E"/>
<stop offset="1" stop-color="#FE7062"/>
</linearGradient>
<linearGradient id="paint99_linear_32_192" x1="70.7884" y1="194.325" x2="65.0576" y2="203.513" gradientUnits="userSpaceOnUse">
<stop stop-color="#FF928E"/>
<stop offset="1" stop-color="#FE7062"/>
</linearGradient>
<linearGradient id="paint100_linear_32_192" x1="74.5838" y1="194.325" x2="68.853" y2="203.513" gradientUnits="userSpaceOnUse">
<stop stop-color="#FF928E"/>
<stop offset="1" stop-color="#FE7062"/>
</linearGradient>
<linearGradient id="paint101_linear_32_192" x1="78.3794" y1="194.325" x2="72.6487" y2="203.513" gradientUnits="userSpaceOnUse">
<stop stop-color="#FF928E"/>
<stop offset="1" stop-color="#FE7062"/>
</linearGradient>
<linearGradient id="paint102_linear_32_192" x1="82.1752" y1="194.325" x2="76.4444" y2="203.513" gradientUnits="userSpaceOnUse">
<stop stop-color="#FF928E"/>
<stop offset="1" stop-color="#FE7062"/>
</linearGradient>
<linearGradient id="paint103_linear_32_192" x1="85.9708" y1="194.325" x2="80.2401" y2="203.513" gradientUnits="userSpaceOnUse">
<stop stop-color="#FF928E"/>
<stop offset="1" stop-color="#FE7062"/>
</linearGradient>
<linearGradient id="paint104_linear_32_192" x1="89.7662" y1="194.325" x2="84.0355" y2="203.513" gradientUnits="userSpaceOnUse">
<stop stop-color="#FF928E"/>
<stop offset="1" stop-color="#FE7062"/>
</linearGradient>
<linearGradient id="paint105_linear_32_192" x1="93.5619" y1="194.325" x2="87.8311" y2="203.513" gradientUnits="userSpaceOnUse">
<stop stop-color="#FF928E"/>
<stop offset="1" stop-color="#FE7062"/>
</linearGradient>
<linearGradient id="paint106_linear_32_192" x1="97.3575" y1="194.325" x2="91.6268" y2="203.513" gradientUnits="userSpaceOnUse">
<stop stop-color="#FF928E"/>
<stop offset="1" stop-color="#FE7062"/>
</linearGradient>
<linearGradient id="paint107_linear_32_192" x1="101.153" y1="194.325" x2="95.4231" y2="203.513" gradientUnits="userSpaceOnUse">
<stop stop-color="#FF928E"/>
<stop offset="1" stop-color="#FE7062"/>
</linearGradient>
<linearGradient id="paint108_linear_32_192" x1="104.949" y1="194.325" x2="99.2188" y2="203.513" gradientUnits="userSpaceOnUse">
<stop stop-color="#FF928E"/>
<stop offset="1" stop-color="#FE7062"/>
</linearGradient>
<linearGradient id="paint109_linear_32_192" x1="108.745" y1="194.325" x2="103.014" y2="203.513" gradientUnits="userSpaceOnUse">
<stop stop-color="#FF928E"/>
<stop offset="1" stop-color="#FE7062"/>
</linearGradient>
<linearGradient id="paint110_linear_32_192" x1="112.541" y1="194.325" x2="106.81" y2="203.513" gradientUnits="userSpaceOnUse">
<stop stop-color="#FF928E"/>
<stop offset="1" stop-color="#FE7062"/>
</linearGradient>
<linearGradient id="paint111_linear_32_192" x1="62.1772" y1="212" x2="109.947" y2="195.206" gradientUnits="userSpaceOnUse">
<stop stop-color="#673091"/>
<stop offset="1" stop-color="#EC008C"/>
</linearGradient>
<linearGradient id="paint112_linear_32_192" x1="66.9921" y1="203.989" x2="61.262" y2="213.177" gradientUnits="userSpaceOnUse">
<stop stop-color="#FF928E"/>
<stop offset="1" stop-color="#FE7062"/>
</linearGradient>
<linearGradient id="paint113_linear_32_192" x1="70.7884" y1="203.989" x2="65.0576" y2="213.177" gradientUnits="userSpaceOnUse">
<stop stop-color="#FF928E"/>
<stop offset="1" stop-color="#FE7062"/>
</linearGradient>
<linearGradient id="paint114_linear_32_192" x1="74.5838" y1="203.989" x2="68.853" y2="213.177" gradientUnits="userSpaceOnUse">
<stop stop-color="#FF928E"/>
<stop offset="1" stop-color="#FE7062"/>
</linearGradient>
<linearGradient id="paint115_linear_32_192" x1="78.3794" y1="203.989" x2="72.6487" y2="213.177" gradientUnits="userSpaceOnUse">
<stop stop-color="#FF928E"/>
<stop offset="1" stop-color="#FE7062"/>
</linearGradient>
<linearGradient id="paint116_linear_32_192" x1="82.1752" y1="203.989" x2="76.4444" y2="213.177" gradientUnits="userSpaceOnUse">
<stop stop-color="#FF928E"/>
<stop offset="1" stop-color="#FE7062"/>
</linearGradient>
<linearGradient id="paint117_linear_32_192" x1="85.9708" y1="203.989" x2="80.2401" y2="213.177" gradientUnits="userSpaceOnUse">
<stop stop-color="#FF928E"/>
<stop offset="1" stop-color="#FE7062"/>
</linearGradient>
<linearGradient id="paint118_linear_32_192" x1="89.7662" y1="203.989" x2="84.0355" y2="213.177" gradientUnits="userSpaceOnUse">
<stop stop-color="#FF928E"/>
<stop offset="1" stop-color="#FE7062"/>
</linearGradient>
<linearGradient id="paint119_linear_32_192" x1="93.5619" y1="203.989" x2="87.8311" y2="213.177" gradientUnits="userSpaceOnUse">
<stop stop-color="#FF928E"/>
<stop offset="1" stop-color="#FE7062"/>
</linearGradient>
<linearGradient id="paint120_linear_32_192" x1="97.3575" y1="203.989" x2="91.6274" y2="213.177" gradientUnits="userSpaceOnUse">
<stop stop-color="#FF928E"/>
<stop offset="1" stop-color="#FE7062"/>
</linearGradient>
<linearGradient id="paint121_linear_32_192" x1="101.153" y1="203.989" x2="95.4231" y2="213.177" gradientUnits="userSpaceOnUse">
<stop stop-color="#FF928E"/>
<stop offset="1" stop-color="#FE7062"/>
</linearGradient>
<linearGradient id="paint122_linear_32_192" x1="104.949" y1="203.989" x2="99.2188" y2="213.177" gradientUnits="userSpaceOnUse">
<stop stop-color="#FF928E"/>
<stop offset="1" stop-color="#FE7062"/>
</linearGradient>
<linearGradient id="paint123_linear_32_192" x1="108.745" y1="203.989" x2="103.014" y2="213.177" gradientUnits="userSpaceOnUse">
<stop stop-color="#FF928E"/>
<stop offset="1" stop-color="#FE7062"/>
</linearGradient>
<linearGradient id="paint124_linear_32_192" x1="112.541" y1="203.989" x2="106.81" y2="213.177" gradientUnits="userSpaceOnUse">
<stop stop-color="#FF928E"/>
<stop offset="1" stop-color="#FE7062"/>
</linearGradient>
</defs>
</svg>
