<svg width="300" height="240" viewBox="0 0 300 240" fill="none" xmlns="http://www.w3.org/2000/svg">
<g id="row_8_page2">
<rect id="Rectangle 13" width="300" height="240" rx="18" fill="#E7EDFD"/>
<path id="Vector" d="M135.853 165.112L131.858 201.095H178.205L172.168 165.112H135.853Z" fill="url(#paint0_linear_40_1105)"/>
<path id="Vector_2" d="M58 92.1382V174.548C58 181.328 63.3785 186.871 70.1268 187.047C100.096 187.823 204.915 189.704 233.444 189.283C238.348 189.21 242.32 185.269 242.461 180.346C243.011 161.201 243.905 115.164 240.598 93.7898C239.902 89.2886 236.119 85.923 231.586 85.7777C206.475 84.9711 95.3605 82.4087 66.8445 83.0521C61.9269 83.1629 58 87.1978 58 92.1382Z" fill="url(#paint1_linear_40_1105)"/>
<path id="Vector_3" d="M63.1487 91.7369V170.033C63.1487 173.991 66.3121 177.216 70.2529 177.275L229.34 179.249C233.246 179.308 236.449 176.151 236.463 172.227L236.729 94.6309C236.74 91.8251 234.514 89.5261 231.721 89.4578L68.8455 86.1532C65.7217 86.0769 63.1487 88.5995 63.1487 91.7376V91.7369Z" fill="#91B3FA"/>
<path id="Vector_4" d="M237.661 182.492H237.657L63.1441 179.506C63.0035 179.503 62.8912 179.387 62.8938 179.246C62.8965 179.105 63.0121 178.995 63.1527 178.995L237.665 181.981C237.806 181.984 237.918 182.1 237.915 182.241C237.913 182.381 237.799 182.492 237.66 182.492H237.661Z" fill="#91B3FA"/>
<path id="Vector_5" d="M188.187 208.457H120.357C118.515 208.457 117.13 207.14 117.487 205.724L118.357 202.267C118.619 201.228 119.758 200.464 121.111 200.422L186.502 198.372C187.915 198.328 189.166 199.081 189.474 200.162L191.044 205.668C191.451 207.099 190.061 208.457 188.188 208.457H188.187Z" fill="url(#paint2_linear_40_1105)"/>
<path id="Vector_6" d="M156.871 201.392C156.732 201.392 156.619 201.28 156.616 201.14C156.614 200.999 156.726 200.883 156.867 200.881L159.669 200.839H159.673C159.812 200.839 159.925 200.952 159.928 201.092C159.93 201.233 159.818 201.349 159.677 201.351L156.875 201.392H156.871Z" fill="#91B3FA"/>
<path id="Vector_7" d="M119.998 206.585C119.985 206.585 119.971 206.584 119.958 206.582C119.819 206.559 119.724 206.429 119.746 206.289L120.146 203.774C120.363 202.406 121.521 201.399 122.9 201.379L152.621 200.942H152.625C152.764 200.942 152.877 201.054 152.88 201.194C152.882 201.336 152.77 201.452 152.629 201.454L122.908 201.89C121.778 201.907 120.828 202.733 120.65 203.854L120.25 206.369C120.23 206.495 120.122 206.584 119.998 206.584L119.998 206.585Z" fill="#91B3FA"/>
<path id="Vector_8" d="M214.2 99.047C215.834 61.6199 184.551 29.8437 144.327 28.0728C104.104 26.3019 70.1723 55.2069 68.5388 92.6339C66.9053 130.061 98.1885 161.837 138.412 163.608C178.635 165.379 212.567 136.474 214.2 99.047Z" fill="url(#paint3_linear_40_1105)"/>
<path id="Vector_9" opacity="0.2" d="M137.429 145.227C169.022 145.227 194.634 120.927 194.634 90.9508C194.634 60.975 169.022 36.6748 137.429 36.6748C105.836 36.6748 80.2249 60.975 80.2249 90.9508C80.2249 120.927 105.836 145.227 137.429 145.227Z" fill="#91B3FA"/>
<g id="Group" opacity="0.68">
<g id="Vector_10" style="mix-blend-mode:soft-light">
<path d="M159.999 96.173C159.981 108.137 159.165 120.125 157.065 131.919C156.533 134.866 155.917 137.798 155.183 140.702C154.447 143.605 153.597 146.482 152.556 149.296C151.507 152.103 150.288 154.869 148.637 157.397C147.804 158.652 146.86 159.853 145.695 160.842C145.113 161.334 144.473 161.77 143.769 162.089C143.067 162.406 142.3 162.607 141.521 162.621C140.743 162.643 139.965 162.491 139.249 162.201C138.53 161.914 137.875 161.498 137.279 161.023C136.086 160.064 135.12 158.876 134.273 157.631C132.592 155.121 131.357 152.36 130.297 149.558C129.242 146.749 128.384 143.874 127.642 140.972C126.9 138.07 126.278 135.139 125.742 132.194C124.673 126.303 123.943 120.354 123.451 114.389C122.962 108.424 122.717 102.439 122.688 96.4536C122.673 93.4614 122.754 90.4692 122.86 87.479C122.972 84.4888 123.135 81.5006 123.355 78.517C123.795 72.5499 124.454 66.5953 125.432 60.6905C125.923 57.7388 126.496 54.799 127.185 51.8858C127.875 48.9732 128.677 46.0838 129.672 43.2574C130.172 41.8452 130.719 40.4483 131.343 39.0845C131.966 37.7208 132.663 36.3869 133.482 35.1252C134.303 33.8696 135.246 32.671 136.421 31.7112C137.009 31.2356 137.656 30.8217 138.365 30.5418C139.071 30.2579 139.838 30.1139 140.6 30.1431C141.363 30.165 142.115 30.356 142.808 30.6625C143.503 30.9709 144.142 31.3901 144.728 31.8657C145.9 32.8222 146.87 33.9923 147.731 35.2208C149.442 37.6949 150.732 40.4231 151.849 43.1991C152.958 45.9823 153.874 48.8385 154.672 51.7233C155.467 54.61 156.14 57.5285 156.722 60.4644C159.028 72.2182 159.964 84.2075 159.999 96.1737V96.173ZM159.117 96.173C159.128 90.2118 158.902 84.2487 158.409 78.3081C157.923 72.3675 157.186 66.4441 156.088 60.5864C155.54 57.6579 154.902 54.746 154.143 51.8665C153.38 48.9884 152.501 46.1395 151.43 43.3642C150.351 40.5969 149.1 37.878 147.439 35.4217C146.604 34.2019 145.663 33.0438 144.534 32.1019C143.969 31.6336 143.357 31.2223 142.693 30.9192C142.031 30.62 141.317 30.4237 140.591 30.4045C139.866 30.3812 139.142 30.5278 138.471 30.8051C137.797 31.0797 137.179 31.4837 136.616 31.95C135.488 32.8905 134.575 34.0739 133.78 35.3189C132.988 36.5686 132.313 37.8946 131.711 39.251C131.108 40.6082 130.581 41.9998 130.1 43.4067C129.142 46.2237 128.376 49.1052 127.72 52.0098C127.066 54.9158 126.529 57.8483 126.072 60.7934C125.161 66.6842 124.57 72.6242 124.195 78.5741C123.817 84.5253 123.687 90.4898 123.698 96.4516C123.682 102.413 123.88 108.375 124.321 114.32C124.765 120.264 125.446 126.192 126.466 132.063C126.977 134.998 127.574 137.918 128.288 140.807C129.004 143.696 129.835 146.557 130.857 149.347C131.886 152.129 133.087 154.867 134.712 157.332C135.53 158.555 136.46 159.714 137.588 160.633C138.151 161.09 138.765 161.484 139.427 161.754C140.088 162.025 140.797 162.176 141.507 162.152C142.217 162.133 142.917 161.945 143.567 161.646C144.218 161.345 144.818 160.93 145.369 160.457C146.472 159.506 147.382 158.332 148.186 157.099C149.782 154.615 150.967 151.871 151.983 149.084C152.992 146.289 153.813 143.425 154.522 140.535C155.228 137.643 155.818 134.722 156.323 131.786C157.336 125.915 158.008 119.985 158.455 114.041C158.908 108.097 159.118 102.133 159.115 96.1703L159.117 96.173Z" fill="white"/>
</g>
<g id="Vector_11" style="mix-blend-mode:soft-light">
<path d="M190.049 96.173C190.008 103.877 189.022 111.585 186.968 119.015C184.878 126.427 181.729 133.559 177.453 139.961C175.315 143.159 172.892 146.169 170.186 148.9C167.48 151.63 164.488 154.079 161.24 156.133C157.988 158.179 154.477 159.816 150.802 160.927C147.128 162.04 143.293 162.621 139.455 162.625C135.616 162.625 131.781 162.047 128.105 160.937C124.427 159.829 120.913 158.195 117.658 156.151C114.407 154.1 111.41 151.652 108.7 148.923C105.989 146.193 103.561 143.184 101.418 139.986C97.1331 133.583 93.9769 126.448 91.8781 119.032C90.8452 115.317 90.0771 111.529 89.5686 107.707C89.0627 103.884 88.8084 100.029 88.7913 96.173C88.8111 92.3165 89.068 88.462 89.5758 84.6401C90.087 80.8187 90.8577 77.0312 91.8933 73.318C93.9974 65.9049 97.1589 58.7756 101.446 52.3786C103.59 49.1841 106.018 46.178 108.729 43.4518C111.439 40.7269 114.434 38.2813 117.684 36.237C120.938 34.1993 124.451 32.5762 128.122 31.4691C131.791 30.3574 135.621 29.777 139.455 29.7737C143.288 29.781 147.117 30.364 150.784 31.4784C154.454 32.5888 157.964 34.2145 161.215 36.2549C164.462 38.3019 167.452 40.7495 170.158 43.4757C172.865 46.2032 175.288 49.2093 177.427 52.4045C181.706 58.8001 184.86 65.9267 186.955 73.3359C189.013 80.763 190.004 88.4693 190.05 96.1737L190.049 96.173ZM189.038 96.173C189.027 88.5562 188.083 80.9308 186.082 73.578C184.069 66.2365 181.04 59.149 176.869 52.7753C174.784 49.5914 172.417 46.5906 169.766 43.8631C167.114 41.1395 164.183 38.6753 160.979 36.6277C157.771 34.5913 154.307 32.9516 150.674 31.8432C147.043 30.7335 143.253 30.1504 139.455 30.1378C135.657 30.1538 131.867 30.7401 128.238 31.8525C124.607 32.9642 121.146 34.6066 117.941 36.6456C114.741 38.6959 111.815 41.1621 109.167 43.8869C106.52 46.6158 104.157 49.6173 102.078 52.8012C97.9157 59.1742 94.8923 66.2584 92.8899 73.5959C91.8926 77.2687 91.1701 81.0144 90.6807 84.7873C90.19 88.5609 89.9483 92.3663 89.9397 96.173C89.9503 99.9798 90.1953 103.785 90.688 107.558C91.18 111.33 91.9052 115.075 92.9051 118.746C94.9128 126.081 97.9408 133.161 102.106 139.527C104.186 142.708 106.549 145.706 109.195 148.431C111.844 151.151 114.767 153.616 117.967 155.659C121.171 157.693 124.631 159.323 128.256 160.435C131.878 161.548 135.662 162.137 139.455 162.157C143.248 162.141 147.032 161.556 150.656 160.445C154.283 159.337 157.746 157.709 160.953 155.678C164.157 153.636 167.084 151.175 169.737 148.455C172.388 145.731 174.755 142.733 176.841 139.553C181.015 133.186 184.05 126.103 186.066 118.765C188.072 111.415 189.022 103.791 189.038 96.1744V96.173Z" fill="white"/>
</g>
<g id="Vector_12" style="mix-blend-mode:soft-light">
<path d="M80.4149 69.8775L95.6087 69.7541L110.803 69.6844L141.191 69.6281L171.579 69.6897L186.773 69.766L201.967 69.8993C201.991 69.8993 202.011 69.9199 202.011 69.9444C202.011 69.969 201.991 69.9889 201.967 69.9889L186.773 70.1222L171.579 70.1985L141.191 70.2608L110.803 70.2045L95.6087 70.1348L80.4149 70.0114C80.3779 70.0114 80.3489 69.9809 80.3489 69.9444C80.3489 69.908 80.3786 69.8788 80.4149 69.8781V69.8775Z" fill="white"/>
</g>
<g id="Vector_13" style="mix-blend-mode:soft-light">
<path d="M98.042 44.3181C101.638 44.2611 105.233 44.2365 108.829 44.1948L119.617 44.1251C123.213 44.0953 126.808 44.0986 130.404 44.0893L141.192 44.0687L162.767 44.1311L173.554 44.2074C177.15 44.2525 180.745 44.279 184.342 44.3407C184.366 44.3407 184.386 44.3612 184.385 44.3865C184.385 44.4103 184.365 44.4302 184.342 44.4302C180.745 44.4913 177.15 44.5178 173.554 44.5636L162.767 44.6398L141.192 44.7022L130.404 44.6816C126.808 44.6723 123.213 44.6757 119.617 44.6458L108.829 44.5762C105.233 44.5344 101.638 44.5098 98.042 44.4528C98.005 44.4528 97.9759 44.4216 97.9766 44.3851C97.9766 44.3493 98.0063 44.3201 98.042 44.3195V44.3181Z" fill="white"/>
</g>
<g id="Vector_14" style="mix-blend-mode:soft-light">
<path d="M75.1349 95.4374L91.6489 95.3147L108.163 95.2444L141.191 95.188L174.219 95.2503L190.733 95.3266L207.247 95.4599C207.272 95.4599 207.291 95.4805 207.291 95.5051C207.291 95.5296 207.272 95.5495 207.247 95.5495L190.733 95.6828L174.219 95.7591L141.191 95.8214L108.163 95.7651L91.6489 95.6948L75.1349 95.572C75.0979 95.572 75.0688 95.5415 75.0688 95.5051C75.0688 95.4686 75.0986 95.4394 75.1349 95.4387V95.4374Z" fill="white"/>
</g>
<g id="Vector_15" style="mix-blend-mode:soft-light">
<path d="M80.4149 120.997L95.6087 120.874L110.803 120.804L141.191 120.748L171.579 120.81L186.773 120.887L201.967 121.02C201.991 121.02 202.011 121.041 202.011 121.065C202.011 121.09 201.991 121.11 201.967 121.11L186.773 121.243L171.579 121.319L141.191 121.382L110.803 121.325L95.6087 121.255L80.4149 121.132C80.3779 121.132 80.3489 121.102 80.3489 121.065C80.3489 121.029 80.3786 120.999 80.4149 120.999V120.997Z" fill="white"/>
</g>
<g id="Vector_16" style="mix-blend-mode:soft-light">
<path d="M186.515 146.858H100.216C100.087 146.858 99.9829 146.753 99.9829 146.624C99.9829 146.494 100.087 146.39 100.216 146.39H186.515C186.644 146.39 186.748 146.494 186.748 146.624C186.748 146.753 186.644 146.858 186.515 146.858Z" fill="white"/>
</g>
</g>
<path id="Vector_17" d="M100.855 69.8237C104.959 69.8237 108.287 66.4816 108.287 62.3588C108.287 58.2361 104.959 54.8939 100.855 54.8939C96.7498 54.8939 93.4221 58.2361 93.4221 62.3588C93.4221 66.4816 96.7498 69.8237 100.855 69.8237Z" fill="#91B3FA"/>
<path id="Vector_18" d="M108.274 61.9589H93.422C93.422 61.9589 92.8303 66.1026 99.4636 77.4511C99.7529 77.946 100.282 78.2425 100.854 78.2425C101.426 78.2425 101.955 77.9519 102.245 77.4564C108.877 66.1065 108.274 61.9589 108.274 61.9589Z" fill="#91B3FA"/>
<path id="Vector_19" opacity="0.8" d="M100.851 78.4846V78.5264H100.853C100.206 78.5264 99.6023 78.1689 99.2773 77.613C95.4 70.9792 93.9787 66.7845 93.4702 64.4377C93.3249 63.8977 93.2417 63.3684 93.2153 62.8258C93.1704 62.2706 93.2047 62.0372 93.2087 62.0119L93.2285 61.8925C93.5277 57.8828 96.8509 54.762 100.854 54.762C104.858 54.762 108.264 57.9266 108.49 61.9688C108.496 62.0219 108.507 62.1559 108.503 62.3801V62.4079C108.503 63.1409 108.4 63.8672 108.196 64.5664C107.67 66.9112 106.24 71.0648 102.429 77.5865C102.102 78.1463 101.52 78.4846 100.851 78.4846ZM93.6247 62.2945C93.6228 62.4066 93.6261 62.5665 93.6459 62.8073C93.6703 63.3207 93.7496 63.8155 93.8876 64.3282L93.8902 64.3368C94.3915 66.6518 95.7975 70.7942 99.6492 77.3835C99.8968 77.808 100.357 78.0707 100.851 78.0714V78.2876L100.85 78.0707C101.296 78.0707 101.806 77.8047 102.056 77.3769C105.843 70.897 107.257 66.7785 107.775 64.4649L107.779 64.4516C107.972 63.7903 108.027 63.1024 108.027 62.4086L107.984 62.3781V62.3754C107.984 62.1592 108.02 62.0425 108.017 62.0119L108.037 61.9993C107.827 58.184 104.672 55.1958 100.843 55.1958C97.0141 55.1958 93.8618 58.2264 93.6445 62.075L93.6386 62.2952H93.6247V62.2945Z" fill="white"/>
<path id="Vector_20" d="M103.913 65.3827C105.589 63.6995 105.589 60.9704 103.913 59.2872C102.237 57.604 99.5198 57.604 97.8439 59.2872C96.1679 60.9704 96.1679 63.6995 97.8439 65.3827C99.5198 67.066 102.237 67.066 103.913 65.3827Z" fill="white"/>
<path id="Vector_21" d="M100.878 66.886C98.38 66.886 96.3472 64.8443 96.3472 62.335C96.3472 59.8257 98.38 57.7841 100.878 57.7841C103.377 57.7841 105.41 59.8257 105.41 62.335C105.41 64.8443 103.377 66.886 100.878 66.886ZM100.878 58.265C98.6441 58.265 96.8266 60.0904 96.8266 62.3344C96.8266 64.5783 98.6441 66.4038 100.878 66.4038C103.113 66.4038 104.93 64.5783 104.93 62.3344C104.93 60.0904 103.113 58.265 100.878 58.265Z" fill="url(#paint4_linear_40_1105)"/>
<path id="Vector_22" d="M96.8075 57.847C96.787 57.847 96.7672 57.8384 96.7527 57.8218C96.7269 57.7913 96.7302 57.7462 96.7606 57.7197C97.9665 56.6796 99.5066 56.1072 101.098 56.1072C101.137 56.1072 101.17 56.1397 101.17 56.1795C101.17 56.2193 101.137 56.2518 101.098 56.2518C99.5403 56.2518 98.0332 56.8123 96.8537 57.8298C96.8398 57.8417 96.8233 57.847 96.8068 57.847H96.8075Z" fill="white"/>
<path id="Vector_23" d="M94.5092 62.869C94.4696 62.869 94.4373 62.8365 94.4373 62.7967C94.4373 61.5483 94.782 60.3305 95.4338 59.2751C95.455 59.2413 95.4992 59.2307 95.5329 59.2519C95.5666 59.2731 95.5772 59.3176 95.556 59.3514C94.918 60.3842 94.5812 61.5755 94.5812 62.7967C94.5812 62.8365 94.5489 62.869 94.5092 62.869Z" fill="white"/>
<g id="point1">
<path id="Vector_24" d="M107.662 32.0617C111.767 32.0617 115.095 28.7196 115.095 24.5969C115.095 20.4741 111.767 17.132 107.662 17.132C103.557 17.132 100.23 20.4741 100.23 24.5969C100.23 28.7196 103.557 32.0617 107.662 32.0617Z" fill="#91B3FA"/>
<path id="Vector_25" d="M115.081 24.1969H100.23C100.23 24.1969 99.6379 28.3406 106.271 39.6892C106.561 40.184 107.09 40.4805 107.661 40.4805C108.233 40.4805 108.763 40.19 109.052 39.6945C115.685 28.3446 115.081 24.1969 115.081 24.1969Z" fill="#91B3FA"/>
<path id="Vector_26" opacity="0.8" d="M107.659 40.7226V40.7644H107.661C107.014 40.7644 106.41 40.4069 106.085 39.851C102.208 33.2173 100.786 29.0225 100.278 26.6757C100.133 26.1358 100.049 25.6065 100.023 25.0639C99.978 24.5087 100.012 24.2752 100.016 24.25L100.036 24.1306C100.335 20.1209 103.659 17 107.662 17C111.666 17 115.071 20.1647 115.298 24.2069C115.304 24.2599 115.314 24.3939 115.31 24.6181V24.646C115.31 25.3789 115.207 26.1053 115.004 26.8044C114.478 29.1492 113.048 33.3028 109.237 39.8245C108.91 40.3843 108.328 40.7226 107.659 40.7226ZM100.432 24.5326C100.43 24.6447 100.434 24.8045 100.453 25.0453C100.478 25.5587 100.557 26.0535 100.695 26.5663L100.698 26.5749C101.199 28.8898 102.605 33.0322 106.457 39.6215C106.704 40.0461 107.165 40.3087 107.659 40.3094V40.5256L107.658 40.3087C108.104 40.3087 108.614 40.0427 108.863 39.6149C112.65 33.135 114.064 29.0165 114.583 26.7029L114.587 26.6896C114.78 26.0283 114.835 25.3405 114.835 24.6466L114.791 24.6161V24.6135C114.791 24.3972 114.828 24.2805 114.824 24.25L114.845 24.2374C114.634 20.422 111.48 17.4338 107.651 17.4338C103.822 17.4338 100.669 20.4645 100.452 24.313L100.446 24.5332H100.432V24.5326Z" fill="white"/>
<path id="Vector_27" d="M110.721 27.6208C112.396 25.9375 112.396 23.2085 110.721 21.5252C109.045 19.842 106.327 19.842 104.651 21.5252C102.976 23.2085 102.976 25.9375 104.651 27.6208C106.327 29.304 109.045 29.304 110.721 27.6208Z" fill="white"/>
<path id="Vector_28" d="M107.686 29.124C105.188 29.124 103.155 27.0824 103.155 24.5731C103.155 22.0638 105.188 20.0221 107.686 20.0221C110.184 20.0221 112.217 22.0638 112.217 24.5731C112.217 27.0824 110.184 29.124 107.686 29.124ZM107.686 20.503C105.452 20.503 103.634 22.3284 103.634 24.5724C103.634 26.8164 105.452 28.6418 107.686 28.6418C109.92 28.6418 111.738 26.8164 111.738 24.5724C111.738 22.3284 109.92 20.503 107.686 20.503Z" fill="url(#paint5_linear_40_1105)"/>
<path id="Vector_29" d="M103.615 20.0851C103.595 20.0851 103.575 20.0765 103.56 20.0599C103.535 20.0294 103.538 19.9843 103.568 19.9577C104.774 18.9177 106.314 18.3452 107.905 18.3452C107.945 18.3452 107.977 18.3777 107.977 18.4175C107.977 18.4573 107.945 18.4898 107.905 18.4898C106.348 18.4898 104.841 19.0503 103.661 20.0678C103.647 20.0798 103.631 20.0851 103.614 20.0851H103.615Z" fill="white"/>
<path id="Vector_30" d="M101.317 25.107C101.277 25.107 101.245 25.0745 101.245 25.0347C101.245 23.7863 101.59 22.5685 102.241 21.5132C102.263 21.4793 102.307 21.4687 102.341 21.49C102.374 21.5112 102.385 21.5556 102.364 21.5895C101.726 22.6222 101.389 23.8135 101.389 25.0347C101.389 25.0745 101.356 25.107 101.317 25.107Z" fill="white"/>
</g>
<g id="point2">
<path id="Vector_31" d="M73.6622 70.0617C77.767 70.0617 81.0947 66.7196 81.0947 62.5969C81.0947 58.4741 77.767 55.132 73.6622 55.132C69.5574 55.132 66.2297 58.4741 66.2297 62.5969C66.2297 66.7196 69.5574 70.0617 73.6622 70.0617Z" fill="#91B3FA"/>
<path id="Vector_32" d="M81.0814 62.1969H66.2296C66.2296 62.1969 65.6379 66.3406 72.2712 77.6892C72.5605 78.184 73.0895 78.4805 73.6614 78.4805C74.2334 78.4805 74.763 78.19 75.0523 77.6945C81.685 66.3446 81.0814 62.1969 81.0814 62.1969Z" fill="#91B3FA"/>
<path id="Vector_33" opacity="0.8" d="M73.6588 78.7226V78.7644H73.6607C73.0135 78.7644 72.4099 78.4069 72.085 77.851C68.2076 71.2173 66.7863 67.0225 66.2778 64.6757C66.1325 64.1358 66.0493 63.6065 66.0229 63.0639C65.978 62.5087 66.0123 62.2752 66.0163 62.25L66.0361 62.1306C66.3353 58.1209 69.6585 55 73.6621 55C77.6656 55 81.0714 58.1647 81.2979 62.2069C81.3039 62.2599 81.3145 62.3939 81.3105 62.6181V62.646C81.3105 63.3789 81.2075 64.1053 81.0041 64.8044C80.4777 67.1492 79.0479 71.3028 75.2365 77.8245C74.9096 78.3843 74.3278 78.7226 73.6588 78.7226ZM66.4324 62.5326C66.4304 62.6447 66.4337 62.8045 66.4535 63.0453C66.4779 63.5587 66.5572 64.0535 66.6952 64.5663L66.6978 64.5749C67.1991 66.8898 68.6052 71.0322 72.4568 77.6215C72.7044 78.0461 73.1648 78.3087 73.6588 78.3094V78.5256L73.6581 78.3087C74.1039 78.3087 74.6137 78.0427 74.8634 77.6149C78.6503 71.135 80.0643 67.0165 80.5827 64.7029L80.5867 64.6896C80.7795 64.0283 80.835 63.3405 80.835 62.6466L80.7914 62.6161V62.6135C80.7914 62.3972 80.8277 62.2805 80.8244 62.25L80.8449 62.2374C80.6342 58.422 77.48 55.4338 73.6508 55.4338C69.8217 55.4338 66.6694 58.4645 66.4522 62.313L66.4462 62.5332H66.4324V62.5326Z" fill="white"/>
<path id="Vector_34" d="M76.7205 65.6208C78.3964 63.9375 78.3964 61.2085 76.7205 59.5252C75.0446 57.842 72.3274 57.842 70.6515 59.5252C68.9755 61.2085 68.9755 63.9375 70.6515 65.6208C72.3274 67.304 75.0446 67.304 76.7205 65.6208Z" fill="white"/>
<path id="Vector_35" d="M73.686 67.124C71.1876 67.124 69.1548 65.0824 69.1548 62.5731C69.1548 60.0638 71.1876 58.0221 73.686 58.0221C76.1844 58.0221 78.2172 60.0638 78.2172 62.5731C78.2172 65.0824 76.1844 67.124 73.686 67.124ZM73.686 58.503C71.4518 58.503 69.6343 60.3284 69.6343 62.5724C69.6343 64.8164 71.4518 66.6418 73.686 66.6418C75.9202 66.6418 77.7377 64.8164 77.7377 62.5724C77.7377 60.3284 75.9202 58.503 73.686 58.503Z" fill="url(#paint6_linear_40_1105)"/>
<path id="Vector_36" d="M69.6151 58.0851C69.5946 58.0851 69.5748 58.0765 69.5603 58.0599C69.5345 58.0294 69.5378 57.9843 69.5682 57.9577C70.7741 56.9177 72.3143 56.3452 73.9052 56.3452C73.9449 56.3452 73.9772 56.3777 73.9772 56.4175C73.9772 56.4573 73.9449 56.4898 73.9052 56.4898C72.3479 56.4898 70.8408 57.0503 69.6613 58.0678C69.6474 58.0798 69.6309 58.0851 69.6144 58.0851H69.6151Z" fill="white"/>
<path id="Vector_37" d="M67.3169 63.107C67.2772 63.107 67.2449 63.0745 67.2449 63.0347C67.2449 61.7863 67.5896 60.5685 68.2415 59.5132C68.2626 59.4793 68.3068 59.4687 68.3405 59.49C68.3742 59.5112 68.3848 59.5556 68.3636 59.5895C67.7257 60.6222 67.3889 61.8135 67.3889 63.0347C67.3889 63.0745 67.3565 63.107 67.3169 63.107Z" fill="white"/>
</g>
<g id="point6">
<path id="Vector_38" d="M186.662 96.0617C190.767 96.0617 194.095 92.7196 194.095 88.5969C194.095 84.4741 190.767 81.132 186.662 81.132C182.557 81.132 179.23 84.4741 179.23 88.5969C179.23 92.7196 182.557 96.0617 186.662 96.0617Z" fill="#91B3FA"/>
<path id="Vector_39" d="M194.081 88.1969H179.23C179.23 88.1969 178.638 92.3406 185.271 103.689C185.561 104.184 186.09 104.481 186.661 104.481C187.233 104.481 187.763 104.19 188.052 103.694C194.685 92.3446 194.081 88.1969 194.081 88.1969Z" fill="#91B3FA"/>
<path id="Vector_40" opacity="0.8" d="M186.659 104.723V104.764H186.661C186.014 104.764 185.41 104.407 185.085 103.851C181.208 97.2173 179.786 93.0225 179.278 90.6757C179.133 90.1358 179.049 89.6065 179.023 89.0639C178.978 88.5087 179.012 88.2752 179.016 88.25L179.036 88.1306C179.335 84.1209 182.659 81 186.662 81C190.666 81 194.071 84.1647 194.298 88.2069C194.304 88.2599 194.314 88.3939 194.31 88.6181V88.646C194.31 89.3789 194.207 90.1053 194.004 90.8044C193.478 93.1492 192.048 97.3028 188.237 103.825C187.91 104.384 187.328 104.723 186.659 104.723ZM179.432 88.5326C179.43 88.6447 179.434 88.8045 179.453 89.0453C179.478 89.5587 179.557 90.0535 179.695 90.5663L179.698 90.5749C180.199 92.8898 181.605 97.0322 185.457 103.622C185.704 104.046 186.165 104.309 186.659 104.309V104.526L186.658 104.309C187.104 104.309 187.614 104.043 187.863 103.615C191.65 97.135 193.064 93.0165 193.583 90.7029L193.587 90.6896C193.78 90.0283 193.835 89.3405 193.835 88.6466L193.791 88.6161V88.6135C193.791 88.3972 193.828 88.2805 193.824 88.25L193.845 88.2374C193.634 84.422 190.48 81.4338 186.651 81.4338C182.822 81.4338 179.669 84.4645 179.452 88.313L179.446 88.5332H179.432V88.5326Z" fill="white"/>
<path id="Vector_41" d="M189.721 91.6208C191.396 89.9375 191.396 87.2085 189.721 85.5252C188.045 83.842 185.327 83.842 183.651 85.5252C181.976 87.2085 181.976 89.9375 183.651 91.6208C185.327 93.304 188.045 93.304 189.721 91.6208Z" fill="white"/>
<path id="Vector_42" d="M186.686 93.124C184.188 93.124 182.155 91.0824 182.155 88.5731C182.155 86.0638 184.188 84.0221 186.686 84.0221C189.184 84.0221 191.217 86.0638 191.217 88.5731C191.217 91.0824 189.184 93.124 186.686 93.124ZM186.686 84.503C184.452 84.503 182.634 86.3284 182.634 88.5724C182.634 90.8164 184.452 92.6418 186.686 92.6418C188.92 92.6418 190.738 90.8164 190.738 88.5724C190.738 86.3284 188.92 84.503 186.686 84.503Z" fill="url(#paint7_linear_40_1105)"/>
<path id="Vector_43" d="M182.615 84.0851C182.595 84.0851 182.575 84.0765 182.56 84.0599C182.535 84.0294 182.538 83.9843 182.568 83.9577C183.774 82.9177 185.314 82.3452 186.905 82.3452C186.945 82.3452 186.977 82.3777 186.977 82.4175C186.977 82.4573 186.945 82.4898 186.905 82.4898C185.348 82.4898 183.841 83.0503 182.661 84.0678C182.647 84.0798 182.631 84.0851 182.614 84.0851H182.615Z" fill="white"/>
<path id="Vector_44" d="M180.317 89.107C180.277 89.107 180.245 89.0745 180.245 89.0347C180.245 87.7863 180.59 86.5685 181.241 85.5132C181.263 85.4793 181.307 85.4687 181.341 85.49C181.374 85.5112 181.385 85.5556 181.364 85.5895C180.726 86.6222 180.389 87.8135 180.389 89.0347C180.389 89.0745 180.356 89.107 180.317 89.107Z" fill="white"/>
</g>
<g id="point5">
<path id="Vector_45" d="M197.662 52.0617C201.767 52.0617 205.095 48.7196 205.095 44.5969C205.095 40.4741 201.767 37.132 197.662 37.132C193.557 37.132 190.23 40.4741 190.23 44.5969C190.23 48.7196 193.557 52.0617 197.662 52.0617Z" fill="#91B3FA"/>
<path id="Vector_46" d="M205.081 44.1969H190.23C190.23 44.1969 189.638 48.3406 196.271 59.6892C196.561 60.184 197.09 60.4805 197.661 60.4805C198.233 60.4805 198.763 60.19 199.052 59.6945C205.685 48.3446 205.081 44.1969 205.081 44.1969Z" fill="#91B3FA"/>
<path id="Vector_47" opacity="0.8" d="M197.659 60.7226V60.7644H197.661C197.014 60.7644 196.41 60.4069 196.085 59.851C192.208 53.2173 190.786 49.0225 190.278 46.6757C190.133 46.1358 190.049 45.6065 190.023 45.0639C189.978 44.5087 190.012 44.2752 190.016 44.25L190.036 44.1306C190.335 40.1209 193.659 37 197.662 37C201.666 37 205.071 40.1647 205.298 44.2069C205.304 44.2599 205.314 44.3939 205.31 44.6181V44.646C205.31 45.3789 205.207 46.1053 205.004 46.8044C204.478 49.1492 203.048 53.3028 199.237 59.8245C198.91 60.3843 198.328 60.7226 197.659 60.7226ZM190.432 44.5326C190.43 44.6447 190.434 44.8045 190.453 45.0453C190.478 45.5587 190.557 46.0535 190.695 46.5663L190.698 46.5749C191.199 48.8898 192.605 53.0322 196.457 59.6215C196.704 60.0461 197.165 60.3087 197.659 60.3094V60.5256L197.658 60.3087C198.104 60.3087 198.614 60.0427 198.863 59.6149C202.65 53.135 204.064 49.0165 204.583 46.7029L204.587 46.6896C204.78 46.0283 204.835 45.3405 204.835 44.6466L204.791 44.6161V44.6135C204.791 44.3972 204.828 44.2805 204.824 44.25L204.845 44.2374C204.634 40.422 201.48 37.4338 197.651 37.4338C193.822 37.4338 190.669 40.4645 190.452 44.313L190.446 44.5332H190.432V44.5326Z" fill="white"/>
<path id="Vector_48" d="M200.721 47.6208C202.396 45.9375 202.396 43.2085 200.721 41.5252C199.045 39.842 196.327 39.842 194.651 41.5252C192.976 43.2085 192.976 45.9375 194.651 47.6208C196.327 49.304 199.045 49.304 200.721 47.6208Z" fill="white"/>
<path id="Vector_49" d="M197.686 49.124C195.188 49.124 193.155 47.0824 193.155 44.5731C193.155 42.0638 195.188 40.0221 197.686 40.0221C200.184 40.0221 202.217 42.0638 202.217 44.5731C202.217 47.0824 200.184 49.124 197.686 49.124ZM197.686 40.503C195.452 40.503 193.634 42.3284 193.634 44.5724C193.634 46.8164 195.452 48.6418 197.686 48.6418C199.92 48.6418 201.738 46.8164 201.738 44.5724C201.738 42.3284 199.92 40.503 197.686 40.503Z" fill="url(#paint8_linear_40_1105)"/>
<path id="Vector_50" d="M193.615 40.0851C193.595 40.0851 193.575 40.0765 193.56 40.0599C193.535 40.0294 193.538 39.9843 193.568 39.9577C194.774 38.9177 196.314 38.3452 197.905 38.3452C197.945 38.3452 197.977 38.3777 197.977 38.4175C197.977 38.4573 197.945 38.4898 197.905 38.4898C196.348 38.4898 194.841 39.0503 193.661 40.0678C193.647 40.0798 193.631 40.0851 193.614 40.0851H193.615Z" fill="white"/>
<path id="Vector_51" d="M191.317 45.107C191.277 45.107 191.245 45.0745 191.245 45.0347C191.245 43.7863 191.59 42.5685 192.241 41.5132C192.263 41.4793 192.307 41.4687 192.341 41.49C192.374 41.5112 192.385 41.5556 192.364 41.5895C191.726 42.6222 191.389 43.8135 191.389 45.0347C191.389 45.0745 191.356 45.107 191.317 45.107Z" fill="white"/>
</g>
<g id="point3">
<path id="Vector_52" d="M136.662 45.0617C140.767 45.0617 144.095 41.7196 144.095 37.5969C144.095 33.4741 140.767 30.132 136.662 30.132C132.557 30.132 129.23 33.4741 129.23 37.5969C129.23 41.7196 132.557 45.0617 136.662 45.0617Z" fill="#91B3FA"/>
<path id="Vector_53" d="M144.081 37.1969H129.23C129.23 37.1969 128.638 41.3406 135.271 52.6892C135.561 53.184 136.09 53.4805 136.661 53.4805C137.233 53.4805 137.763 53.19 138.052 52.6945C144.685 41.3446 144.081 37.1969 144.081 37.1969Z" fill="#91B3FA"/>
<path id="Vector_54" opacity="0.8" d="M136.659 53.7226V53.7644H136.661C136.014 53.7644 135.41 53.4069 135.085 52.851C131.208 46.2173 129.786 42.0225 129.278 39.6757C129.133 39.1358 129.049 38.6065 129.023 38.0639C128.978 37.5087 129.012 37.2752 129.016 37.25L129.036 37.1306C129.335 33.1209 132.659 30 136.662 30C140.666 30 144.071 33.1647 144.298 37.2069C144.304 37.2599 144.314 37.3939 144.31 37.6181V37.646C144.31 38.3789 144.207 39.1053 144.004 39.8044C143.478 42.1492 142.048 46.3028 138.237 52.8245C137.91 53.3843 137.328 53.7226 136.659 53.7226ZM129.432 37.5326C129.43 37.6447 129.434 37.8045 129.453 38.0453C129.478 38.5587 129.557 39.0535 129.695 39.5663L129.698 39.5749C130.199 41.8898 131.605 46.0322 135.457 52.6215C135.704 53.0461 136.165 53.3087 136.659 53.3094V53.5256L136.658 53.3087C137.104 53.3087 137.614 53.0427 137.863 52.6149C141.65 46.135 143.064 42.0165 143.583 39.7029L143.587 39.6896C143.78 39.0283 143.835 38.3405 143.835 37.6466L143.791 37.6161V37.6135C143.791 37.3972 143.828 37.2805 143.824 37.25L143.845 37.2374C143.634 33.422 140.48 30.4338 136.651 30.4338C132.822 30.4338 129.669 33.4645 129.452 37.313L129.446 37.5332H129.432V37.5326Z" fill="white"/>
<path id="Vector_55" d="M139.721 40.6208C141.396 38.9375 141.396 36.2085 139.721 34.5252C138.045 32.842 135.327 32.842 133.651 34.5252C131.976 36.2085 131.976 38.9375 133.651 40.6208C135.327 42.304 138.045 42.304 139.721 40.6208Z" fill="white"/>
<path id="Vector_56" d="M136.686 42.124C134.188 42.124 132.155 40.0824 132.155 37.5731C132.155 35.0638 134.188 33.0221 136.686 33.0221C139.184 33.0221 141.217 35.0638 141.217 37.5731C141.217 40.0824 139.184 42.124 136.686 42.124ZM136.686 33.503C134.452 33.503 132.634 35.3284 132.634 37.5724C132.634 39.8164 134.452 41.6418 136.686 41.6418C138.92 41.6418 140.738 39.8164 140.738 37.5724C140.738 35.3284 138.92 33.503 136.686 33.503Z" fill="url(#paint9_linear_40_1105)"/>
<path id="Vector_57" d="M132.615 33.0851C132.595 33.0851 132.575 33.0765 132.56 33.0599C132.535 33.0294 132.538 32.9843 132.568 32.9577C133.774 31.9177 135.314 31.3452 136.905 31.3452C136.945 31.3452 136.977 31.3777 136.977 31.4175C136.977 31.4573 136.945 31.4898 136.905 31.4898C135.348 31.4898 133.841 32.0503 132.661 33.0678C132.647 33.0798 132.631 33.0851 132.614 33.0851H132.615Z" fill="white"/>
<path id="Vector_58" d="M130.317 38.107C130.277 38.107 130.245 38.0745 130.245 38.0347C130.245 36.7863 130.59 35.5685 131.241 34.5132C131.263 34.4793 131.307 34.4687 131.341 34.49C131.374 34.5112 131.385 34.5556 131.364 34.5895C130.726 35.6222 130.389 36.8135 130.389 38.0347C130.389 38.0745 130.356 38.107 130.317 38.107Z" fill="white"/>
</g>
<g id="point4">
<path id="Vector_59" d="M160.662 22.0617C164.767 22.0617 168.095 18.7196 168.095 14.5969C168.095 10.4741 164.767 7.13196 160.662 7.13196C156.557 7.13196 153.23 10.4741 153.23 14.5969C153.23 18.7196 156.557 22.0617 160.662 22.0617Z" fill="#91B3FA"/>
<path id="Vector_60" d="M168.081 14.1969H153.23C153.23 14.1969 152.638 18.3406 159.271 29.6892C159.561 30.184 160.09 30.4805 160.661 30.4805C161.233 30.4805 161.763 30.19 162.052 29.6945C168.685 18.3446 168.081 14.1969 168.081 14.1969Z" fill="#91B3FA"/>
<path id="Vector_61" opacity="0.8" d="M160.659 30.7226V30.7644H160.661C160.014 30.7644 159.41 30.4069 159.085 29.851C155.208 23.2173 153.786 19.0225 153.278 16.6757C153.133 16.1358 153.049 15.6065 153.023 15.0639C152.978 14.5087 153.012 14.2752 153.016 14.25L153.036 14.1306C153.335 10.1209 156.659 7 160.662 7C164.666 7 168.071 10.1647 168.298 14.2069C168.304 14.2599 168.314 14.3939 168.31 14.6181V14.646C168.31 15.3789 168.207 16.1053 168.004 16.8044C167.478 19.1492 166.048 23.3028 162.237 29.8245C161.91 30.3843 161.328 30.7226 160.659 30.7226ZM153.432 14.5326C153.43 14.6447 153.434 14.8045 153.453 15.0453C153.478 15.5587 153.557 16.0535 153.695 16.5663L153.698 16.5749C154.199 18.8898 155.605 23.0322 159.457 29.6215C159.704 30.0461 160.165 30.3087 160.659 30.3094V30.5256L160.658 30.3087C161.104 30.3087 161.614 30.0427 161.863 29.6149C165.65 23.135 167.064 19.0165 167.583 16.7029L167.587 16.6896C167.78 16.0283 167.835 15.3405 167.835 14.6466L167.791 14.6161V14.6135C167.791 14.3972 167.828 14.2805 167.824 14.25L167.845 14.2374C167.634 10.422 164.48 7.43381 160.651 7.43381C156.822 7.43381 153.669 10.4645 153.452 14.313L153.446 14.5332H153.432V14.5326Z" fill="white"/>
<path id="Vector_62" d="M163.721 17.6208C165.396 15.9375 165.396 13.2085 163.721 11.5252C162.045 9.842 159.327 9.842 157.651 11.5252C155.976 13.2085 155.976 15.9375 157.651 17.6208C159.327 19.304 162.045 19.304 163.721 17.6208Z" fill="white"/>
<path id="Vector_63" d="M160.686 19.124C158.188 19.124 156.155 17.0824 156.155 14.5731C156.155 12.0638 158.188 10.0221 160.686 10.0221C163.184 10.0221 165.217 12.0638 165.217 14.5731C165.217 17.0824 163.184 19.124 160.686 19.124ZM160.686 10.503C158.452 10.503 156.634 12.3284 156.634 14.5724C156.634 16.8164 158.452 18.6418 160.686 18.6418C162.92 18.6418 164.738 16.8164 164.738 14.5724C164.738 12.3284 162.92 10.503 160.686 10.503Z" fill="url(#paint10_linear_40_1105)"/>
<path id="Vector_64" d="M156.615 10.0851C156.595 10.0851 156.575 10.0765 156.56 10.0599C156.535 10.0294 156.538 9.98425 156.568 9.95772C157.774 8.91765 159.314 8.34521 160.905 8.34521C160.945 8.34521 160.977 8.37772 160.977 8.41752C160.977 8.45731 160.945 8.48982 160.905 8.48982C159.348 8.48982 157.841 9.05031 156.661 10.0678C156.647 10.0798 156.631 10.0851 156.614 10.0851H156.615Z" fill="white"/>
<path id="Vector_65" d="M154.317 15.107C154.277 15.107 154.245 15.0745 154.245 15.0347C154.245 13.7863 154.59 12.5685 155.241 11.5132C155.263 11.4793 155.307 11.4687 155.341 11.49C155.374 11.5112 155.385 11.5556 155.364 11.5895C154.726 12.6222 154.389 13.8135 154.389 15.0347C154.389 15.0745 154.356 15.107 154.317 15.107Z" fill="white"/>
</g>
<path id="Vector_66" d="M175.54 44.7884C179.645 44.7884 182.972 41.4463 182.972 37.3235C182.972 33.2008 179.645 29.8586 175.54 29.8586C171.435 29.8586 168.107 33.2008 168.107 37.3235C168.107 41.4463 171.435 44.7884 175.54 44.7884Z" fill="#91B3FA"/>
<path id="Vector_67" d="M182.959 36.9229H168.107C168.107 36.9229 167.516 41.0665 174.149 52.4151C174.438 52.91 174.967 53.2065 175.539 53.2065C176.111 53.2065 176.641 52.9159 176.93 52.4204C183.563 41.0705 182.959 36.9229 182.959 36.9229Z" fill="#91B3FA"/>
<path id="Vector_68" opacity="0.8" d="M175.536 53.4486V53.4904H175.538C174.891 53.4904 174.288 53.1328 173.963 52.577C170.085 45.9432 168.664 41.7485 168.155 39.4017C168.01 38.8617 167.927 38.3324 167.901 37.7898C167.856 37.2346 167.89 37.0011 167.894 36.9759L167.914 36.8565C168.213 32.8468 171.536 29.726 175.54 29.726C179.543 29.726 182.949 32.8906 183.176 36.9328C183.182 36.9859 183.192 37.1199 183.188 37.3441V37.3719C183.188 38.1049 183.085 38.8312 182.882 39.5303C182.355 41.8751 180.926 46.0288 177.114 52.5505C176.787 53.1103 176.205 53.4486 175.536 53.4486ZM168.31 37.2585C168.308 37.3706 168.311 37.5305 168.331 37.7712C168.356 38.2846 168.435 38.7795 168.573 39.2922L168.576 39.3008C169.077 41.6158 170.483 45.7582 174.334 52.3475C174.582 52.772 175.042 53.0347 175.536 53.0353V53.2516L175.536 53.0347C175.982 53.0347 176.491 52.7687 176.741 52.3409C180.528 45.861 181.942 41.7425 182.46 39.4289L182.464 39.4156C182.657 38.7543 182.713 38.0664 182.713 37.3726L182.669 37.3421V37.3394C182.669 37.1232 182.705 37.0064 182.702 36.9759L182.723 36.9633C182.512 33.148 179.358 30.1598 175.529 30.1598C171.699 30.1598 168.547 33.1904 168.33 37.0389L168.324 37.2592H168.31V37.2585Z" fill="white"/>
<path id="Vector_69" d="M176.81 41.4342C179.078 40.7446 180.361 38.3385 179.674 36.0602C178.988 33.7818 176.592 32.4938 174.324 33.1835C172.055 33.8731 170.773 36.2791 171.459 38.5575C172.146 40.8359 174.542 42.1238 176.81 41.4342Z" fill="white"/>
<path id="Vector_70" d="M175.564 41.8506C173.066 41.8506 171.033 39.8089 171.033 37.2996C171.033 34.7903 173.066 32.7487 175.564 32.7487C178.063 32.7487 180.095 34.7903 180.095 37.2996C180.095 39.8089 178.063 41.8506 175.564 41.8506ZM175.564 33.2296C173.33 33.2296 171.512 35.055 171.512 37.299C171.512 39.5429 173.33 41.3684 175.564 41.3684C177.798 41.3684 179.616 39.5429 179.616 37.299C179.616 35.055 177.798 33.2296 175.564 33.2296Z" fill="url(#paint11_linear_40_1105)"/>
<path id="Vector_71" d="M171.493 32.811C171.472 32.811 171.452 32.8024 171.438 32.7858C171.412 32.7553 171.415 32.7102 171.446 32.6837C172.652 31.6436 174.192 31.0712 175.783 31.0712C175.823 31.0712 175.855 31.1037 175.855 31.1435C175.855 31.1833 175.823 31.2158 175.783 31.2158C174.226 31.2158 172.719 31.7763 171.539 32.7938C171.525 32.8057 171.509 32.811 171.492 32.811H171.493Z" fill="white"/>
<path id="Vector_72" d="M169.195 37.8337C169.155 37.8337 169.123 37.8012 169.123 37.7614C169.123 36.513 169.467 35.2952 170.119 34.2399C170.14 34.206 170.185 34.1954 170.218 34.2166C170.252 34.2379 170.262 34.2823 170.241 34.3161C169.603 35.3489 169.267 36.5402 169.267 37.7614C169.267 37.8012 169.234 37.8337 169.195 37.8337Z" fill="white"/>
<path id="Vector_73" d="M205.314 84.8199C209.419 84.8199 212.746 81.4778 212.746 77.355C212.746 73.2323 209.419 69.8901 205.314 69.8901C201.209 69.8901 197.881 73.2323 197.881 77.355C197.881 81.4778 201.209 84.8199 205.314 84.8199Z" fill="#91B3FA"/>
<path id="Vector_74" d="M212.733 76.955H197.881C197.881 76.955 197.289 81.0987 203.922 92.4472C204.212 92.9427 204.741 93.2386 205.313 93.2386C205.885 93.2386 206.414 92.948 206.704 92.4525C213.336 81.1026 212.733 76.955 212.733 76.955Z" fill="#91B3FA"/>
<path id="Vector_75" opacity="0.8" d="M205.311 93.4807V93.5225H205.313C204.665 93.5225 204.062 93.165 203.737 92.6091C199.859 85.9753 198.438 81.7806 197.93 79.4338C197.784 78.8938 197.701 78.3645 197.675 77.8219C197.63 77.2667 197.664 77.0332 197.668 77.008L197.688 76.8886C197.987 72.8789 201.31 69.7581 205.314 69.7581C209.317 69.7581 212.723 72.9227 212.95 76.9649C212.956 77.018 212.966 77.152 212.962 77.3762V77.404C212.962 78.137 212.859 78.8633 212.656 79.5624C212.13 81.9072 210.7 86.0609 206.888 92.5826C206.561 93.1424 205.98 93.4807 205.311 93.4807ZM198.084 77.2906C198.082 77.4027 198.086 77.5626 198.105 77.8033C198.13 78.3168 198.209 78.8116 198.347 79.3243L198.35 79.3329C198.851 81.6479 200.257 85.7903 204.109 92.3796C204.356 92.8041 204.817 93.0668 205.311 93.0674V93.2837L205.31 93.0668C205.756 93.0668 206.266 92.8008 206.515 92.373C210.302 85.8931 211.716 81.7746 212.235 79.461L212.239 79.4477C212.431 78.7864 212.487 78.0985 212.487 77.4047L212.443 77.3742V77.3715C212.443 77.1553 212.48 77.0386 212.476 77.008L212.497 76.9954C212.286 73.1801 209.132 70.1919 205.303 70.1919C201.474 70.1919 198.321 73.2225 198.104 77.0711L198.098 77.2913H198.084V77.2906Z" fill="white"/>
<path id="Vector_76" d="M206.581 81.4701C208.849 80.7805 210.131 78.3744 209.445 76.0961C208.758 73.8177 206.363 72.5297 204.094 73.2194C201.826 73.909 200.543 76.315 201.23 78.5934C201.917 80.8718 204.312 82.1597 206.581 81.4701Z" fill="white"/>
<path id="Vector_77" d="M205.338 81.8821C202.839 81.8821 200.807 79.8404 200.807 77.3311C200.807 74.8218 202.839 72.7802 205.338 72.7802C207.836 72.7802 209.869 74.8218 209.869 77.3311C209.869 79.8404 207.836 81.8821 205.338 81.8821ZM205.338 73.2611C203.103 73.2611 201.286 75.0865 201.286 77.3305C201.286 79.5744 203.103 81.3999 205.338 81.3999C207.572 81.3999 209.389 79.5744 209.389 77.3305C209.389 75.0865 207.572 73.2611 205.338 73.2611Z" fill="url(#paint12_linear_40_1105)"/>
<path id="Vector_78" d="M201.267 72.8431C201.246 72.8431 201.227 72.8345 201.212 72.8179C201.186 72.7874 201.19 72.7423 201.22 72.7158C202.426 71.6757 203.966 71.1033 205.557 71.1033C205.597 71.1033 205.629 71.1358 205.629 71.1756C205.629 71.2154 205.597 71.2479 205.557 71.2479C204 71.2479 202.493 71.8084 201.313 72.8259C201.299 72.8378 201.283 72.8431 201.266 72.8431H201.267Z" fill="white"/>
<path id="Vector_79" d="M198.968 77.865C198.929 77.865 198.896 77.8325 198.896 77.7927C198.896 76.5444 199.241 75.3266 199.893 74.2712C199.914 74.2374 199.958 74.2268 199.992 74.248C200.026 74.2692 200.036 74.3137 200.015 74.3475C199.377 75.3803 199.04 76.5716 199.04 77.7927C199.04 77.8325 199.008 77.865 198.968 77.865Z" fill="white"/>
<path id="Vector_80" d="M134.861 81.9916L62.1991 81.6407C61.3234 81.6327 60.6121 82.6058 60.6187 83.8024L60.7798 112.676C60.7864 113.88 61.5162 114.841 62.3966 114.804L134.644 113.25C135.485 113.216 136.156 112.282 136.166 111.133L136.419 84.1639C136.431 82.9739 135.731 81.9989 134.86 81.9909L134.861 81.9916Z" fill="url(#paint13_linear_40_1105)"/>
<path id="Vector_81" opacity="0.52" d="M62.6025 112.952C62.4678 112.952 62.3635 112.824 62.3628 112.662L62.2017 83.7884C62.2017 83.7128 62.2215 83.6458 62.2618 83.5907C62.3199 83.5105 62.3919 83.4939 62.4414 83.4939L135.103 83.8448C135.153 83.8448 135.223 83.8627 135.281 83.943C135.321 83.9987 135.341 84.065 135.34 84.1406L135.087 111.109C135.086 111.269 134.987 111.393 134.857 111.399H134.855L62.6019 112.953L62.6025 112.952ZM62.4407 83.6803C62.4361 83.6803 62.4269 83.6803 62.4123 83.7008C62.3958 83.7234 62.3879 83.7519 62.3879 83.7871L62.549 112.66C62.549 112.724 62.5834 112.765 62.6006 112.765L134.851 111.211C134.87 111.21 134.9 111.168 134.901 111.107L135.154 84.1386C135.154 84.1035 135.146 84.0756 135.13 84.0524C135.115 84.0318 135.106 84.0318 135.101 84.0318L62.4401 83.681L62.4407 83.6803Z" fill="white"/>
<g id="Group_2" opacity="0.6">
<path id="Vector_82" d="M68.9334 96.9114H65.3975V110.483H68.9334V96.9114Z" fill="white"/>
<path id="Vector_83" d="M74.8416 101.576H71.3057V110.483H74.8416V101.576Z" fill="white"/>
<path id="Vector_84" d="M80.7505 90.0481H77.2146V110.483H80.7505V90.0481Z" fill="white"/>
<path id="Vector_85" d="M86.6587 105.573H83.1228V110.483H86.6587V105.573Z" fill="white"/>
<path id="Vector_86" d="M92.5669 92.7803H89.031V110.483H92.5669V92.7803Z" fill="white"/>
<path id="Vector_87" d="M98.4756 95.8455H94.9397V110.483H98.4756V95.8455Z" fill="white"/>
<path id="Vector_88" d="M104.384 99.1772H100.848V110.483H104.384V99.1772Z" fill="white"/>
<path id="Vector_89" d="M110.293 85.917H106.757V110.483H110.293V85.917Z" fill="white"/>
<path id="Vector_90" d="M116.201 88.5151H112.665V110.483H116.201V88.5151Z" fill="white"/>
<path id="Vector_91" d="M122.109 92.4467H118.573V110.483H122.109V92.4467Z" fill="white"/>
<path id="Vector_92" d="M128.018 106.029H124.482V110.483H128.018V106.029Z" fill="white"/>
<path id="Vector_93" d="M133.926 97.3777H130.39V110.483H133.926V97.3777Z" fill="white"/>
</g>
<path id="Vector_94" d="M148.304 122.525L78.2659 122.187C77.4219 122.179 76.7364 123.117 76.743 124.27L76.8982 152.101C76.9048 153.262 77.6081 154.188 78.4568 154.153L148.096 152.655C148.907 152.622 149.553 151.722 149.564 150.615L149.808 124.62C149.818 123.473 149.144 122.533 148.304 122.525Z" fill="url(#paint14_linear_40_1105)"/>
<path id="Vector_95" opacity="0.52" d="M78.412 152.368C78.2825 152.368 78.1815 152.245 78.1808 152.088L78.0256 124.257C78.0256 124.184 78.0448 124.12 78.0838 124.066C78.1405 123.988 78.2092 123.972 78.2568 123.972L148.296 124.311C148.343 124.311 148.411 124.328 148.468 124.406C148.506 124.459 148.526 124.524 148.525 124.596L148.281 150.591C148.279 150.745 148.184 150.865 148.058 150.87H148.056L78.412 152.368ZM78.2561 124.153C78.2515 124.153 78.2429 124.153 78.2284 124.172C78.2125 124.194 78.2046 124.221 78.2053 124.256L78.3605 152.087C78.3605 152.149 78.3935 152.188 78.41 152.188L148.052 150.689C148.07 150.688 148.1 150.648 148.1 150.589L148.345 124.594C148.345 124.56 148.338 124.533 148.322 124.51C148.307 124.49 148.299 124.49 148.295 124.49L78.2561 124.152V124.153Z" fill="white"/>
<path id="Vector_96" opacity="0.78" d="M95.8108 139.682C98.6426 136.838 98.6426 132.227 95.8107 129.382C92.9789 126.538 88.3875 126.538 85.5556 129.382C82.7237 132.227 82.7237 136.838 85.5556 139.682C88.3875 142.527 92.9789 142.527 95.8108 139.682Z" fill="white"/>
<path id="Vector_97" opacity="0.78" d="M113.77 139.682C116.602 136.838 116.602 132.227 113.77 129.382C110.939 126.538 106.347 126.538 103.515 129.382C100.683 132.227 100.683 136.838 103.515 139.682C106.347 142.526 110.939 142.526 113.77 139.682Z" fill="white"/>
<path id="Vector_98" opacity="0.78" d="M131.792 139.921C134.624 137.077 134.624 132.465 131.792 129.621C128.96 126.777 124.368 126.777 121.537 129.621C118.705 132.465 118.705 137.077 121.537 139.921C124.368 142.765 128.96 142.765 131.792 139.921Z" fill="white"/>
<path id="Vector_99" d="M94.9919 132.993C95.2164 133.541 95.3412 134.142 95.3412 134.771C95.3412 137.355 93.2556 139.449 90.6832 139.449C88.1109 139.449 86.0252 137.355 86.0252 134.771C86.0252 132.188 88.1109 130.093 90.6832 130.093C90.7618 130.093 90.8404 130.095 90.9183 130.099V128.913C90.8404 128.909 90.7618 128.907 90.6832 128.907C87.459 128.907 84.8457 131.532 84.8457 134.77C84.8457 138.009 87.459 140.633 90.6832 140.633C93.9074 140.633 96.5208 138.009 96.5208 134.77C96.5208 133.973 96.3623 133.213 96.075 132.521L94.9919 132.993Z" fill="#91B3FA"/>
<path id="Vector_100" d="M111.108 138.729C110.389 139.185 109.539 139.449 108.626 139.449C106.053 139.449 103.968 137.355 103.968 134.771C103.968 132.188 106.053 130.093 108.626 130.093C108.704 130.093 108.783 130.095 108.861 130.099V128.913C108.783 128.909 108.704 128.907 108.626 128.907C105.402 128.907 102.788 131.532 102.788 134.77C102.788 138.009 105.402 140.633 108.626 140.633C109.751 140.633 110.802 140.314 111.693 139.759L111.108 138.728V138.729Z" fill="#91B3FA"/>
<path id="Vector_101" d="M130.613 137.401C129.775 138.637 128.363 139.449 126.762 139.449C124.189 139.449 122.104 137.354 122.104 134.77C122.104 132.187 124.189 130.092 126.762 130.092C126.84 130.092 126.919 130.094 126.997 130.098V128.912C126.919 128.909 126.84 128.907 126.762 128.907C123.538 128.907 120.924 131.531 120.924 134.77C120.924 138.008 123.538 140.633 126.762 140.633C128.756 140.633 130.517 139.628 131.57 138.095L130.613 137.4V137.401Z" fill="#91B3FA"/>
<path id="Vector_102" opacity="0.5" d="M96.6436 144.901H84.8272C84.0855 144.901 83.4839 145.504 83.4839 146.25C83.4839 146.995 84.0849 147.598 84.8272 147.598H96.6436C97.3853 147.598 97.9862 146.995 97.9862 146.25C97.9862 145.505 97.3853 144.901 96.6436 144.901Z" fill="white"/>
<path id="Vector_103" opacity="0.5" d="M114.665 144.901H102.849C102.107 144.901 101.506 145.504 101.506 146.25C101.506 146.995 102.107 147.598 102.849 147.598H114.665C115.407 147.598 116.008 146.995 116.008 146.25C116.008 145.505 115.407 144.901 114.665 144.901Z" fill="white"/>
<path id="Vector_104" opacity="0.5" d="M120.756 147.598H132.572C133.314 147.598 133.915 146.995 133.915 146.25C133.915 145.505 133.314 144.901 132.572 144.901H120.756C120.014 144.901 119.413 145.504 119.413 146.25C119.413 146.995 120.014 147.598 120.756 147.598Z" fill="white"/>
<path id="Vector_105" d="M140.519 115.485H175.064C176.165 115.485 177.058 114.588 177.058 113.481V61.5151C177.058 60.4107 176.169 59.5146 175.069 59.5119L140.247 59.4177C139.14 59.4144 138.241 60.3192 138.247 61.4315L138.523 113.492C138.529 114.595 139.42 115.485 140.518 115.485H140.519Z" fill="url(#paint15_linear_40_1105)"/>
<path id="Vector_106" opacity="0.6" d="M142.212 61.9821L173.101 62.1731C174.218 62.1797 175.117 63.0938 175.112 64.2154L174.897 110.857C174.892 111.962 174.01 112.86 172.91 112.881L142.897 113.43C141.777 113.451 140.853 112.552 140.837 111.427L140.176 64.0436C140.16 62.9054 141.078 61.9754 142.212 61.9827V61.9821Z" fill="white"/>
<path id="Vector_107" opacity="0.6" d="M144.073 63.9866H167.873C168.207 63.9866 168.479 64.2592 168.479 64.5948V64.8084C168.479 65.144 168.207 65.4167 167.873 65.4167H144.073C143.739 65.4167 143.468 65.144 143.468 64.8084V64.5948C143.468 64.2592 143.739 63.9866 144.073 63.9866Z" fill="white"/>
<path id="Vector_108" opacity="0.6" d="M146.123 67.2852C146.14 67.6036 146.399 67.8543 146.717 67.8603L167.531 68.241C167.87 68.247 168.147 67.9731 168.147 67.6328V67.583C168.147 67.2507 167.881 66.9801 167.551 66.9748L146.737 66.6431C146.387 66.6378 146.104 66.9317 146.123 67.2839V67.2852Z" fill="white"/>
<path id="Vector_109" opacity="0.61" d="M143.998 111.865C143.046 111.865 142.262 111.093 142.245 110.134L141.569 71.9875C141.552 71.0184 142.324 70.2138 143.289 70.1952L171.392 69.646C171.863 69.6401 172.305 69.8119 172.643 70.1382C172.98 70.4646 173.171 70.9037 173.18 71.374L173.905 109.731C173.914 110.204 173.738 110.651 173.41 110.991C173.082 111.33 172.643 111.52 172.172 111.526L144.02 111.866C144.012 111.866 144.006 111.866 143.998 111.866V111.865ZM171.427 70.2795C171.419 70.2795 171.412 70.2795 171.404 70.2795L143.301 70.8287C142.684 70.8406 142.19 71.3554 142.201 71.9756L142.876 110.123C142.887 110.735 143.39 111.23 143.998 111.23C144.003 111.23 144.008 111.23 144.012 111.23L172.164 110.89C172.465 110.887 172.746 110.765 172.956 110.548C173.165 110.33 173.278 110.044 173.272 109.742L172.547 71.3846C172.542 71.0834 172.419 70.8028 172.203 70.5939C171.993 70.3903 171.717 70.2788 171.426 70.2788L171.427 70.2795Z" fill="white"/>
<path id="Vector_110" opacity="0.61" d="M172.91 74.118H142.25C142.076 74.118 141.935 73.9761 141.935 73.8009C141.935 73.6258 142.076 73.4839 142.25 73.4839H172.91C173.084 73.4839 173.226 73.6258 173.226 73.8009C173.226 73.9761 173.084 74.118 172.91 74.118Z" fill="white"/>
<g id="circle_mini">
<path id="Vector_111" opacity="0.73" d="M158.442 104.482C151.799 104.482 146.394 99.0532 146.394 92.3809C146.394 85.7087 151.799 80.2802 158.442 80.2802C165.085 80.2802 170.49 85.7087 170.49 92.3809C170.49 99.0532 165.085 104.482 158.442 104.482ZM158.442 84.0756C153.882 84.0756 150.172 87.8014 150.172 92.3816C150.172 96.9617 153.882 100.688 158.442 100.688C163.002 100.688 166.712 96.9617 166.712 92.3816C166.712 87.8014 163.002 84.0756 158.442 84.0756Z" fill="white"/>
<path id="Vector_112" d="M170.456 91.4762L166.688 91.7601C166.703 91.9651 166.711 92.1727 166.711 92.3816C166.711 93.3713 166.538 94.3211 166.22 95.202L169.774 96.4908C170.237 95.2073 170.489 93.8236 170.489 92.3823C170.489 92.0778 170.478 91.776 170.455 91.4769L170.456 91.4762Z" fill="#91B3FA"/>
<path id="Vector_113" d="M158.442 100.687C153.882 100.687 150.172 96.9611 150.172 92.3809C150.172 87.8008 153.882 84.075 158.442 84.075C159.137 84.075 159.812 84.1618 160.456 84.325L161.377 80.6443C160.437 80.4068 159.454 80.2802 158.442 80.2802C151.799 80.2802 146.394 85.7087 146.394 92.3809C146.394 99.0532 151.799 104.482 158.442 104.482C163.649 104.482 168.096 101.146 169.774 96.4895L166.221 95.2007C165.068 98.3965 162.017 100.687 158.442 100.687Z" fill="url(#paint16_linear_40_1105)"/>
<path id="Vector_114" d="M166.688 91.7601L170.456 91.4762C170.34 89.9108 169.926 88.4277 169.271 87.0831L165.875 88.7447C166.324 89.6674 166.608 90.6856 166.687 91.7601H166.688Z" fill="#BDD0FB"/>
</g>
<path id="Vector_115" d="M169.292 141.018C169.292 141.018 173.724 151.29 176.451 149.92C179.179 148.551 181.224 137.251 181.224 137.251C181.224 137.251 172.701 135.197 169.292 141.018V141.018Z" fill="url(#paint17_linear_40_1105)"/>
<path id="Vector_116" d="M184.723 204.763C184.723 204.763 185.094 206.87 185.275 208.955C185.347 209.77 184.72 210.478 183.907 210.512C181.142 210.627 175.227 210.852 173.105 210.757C172.786 210.743 172.577 210.415 172.695 210.117C172.794 209.867 172.985 209.665 173.228 209.553L182.998 205.044L184.723 204.764V204.763Z" fill="url(#paint18_linear_40_1105)"/>
<path id="Vector_117" d="M185.027 203.525L184.729 206.045C184.729 206.045 183.018 206.845 181.849 205.944L182.558 203.136L185.027 203.526V203.525Z" fill="url(#paint19_linear_40_1105)"/>
<path id="Vector_118" d="M184.803 156.152C184.932 156.81 185.493 188.989 182.068 203.41C182.012 203.645 182.131 203.887 182.354 203.979C182.879 204.195 183.91 204.507 185.143 204.548C185.526 204.561 185.868 204.311 185.976 203.943C186.955 200.597 191.646 183.834 192.258 167.82C192.942 149.926 192.258 167.21 192.258 167.21L191.857 156.15L184.803 156.151V156.152Z" fill="url(#paint20_linear_40_1105)"/>
<path id="Vector_119" d="M195.962 205.862C195.962 205.862 196.551 206.925 197.123 209.752C197.226 210.262 196.871 210.751 196.354 210.802C195.442 210.892 194.036 211.008 192.91 211C192.391 210.997 191.986 210.542 192.049 210.025C192.174 208.994 192.562 207.301 193.762 205.982L195.962 205.863L195.962 205.862Z" fill="url(#paint21_linear_40_1105)"/>
<path id="Vector_120" d="M196.479 202.62L195.784 206.431C195.784 206.431 195.096 206.945 193.736 206.572L194.068 202.473L196.48 202.62H196.479Z" fill="url(#paint22_linear_40_1105)"/>
<path id="Vector_121" d="M198.358 157.139C201.159 174.117 197.751 199.102 196.601 203.992C196.53 204.291 196.29 204.521 195.988 204.571C195.475 204.657 194.63 204.726 193.797 204.484C193.511 204.4 193.309 204.14 193.297 203.84C193.142 199.887 193.42 175.616 190.81 166.024C190.678 165.538 190.382 165.114 189.974 164.822L184.908 161.205L184.52 155.359L198.358 157.14V157.139Z" fill="url(#paint23_linear_40_1105)"/>
<path id="Vector_122" d="M180.202 125.61C190.429 124.583 198.167 127.183 198.167 127.183C200.669 141.847 198.605 158.76 198.605 158.76C192.106 160.471 184.775 157.713 184.775 157.713C183.695 151.584 178.656 134.335 178.656 134.335C174.554 133.824 177.626 125.87 180.202 125.611L180.202 125.61Z" fill="url(#paint24_linear_40_1105)"/>
<path id="Vector_123" d="M194.946 135.346L198.166 127.183C198.166 127.183 206.007 132.534 207.296 139.317C205.814 139.427 203.119 139.814 200.48 141.152C199.9 137.949 194.946 135.346 194.946 135.346H194.946Z" fill="url(#paint25_linear_40_1105)"/>
<path id="Vector_124" d="M187.413 143.027C187.413 143.027 196.216 148.024 199.187 143.758C199.803 142.871 199.951 141.991 199.799 141.151C202.437 139.814 205.133 139.426 206.615 139.317C207.004 141.362 206.798 143.537 205.602 145.736C200.399 155.295 186.249 145.208 186.249 145.208L187.414 143.028L187.413 143.027Z" fill="url(#paint26_linear_40_1105)"/>
<path id="Vector_125" d="M188.471 149.349L183.666 132.497C183.612 132.306 183.449 132.166 183.252 132.144C182.382 132.042 179.86 131.756 176.947 131.508C173.439 131.21 169.365 130.969 166.931 131.174C166.585 131.203 166.376 131.571 166.53 131.884C167.914 134.697 173.608 146.138 176.459 149.887C176.554 150.011 176.7 150.084 176.855 150.082L188.002 149.978C188.326 149.974 188.559 149.662 188.47 149.349H188.471Z" fill="url(#paint27_linear_40_1105)"/>
<path id="Vector_126" d="M176.449 130.047L172.966 129.464C172.781 129.433 172.629 129.611 172.687 129.79L173.032 130.84C173.062 130.931 173.142 130.997 173.236 131.01L176.588 131.46C176.762 131.483 176.904 131.325 176.865 131.153L176.651 130.237C176.628 130.139 176.548 130.064 176.449 130.047Z" fill="#91B3FA"/>
<path id="Vector_127" d="M179.057 133.009L178.771 131.508C178.742 131.358 178.618 131.244 178.466 131.228L171.431 130.511C171.194 130.487 171.004 130.705 171.06 130.938L171.507 132.808C171.542 132.958 171.672 133.066 171.825 133.074L178.7 133.421C178.924 133.433 179.099 133.23 179.057 133.009H179.057Z" fill="#91B3FA"/>
<path id="Vector_128" d="M187.31 145.278C187.31 145.278 187.979 142.514 187.71 141.534C187.44 140.553 186.916 139.292 185.173 139.572C183.429 139.852 181.373 140.59 181.373 140.59C181.373 140.59 181.476 141.867 182.802 141.455L181.98 142.093C181.98 142.093 182.098 143.116 183.217 142.57L182.453 143.417C182.453 143.417 182.934 144.256 183.758 143.718C184.581 143.179 184.976 145.61 187.311 145.278H187.31Z" fill="url(#paint28_linear_40_1105)"/>
<path id="Vector_129" d="M169.447 141.165C169.447 141.165 167.418 139.181 167.128 138.206C166.838 137.231 166.614 135.884 168.239 135.191C169.865 134.499 171.997 134.026 171.997 134.026C171.997 134.026 172.585 135.164 171.244 135.521L172.279 135.624C172.279 135.624 172.72 136.553 171.483 136.687L172.578 136.997C172.578 136.997 172.615 137.966 171.633 137.948C170.65 137.931 171.602 140.202 169.447 141.165H169.447Z" fill="url(#paint29_linear_40_1105)"/>
<path id="Vector_130" d="M187.99 118.762L190.661 126.52C190.705 126.649 190.653 126.791 190.534 126.856C189.807 127.26 187.183 128.429 184.023 126.417C183.693 126.207 183.469 125.865 183.419 125.477L182.554 118.763H187.99V118.762Z" fill="url(#paint30_linear_40_1105)"/>
<path id="Vector_131" d="M182.179 111.578C182.179 111.578 179.246 117.123 179.621 119.362C179.997 121.602 183.632 121.441 186.806 119.622L189.024 113.635L182.178 111.578H182.179Z" fill="url(#paint31_linear_40_1105)"/>
<path id="Vector_132" d="M186.666 116.683C186.537 116.625 186.49 116.466 186.567 116.348C186.802 115.987 187.243 115.253 187.383 114.608C187.383 114.608 187.91 114.27 186.041 113.82C184.172 113.371 181.385 112.673 180.799 111.075C180.228 109.517 181.729 105.599 184.123 108.721C184.214 108.84 184.392 108.842 184.483 108.724C184.876 108.21 185.908 107.146 187.341 107.791C188.682 108.395 188.833 109.382 188.815 109.88C188.809 110.026 188.939 110.14 189.083 110.113C189.76 109.983 191.388 109.871 192.146 111.547C192.772 112.928 192.366 113.71 191.995 114.092C191.875 114.216 191.928 114.419 192.092 114.47C192.538 114.606 193.113 114.987 193.056 116.035C192.976 117.484 191.362 117.357 190.903 117.29C190.828 117.28 190.752 117.305 190.701 117.362C190.308 117.8 188.533 119.658 186.612 119.882C186.446 119.902 186.317 119.737 186.372 119.578L187.203 117.151C187.241 117.038 187.188 116.915 187.08 116.866L186.667 116.683L186.666 116.683Z" fill="url(#paint32_linear_40_1105)"/>
<path id="Vector_133" d="M186.332 117.027C186.332 117.027 188.42 115.588 188.573 116.799C188.725 118.011 186.692 118.555 185.685 118.103L186.332 117.026V117.027Z" fill="url(#paint33_linear_40_1105)"/>
<path id="Vector_134" d="M196.783 121.106C196.913 120.856 197.279 120.896 197.354 121.167C197.632 122.169 198.303 123.919 199.712 124.541C199.783 124.572 199.85 124.604 199.916 124.636C199.98 124.443 199.98 124.22 199.827 123.985C199.389 123.312 200.18 122.394 200.18 122.394C200.18 122.394 200.232 123.203 200.844 123.712C201.371 124.151 201.624 125.127 201.264 125.928C200.502 128.902 199.36 132.836 203.808 135.71C208.255 138.584 214.518 130.286 214.518 130.286L211.41 140.184C211.41 140.184 206.612 143.74 201.03 138.74C195.449 133.739 199.149 126.462 199.149 126.462C199.149 126.462 194.892 124.738 196.783 121.106H196.783Z" fill="url(#paint34_linear_40_1105)"/>
<path id="Vector_135" d="M215.297 115.743C215.297 115.743 214.008 109.938 220.629 111.475C220.629 111.475 223.843 110.948 224.007 113.994C224.007 113.994 226.078 115.365 224.561 118.002C224.561 118.002 230.718 115.613 233.4 121.033C236.083 126.453 233.617 129.435 231.032 130.212C231.032 130.212 233.126 131.268 232.135 133.653C231.143 136.037 226.123 137.718 223.158 134.818C223.158 134.818 214.72 135.938 214.889 129.952C214.889 129.952 210.965 127.407 215.086 122.46C219.208 117.513 215.297 115.744 215.297 115.744V115.743Z" fill="url(#paint35_linear_40_1105)"/>
<path id="Vector_136" d="M214.933 129.199C216.263 128.798 220.137 128.058 223.822 131.474C224.447 132.053 224.702 132.933 224.479 133.757C223.49 137.416 220.878 148.227 223.168 152.905C223.168 152.905 219.133 157.372 214.732 153.772C214.732 153.772 212.757 145.127 210.17 141.333C208.384 138.713 213.018 131.494 214.19 129.75C214.368 129.486 214.629 129.29 214.933 129.199Z" fill="url(#paint36_linear_40_1105)"/>
<path id="Vector_137" d="M218.606 121.929C218.606 121.929 220.574 127.518 220.722 129.984C220.722 129.984 218.547 130.977 216.498 129.301C216.498 129.301 216.284 123.718 215.973 122.718L218.606 121.929Z" fill="url(#paint37_linear_40_1105)"/>
<path id="Vector_138" d="M215.874 114.307C215.874 114.307 210.727 121.541 213.804 123.641C216.88 125.742 220.543 120.602 220.543 120.602C220.543 120.602 221.738 116.643 220.489 115.3C219.24 113.957 215.874 114.307 215.874 114.307Z" fill="url(#paint38_linear_40_1105)"/>
<path id="Vector_139" d="M218.256 112.579C218.256 112.579 215.891 113.141 215.56 114.216C215.229 115.29 218.913 116.287 219.945 116.335L220.777 120.67C220.777 120.67 223.235 116.592 222.261 114.237C221.287 111.882 218.256 112.579 218.256 112.579Z" fill="url(#paint39_linear_40_1105)"/>
<path id="Vector_140" d="M219.546 120.07C219.546 120.07 221.549 117.741 222.345 119.259C223.142 120.778 220.542 121.918 219.642 121.173L219.545 120.07H219.546Z" fill="url(#paint40_linear_40_1105)"/>
<path id="Vector_141" d="M209.594 171.922C209.609 172.315 208.923 175.428 208.549 177.088C208.399 177.756 208.504 178.455 208.843 179.05L221.773 200.907C221.93 201.172 222.043 201.458 222.113 201.758C222.35 202.783 222.841 205.297 222.584 207.584L221.915 208.98L224.808 208.32L225.437 200.517L224.618 200.016C223.911 199.583 223.36 198.934 223.044 198.165C221.876 195.313 218.972 188.052 218.223 184.513C217.373 180.491 212.926 177.225 212.926 177.225L213.707 175.37L209.594 171.923V171.922Z" fill="url(#paint41_linear_40_1105)"/>
<path id="Vector_142" d="M228.023 205.635C228.023 205.635 226.461 203.147 226.277 202.179C226.093 201.21 225.581 199.5 224.618 200.015C224.618 200.015 224.165 204.718 224.321 206.557C224.478 208.395 222.253 208.336 222.253 208.336C222.253 208.336 221.639 208.422 221.19 208.873C220.88 209.184 221.102 209.724 221.539 209.753C222.268 209.8 223.424 209.813 224.639 209.577C225.063 209.494 225.378 209.131 225.404 208.698L225.724 203.284L227.695 205.784L228.023 205.635H228.023Z" fill="url(#paint42_linear_40_1105)"/>
<path id="Vector_143" d="M217.318 175.404C217.318 175.404 217.774 194.955 217.836 197.732C217.898 200.508 217.399 206.662 214.627 208.501L215.833 209.398C215.833 209.398 217.34 208.111 218.813 205.636C220.467 202.854 220.967 202.346 220.967 202.346L220.419 201.217C220.178 200.723 220.108 200.163 220.219 199.625C220.817 196.714 222.815 187.03 223.36 184.945C224.003 182.483 224.048 179.196 221.81 176.444C219.572 173.692 217.318 175.404 217.318 175.404Z" fill="url(#paint43_linear_40_1105)"/>
<path id="Vector_144" d="M219.877 210.28C219.963 210.28 220.036 210.219 220.048 210.133C220.141 209.481 220.524 206.868 220.839 206.192C221.199 205.417 222.374 202.155 220.838 201.878C220.838 201.878 217.019 207.482 216.286 208.238C215.553 208.993 214.627 208.502 214.627 208.502C214.627 208.502 213.913 208.714 213.374 209.405C213.118 209.734 213.357 210.217 213.773 210.221L216.345 210.246C217.092 210.253 217.764 209.797 218.042 209.1C218.495 207.964 219.272 206.298 220.179 205.559L219.708 210.089C219.697 210.19 219.776 210.278 219.877 210.28Z" fill="url(#paint44_linear_40_1105)"/>
<path id="Vector_145" d="M214.123 151.664C214.123 151.664 214.703 153.52 213.812 156.576L208.287 175.952C208.201 176.257 208.364 176.575 208.661 176.682C210.313 177.278 215.745 178.962 223.161 178.448C223.534 178.422 223.847 178.157 223.928 177.79C224.417 175.581 226.084 168.045 226.427 166.496C227.735 160.595 229.196 154.232 222.771 150.384C219.81 151.658 217.048 152.409 214.122 151.664L214.123 151.664Z" fill="url(#paint45_linear_40_1105)"/>
<path id="Vector_146" d="M224.349 132.204C224.349 132.204 230.634 137.45 232.194 144.619C233.754 151.788 223.01 152.55 223.01 152.55C223.01 152.55 221.551 150.915 219.819 151.498C218.087 152.081 219.685 148.643 221.711 148.652C223.737 148.661 222.799 150.269 225.665 148.966C228.457 147.696 230.183 143.767 223.059 137.812C222.646 137.467 222.317 137.027 222.118 136.526C220.734 133.027 221.832 130.733 224.349 132.204Z" fill="url(#paint46_linear_40_1105)"/>
</g>
<defs>
<linearGradient id="paint0_linear_40_1105" x1="155.49" y1="133.613" x2="154.588" y2="265.221" gradientUnits="userSpaceOnUse">
<stop stop-color="#09005D"/>
<stop offset="1" stop-color="#1A0F91"/>
</linearGradient>
<linearGradient id="paint1_linear_40_1105" x1="153.704" y1="-39.5926" x2="149.193" y2="188.587" gradientUnits="userSpaceOnUse">
<stop stop-color="#09005D"/>
<stop offset="1" stop-color="#1A0F91"/>
</linearGradient>
<linearGradient id="paint2_linear_40_1105" x1="156.279" y1="161.262" x2="153.121" y2="231.331" gradientUnits="userSpaceOnUse">
<stop stop-color="#09005D"/>
<stop offset="1" stop-color="#1A0F91"/>
</linearGradient>
<linearGradient id="paint3_linear_40_1105" x1="138.404" y1="89.0534" x2="108.425" y2="20.8927" gradientUnits="userSpaceOnUse">
<stop stop-color="#4F52FF"/>
<stop offset="1" stop-color="#4042E2"/>
</linearGradient>
<linearGradient id="paint4_linear_40_1105" x1="94.8652" y1="75.9103" x2="68.9626" y2="133.882" gradientUnits="userSpaceOnUse">
<stop stop-color="#4F52FF"/>
<stop offset="1" stop-color="#4042E2"/>
</linearGradient>
<linearGradient id="paint5_linear_40_1105" x1="101.673" y1="38.1484" x2="75.7702" y2="96.1202" gradientUnits="userSpaceOnUse">
<stop stop-color="#4F52FF"/>
<stop offset="1" stop-color="#4042E2"/>
</linearGradient>
<linearGradient id="paint6_linear_40_1105" x1="67.6728" y1="76.1484" x2="41.7702" y2="134.12" gradientUnits="userSpaceOnUse">
<stop stop-color="#4F52FF"/>
<stop offset="1" stop-color="#4042E2"/>
</linearGradient>
<linearGradient id="paint7_linear_40_1105" x1="180.673" y1="102.148" x2="154.77" y2="160.12" gradientUnits="userSpaceOnUse">
<stop stop-color="#4F52FF"/>
<stop offset="1" stop-color="#4042E2"/>
</linearGradient>
<linearGradient id="paint8_linear_40_1105" x1="191.673" y1="58.1484" x2="165.77" y2="116.12" gradientUnits="userSpaceOnUse">
<stop stop-color="#4F52FF"/>
<stop offset="1" stop-color="#4042E2"/>
</linearGradient>
<linearGradient id="paint9_linear_40_1105" x1="130.673" y1="51.1484" x2="104.77" y2="109.12" gradientUnits="userSpaceOnUse">
<stop stop-color="#4F52FF"/>
<stop offset="1" stop-color="#4042E2"/>
</linearGradient>
<linearGradient id="paint10_linear_40_1105" x1="154.673" y1="28.1484" x2="128.77" y2="86.1202" gradientUnits="userSpaceOnUse">
<stop stop-color="#4F52FF"/>
<stop offset="1" stop-color="#4042E2"/>
</linearGradient>
<linearGradient id="paint11_linear_40_1105" x1="167.327" y1="48.8538" x2="147.76" y2="76.0604" gradientUnits="userSpaceOnUse">
<stop stop-color="#4F52FF"/>
<stop offset="1" stop-color="#4042E2"/>
</linearGradient>
<linearGradient id="paint12_linear_40_1105" x1="201.691" y1="84.1387" x2="182.556" y2="119.554" gradientUnits="userSpaceOnUse">
<stop stop-color="#4F52FF"/>
<stop offset="1" stop-color="#4042E2"/>
</linearGradient>
<linearGradient id="paint13_linear_40_1105" x1="60.6187" y1="114.805" x2="139.496" y2="103.909" gradientUnits="userSpaceOnUse">
<stop stop-color="#673091"/>
<stop offset="1" stop-color="#EC008C"/>
</linearGradient>
<linearGradient id="paint14_linear_40_1105" x1="76.7429" y1="154.154" x2="152.773" y2="143.651" gradientUnits="userSpaceOnUse">
<stop stop-color="#673091"/>
<stop offset="1" stop-color="#EC008C"/>
</linearGradient>
<linearGradient id="paint15_linear_40_1105" x1="138.247" y1="115.485" x2="179.332" y2="113.766" gradientUnits="userSpaceOnUse">
<stop stop-color="#673091"/>
<stop offset="1" stop-color="#EC008C"/>
</linearGradient>
<linearGradient id="paint16_linear_40_1105" x1="166.597" y1="83.5125" x2="142.133" y2="109.885" gradientUnits="userSpaceOnUse">
<stop stop-color="#4F52FF"/>
<stop offset="1" stop-color="#4042E2"/>
</linearGradient>
<linearGradient id="paint17_linear_40_1105" x1="181.224" y1="143.473" x2="169.292" y2="143.473" gradientUnits="userSpaceOnUse">
<stop stop-color="#FEBBBA"/>
<stop offset="1" stop-color="#FF928E"/>
</linearGradient>
<linearGradient id="paint18_linear_40_1105" x1="179.182" y1="186.441" x2="178.925" y2="214.626" gradientUnits="userSpaceOnUse">
<stop stop-color="#4F52FF"/>
<stop offset="1" stop-color="#4042E2"/>
</linearGradient>
<linearGradient id="paint19_linear_40_1105" x1="185.027" y1="204.754" x2="181.849" y2="204.754" gradientUnits="userSpaceOnUse">
<stop stop-color="#FEBBBA"/>
<stop offset="1" stop-color="#FF928E"/>
</linearGradient>
<linearGradient id="paint20_linear_40_1105" x1="192.045" y1="143.298" x2="182.571" y2="200.56" gradientUnits="userSpaceOnUse">
<stop stop-color="#4F52FF"/>
<stop offset="1" stop-color="#4042E2"/>
</linearGradient>
<linearGradient id="paint21_linear_40_1105" x1="194.803" y1="186.584" x2="194.546" y2="214.768" gradientUnits="userSpaceOnUse">
<stop stop-color="#4F52FF"/>
<stop offset="1" stop-color="#4042E2"/>
</linearGradient>
<linearGradient id="paint22_linear_40_1105" x1="196.479" y1="204.59" x2="193.736" y2="204.59" gradientUnits="userSpaceOnUse">
<stop stop-color="#FEBBBA"/>
<stop offset="1" stop-color="#FF928E"/>
</linearGradient>
<linearGradient id="paint23_linear_40_1105" x1="196.444" y1="144.026" x2="186.971" y2="201.288" gradientUnits="userSpaceOnUse">
<stop stop-color="#4F52FF"/>
<stop offset="1" stop-color="#4042E2"/>
</linearGradient>
<linearGradient id="paint24_linear_40_1105" x1="176.656" y1="159.32" x2="200.74" y2="158.344" gradientUnits="userSpaceOnUse">
<stop stop-color="#673091"/>
<stop offset="1" stop-color="#EC008C"/>
</linearGradient>
<linearGradient id="paint25_linear_40_1105" x1="194.946" y1="141.152" x2="208.005" y2="140.454" gradientUnits="userSpaceOnUse">
<stop stop-color="#673091"/>
<stop offset="1" stop-color="#EC008C"/>
</linearGradient>
<linearGradient id="paint26_linear_40_1105" x1="206.793" y1="144.584" x2="186.248" y2="144.584" gradientUnits="userSpaceOnUse">
<stop stop-color="#FEBBBA"/>
<stop offset="1" stop-color="#FF928E"/>
</linearGradient>
<linearGradient id="paint27_linear_40_1105" x1="184.434" y1="124.199" x2="175.373" y2="145.366" gradientUnits="userSpaceOnUse">
<stop stop-color="#09005D"/>
<stop offset="1" stop-color="#1A0F91"/>
</linearGradient>
<linearGradient id="paint28_linear_40_1105" x1="187.774" y1="142.421" x2="181.373" y2="142.421" gradientUnits="userSpaceOnUse">
<stop stop-color="#FEBBBA"/>
<stop offset="1" stop-color="#FF928E"/>
</linearGradient>
<linearGradient id="paint29_linear_40_1105" x1="167.551" y1="138.99" x2="172.988" y2="135.596" gradientUnits="userSpaceOnUse">
<stop stop-color="#FEBBBA"/>
<stop offset="1" stop-color="#FF928E"/>
</linearGradient>
<linearGradient id="paint30_linear_40_1105" x1="190.677" y1="123.162" x2="182.554" y2="123.162" gradientUnits="userSpaceOnUse">
<stop stop-color="#FEBBBA"/>
<stop offset="1" stop-color="#FF928E"/>
</linearGradient>
<linearGradient id="paint31_linear_40_1105" x1="180.643" y1="117.957" x2="189.595" y2="112.52" gradientUnits="userSpaceOnUse">
<stop stop-color="#FEBBBA"/>
<stop offset="1" stop-color="#FF928E"/>
</linearGradient>
<linearGradient id="paint32_linear_40_1105" x1="194.301" y1="106.718" x2="182.725" y2="115.822" gradientUnits="userSpaceOnUse">
<stop stop-color="#09005D"/>
<stop offset="1" stop-color="#1A0F91"/>
</linearGradient>
<linearGradient id="paint33_linear_40_1105" x1="182.988" y1="119.998" x2="191.043" y2="115.106" gradientUnits="userSpaceOnUse">
<stop stop-color="#FEBBBA"/>
<stop offset="1" stop-color="#FF928E"/>
</linearGradient>
<linearGradient id="paint34_linear_40_1105" x1="194.888" y1="114.157" x2="211.714" y2="141.004" gradientUnits="userSpaceOnUse">
<stop stop-color="#FEBBBA"/>
<stop offset="1" stop-color="#FF928E"/>
</linearGradient>
<linearGradient id="paint35_linear_40_1105" x1="241.311" y1="111.688" x2="224.378" y2="122.93" gradientUnits="userSpaceOnUse">
<stop stop-color="#09005D"/>
<stop offset="1" stop-color="#1A0F91"/>
</linearGradient>
<linearGradient id="paint36_linear_40_1105" x1="244.368" y1="111.096" x2="218.149" y2="141.678" gradientUnits="userSpaceOnUse">
<stop stop-color="#DAE3FE"/>
<stop offset="1" stop-color="#E9EFFD"/>
</linearGradient>
<linearGradient id="paint37_linear_40_1105" x1="215.49" y1="132.784" x2="218.647" y2="125.801" gradientUnits="userSpaceOnUse">
<stop stop-color="#FEBBBA"/>
<stop offset="1" stop-color="#FF928E"/>
</linearGradient>
<linearGradient id="paint38_linear_40_1105" x1="215.327" y1="115.791" x2="221.736" y2="129.603" gradientUnits="userSpaceOnUse">
<stop stop-color="#FEBBBA"/>
<stop offset="1" stop-color="#FF928E"/>
</linearGradient>
<linearGradient id="paint39_linear_40_1105" x1="236.771" y1="104.851" x2="219.838" y2="116.093" gradientUnits="userSpaceOnUse">
<stop stop-color="#09005D"/>
<stop offset="1" stop-color="#1A0F91"/>
</linearGradient>
<linearGradient id="paint40_linear_40_1105" x1="218.32" y1="114.403" x2="224.729" y2="128.214" gradientUnits="userSpaceOnUse">
<stop stop-color="#FEBBBA"/>
<stop offset="1" stop-color="#FF928E"/>
</linearGradient>
<linearGradient id="paint41_linear_40_1105" x1="233.095" y1="219.845" x2="209.582" y2="177.595" gradientUnits="userSpaceOnUse">
<stop stop-color="#FEBBBA"/>
<stop offset="1" stop-color="#FF928E"/>
</linearGradient>
<linearGradient id="paint42_linear_40_1105" x1="228.056" y1="204.907" x2="221.114" y2="204.842" gradientUnits="userSpaceOnUse">
<stop stop-color="#09005D"/>
<stop offset="1" stop-color="#1A0F91"/>
</linearGradient>
<linearGradient id="paint43_linear_40_1105" x1="224.064" y1="187.133" x2="190.127" y2="210.8" gradientUnits="userSpaceOnUse">
<stop stop-color="#FEBBBA"/>
<stop offset="1" stop-color="#FF928E"/>
</linearGradient>
<linearGradient id="paint44_linear_40_1105" x1="221.608" y1="206.105" x2="213.331" y2="206.028" gradientUnits="userSpaceOnUse">
<stop stop-color="#09005D"/>
<stop offset="1" stop-color="#1A0F91"/>
</linearGradient>
<linearGradient id="paint45_linear_40_1105" x1="232.199" y1="151.098" x2="161.752" y2="223.822" gradientUnits="userSpaceOnUse">
<stop stop-color="#4F52FF"/>
<stop offset="1" stop-color="#4042E2"/>
</linearGradient>
<linearGradient id="paint46_linear_40_1105" x1="231.546" y1="128.633" x2="211.464" y2="177.878" gradientUnits="userSpaceOnUse">
<stop stop-color="#FEBBBA"/>
<stop offset="1" stop-color="#FF928E"/>
</linearGradient>
</defs>
</svg>
