<svg width="176" height="58" viewBox="0 0 176 58" fill="none" xmlns="http://www.w3.org/2000/svg">
<path d="M22.3202 16.7565L15.0202 21.1165C13.9802 21.7365 12.6602 20.9765 12.6602 19.7665V13.4065C12.6602 12.8565 12.9502 12.3365 13.4302 12.0565L20.7302 7.69646C21.7702 7.07646 23.0902 7.83646 23.0902 9.04646V15.4065C23.0902 15.9565 22.8002 16.4765 22.3202 16.7565Z" fill="url(#paint0_linear_10_19)"/>
<path d="M34.5002 8.23647L28.0102 12.1065C27.0802 12.6565 25.9102 11.9865 25.9102 10.9065V5.25647C25.9102 4.76647 26.1702 4.30647 26.5902 4.05647L33.0802 0.196471C34.0102 -0.353529 35.1802 0.316471 35.1802 1.39647V7.04647C35.1802 7.53647 34.9202 7.99647 34.5002 8.24647V8.23647Z" fill="url(#paint1_linear_10_19)"/>
<path d="M25.79 39.6964L1.54 25.3664L1.21 25.1364C1.14 25.0864 1.08 25.0264 1.03 24.9464C0.82 24.6264 0.87 24.2064 1.09 23.8964L1.14 23.8364C1.14 23.8364 0.01 24.6064 0 25.8964V42.3064C0 43.3964 0.57 44.3964 1.51 44.9464L22.67 57.4464C24.72 58.6564 27.3 57.1764 27.3 54.8064V42.3364C27.3 41.2464 26.73 40.2464 25.79 39.6964Z" fill="url(#paint2_linear_10_19)"/>
<path d="M26.8098 16.3966L30.0198 14.4766V12.8866C30.0198 12.7466 30.0098 12.6166 29.9898 12.4866L28.0898 13.6266C27.1198 14.1966 25.8998 13.4966 25.8998 12.3766V10.0066C25.7298 10.0666 25.5498 10.1466 25.3798 10.2466L24.3598 10.8466V16.8566C24.3598 17.4766 24.0298 18.0566 23.4998 18.3666L15.3098 23.2566C14.1398 23.9466 12.6598 23.1066 12.6598 21.7466V17.7666L3.36984 23.1966L3.31984 23.2566C3.09984 23.5666 3.04984 23.9866 3.25984 24.3066C3.30984 24.3866 3.36984 24.4466 3.43984 24.4966L3.76984 24.7266L18.9098 33.6766L28.5198 28.0066C29.1498 27.6366 29.6098 27.0566 29.8498 26.3866L28.6998 27.0766C27.4698 27.8066 25.9198 26.9166 25.9198 25.4866V17.9966C25.9198 17.3466 26.2598 16.7366 26.8298 16.4066L26.8098 16.3966Z" fill="#462666"/>
<path d="M36.8402 20.5065L28.5802 25.4365C27.4002 26.1365 25.9102 25.2865 25.9102 23.9065V16.7065C25.9102 16.0765 26.2402 15.4965 26.7802 15.1765L35.0402 10.2465C36.2202 9.54648 37.7102 10.3965 37.7102 11.7765V18.9765C37.7102 19.6065 37.3802 20.1865 36.8402 20.5065Z" fill="url(#paint3_linear_10_19)"/>
<path d="M54.5498 36.7764C53.8998 36.7764 53.5698 36.4464 53.5698 35.7964V25.6464H52.5498C51.8998 25.6464 51.5698 25.3164 51.5698 24.6664C51.5698 24.0164 51.8998 23.7064 52.5498 23.7064H53.5698V23.2564C53.5698 21.5564 53.9698 20.3064 54.7798 19.5064C55.5898 18.7064 56.8398 18.2964 58.5298 18.2964C59.0998 18.2964 59.3898 18.6164 59.3898 19.2564C59.3898 19.8964 59.0998 20.2364 58.5298 20.2364C57.3798 20.2364 56.5898 20.4464 56.1598 20.8764C55.7298 21.3064 55.5098 22.0964 55.5098 23.2564V23.7064H58.4098C59.0598 23.7064 59.3898 24.0264 59.3898 24.6664C59.3898 25.3064 59.0598 25.6464 58.4098 25.6464H55.5098V35.7964C55.5098 36.4464 55.1898 36.7764 54.5498 36.7764Z" fill="white"/>
<path d="M63.45 31.0265V31.7665C63.45 32.9365 63.67 33.7365 64.11 34.1765C64.55 34.6165 65.36 34.8365 66.55 34.8365H68.71C69.68 34.8365 70.39 34.7365 70.84 34.5265C71.29 34.3165 71.58 33.9565 71.7 33.4365C71.78 33.1465 71.9 32.9265 72.05 32.7665C72.2 32.6065 72.43 32.5265 72.74 32.5265C73.06 32.5265 73.31 32.6165 73.48 32.7865C73.65 32.9565 73.7 33.2065 73.65 33.5365C73.48 34.6365 72.99 35.4465 72.17 35.9865C71.35 36.5265 70.19 36.7865 68.71 36.7865H66.55C64.84 36.7865 63.57 36.3765 62.75 35.5565C61.93 34.7365 61.52 33.4765 61.52 31.7765V28.7465C61.52 27.0065 61.93 25.7265 62.75 24.9165C63.57 24.1065 64.84 23.7065 66.55 23.7265H68.71C70.42 23.7265 71.69 24.1365 72.51 24.9465C73.33 25.7565 73.74 27.0265 73.74 28.7465V30.0665C73.74 30.7165 73.42 31.0465 72.78 31.0465H63.46L63.45 31.0265ZM66.55 25.6465C65.36 25.6265 64.55 25.8365 64.11 26.2765C63.67 26.7165 63.45 27.5365 63.45 28.7265V29.0865H71.8V28.7265C71.8 27.5365 71.58 26.7265 71.15 26.2965C70.71 25.8565 69.9 25.6465 68.72 25.6465H66.56H66.55Z" fill="white"/>
<path d="M79.4702 36.7765C78.8202 36.7765 78.4902 36.4465 78.4902 35.7965V24.6665C78.4902 24.0265 78.8202 23.7065 79.4702 23.7065C80.1202 23.7065 80.4302 24.0265 80.4302 24.6665V26.0365C80.9302 25.2765 81.5902 24.6965 82.4202 24.2965C83.2402 23.8965 84.2002 23.7065 85.2902 23.7065C85.9402 23.7065 86.2702 24.0265 86.2702 24.6665C86.2702 25.3065 85.9402 25.6465 85.2902 25.6465C83.7502 25.6465 82.5702 25.9565 81.7602 26.5665C80.9502 27.1765 80.5002 28.0065 80.4402 29.0665V35.8065C80.4402 36.4565 80.1202 36.7865 79.4802 36.7865L79.4702 36.7765Z" fill="white"/>
<path d="M103.74 23.6965C105.32 23.6965 106.46 24.0765 107.14 24.8465C107.83 25.6065 108.17 26.8765 108.17 28.6265V35.8165C108.17 36.4565 107.85 36.7765 107.21 36.7765C106.57 36.7765 106.23 36.4565 106.23 35.8165V28.6265C106.23 27.5765 106.04 26.8065 105.65 26.3365C105.26 25.8665 104.63 25.6265 103.74 25.6265H102.66C101.61 25.6265 100.85 25.8665 100.4 26.3365C99.9501 26.8065 99.7201 27.5665 99.7201 28.6265V35.8165C99.7201 36.4565 99.4001 36.7765 98.7601 36.7765C98.1201 36.7765 97.7801 36.4565 97.7801 35.8165V28.6265C97.7801 27.5765 97.5901 26.8065 97.2001 26.3365C96.8101 25.8665 96.1801 25.6265 95.2901 25.6265H94.2101C93.1501 25.6265 92.4001 25.8665 91.9501 26.3365C91.5001 26.8065 91.2701 27.5665 91.2701 28.6265V35.8165C91.2701 36.4565 90.9501 36.7765 90.3101 36.7765C89.6701 36.7765 89.3301 36.4565 89.3301 35.8165V24.6765C89.3301 24.0365 89.6601 23.7165 90.3101 23.7165C90.9601 23.7165 91.2701 24.0365 91.2701 24.6765V25.4265C91.7101 24.8065 92.2001 24.3665 92.7501 24.0965C93.3001 23.8265 93.9701 23.6965 94.7601 23.6965H95.2901C96.3301 23.6965 97.1501 23.8565 97.7501 24.1665C98.3501 24.4765 98.8201 24.9865 99.1401 25.6765C99.5801 24.9665 100.07 24.4565 100.6 24.1565C101.14 23.8565 101.82 23.6965 102.66 23.6965H103.74Z" fill="white"/>
<path d="M114.62 31.0265V31.7665C114.62 32.9365 114.84 33.7365 115.28 34.1765C115.72 34.6165 116.53 34.8365 117.72 34.8365H119.88C120.85 34.8365 121.56 34.7365 122.01 34.5265C122.46 34.3165 122.75 33.9565 122.87 33.4365C122.95 33.1465 123.07 32.9265 123.22 32.7665C123.37 32.6065 123.6 32.5265 123.91 32.5265C124.23 32.5265 124.48 32.6165 124.65 32.7865C124.82 32.9565 124.87 33.2065 124.82 33.5365C124.65 34.6365 124.16 35.4465 123.34 35.9865C122.52 36.5265 121.36 36.7865 119.88 36.7865H117.72C116.01 36.7865 114.74 36.3765 113.92 35.5565C113.1 34.7365 112.69 33.4765 112.69 31.7765V28.7465C112.69 27.0065 113.1 25.7265 113.92 24.9165C114.74 24.1065 116.01 23.7065 117.72 23.7265H119.88C121.59 23.7265 122.86 24.1365 123.68 24.9465C124.5 25.7565 124.91 27.0265 124.91 28.7465V30.0665C124.91 30.7165 124.59 31.0465 123.95 31.0465H114.63L114.62 31.0265ZM117.72 25.6465C116.53 25.6265 115.72 25.8365 115.28 26.2765C114.84 26.7165 114.62 27.5365 114.62 28.7265V29.0865H122.97V28.7265C122.97 27.5365 122.75 26.7265 122.32 26.2965C121.88 25.8565 121.07 25.6465 119.89 25.6465H117.73H117.72Z" fill="white"/>
<path d="M130.64 42.0465C129.99 42.0465 129.66 41.7165 129.66 41.0665V24.6665C129.66 24.0265 129.99 23.7065 130.64 23.7065C131.29 23.7065 131.6 24.0265 131.6 24.6665V25.2865C132.05 24.7565 132.63 24.3665 133.34 24.0965C134.05 23.8265 134.89 23.6965 135.86 23.6965H136.86C138.57 23.6965 139.84 24.1065 140.66 24.9265C141.48 25.7465 141.89 27.0065 141.89 28.7265V31.7365C141.89 33.4465 141.48 34.7165 140.66 35.5365C139.84 36.3565 138.58 36.7665 136.86 36.7665H131.6V41.0665C131.6 41.7165 131.28 42.0465 130.64 42.0465ZM131.6 34.8365H136.86C138.05 34.8365 138.86 34.6165 139.29 34.1765C139.72 33.7365 139.94 32.9265 139.94 31.7365V28.7265C139.94 27.5365 139.72 26.7265 139.29 26.2965C138.86 25.8665 138.04 25.6465 136.86 25.6465H135.86C134.66 25.6465 133.66 25.8065 132.88 26.1265C132.1 26.4465 131.67 26.9465 131.6 27.6365V34.8365Z" fill="white"/>
<path d="M150.63 36.7766C149.19 36.7766 148.12 36.4266 147.43 35.7366C146.74 35.0466 146.39 33.9766 146.39 32.5366C146.39 31.0966 146.74 30.0266 147.43 29.3366C148.12 28.6466 149.19 28.2966 150.64 28.2966H156.35C156.31 27.2966 156.07 26.6066 155.61 26.2266C155.15 25.8466 154.37 25.6566 153.28 25.6566H151.75C150.79 25.6566 150.08 25.7366 149.62 25.8966C149.16 26.0566 148.85 26.3366 148.69 26.7266C148.57 27.0466 148.43 27.2666 148.29 27.3966C148.15 27.5266 147.92 27.5866 147.62 27.5866C147.29 27.5866 147.04 27.4966 146.86 27.3166C146.68 27.1366 146.62 26.8966 146.69 26.5966C146.9 25.6066 147.42 24.8766 148.25 24.4166C149.08 23.9566 150.24 23.7266 151.75 23.7266H153.28C154.99 23.7266 156.26 24.1366 157.08 24.9566C157.9 25.7766 158.31 27.0366 158.31 28.7566V35.8266C158.31 36.4766 157.99 36.8066 157.35 36.8066C156.71 36.8066 156.37 36.4766 156.37 35.8266V34.9966C155.46 36.1966 154.05 36.8066 152.12 36.8066H150.64L150.63 36.7766ZM150.63 34.8366H152.11C152.82 34.8366 153.48 34.7666 154.07 34.6266C154.67 34.4866 155.17 34.2366 155.57 33.8866C155.97 33.5366 156.23 33.0466 156.35 32.4066V30.2266H150.63C149.72 30.2266 149.11 30.3866 148.8 30.6966C148.48 31.0166 148.33 31.6166 148.33 32.5166C148.33 33.4166 148.49 34.0366 148.8 34.3466C149.12 34.6666 149.73 34.8166 150.63 34.8166V34.8366Z" fill="white"/>
<path d="M166.74 42.0465C165.51 42.0465 164.59 41.7365 163.99 41.1265C163.39 40.5165 163.09 39.5865 163.09 38.3465C163.09 37.7065 163.41 37.3865 164.05 37.3865C164.69 37.3865 165.03 37.7065 165.03 38.3465C165.03 39.0465 165.14 39.5165 165.37 39.7465C165.59 39.9765 166.05 40.0965 166.75 40.0965H171.68C172.37 40.0965 172.84 39.9765 173.06 39.7465C173.29 39.5165 173.4 39.0465 173.4 38.3465V34.9065C172.88 35.6665 172.26 36.1565 171.54 36.4065C170.82 36.6465 170.02 36.7665 169.14 36.7665H168.03C166.33 36.7665 165.08 36.3665 164.28 35.5665C163.48 34.7665 163.08 33.5265 163.08 31.8465V24.6565C163.08 24.0065 163.4 23.6765 164.04 23.6765C164.68 23.6765 165.02 24.0065 165.02 24.6565V31.8465C165.02 32.9865 165.23 33.7765 165.66 34.1965C166.09 34.6165 166.87 34.8265 168.03 34.8265H169.14C170.62 34.8265 171.7 34.5765 172.38 34.0865C173.06 33.5965 173.4 32.8465 173.4 31.8465V24.6565C173.4 24.0065 173.72 23.6765 174.36 23.6765C175 23.6765 175.34 24.0065 175.34 24.6565V38.3465C175.34 39.5865 175.04 40.5165 174.43 41.1265C173.82 41.7365 172.9 42.0465 171.67 42.0465H166.74Z" fill="white"/>
<defs>
<linearGradient id="paint0_linear_10_19" x1="15.1402" y1="18.8865" x2="27.8302" y2="-1.90354" gradientUnits="userSpaceOnUse">
<stop offset="0.1" stop-color="#67308F"/>
<stop offset="0.83" stop-color="#EC008C"/>
</linearGradient>
<linearGradient id="paint1_linear_10_19" x1="20.7002" y1="22.2865" x2="33.3902" y2="1.48647" gradientUnits="userSpaceOnUse">
<stop offset="0.1" stop-color="#67308F"/>
<stop offset="0.83" stop-color="#EC008C"/>
</linearGradient>
<linearGradient id="paint2_linear_10_19" x1="-0.0100003" y1="25.8964" x2="25.2" y2="56.2264" gradientUnits="userSpaceOnUse">
<stop offset="0.1" stop-color="#67308F"/>
<stop offset="0.83" stop-color="#EC008C"/>
</linearGradient>
<linearGradient id="paint3_linear_10_19" x1="26.8202" y1="26.0165" x2="39.5102" y2="5.22648" gradientUnits="userSpaceOnUse">
<stop offset="0.1" stop-color="#67308F"/>
<stop offset="0.83" stop-color="#EC008C"/>
</linearGradient>
</defs>
</svg>
