<svg width="232" height="56" viewBox="0 0 232 56" fill="none" xmlns="http://www.w3.org/2000/svg">
<rect x="1" y="1" width="230" height="54" rx="27" fill="url(#paint0_linear_48_4)" stroke="url(#paint1_linear_48_4)" stroke-width="2"/>
<path d="M56.08 35C54.5533 35 53.4233 34.6367 52.69 33.91C51.9633 33.1767 51.6 32.0467 51.6 30.52V25.92C51.6 24.38 51.9633 23.2467 52.69 22.52C53.4167 21.7867 54.54 21.4267 56.06 21.44H58.48C59.7333 21.44 60.69 21.7 61.35 22.22C62.01 22.7333 62.3933 23.5467 62.5 24.66C62.54 24.94 62.4867 25.1533 62.34 25.3C62.1933 25.4467 61.98 25.52 61.7 25.52C61.1933 25.52 60.9 25.24 60.82 24.68C60.7533 24.0667 60.54 23.6533 60.18 23.44C59.8267 23.2267 59.26 23.12 58.48 23.12H56.06C55.3533 23.1133 54.7967 23.1933 54.39 23.36C53.99 23.5267 53.7033 23.8167 53.53 24.23C53.3633 24.6367 53.28 25.2 53.28 25.92V30.52C53.28 31.2333 53.3633 31.7933 53.53 32.2C53.7033 32.6067 53.9933 32.8967 54.4 33.07C54.8067 33.2367 55.3667 33.32 56.08 33.32H58.48C59.1 33.32 59.5833 33.2533 59.93 33.12C60.2833 32.98 60.53 32.7367 60.67 32.39C60.81 32.0433 60.88 31.5533 60.88 30.92V29.98L59.32 29.96C58.76 29.96 58.48 29.68 58.48 29.12C58.48 28.56 58.76 28.28 59.32 28.28L61.72 28.3C62.28 28.3 62.56 28.58 62.56 29.14V30.92C62.56 32.34 62.23 33.3767 61.57 34.03C60.91 34.6767 59.88 35 58.48 35H56.08ZM66.8848 35C66.3248 35 66.0448 34.72 66.0448 34.16V22.28C66.0448 21.72 66.3248 21.44 66.8848 21.44H74.0648C74.6248 21.44 74.9048 21.72 74.9048 22.28C74.9048 22.84 74.6248 23.12 74.0648 23.12H67.7248V27.32H71.7048C72.2648 27.32 72.5448 27.6 72.5448 28.16C72.5448 28.72 72.2648 29 71.7048 29H67.7248V33.32H74.0648C74.6248 33.32 74.9048 33.6 74.9048 34.16C74.9048 34.72 74.6248 35 74.0648 35H66.8848ZM82.1556 35C81.8756 35 81.6656 34.93 81.5256 34.79C81.3856 34.65 81.3156 34.44 81.3156 34.16V23.14H77.4356C77.1556 23.14 76.9456 23.07 76.8056 22.93C76.6656 22.79 76.5956 22.58 76.5956 22.3C76.5956 22.02 76.6656 21.81 76.8056 21.67C76.9456 21.53 77.1556 21.46 77.4356 21.46H86.8756C87.1556 21.46 87.3656 21.53 87.5056 21.67C87.6456 21.81 87.7156 22.02 87.7156 22.3C87.7156 22.58 87.6456 22.79 87.5056 22.93C87.3656 23.07 87.1556 23.14 86.8756 23.14H82.9956V34.16C82.9956 34.4267 82.9223 34.6333 82.7756 34.78C82.6356 34.9267 82.429 35 82.1556 35ZM100.06 35C98.9198 35 98.0298 34.77 97.3898 34.31C96.7565 33.85 96.3598 33.14 96.1998 32.18C96.1732 31.8867 96.2332 31.6667 96.3798 31.52C96.5265 31.3733 96.7398 31.3 97.0198 31.3C97.2998 31.3 97.5032 31.3667 97.6298 31.5C97.7632 31.6333 97.8532 31.84 97.8998 32.12C97.9998 32.58 98.2132 32.8967 98.5398 33.07C98.8732 33.2367 99.3798 33.32 100.06 33.32H102.94C103.8 33.32 104.383 33.1667 104.69 32.86C105.003 32.5467 105.16 31.9667 105.16 31.12C105.16 30.26 105 29.6733 104.68 29.36C104.36 29.04 103.78 28.88 102.94 28.88H100.46C99.1998 28.88 98.2632 28.5733 97.6498 27.96C97.0432 27.34 96.7398 26.4 96.7398 25.14C96.7398 23.8867 97.0398 22.9567 97.6398 22.35C98.2465 21.7433 99.1798 21.44 100.44 21.44H102.82C103.88 21.44 104.71 21.6567 105.31 22.09C105.917 22.5233 106.3 23.1867 106.46 24.08C106.5 24.3667 106.447 24.5867 106.3 24.74C106.153 24.8867 105.933 24.96 105.64 24.96C105.373 24.96 105.173 24.89 105.04 24.75C104.907 24.61 104.82 24.4067 104.78 24.14C104.673 23.7467 104.47 23.48 104.17 23.34C103.87 23.1933 103.42 23.12 102.82 23.12H100.44C99.6398 23.12 99.1032 23.2633 98.8298 23.55C98.5565 23.83 98.4198 24.36 98.4198 25.14C98.4198 25.9267 98.5598 26.4667 98.8398 26.76C99.1198 27.0533 99.6598 27.2 100.46 27.2H102.94C104.253 27.2 105.23 27.52 105.87 28.16C106.517 28.8 106.84 29.7867 106.84 31.12C106.84 32.4467 106.52 33.4267 105.88 34.06C105.24 34.6867 104.26 35 102.94 35H100.06ZM113.581 35C113.301 35 113.091 34.93 112.951 34.79C112.811 34.65 112.741 34.44 112.741 34.16V23.14H108.861C108.581 23.14 108.371 23.07 108.231 22.93C108.091 22.79 108.021 22.58 108.021 22.3C108.021 22.02 108.091 21.81 108.231 21.67C108.371 21.53 108.581 21.46 108.861 21.46H118.301C118.581 21.46 118.791 21.53 118.931 21.67C119.071 21.81 119.141 22.02 119.141 22.3C119.141 22.58 119.071 22.79 118.931 22.93C118.791 23.07 118.581 23.14 118.301 23.14H114.421V34.16C114.421 34.4267 114.348 34.6333 114.201 34.78C114.061 34.9267 113.855 35 113.581 35ZM119.565 34.92C119.032 34.7133 118.872 34.3467 119.085 33.82L123.845 22.1C124.045 21.66 124.358 21.44 124.785 21.44H124.825C125.258 21.46 125.552 21.68 125.705 22.1L130.545 33.82C130.758 34.3467 130.605 34.7133 130.085 34.92C129.558 35.1267 129.192 34.9733 128.985 34.46L127.905 31.84H121.675L120.645 34.46C120.438 34.98 120.078 35.1333 119.565 34.92ZM122.335 30.16H127.215L124.725 24.1L122.335 30.16ZM142.245 35.04C142.025 35.18 141.815 35.2233 141.615 35.17C141.415 35.1167 141.245 34.98 141.105 34.76L138.005 29.6H135.205V34.16C135.205 34.72 134.925 35 134.365 35C133.805 35 133.525 34.72 133.525 34.16V22.28C133.525 21.72 133.805 21.44 134.365 21.44H139.045C140.265 21.44 141.199 21.7667 141.845 22.42C142.499 23.0667 142.825 24 142.825 25.22V25.82C142.825 26.88 142.579 27.7267 142.085 28.36C141.592 28.9867 140.879 29.3767 139.945 29.53L142.565 33.9C142.819 34.3667 142.712 34.7467 142.245 35.04ZM135.205 27.92H139.045C139.805 27.92 140.345 27.76 140.665 27.44C140.985 27.12 141.145 26.58 141.145 25.82V25.22C141.145 24.4667 140.985 23.93 140.665 23.61C140.345 23.2833 139.805 23.12 139.045 23.12H135.205V27.92ZM149.695 35C149.415 35 149.205 34.93 149.065 34.79C148.925 34.65 148.855 34.44 148.855 34.16V23.14H144.975C144.695 23.14 144.485 23.07 144.345 22.93C144.205 22.79 144.135 22.58 144.135 22.3C144.135 22.02 144.205 21.81 144.345 21.67C144.485 21.53 144.695 21.46 144.975 21.46H154.415C154.695 21.46 154.905 21.53 155.045 21.67C155.185 21.81 155.255 22.02 155.255 22.3C155.255 22.58 155.185 22.79 155.045 22.93C154.905 23.07 154.695 23.14 154.415 23.14H150.535V34.16C150.535 34.4267 150.461 34.6333 150.315 34.78C150.175 34.9267 149.968 35 149.695 35ZM158.76 35C158.2 35 157.92 34.72 157.92 34.16V22.28C157.92 21.72 158.2 21.44 158.76 21.44H165.94C166.5 21.44 166.78 21.72 166.78 22.28C166.78 22.84 166.5 23.12 165.94 23.12H159.6V27.32H163.58C164.14 27.32 164.42 27.6 164.42 28.16C164.42 28.72 164.14 29 163.58 29H159.6V33.32H165.94C166.5 33.32 166.78 33.6 166.78 34.16C166.78 34.72 166.5 35 165.94 35H158.76ZM170.811 35C170.251 35 169.971 34.72 169.971 34.16V22.28C169.971 21.72 170.251 21.44 170.811 21.44H175.631C177.371 21.44 178.651 21.8533 179.471 22.68C180.297 23.5 180.711 24.78 180.711 26.52V29.92C180.711 31.66 180.301 32.9433 179.481 33.77C178.667 34.59 177.384 35 175.631 35H170.811ZM171.651 33.32H175.631C176.484 33.32 177.157 33.2167 177.651 33.01C178.151 32.7967 178.504 32.4433 178.711 31.95C178.924 31.45 179.031 30.7733 179.031 29.92V26.52C179.031 25.6733 178.924 25.0033 178.711 24.51C178.504 24.01 178.151 23.6533 177.651 23.44C177.157 23.2267 176.484 23.12 175.631 23.12H171.651V33.32Z" fill="white"/>
<defs>
<linearGradient id="paint0_linear_48_4" x1="8.64267e-07" y1="56" x2="231.507" y2="-1.96883" gradientUnits="userSpaceOnUse">
<stop stop-color="#673091"/>
<stop offset="1" stop-color="#EC008C"/>
</linearGradient>
<linearGradient id="paint1_linear_48_4" x1="3.08668e-07" y1="28" x2="232" y2="28" gradientUnits="userSpaceOnUse">
<stop stop-color="#6D2F91"/>
<stop offset="1" stop-color="#E6038D"/>
</linearGradient>
</defs>
</svg>
