<svg width="698" height="467" viewBox="0 0 698 467" fill="none" xmlns="http://www.w3.org/2000/svg">
<path opacity="0.6" d="M8.97197 303.948L417.016 68.3867C427.826 62.1312 445.362 62.1312 456.172 68.3867L689.744 203.232C700.553 209.488 700.553 219.591 689.744 225.846L281.699 461.407C270.89 467.663 253.354 467.663 242.544 461.407L8.97197 326.562C-1.83766 320.306 -1.83766 310.203 8.97197 303.948Z" fill="#020230" fill-opacity="0.3"/>
<path d="M697.857 158.502V151.069L696.077 152.875C694.742 150.807 692.648 148.87 689.769 147.195L456.197 12.3494C445.387 6.09397 427.851 6.09397 417.042 12.3494L8.9712 247.911C6.38003 249.402 4.41703 251.13 3.05601 252.962L0.857437 251.967V259.087C0.80509 263.222 3.50096 267.357 8.94503 270.524L242.517 405.37C253.327 411.625 270.863 411.625 281.672 405.37L689.717 169.809C695.082 166.72 697.778 162.664 697.83 158.607V158.528L697.857 158.502Z" fill="url(#paint0_radial_10_126)"/>
<path d="M8.97192 240.346L417.042 4.7851C427.852 -1.47036 445.388 -1.47036 456.198 4.7851L689.77 139.631C700.579 145.886 700.579 155.989 689.77 162.245L281.725 397.806C270.916 404.061 253.38 404.061 242.57 397.806L8.9981 262.96C-1.81154 256.705 -1.81154 246.602 8.9981 240.346H8.97192Z" fill="url(#paint1_radial_10_126)"/>
<path d="M689.769 156.355L281.725 391.917C270.915 398.172 253.379 398.172 242.57 391.917L8.99765 257.071C4.88842 254.689 2.34959 251.784 1.355 248.722C-0.267754 253.721 2.27108 259.086 8.99765 262.96L242.57 397.806C253.379 404.061 270.915 404.061 281.725 397.806L689.769 162.244C696.47 158.371 699.008 153.005 697.412 148.006C696.417 151.068 693.878 154 689.769 156.355Z" fill="#FFE7D7"/>
<path d="M228.724 277.12L272.669 251.758C277.851 248.774 277.197 243.539 271.229 240.084L246.103 225.584C240.109 222.129 231.053 221.763 225.871 224.747L181.926 250.109C176.743 253.093 177.397 258.327 183.365 261.782L208.492 276.282C214.485 279.737 223.541 280.104 228.724 277.12Z" fill="url(#paint2_radial_10_126)"/>
<path d="M114.241 250.92L87.7014 235.608L94.1924 231.866C95.4226 231.159 96.6004 230.609 97.7259 230.191C98.8513 229.798 100.029 229.536 101.259 229.405C102.463 229.301 103.72 229.405 104.976 229.693C106.232 230.007 107.489 230.531 108.745 231.264C112.017 233.174 112.54 234.98 110.341 236.682C112.2 235.949 114.058 235.661 115.916 235.844C117.775 236.027 119.659 236.655 121.622 237.781C124.161 239.22 125.444 240.686 125.47 242.178C125.496 243.67 124.318 245.109 121.884 246.523L114.267 250.92H114.241ZM103.353 239.063L104.845 238.2C106.258 237.388 106.939 236.629 106.86 235.975C106.782 235.321 106.023 234.562 104.583 233.75C103.824 233.331 103.144 233.017 102.489 232.86C101.861 232.703 101.207 232.651 100.553 232.756C99.8982 232.86 99.2962 233.043 98.6943 233.279C98.0923 233.515 97.4118 233.907 96.548 234.378L95.8675 234.771L103.301 239.063H103.353ZM115.655 246.183L117.434 245.162C118.874 244.324 119.528 243.565 119.424 242.859C119.319 242.152 118.481 241.34 116.937 240.451C115.341 239.535 113.875 239.037 112.514 238.985C111.153 238.933 109.766 239.325 108.3 240.189L106.782 241.079L115.681 246.209L115.655 246.183Z" fill="#FFE7D7"/>
<path d="M131.045 241.236L109.896 222.81L114.948 219.905L146.853 232.128L142.352 234.719L135.128 231.787L130.521 234.431L135.599 238.619L131.045 241.262V241.236ZM127.904 232.311L131.463 230.269L118.795 225.008L127.93 232.337L127.904 232.311Z" fill="#FFE7D7"/>
<path d="M149.445 230.583L122.905 215.272L126.229 213.361L147.77 218.282L132.746 209.592L136.751 207.289L163.29 222.6L160.123 224.433L137.771 219.093L153.58 228.202L149.471 230.557L149.445 230.583Z" fill="#FFE7D7"/>
<path d="M167.243 220.323L140.703 205.012L145.545 202.211L157.061 208.859L150.753 199.201L155.36 196.532L162.165 206.321L182.423 211.555L177.607 214.33L160.542 209.775L161.301 211.32L172.059 217.523L167.217 220.323H167.243Z" fill="#FFE7D7"/>
<path opacity="0.4" d="M324.964 294.63C322.661 293.295 318.97 293.295 316.667 294.63L278.192 316.851L274.868 318.762L247.752 334.414C245.449 335.749 245.449 337.869 247.752 339.203C250.056 340.538 253.746 340.538 256.049 339.203L283.165 323.552L286.489 321.641L324.964 299.42C327.267 298.085 327.267 295.965 324.964 294.63Z" fill="#06033E"/>
<path opacity="0.4" d="M414.399 242.623C412.095 241.288 408.405 241.288 406.102 242.623L367.627 264.844L364.303 266.755L337.187 282.407C334.884 283.741 334.884 285.861 337.187 287.196C339.49 288.531 343.181 288.531 345.484 287.196L372.6 271.545L375.924 269.634L414.399 247.413C416.702 246.078 416.702 243.958 414.399 242.623Z" fill="#06033E"/>
<path opacity="0.4" d="M503.834 190.617C501.53 189.282 497.84 189.282 495.537 190.617L457.062 212.838L453.738 214.749L426.622 230.4C424.319 231.735 424.319 233.855 426.622 235.19C428.925 236.525 432.616 236.525 434.919 235.19L462.035 219.538L465.359 217.628L503.834 195.406C506.137 194.071 506.137 191.951 503.834 190.617Z" fill="#06033E"/>
<path opacity="0.4" d="M593.294 138.584C590.991 137.249 587.301 137.249 584.997 138.584L546.522 160.805L543.198 162.716L516.083 178.367C513.779 179.702 513.779 181.822 516.083 183.157C518.386 184.492 522.076 184.492 524.38 183.157L551.495 167.505L554.819 165.595L593.294 143.373C595.598 142.039 595.598 139.918 593.294 138.584Z" fill="#06033E"/>
<path d="M423.062 64.7223C420.758 63.3875 417.068 63.3875 414.765 64.7223L395.108 76.0816L391.784 77.9923L364.669 93.644C362.365 94.9788 362.365 97.0989 364.669 98.4337C366.972 99.7686 370.662 99.7686 372.966 98.4337L400.081 82.782L403.405 80.8713L423.062 69.5121C425.365 68.1772 425.365 66.0572 423.062 64.7223Z" fill="#FFE7D7"/>
<path d="M354.749 104.794C352.446 103.459 348.755 103.459 346.452 104.794L326.796 116.153L323.472 118.064L320.645 119.713C318.342 121.048 318.342 123.168 320.645 124.502C322.948 125.837 326.639 125.837 328.942 124.502L331.769 122.854L335.093 120.943L354.749 109.584C357.052 108.249 357.052 106.129 354.749 104.794Z" fill="#FFE7D7"/>
<path d="M290.598 356.006L305.622 347.317C307.009 346.506 306.852 345.118 305.229 344.176C303.607 343.234 301.172 343.155 299.785 343.941L284.762 352.63C283.374 353.441 283.531 354.829 285.154 355.771C286.777 356.713 289.211 356.792 290.598 356.006Z" fill="#FFE7D7"/>
<path d="M314.023 342.475L320.043 338.994C321.43 338.182 321.273 336.795 319.65 335.853C318.028 334.911 315.594 334.832 314.206 335.617L308.186 339.098C306.799 339.91 306.956 341.323 308.579 342.239C310.202 343.182 312.636 343.26 314.023 342.475Z" fill="#FFE7D7"/>
<defs>
<radialGradient id="paint0_radial_10_126" cx="0" cy="0" r="1" gradientUnits="userSpaceOnUse" gradientTransform="translate(-10.8159 240.739) scale(440.97 440.97)">
<stop stop-color="#E39A65"/>
<stop offset="0.47" stop-color="#A92FFB"/>
<stop offset="0.57" stop-color="#881BFA"/>
<stop offset="0.68" stop-color="#6507FA"/>
<stop offset="0.74" stop-color="#0D0C6F"/>
</radialGradient>
<radialGradient id="paint1_radial_10_126" cx="0" cy="0" r="1" gradientUnits="userSpaceOnUse" gradientTransform="translate(1415.68 -626.508) rotate(150) scale(786.172 786.172)">
<stop stop-color="#E39A65"/>
<stop offset="0.4" stop-color="#A92FFB"/>
<stop offset="0.55" stop-color="#881BFA"/>
<stop offset="0.73" stop-color="#6507FA"/>
<stop offset="1" stop-color="#3919BB"/>
</radialGradient>
<radialGradient id="paint2_radial_10_126" cx="0" cy="0" r="1" gradientUnits="userSpaceOnUse" gradientTransform="translate(1325.85 -397.317) rotate(150) scale(401.318 397.304)">
<stop stop-color="#E39A65"/>
<stop offset="0.14" stop-color="#D47E8C"/>
<stop offset="0.4" stop-color="#A92FFB"/>
<stop offset="0.56" stop-color="#861AFA"/>
<stop offset="0.73" stop-color="#6507FA"/>
<stop offset="1" stop-color="#3919BB"/>
</radialGradient>
</defs>
</svg>
