<svg width="399" height="255" viewBox="0 0 399 255" fill="none" xmlns="http://www.w3.org/2000/svg">
<path opacity="0.4" d="M398.963 186.284C392.655 179.27 387.316 172.412 382.762 165.764L225.172 74.7851C214.362 68.5296 196.826 68.5296 186.016 74.7851L47.3491 154.824C34.6027 183.091 28.2687 215.886 35.7019 252.293C255.035 267.16 398.963 186.258 398.963 186.258V186.284Z" fill="#06033E"/>
<path d="M340.674 149.248C300.551 91.3266 326.593 50.1295 326.593 50.1295C326.593 50.1295 239.697 68.4248 122.885 33.5094C122.885 33.5094 8.29774 101.456 13.2707 207.092L3.66504 210.102L16.0451 229.418C220.905 243.316 355.358 167.727 355.358 167.727L366.926 144.066L340.674 149.222V149.248Z" fill="url(#paint0_linear_17_9)"/>
<path d="M336.095 18.1718C336.095 18.1718 243.074 37.7495 118.018 0.400024C118.018 0.400024 -22.1151 83.5007 3.63956 210.128C222.973 224.994 366.901 144.092 366.901 144.092C302.174 71.8797 336.095 18.1718 336.095 18.1718Z" fill="url(#paint1_radial_17_9)"/>
<path d="M363.995 140.716C346.799 149.824 207.792 219.603 2.85376 205.783C3.11549 207.223 3.35106 208.662 3.63897 210.128C222.973 224.995 366.9 144.092 366.9 144.092C365.88 142.967 364.963 141.842 363.995 140.716Z" fill="#FFE7D7"/>
<path opacity="0.2" d="M310.471 34.7657C310.471 34.7657 231.086 50.2342 123.644 17.3604C123.644 17.3604 4.63374 85.8563 28.1113 192.88C215.984 207.851 338.241 141.265 338.241 141.265C282.046 79.6793 310.471 34.7919 310.471 34.7919V34.7657Z" fill="url(#paint2_radial_17_9)"/>
<path d="M123.644 24.558C217.921 53.4273 290.579 45.0518 306.963 42.5653C308.717 37.5139 310.47 34.7918 310.47 34.7918C310.47 34.7918 231.086 50.2603 123.644 17.3865C123.644 17.3865 22.2484 75.7533 25.1013 168.905C27.4831 79.941 123.644 24.5842 123.644 24.5842V24.558Z" fill="#06033E"/>
<path d="M303.377 68.8436C302.514 86.9295 307.905 112.998 333.87 143.464C336.749 142.051 338.241 141.239 338.241 141.239C312.041 112.527 304.241 87.4268 303.377 68.8436Z" fill="#06033E"/>
<defs>
<linearGradient id="paint0_linear_17_9" x1="-222.762" y1="132.34" x2="381.767" y2="132.34" gradientUnits="userSpaceOnUse">
<stop stop-color="#5B04F7"/>
<stop offset="1" stop-color="#2D0979"/>
</linearGradient>
<radialGradient id="paint1_radial_17_9" cx="0" cy="0" r="1" gradientUnits="userSpaceOnUse" gradientTransform="translate(65.9062 -1.56298) scale(526.688 526.688)">
<stop stop-color="#E39A65"/>
<stop offset="0.4" stop-color="#A92FFB"/>
<stop offset="0.55" stop-color="#881BFA"/>
<stop offset="0.73" stop-color="#6507FA"/>
<stop offset="1" stop-color="#3919BB"/>
</radialGradient>
<radialGradient id="paint2_radial_17_9" cx="0" cy="0" r="1" gradientUnits="userSpaceOnUse" gradientTransform="translate(332.561 182.096) scale(763.48 763.48)">
<stop stop-color="#E39A65"/>
<stop offset="0.4" stop-color="#A92FFB"/>
<stop offset="0.56" stop-color="#861AFA"/>
<stop offset="0.73" stop-color="#6507FA"/>
<stop offset="1" stop-color="#3919BB"/>
</radialGradient>
</defs>
</svg>
